<svg width="18" height="13" viewBox="0 0 18 13" fill="none" xmlns="http://www.w3.org/2000/svg">
<path d="M1.18385 7.21905C0.938711 6.77079 0.938715 6.22908 1.18387 5.78082C2.74167 2.93236 5.76974 1 9.24997 1C12.7303 1 15.7584 2.93242 17.3161 5.78095C17.5613 6.22922 17.5613 6.77092 17.3161 7.21918C15.7583 10.0676 12.7303 12 9.25003 12C5.76975 12 2.74164 10.0676 1.18385 7.21905Z" stroke="#0E4C9A"/>
<path d="M6.5 6.5C6.5 8.01878 7.73122 9.25 9.25 9.25C10.7688 9.25 12 8.01878 12 6.5C12 4.98122 10.7688 3.75 9.25 3.75" stroke="#0E4C9A" stroke-linecap="round"/>
</svg>
