<svg width="235" height="276" viewBox="0 0 235 276" fill="none" xmlns="http://www.w3.org/2000/svg">
<g clip-path="url(#clip0_1_1015)">
<path d="M85.7409 148.235H110.04C116.585 148.235 122.731 145.689 127.349 141.066C131.973 136.441 134.52 130.292 134.52 123.752V96.3933H134.543V35.1514C134.543 21.6389 123.551 10.646 110.041 10.646H24.5013C10.9911 10.646 0 21.6389 0 35.1514V123.752C0 136.5 9.94115 147.235 22.6393 148.195C23.6879 148.271 24.5079 149.157 24.504 150.213L24.4264 184.213L65.4434 148.754C65.8139 148.434 66.2844 148.258 66.7666 148.258H85.7409V148.235ZM66.6602 136.872C60.3709 136.872 55.2538 131.754 55.2538 125.463C55.2538 122.416 56.4392 119.55 58.593 117.396C60.7468 115.242 63.6115 114.056 66.6589 114.056C72.9482 114.056 78.0653 119.174 78.0653 125.465C78.0653 131.755 72.9482 136.873 66.6589 136.873L66.6602 136.872ZM79.7184 92.1218L79.7158 92.1258C78.7262 93.4821 77.9812 95.0751 77.5002 96.8599C77.2124 97.9298 76.9824 99.4807 76.8156 101.469C76.6053 104.079 75.4331 106.495 73.5119 108.272C71.5854 110.056 69.0795 111.037 66.4552 111.037C63.6194 111.037 60.8742 109.857 58.9215 107.8C56.9674 105.741 55.9306 102.933 56.0791 100.1C56.292 95.9636 56.928 92.545 58.0805 89.3434C59.3722 85.7553 61.3513 82.3814 64.1332 79.0325L64.1411 79.0233L64.149 79.0141C66.0347 76.768 69.2043 73.6885 73.8418 69.5971C78.9404 65.106 80.9234 62.5655 81.6869 61.2301C82.6777 59.4913 83.16 57.6447 83.16 55.5864C83.16 51.6961 81.6462 48.334 78.5331 45.3124C75.3806 42.2579 71.6012 40.7741 66.9809 40.7741C62.3605 40.7741 58.9438 42.0976 56.0331 44.8209C53.9016 46.816 52.2577 49.7601 51.1473 53.5716V53.5755L51.1447 53.5795C50.4784 55.848 49.1275 57.7945 47.2365 59.2061C45.3823 60.5914 43.0919 61.3537 40.7843 61.3537C40.3625 61.3537 39.9354 61.3287 39.5123 61.2787C36.3519 60.9028 33.5344 59.1601 31.7828 56.4986C30.0258 53.8266 29.5409 50.5355 30.4529 47.4666C32.4805 40.6571 35.934 35.0673 40.716 30.8497C47.3509 24.9983 56.1159 22.0306 66.7666 22.0306C78.0153 22.0306 87.1982 25.206 94.0605 31.4713C101.012 37.8261 104.536 45.6502 104.536 54.7256C104.536 59.9907 103.28 64.9194 100.804 69.371C98.4114 73.6833 94.0118 78.6435 87.3559 84.533C82.3992 88.9385 80.4674 91.0888 79.721 92.1179L79.7184 92.1218Z" fill="#0E4C9A"/>
<path d="M199.853 100.468H138.593V123.752C138.593 131.38 135.623 138.553 130.228 143.947C124.844 149.339 117.673 152.31 110.039 152.31H89.8133V213.582C89.8133 227.094 100.804 238.087 114.315 238.087H158.029C158.517 238.087 158.99 238.263 159.361 238.584L199.918 273.649L199.851 240.039C199.847 238.984 200.669 238.095 201.722 238.015C214.413 237.057 224.355 226.324 224.355 213.582V124.973C224.355 111.461 213.363 100.468 199.853 100.468ZM157.154 225.801H157.007C150.718 225.801 145.601 220.683 145.601 214.393C145.601 208.102 150.718 202.984 157.007 202.984H157.154C163.443 202.984 168.561 208.102 168.561 214.393C168.561 220.683 163.443 225.801 157.154 225.801ZM169.134 140.083V140.219L169.124 140.355L165.684 191.804C165.539 193.968 164.588 195.977 163.003 197.46C161.418 198.944 159.35 199.762 157.179 199.762C155.008 199.762 152.95 198.947 151.368 197.468C149.789 195.992 148.836 193.992 148.684 191.838L145.038 140.372L145.028 140.228V124.811C145.028 118.164 150.435 112.757 157.081 112.757C160.29 112.757 163.315 114.006 165.597 116.276L165.605 116.284L165.613 116.292C167.882 118.575 169.134 121.601 169.134 124.81V140.084V140.083Z" fill="#43BB9A"/>
<path d="M206.424 89.8217H145.184V28.5798C145.185 12.8212 132.366 0 116.61 0H31.0718C15.3158 0 2.4968 12.8212 2.4968 28.5798V117.181C2.4968 124.376 5.21172 131.27 10.1396 136.592C14.6299 141.44 20.5577 144.551 26.9955 145.478L26.9232 177.634L26.9035 186.567L33.6619 180.725L74.1072 145.762H92.3127V207.012C92.3127 222.77 105.132 235.591 120.888 235.591H163.842L203.826 270.162L210.581 276.003L210.563 267.072L210.499 235.301C224.381 233.306 234.999 221.232 234.999 207.013V118.402C234.999 102.643 222.18 89.8217 206.424 89.8217ZM92.3101 141.686H73.3358C72.8536 141.686 72.3844 141.862 72.0125 142.183L30.9956 177.642L31.0732 143.642C31.0771 142.584 30.2584 141.699 29.2084 141.623C16.5103 140.665 6.56918 129.928 6.56918 117.181V28.5798C6.56918 15.0673 17.5603 4.07438 31.0705 4.07438H116.61C130.121 4.07438 141.112 15.0673 141.112 28.5798V89.8217H141.089V117.181C141.089 123.721 138.543 129.87 133.918 134.494C129.302 139.118 123.155 141.664 116.609 141.664H92.3101V141.686ZM230.925 207.01C230.925 219.753 220.984 230.485 208.292 231.443C207.24 231.524 206.417 232.413 206.421 233.467L206.488 267.077L165.931 232.012C165.56 231.692 165.087 231.516 164.6 231.516H120.885C107.375 231.516 96.3838 220.523 96.3838 207.01V145.738H116.609C124.244 145.738 131.414 142.768 136.799 137.375C142.193 131.98 145.163 124.809 145.163 117.181V93.8961H206.424C219.934 93.8961 230.925 104.889 230.925 118.402V207.01Z" fill="#2B2C2C"/>
<path d="M163.725 196.413H163.578C157.288 196.413 152.171 201.531 152.171 207.821C152.171 214.111 157.288 219.229 163.578 219.229H163.725C170.014 219.229 175.131 214.111 175.131 207.821C175.131 201.531 170.014 196.413 163.725 196.413ZM163.725 215.154H163.578C159.53 215.154 156.245 211.876 156.245 207.82C156.245 203.764 159.53 200.486 163.578 200.486H163.725C167.772 200.486 171.057 203.772 171.057 207.82C171.057 211.868 167.772 215.154 163.725 215.154Z" fill="#2B2C2C"/>
<path d="M73.2307 107.485C70.182 107.485 67.3173 108.672 65.1648 110.825C63.011 112.979 61.8257 115.844 61.8257 118.892C61.8257 125.182 66.9427 130.3 73.232 130.3C79.5213 130.3 84.6384 125.182 84.6384 118.892C84.6384 112.601 79.5213 107.484 73.232 107.484L73.2307 107.485ZM73.2307 126.227C69.1833 126.227 65.898 122.941 65.898 118.893C65.898 116.861 66.7167 115.034 68.044 113.707C69.3712 112.379 71.207 111.561 73.2294 111.561C77.2768 111.561 80.562 114.838 80.562 118.894C80.562 122.95 77.2768 126.228 73.2294 126.228L73.2307 126.227Z" fill="#2B2C2C"/>
<path d="M107.375 62.8007C109.851 58.3491 111.107 53.4217 111.107 48.1553C111.107 39.0799 107.583 31.2558 100.631 24.9011C93.7687 18.6357 84.5871 15.4603 73.3371 15.4603C62.6864 15.4603 53.9214 18.4281 47.2865 24.2794C42.5045 28.497 39.051 34.0881 37.0234 40.8963C36.1114 43.9652 36.5963 47.2563 38.3532 49.9283C40.1049 52.5911 42.9224 54.3339 46.0828 54.7085C46.5059 54.7584 46.933 54.7834 47.3548 54.7834C49.6624 54.7834 51.9528 54.0211 53.807 52.6358C55.698 51.2229 57.0489 49.2777 57.7152 47.0092V47.0053L57.7178 47.0013C58.8282 43.1898 60.4721 40.2457 62.6036 38.2506C65.5143 35.5286 69.0952 34.2038 73.5513 34.2038C78.0074 34.2038 81.951 35.689 85.1036 38.7421C88.2153 41.7638 89.7305 45.1245 89.7305 49.0162C89.7305 51.0744 89.2482 52.921 88.2574 54.6598C87.4939 55.9952 85.5096 58.5358 80.4122 63.0268C75.7748 67.1182 72.6065 70.199 70.7195 72.4439L70.7116 72.4531L70.7037 72.4623C67.9217 75.8125 65.9427 79.185 64.651 82.7731C63.4985 85.9748 62.8625 89.3933 62.6496 93.5294C62.5024 96.3618 63.5379 99.1705 65.492 101.23C67.4447 103.287 70.1899 104.467 73.0257 104.467C75.65 104.467 78.1572 103.485 80.0824 101.702C82.0023 99.9236 83.1758 97.5079 83.386 94.899C83.5529 92.9104 83.7842 91.3595 84.0707 90.2896C84.5503 88.5035 85.2954 86.9105 86.2863 85.5555L86.2889 85.5515L86.2915 85.5476C87.0379 84.5198 88.9696 82.3696 93.9264 77.9627C100.582 72.0732 104.981 67.113 107.375 62.8007ZM91.2207 74.9161C87.0261 78.6448 84.2823 81.3812 82.9958 83.1516C81.7093 84.9128 80.7513 86.9447 80.1363 89.2316C79.7841 90.5433 79.5134 92.3203 79.3255 94.5664C79.064 97.8522 76.3267 100.393 73.0257 100.393C69.4041 100.393 66.5288 97.3528 66.718 93.7397C67.0702 86.8895 68.701 81.2524 73.8378 75.0659C75.558 73.0169 78.6474 70.0189 83.1035 66.0852C87.5688 62.1528 90.4598 59.0142 91.7963 56.6786C93.1314 54.3352 93.8029 51.7867 93.8029 49.0175C93.8029 44.0112 91.8449 39.6109 87.9368 35.8165C84.0207 32.0233 79.2282 30.1294 73.55 30.1294C67.8718 30.1294 63.4893 31.842 59.819 35.275C57.1396 37.7827 55.133 41.3051 53.8057 45.8618C52.9555 48.7599 50.3076 50.7103 47.3548 50.7103C47.0933 50.7103 46.8292 50.6945 46.5637 50.663C42.427 50.1714 39.7396 46.0576 40.9276 42.0595C42.7384 35.9794 45.7529 31.0639 49.9804 27.3352C55.8715 22.1397 63.6536 19.5347 73.3371 19.5347C83.5937 19.5347 91.77 22.3289 97.8818 27.9095C103.986 33.4901 107.033 40.2418 107.033 48.1566C107.033 52.737 105.96 56.9651 103.814 60.824C101.668 64.692 97.4732 69.3868 91.222 74.9174L91.2207 74.9161Z" fill="#2B2C2C"/>
<path d="M172.177 109.71L172.169 109.702C169.886 107.432 166.861 106.182 163.652 106.182C157.006 106.182 151.6 111.591 151.6 118.237V133.654L151.61 133.797L155.255 185.264C155.406 187.418 156.36 189.418 157.94 190.894C159.522 192.373 161.587 193.188 163.751 193.188C165.915 193.188 167.99 192.37 169.575 190.886C171.16 189.404 172.111 187.394 172.256 185.229L175.696 133.78L175.705 133.645V118.236C175.705 115.026 174.456 112.001 172.185 109.718L172.177 109.71ZM171.632 133.51L168.191 184.959C168.036 187.294 166.094 189.113 163.751 189.113C161.408 189.113 159.483 187.302 159.319 184.976L155.673 133.51V118.236C155.673 113.828 159.245 110.255 163.652 110.255C165.856 110.255 167.847 111.148 169.296 112.591C170.738 114.041 171.632 116.032 171.632 118.237V133.511V133.51Z" fill="#2B2C2C"/>
</g>
<defs>
<clipPath id="clip0_1_1015">
<rect width="235" height="276" fill="white"/>
</clipPath>
</defs>
</svg>
