<svg width="53" height="67" viewBox="0 0 53 67" fill="none" xmlns="http://www.w3.org/2000/svg">
<g clip-path="url(#clip0_1_1197)">
<path d="M49.3651 13.4723C49.0245 13.4902 48.6779 13.499 48.327 13.499C40.6968 13.499 30.835 9.32656 25.8473 3.87944L25.1679 3.13623L24.4869 3.87944C19.5005 9.32591 9.63834 13.499 2.00686 13.499C1.65565 13.499 1.30971 13.4902 0.968377 13.4723L-0.000328064 13.4204V40.7007C-0.000328064 41.7271 0.235018 42.7665 0.680695 43.7022C2.82054 48.2081 6.45639 53.0536 10.9191 57.3458C15.4094 61.6638 20.3438 65.0424 24.818 66.8574L25.1676 67L25.5155 66.8574C29.9894 65.0424 34.9257 61.6634 39.4144 57.3458C43.8768 53.0539 47.513 48.2081 49.6545 43.7022C50.0988 42.7665 50.3338 41.7271 50.3338 40.7007V13.4204L49.3651 13.4723ZM44.232 39.9043C44.232 40.5963 44.0733 41.2971 43.7731 41.9307C42.1227 45.403 39.3094 49.148 35.8516 52.4739C32.3896 55.8033 28.5967 58.4055 25.1666 59.8057C21.7355 58.4048 17.9433 55.8026 14.4815 52.4735C11.0231 49.1467 8.21013 45.402 6.56139 41.9294C6.26054 41.2968 6.10156 40.5966 6.10156 39.904V19.2068C6.35172 19.2182 6.6078 19.2241 6.8652 19.2241C9.90364 19.2241 13.4516 18.4245 16.8564 16.9726C20.2404 15.5296 23.1864 13.5656 25.1663 11.4342C27.1468 13.5652 30.0931 15.5296 33.4768 16.9726C36.8812 18.4245 40.4295 19.2241 43.4673 19.2241C43.725 19.2241 43.9815 19.2182 44.231 19.2068V39.9043H44.232Z" fill="#0E4C9A"/>
<path d="M36.1634 24.3457L20.8444 39.5295L14.1711 32.9147L10.5004 36.5528L20.8444 46.8056L39.8338 27.9838L36.1634 24.3457Z" fill="#43BB9A"/>
<path d="M51.9246 10.7791L50.9559 10.831C50.6373 10.8476 50.3062 10.8564 49.9728 10.8564C42.5602 10.8564 33.0176 6.7766 28.2485 1.56862L27.5694 0.826073L26.8143 0L26.0583 0.825094L25.3772 1.5683C20.6091 6.7766 11.0669 10.8564 3.65264 10.8564C3.31921 10.8564 2.98808 10.8479 2.66847 10.831L1.70075 10.7791L0.625397 10.7217V39.0695C0.625397 40.2466 0.894646 41.4338 1.40418 42.5029C3.59471 47.1158 7.30627 52.0658 11.8545 56.4402C16.439 60.8485 21.4899 64.3012 26.0774 66.1622L26.4256 66.3041L26.8147 66.4627L27.2034 66.3034L27.5497 66.1615C32.1398 64.2993 37.1903 60.8469 41.7712 56.4402C46.3181 52.0667 50.0304 47.1168 52.2235 42.502C52.7317 41.4315 53.0003 40.2446 53.0003 39.0695V10.7217L51.925 10.7791H51.9246ZM51.9796 39.0695C51.9796 40.0959 51.7443 41.1353 51.3002 42.071C49.1588 46.5769 45.5229 51.4224 41.0602 55.7146C36.5715 60.0325 31.6355 63.4112 27.1613 65.2262L26.8134 65.3687L26.4638 65.2262C21.9899 63.4112 17.0552 60.0322 12.5649 55.7146C8.1025 51.4227 4.46632 46.5769 2.32647 42.071C1.88047 41.1353 1.64545 40.0959 1.64545 39.0695V11.7892L2.61416 11.841C2.95516 11.859 3.3011 11.8678 3.65264 11.8678C11.2841 11.8678 21.1463 7.69501 26.1323 2.24821L26.8134 1.50501L27.4927 2.24821C32.4808 7.69501 42.3423 11.8678 49.9724 11.8678C50.3233 11.8678 50.6699 11.859 51.0106 11.841L51.9793 11.7892V39.0695H51.9796Z" fill="#2B2C2C"/>
<path d="M45.1138 16.5815C39.1323 16.5815 31.4028 13.3102 27.4927 9.04183L26.8134 8.297L26.1323 9.04183C22.2239 13.3105 14.4934 16.5815 8.51131 16.5815C8.23581 16.5815 7.96327 16.5747 7.69566 16.5603L6.72696 16.5085V38.2728C6.72696 39.1129 6.91984 39.9631 7.28389 40.7288C8.98431 44.3101 11.8736 48.1602 15.4167 51.5683C18.9824 54.9972 22.906 57.6816 26.4635 59.1259L26.813 59.2685L27.1609 59.1259C30.7185 57.6816 34.642 54.9975 38.2077 51.5683C41.7508 48.1602 44.6401 44.3101 46.3422 40.7288C46.7049 39.9631 46.8975 39.1129 46.8975 38.2728V16.5085L45.9287 16.5603C45.6608 16.5744 45.3889 16.5815 45.1131 16.5815H45.1138ZM45.8774 38.2731C45.8774 38.9651 45.7187 39.6659 45.4186 40.2995C43.7682 43.7718 40.9549 47.5169 37.4971 50.8427C34.035 54.1721 30.2422 56.7743 26.812 58.1746C23.3809 56.7736 19.5887 54.1715 16.127 50.8424C12.6686 47.5156 9.85558 43.7708 8.20684 40.2982C7.906 39.6656 7.74701 38.9654 7.74701 38.2728V17.5756C7.99717 17.5871 8.25325 17.5929 8.51065 17.5929C11.5491 17.5929 15.0971 16.7933 18.5018 15.3415C21.8859 13.8984 24.8318 11.9344 26.8117 9.80298C28.7922 11.9341 31.7385 13.8984 35.1222 15.3415C38.5267 16.7933 42.075 17.5929 45.1128 17.5929C45.3705 17.5929 45.6269 17.5871 45.8764 17.5756V38.2731H45.8774Z" fill="#2B2C2C"/>
<path d="M38.5306 21.9992L37.8091 21.2841L37.0876 21.9992L22.4906 36.4679L16.5384 30.5682L15.8169 29.8531L15.0954 30.5682L11.425 34.2063L10.7035 34.9214L11.425 35.6366L21.769 45.8894L22.4906 46.6046L23.2121 45.8894L42.2011 27.0679L42.9226 26.3527L42.2011 25.6376L38.5306 21.9995V21.9992ZM22.4902 45.1743L12.1462 34.9214L15.8166 31.2834L22.4902 37.8982L37.8088 22.7144L41.4792 26.3524L22.4902 45.1739V45.1743Z" fill="#2B2C2C"/>
</g>
<defs>
<clipPath id="clip0_1_1197">
<rect width="53" height="67" fill="white"/>
</clipPath>
</defs>
</svg>
