<svg width="86" height="84" viewBox="0 0 86 84" fill="none" xmlns="http://www.w3.org/2000/svg">
<g clip-path="url(#clip0_1_1224)">
<path d="M41.5216 77.9504C41.5216 77.9504 41.4948 77.9504 41.488 77.9504C41.1655 77.9302 40.9236 77.6536 40.9437 77.3367C42.1331 57.5085 42.6102 37.3903 42.3549 17.5351C42.3549 17.2114 42.6103 16.9484 42.9261 16.9417H42.9328C43.2486 16.9417 43.5107 17.1979 43.5107 17.5149C43.7661 37.397 43.2889 57.5422 42.0928 77.3974C42.0727 77.7076 41.8173 77.9437 41.5149 77.9437L41.5216 77.9504Z" fill="#2B2C2C"/>
<path d="M42.4893 58.7898C44.9487 52.5109 47.5762 45.9892 52.9991 41.2884C58.6235 36.4123 63.5155 35.7986 70.1144 31.9341C69.691 38.7458 65.7062 45.9487 59.9003 50.5955C54.0944 55.2423 49.5518 55.8426 42.4893 58.7898Z" fill="#43BB9A"/>
<path d="M42.4893 59.3698C42.3415 59.3698 42.1936 59.3091 42.0794 59.2012C41.9114 59.0393 41.8576 58.7898 41.945 58.574C44.3036 52.5581 46.9714 45.7396 52.616 40.8433C56.1238 37.8016 59.3762 36.3718 62.8234 34.8678C65.0208 33.9034 67.2854 32.912 69.8187 31.4283C70.0069 31.3203 70.2353 31.3203 70.4168 31.435C70.5982 31.5496 70.7057 31.752 70.6923 31.9678C70.2555 38.9346 66.2572 46.2522 60.2564 51.0474C56.0364 54.4262 52.4077 55.7279 48.2146 57.2319C46.4943 57.8523 44.7135 58.4863 42.7043 59.3226C42.6304 59.3563 42.5565 59.3698 42.4826 59.3698H42.4893ZM69.4357 32.9862C67.2316 34.2069 65.2358 35.0837 63.2871 35.9334C59.9272 37.4037 56.7487 38.7997 53.3754 41.7268C48.3355 46.0971 45.7148 52.1737 43.5174 57.7377C45.0495 57.1307 46.454 56.6249 47.8181 56.1325C52.0919 54.6016 55.4652 53.3876 59.5307 50.1369C64.967 45.7868 68.6898 39.2988 69.429 32.9862H69.4357Z" fill="#2B2C2C"/>
<path d="M42.3011 54.2174C38.3969 53.2597 32.9539 53.4823 29.4999 51.5804C21.5773 47.2101 19.8839 40.3444 16.1275 32.6694C20.744 33.9441 25.4546 35.2592 29.3991 37.7749C36.0114 41.9968 38.612 46.4615 42.3079 54.2174H42.3011Z" fill="#43BB9A"/>
<path d="M42.3011 54.7974C42.2541 54.7974 42.2071 54.7974 42.1667 54.7839C40.7757 54.4399 39.1899 54.2578 37.5099 54.0622C34.5599 53.7183 31.5091 53.3608 29.2177 52.0929C22.6188 48.451 20.2736 43.2174 17.5588 37.1611C16.9473 35.792 16.309 34.3689 15.6034 32.9324C15.5026 32.7233 15.5295 32.4805 15.6773 32.3052C15.8251 32.1298 16.0603 32.0556 16.2821 32.1163C20.8919 33.391 25.6562 34.6994 29.715 37.296C36.6431 41.7202 39.2907 46.5491 42.832 53.9746C42.9261 54.1769 42.8992 54.4197 42.7581 54.595C42.6439 54.7299 42.4826 54.8108 42.3079 54.8108L42.3011 54.7974ZM17.2027 33.5731C17.7 34.6252 18.1636 35.6638 18.6206 36.6755C21.248 42.543 23.526 47.6147 29.7822 51.0678C31.872 52.221 34.8086 52.565 37.651 52.9022C38.9211 53.0506 40.1306 53.1922 41.273 53.4013C38.0677 46.7582 35.4201 42.3137 29.09 38.2671C25.5352 35.9943 21.3421 34.7264 17.2094 33.5731H17.2027Z" fill="#2B2C2C"/>
<path d="M42.3011 54.7974C42.2138 54.7974 42.1264 54.7772 42.0458 54.7367C38.3365 52.909 35.3529 50.4541 32.4701 48.0801C29.9636 46.0163 27.3697 43.8851 24.3324 42.1991C24.0502 42.044 23.9494 41.6865 24.1039 41.4032C24.2585 41.12 24.6146 41.0188 24.8969 41.1739C28.0283 42.914 30.6624 45.0789 33.2092 47.1763C36.045 49.5099 38.9748 51.9176 42.5632 53.6913C42.8522 53.833 42.9731 54.1837 42.8253 54.4737C42.7245 54.6827 42.5162 54.7974 42.3011 54.7974Z" fill="#2B2C2C"/>
<path d="M42.8454 0.634043C38.6389 0.364272 34.2643 1.07917 31.2202 4.06688C28.1761 7.0546 26.597 11.5328 26.8994 15.8761C27.6385 26.5995 39.9895 27.7123 43.4569 27.4898C48.0533 27.193 52.4346 24.2255 54.4169 19.9092C56.3993 15.5996 56.8697 9.88045 53.9533 6.17784C51.561 3.14292 48.6043 0.99149 42.8454 0.627299V0.634043Z" fill="white"/>
<path d="M42.4893 28.1102C37.4226 28.1102 27.0136 26.0262 26.3215 15.9233C26.0056 11.317 27.6856 6.73086 30.817 3.65547C33.5856 0.930781 37.651 -0.276446 42.879 0.054024C49.3502 0.465425 52.3338 3.2036 54.4035 5.82713C57.7298 10.0423 56.7689 16.1863 54.9411 20.1655C52.8714 24.6639 48.3758 27.7663 43.4905 28.0832C43.1882 28.1035 42.8522 28.1102 42.4893 28.1102ZM41.2327 1.16683C37.1 1.16683 33.8745 2.27964 31.6301 4.49176C28.7406 7.3311 27.1883 11.5733 27.4773 15.8424C28.2836 27.5505 43.2688 26.93 43.4166 26.9165C47.8181 26.6332 52.0247 23.7264 53.8861 19.6799C55.7139 15.7075 56.2985 10.1165 53.4963 6.55551C51.4871 4.01292 48.8059 1.60521 42.8118 1.22078C42.2743 1.18706 41.7434 1.16683 41.2327 1.16683Z" fill="#2B2C2C"/>
<path d="M41.3805 20.867C39.116 20.867 36.8447 19.9902 35.3663 18.3446C35.1513 18.1018 35.1714 17.7376 35.4066 17.5218C35.6418 17.306 36.0114 17.3262 36.2264 17.5623C38.2491 19.8149 42.2138 20.3746 44.8748 18.7762C45.4326 18.4458 46.1247 17.8927 46.2927 17.1779C46.3733 16.8271 46.3263 16.4157 46.1516 15.9571C45.7282 14.8443 44.6934 13.9339 43.4637 13.5832C42.8723 13.4145 42.2407 13.3606 41.5687 13.3066C40.9908 13.2594 40.3994 13.2122 39.8081 13.0841C38.3902 12.7671 36.885 11.7352 36.9522 10.2178C36.9791 9.58379 37.2815 8.96332 37.8526 8.36308C39.9963 6.12398 43.7661 6.22514 46.165 7.61446C46.4405 7.77633 46.5413 8.13377 46.3801 8.41029C46.2188 8.68681 45.8626 8.78797 45.5871 8.62611C43.3226 7.31772 40.2314 7.56051 38.6926 9.17239C38.4373 9.43542 38.1281 9.84008 38.1147 10.265C38.0811 11.0675 39.0958 11.7352 40.0634 11.9443C40.5742 12.0589 41.105 12.0994 41.6695 12.1466C42.3616 12.2006 43.0806 12.2613 43.7862 12.4636C45.3654 12.9155 46.6825 14.0957 47.2402 15.5457C47.4956 16.2202 47.5627 16.8541 47.4284 17.4409C47.2268 18.3311 46.5548 19.1404 45.4729 19.7879C44.2432 20.523 42.8118 20.8737 41.3738 20.8737L41.3805 20.867Z" fill="#2B2C2C"/>
<path d="M41.73 23.4837C41.4612 23.4837 41.2193 23.2949 41.1588 23.0183C39.8417 16.7731 40.8631 10.4605 41.8509 4.35017C41.9047 4.03319 42.2003 3.81063 42.5162 3.87133C42.832 3.92528 43.047 4.22203 42.9933 4.53901C42.0256 10.5414 41.0244 16.7462 42.2944 22.7755C42.3616 23.0925 42.16 23.4028 41.8442 23.4702C41.8039 23.4769 41.7636 23.4837 41.7232 23.4837H41.73Z" fill="#2B2C2C"/>
<path d="M42.6707 59.3294C42.5027 59.3294 42.3347 59.2552 42.2205 59.1136C42.0189 58.8641 42.0525 58.4999 42.3011 58.2908C44.7673 56.2743 46.7429 54.0824 48.8395 51.7624C52.1927 48.053 55.6534 44.2088 61.7012 40.2634C61.97 40.088 62.3329 40.1622 62.5076 40.432C62.6823 40.7017 62.6084 41.0659 62.3396 41.2413C56.4194 45.1125 53.0058 48.8893 49.7064 52.5514C47.5829 54.9052 45.5737 57.1308 43.0403 59.2013C42.9328 59.289 42.8051 59.3294 42.6707 59.3294Z" fill="#2B2C2C"/>
<path d="M17.458 83.1636C22.1753 74.5916 32.1878 68.171 42.1197 68.2857C52.0516 68.3936 61.5265 74.2746 65.0611 83.4199C60.9822 83.4199 24.1174 83.1703 17.458 83.1703V83.1636Z" fill="white"/>
<path d="M65.0611 83.9999C63.2669 83.9999 55.2905 83.9527 46.0575 83.8987C34.4054 83.8313 21.1942 83.7504 17.458 83.7504C17.2497 83.7504 17.0616 83.6425 16.9608 83.4604C16.8533 83.285 16.8533 83.0624 16.9541 82.8803C21.8864 73.9105 32.1072 67.699 41.8778 67.699C41.9651 67.699 42.0458 67.699 42.1331 67.699C52.6295 67.8136 62.0641 74.0453 65.6121 83.2041C65.6793 83.3862 65.6592 83.5885 65.5516 83.7436C65.4441 83.9055 65.2627 83.9999 65.0745 83.9999H65.0611ZM18.4593 82.5836C23.1833 82.5971 35.2857 82.6645 46.0575 82.732C54.2153 82.7792 61.3921 82.8264 64.1875 82.8331C60.5857 74.5512 51.8231 68.9736 42.1063 68.8657C32.9808 68.7713 23.4051 74.3623 18.4593 82.5836Z" fill="#2B2C2C"/>
<path d="M85.4221 84L0.584617 83.7505C0.262066 83.7505 0.00671387 83.4875 0.00671387 83.1637C0.00671387 82.84 0.268786 82.5837 0.584617 82.5837L85.4221 82.8333C85.7446 82.8333 86 83.0963 86 83.42C86 83.7438 85.7379 84 85.4221 84Z" fill="#2B2C2C"/>
<path d="M25.0917 81.0326C25.0447 81.0326 25.0044 81.0191 24.9641 80.9854L22.5718 78.9553C22.4912 78.8879 22.4777 78.7665 22.5517 78.6788C22.6188 78.5979 22.7398 78.5844 22.8272 78.6586L25.2261 80.6886C25.3068 80.7561 25.3202 80.8775 25.2463 80.9651C25.206 81.0124 25.1522 81.0326 25.0985 81.0326H25.0917Z" fill="#2B2C2C"/>
<path d="M31.3882 81.5451C31.3479 81.5451 31.3075 81.5316 31.2672 81.5047C29.3252 79.9939 27.4235 78.3821 25.6293 76.696C25.5487 76.6218 25.5487 76.5004 25.6226 76.4195C25.6965 76.3385 25.8175 76.3385 25.8981 76.4127C27.6856 78.0853 29.5738 79.6972 31.5091 81.1944C31.5965 81.2619 31.6099 81.3833 31.5427 81.4642C31.5024 81.5114 31.4487 81.5384 31.3882 81.5384V81.5451Z" fill="#2B2C2C"/>
<path d="M37.5704 81.4305C37.5301 81.4305 37.483 81.417 37.4494 81.39C34.7414 79.2251 32.0938 76.9186 29.5873 74.5244C29.5066 74.4502 29.5066 74.3288 29.5806 74.2478C29.6545 74.1669 29.7754 74.1669 29.8561 74.2411C32.3558 76.6286 34.99 78.9284 37.6914 81.0866C37.772 81.154 37.7854 81.2754 37.725 81.3631C37.6846 81.4103 37.6309 81.4373 37.5704 81.4373V81.4305Z" fill="#2B2C2C"/>
<path d="M45.2041 81.7339C45.1571 81.7339 45.11 81.7204 45.0764 81.6867C41.5149 78.5371 37.8661 75.401 34.2374 72.3594C34.1567 72.2919 34.1433 72.1705 34.2105 72.0829C34.2777 72.0019 34.3987 71.9884 34.486 72.0559C38.1214 75.0975 41.7703 78.2336 45.3318 81.39C45.4124 81.4642 45.4191 81.5855 45.3519 81.6665C45.3116 81.7069 45.2579 81.7339 45.2041 81.7339Z" fill="#2B2C2C"/>
<path d="M51.346 80.9112C51.3057 80.9112 51.2586 80.8977 51.225 80.864L39.7006 71.3208C39.6199 71.2534 39.6065 71.132 39.6737 71.0443C39.7409 70.9633 39.8619 70.9499 39.9492 71.0173L51.4737 80.5605C51.5543 80.6279 51.5677 80.7493 51.5005 80.837C51.4602 80.8842 51.4065 80.9044 51.3527 80.9044L51.346 80.9112Z" fill="#2B2C2C"/>
<path d="M57.4274 81.8014C57.3804 81.8014 57.34 81.7879 57.3064 81.7542C53.335 78.4225 49.404 74.9492 45.6207 71.4152C45.5401 71.341 45.5401 71.2196 45.614 71.1387C45.6879 71.0577 45.8089 71.0577 45.8895 71.1252C49.6728 74.6524 53.5971 78.1257 57.5618 81.4507C57.6424 81.5181 57.6559 81.6395 57.5887 81.7272C57.5484 81.7744 57.4946 81.7946 57.4408 81.7946L57.4274 81.8014Z" fill="#2B2C2C"/>
<path d="M61.1972 80.8368C61.1502 80.8368 61.1031 80.8166 61.0628 80.7829L54.1817 74.3488C54.1011 74.2746 54.1011 74.1532 54.175 74.0723C54.2489 73.9914 54.3699 73.9914 54.4505 74.0656L61.3316 80.4996C61.4122 80.5738 61.4122 80.6952 61.3383 80.7761C61.298 80.8166 61.251 80.8368 61.1972 80.8368Z" fill="#2B2C2C"/>
<g opacity="0.13">
<path d="M63.0855 80.6886C61.6542 80.5065 60.2027 80.466 58.7579 80.3716C51.2049 79.886 43.6384 80.1085 36.0853 79.7781C32.8262 79.7781 29.5604 79.859 26.3013 80.0141C24.2249 80.1288 22.1552 80.5132 20.072 80.466C19.4068 80.3446 18.9566 80.6683 18.7617 81.1067C18.6609 81.1202 18.5668 81.1472 18.4727 81.1944C17.3304 81.6193 17.6932 83.4267 18.9162 83.3998C23.3043 83.3525 27.699 83.1907 32.0938 83.1098C33.478 83.0356 34.869 83.13 36.26 83.1098C38.0677 83.0221 39.882 82.9816 41.6896 82.9344C41.9114 82.9479 42.113 82.8804 42.2675 82.7658C42.5699 82.786 42.8723 82.8063 43.1814 82.8197C47.3746 82.9749 51.5812 82.9142 55.7743 83.13C57.9112 83.2514 60.0481 83.3863 62.1918 83.4402C62.81 83.3998 63.4752 83.6088 64.0531 83.3593C64.5638 83.1839 64.8931 82.6376 64.8931 82.1049C64.6781 80.6144 63.744 80.7897 63.0855 80.6953V80.6886Z" fill="#2B2C2C"/>
</g>
<g opacity="0.13">
<path d="M54.4035 16.773C54.007 16.6583 53.6173 16.9146 53.4762 17.2855C53.2477 17.6902 53.0058 18.0814 52.7571 18.4725C52.1255 19.4504 51.85 19.7135 50.9092 20.7588C49.572 22.1684 49.0478 22.5258 47.3813 23.5307C47.3611 23.5442 47.3343 23.551 47.3141 23.5645C46.8168 23.7668 46.3129 23.9624 45.7954 24.104C45.5468 24.2052 44.5187 24.3805 44.1625 24.4345C44.1424 24.4345 44.1222 24.4345 44.1088 24.4412C42.9933 24.5761 41.2596 24.8661 38.659 24.7042C38.6456 24.7042 38.6321 24.7042 38.6187 24.7042C38.4507 24.6773 38.2827 24.6503 38.1147 24.6031C37.5301 24.5019 36.9253 24.0568 36.3541 24.421C35.5545 24.8526 35.7225 26.161 36.6095 26.3701C38.6456 27.1322 39.5326 27.0917 41.2461 27.2536C42.5027 27.3817 43.7728 27.1929 44.9958 26.9029C45.7551 26.714 46.501 26.4578 47.2133 26.134C47.4687 26.0194 47.1394 26.161 47.0453 26.2015C47.7307 25.9047 48.4094 25.5675 48.9873 25.0954C48.947 25.1426 48.7521 25.264 48.7857 25.2573C49.9415 24.4345 51.0839 23.5645 52.0583 22.5258C52.9319 21.5412 53.5971 20.3946 54.2153 19.2346C54.464 18.7356 54.7126 18.2365 54.9209 17.7172C54.8604 17.8655 54.8403 17.906 54.8604 17.8588C55.1091 17.4541 54.8739 16.8876 54.4169 16.7662L54.4035 16.773Z" fill="#2B2C2C"/>
</g>
<g opacity="0.13">
<path d="M66.7142 38.3616C66.5529 38.4492 66.4521 38.6043 66.3715 38.7662C66.0758 39.2923 65.7667 39.8116 65.4509 40.3241C63.7776 43.0084 62.6957 44.7754 60.3236 46.7986C58.7915 48.3229 57.9852 48.8691 56.1977 50.1303C54.5782 51.2499 52.9991 52.4436 51.3124 53.462C49.666 54.4062 48.8126 54.5815 46.9848 55.4178C46.669 55.5932 46.2524 55.6404 46.0374 55.9439C45.5266 56.5374 46.1785 57.5086 46.9244 57.2725C48.4094 56.5981 50.1767 56.072 52.0717 55.0806C54.4505 53.7857 56.6278 52.1536 58.8117 50.5485C60.8545 49.004 62.7696 47.0684 64.3555 45.0586C65.6457 43.1702 66.9359 41.2076 67.8565 39.1169C67.9775 38.5099 67.2383 38.0311 66.7209 38.3548L66.7142 38.3616Z" fill="#2B2C2C"/>
</g>
</g>
<defs>
<clipPath id="clip0_1_1224">
<rect width="86" height="84" fill="white"/>
</clipPath>
</defs>
</svg>
