<svg width="99" height="35" viewBox="0 0 99 35" fill="none" xmlns="http://www.w3.org/2000/svg">
<g clip-path="url(#clip0_0_162)">
<path d="M0.0390625 34.1125C0.235151 33.2333 0.432902 32.3524 0.628991 31.4732C0.658903 31.3377 0.68383 31.2022 0.717065 31.0683C0.74033 30.9741 0.780212 30.9543 0.869948 31.022C1.48646 31.4964 2.20601 31.6996 2.96378 31.8104C3.46397 31.8831 3.95253 31.8401 4.44276 31.7343C5.8187 31.4352 6.02975 30.1131 5.65585 29.3132C5.52789 29.0372 5.32516 28.8224 5.08087 28.6439C4.58733 28.2836 4.04559 28.0026 3.52213 27.6936C2.22429 26.9268 1.54961 25.8112 1.54463 24.2957C1.5413 23.5603 1.58285 22.8348 1.78558 22.1241C2.11628 20.9689 2.77434 20.06 3.84618 19.4815C4.45273 19.1543 5.11079 18.9857 5.80042 18.9262C6.79915 18.8386 7.78458 18.9064 8.76004 19.1279C9.10402 19.2072 9.4264 19.346 9.74048 19.5063C9.86013 19.5675 9.88173 19.6336 9.85348 19.7542C9.67567 20.5045 9.50119 21.2548 9.3267 22.0051C9.28183 22.1968 9.22865 22.3886 9.18711 22.5803C9.16218 22.6943 9.12064 22.7026 9.02592 22.6447C8.67529 22.4266 8.30305 22.2514 7.9009 22.1572C7.05007 21.9556 6.20091 21.906 5.36005 22.2249C4.89476 22.4018 4.69202 22.7621 4.63552 23.2248C4.54911 23.9321 4.88479 24.4114 5.46474 24.7816C6.09954 25.1865 6.79084 25.5055 7.3791 25.9847C8.18174 26.6392 8.66531 27.4705 8.82484 28.4951C8.90295 28.9942 8.9179 29.4933 8.89464 29.9924C8.84811 30.9427 8.66531 31.8699 8.17011 32.6962C7.52368 33.7754 6.54822 34.4282 5.3318 34.7389C4.58733 34.9289 3.8279 34.9917 3.06349 34.9455C2.44032 34.9074 1.83544 34.762 1.2372 34.5802C0.830065 34.4563 0.439549 34.2943 0.0407243 34.1522C0.0407243 34.139 0.0407243 34.1257 0.0407243 34.1125H0.0390625Z" fill="white"/>
<path d="M64.2228 0.0395508C64.831 0.133752 65.4209 0.308934 66.0158 0.462631C66.2983 0.535348 66.5625 0.66095 66.8351 0.763415C66.9414 0.803079 66.9564 0.875796 66.9414 0.96504C66.8318 1.67238 66.7204 2.37972 66.6107 3.0854C66.5642 3.38288 66.5044 3.68036 66.4745 3.98114C66.4579 4.13649 66.4196 4.16128 66.285 4.09022C65.9626 3.92165 65.6286 3.77786 65.2863 3.65226C64.7795 3.46551 64.256 3.34321 63.7176 3.34487C62.5544 3.34652 61.6238 3.83405 60.9275 4.75789C60.2943 5.60075 59.9753 6.5659 59.8074 7.59385C59.7377 8.02354 59.7044 8.45819 59.7011 8.88788C59.6944 9.76214 59.8041 10.6232 60.2661 11.3983C60.6749 12.0841 61.2781 12.494 62.0724 12.6262C62.9532 12.7716 63.7641 12.527 64.5601 12.1965C64.7845 12.1023 65.0038 11.9949 65.2614 11.8775C65.1899 12.3519 65.1234 12.7898 65.0553 13.2278C64.9539 13.8839 64.8509 14.5383 64.7529 15.1944C64.7346 15.32 64.698 15.4159 64.5584 15.4555C63.6312 15.7183 62.689 15.8935 61.7218 15.8571C60.6234 15.8175 59.6047 15.5167 58.7256 14.8457C57.9064 14.221 57.3497 13.398 56.9891 12.4378C56.6451 11.5222 56.4972 10.5769 56.4706 9.60183C56.4407 8.4929 56.5254 7.39553 56.7664 6.31635C57.0788 4.91324 57.6189 3.60103 58.5295 2.46896C59.5083 1.25095 60.7414 0.419662 62.3018 0.117226C62.463 0.0858252 62.6275 0.0659933 62.7903 0.0395508C63.2689 0.0395508 63.7475 0.0395508 64.2261 0.0395508H64.2228Z" fill="white"/>
<path d="M7.7528 9.52934C8.08183 8.50634 8.40089 7.51805 8.71995 6.52976C8.91271 5.93481 9.10714 5.33985 9.29824 4.74489C9.73861 3.37153 10.1773 1.99983 10.6144 0.624815C10.7157 0.304199 10.7124 0.304199 11.0481 0.304199C12.4706 0.304199 13.8914 0.304199 15.3139 0.304199C15.6229 0.304199 15.618 0.304199 15.5698 0.600025C15.4053 1.63789 15.2457 2.67576 15.0795 3.71363C14.9533 4.51187 14.817 5.3068 14.6924 6.10503C14.5262 7.16273 14.3683 8.22043 14.2005 9.27813C14.0509 10.2251 13.8897 11.1704 13.7368 12.1157C13.584 13.0693 13.4377 14.0229 13.2882 14.9765C13.2815 15.0211 13.2732 15.0674 13.2632 15.112C13.2001 15.4238 13.0051 15.5797 12.6783 15.5797C11.874 15.5797 11.0697 15.5797 10.2671 15.5797C10.0327 15.5797 10.0178 15.55 10.0527 15.3252C10.184 14.489 10.3069 13.6511 10.4349 12.8132C10.5446 12.0992 10.6559 11.3853 10.7639 10.6713C10.8802 9.90614 10.9949 9.13931 11.1129 8.37413C11.2242 7.65357 11.3389 6.93466 11.4486 6.21411C11.5383 5.63072 11.6231 5.04568 11.7095 4.46064C11.7178 4.40279 11.7311 4.34495 11.7278 4.28215C11.545 4.82587 11.3622 5.3696 11.1777 5.91167C10.6094 7.58251 10.0394 9.25334 9.46941 10.9225C8.96423 12.4066 8.45573 13.8891 7.95387 15.3731C7.90568 15.5186 7.84586 15.5863 7.67968 15.583C7.08809 15.5731 6.4965 15.5748 5.90657 15.583C5.74372 15.5847 5.69054 15.5301 5.68722 15.3665C5.67392 14.5749 5.66728 13.7833 5.63903 12.9933C5.61742 12.3868 5.65066 11.7786 5.60247 11.1754C5.55594 10.5887 5.61077 10.0003 5.56425 9.41696C5.51439 8.80382 5.57255 8.18903 5.52436 7.5792C5.47783 6.9859 5.53267 6.39094 5.48448 5.80094C5.44294 5.30019 5.47119 4.79943 5.44626 4.2524C5.25017 5.48528 5.06571 6.67354 4.87295 7.86015C4.6968 8.94926 4.50902 10.0367 4.33121 11.1242C4.17833 12.0645 4.03043 13.0049 3.88087 13.9452C3.80111 14.451 3.71802 14.9567 3.63991 15.4624C3.62496 15.5599 3.56846 15.5781 3.48869 15.5781C2.58469 15.5781 1.68235 15.5781 0.778345 15.5781C0.59555 15.5781 0.662021 15.4459 0.673654 15.3682C0.725169 15.0046 0.793301 14.6427 0.851463 14.2791C0.991052 13.3899 1.12732 12.5008 1.26857 11.6133C1.38988 10.8482 1.51617 10.083 1.63914 9.3178C1.78205 8.4171 1.92164 7.51475 2.06622 6.61405C2.20248 5.76458 2.34706 4.91677 2.48166 4.0673C2.62457 3.17983 2.76084 2.29069 2.90209 1.40156C2.9536 1.07764 3.01177 0.753722 3.05829 0.429801C3.07159 0.338905 3.1148 0.304199 3.20121 0.304199C3.24774 0.304199 3.29427 0.304199 3.3408 0.304199C4.67686 0.304199 6.01126 0.304199 7.34733 0.304199C7.6265 0.304199 7.62484 0.304199 7.62817 0.57193C7.64146 1.68582 7.65475 2.80137 7.66805 3.91526C7.67137 4.23918 7.65143 4.5631 7.67137 4.88537C7.7395 5.94637 7.67137 7.00903 7.7179 8.07004C7.73784 8.5427 7.72953 9.01701 7.75446 9.52769L7.7528 9.52934Z" fill="white"/>
<path d="M90.335 4.60423C90.3881 4.27535 90.438 3.98613 90.4829 3.69692C90.5809 3.05404 90.6756 2.41115 90.7737 1.76827C90.8352 1.37328 90.9033 0.978296 90.9615 0.581658C91.0013 0.313927 91.0047 0.305664 91.2639 0.305664C92.1347 0.305664 93.0054 0.305664 93.8745 0.305664C94.1305 0.305664 94.1338 0.307317 94.0972 0.550257C93.9543 1.4774 93.8064 2.40619 93.6652 3.33333C93.5007 4.40426 93.3411 5.47518 93.1749 6.5461C93.037 7.42862 92.8875 8.30949 92.7512 9.19036C92.5966 10.1836 92.4537 11.1769 92.2992 12.1701C92.1613 13.0526 92.015 13.9335 91.8738 14.8144C91.8422 15.016 91.8056 15.2159 91.7874 15.4192C91.7774 15.5366 91.7342 15.5828 91.6179 15.5812C90.7272 15.5795 89.8364 15.5779 88.9474 15.5812C88.7629 15.5812 88.7579 15.4721 88.7746 15.3465C88.8045 15.1052 88.846 14.8656 88.8793 14.6259C88.8859 14.5813 88.8842 14.5351 88.8892 14.4508C88.6632 14.6226 88.502 14.8193 88.3043 14.9763C87.6977 15.4556 87.0081 15.7051 86.237 15.7365C85.4211 15.7696 84.675 15.5647 84.0286 15.0589C83.4768 14.6276 83.078 14.0756 82.7972 13.4377C82.2937 12.2974 82.2156 11.0909 82.282 9.87456C82.3335 8.94742 82.5114 8.03515 82.8304 7.15759C83.1727 6.21722 83.6214 5.33801 84.2895 4.57283C84.8262 3.95969 85.4361 3.45233 86.2121 3.1879C87.4518 2.76482 88.5968 2.93504 89.5971 3.81756C89.858 4.04728 90.0874 4.3084 90.3366 4.59927L90.335 4.60423ZM89.5739 8.31941C89.5872 8.05002 89.5323 7.58397 89.3711 7.12949C89.0604 6.25523 88.2877 5.88008 87.4069 6.18417C86.7422 6.41389 86.3717 6.93613 86.0908 7.53274C85.8731 7.99383 85.7452 8.48302 85.6671 8.98708C85.5374 9.82002 85.4942 10.6546 85.7352 11.4694C86.0077 12.3932 86.5611 12.7386 87.5482 12.5453C88.2428 12.4097 88.6582 11.8991 88.969 11.3157C89.4326 10.4464 89.5656 9.49775 89.5755 8.31775L89.5739 8.31941Z" fill="white"/>
<path d="M81.7002 23.5189C81.8315 22.6282 81.9528 21.7837 82.0791 20.9391C82.1538 20.4318 82.2353 19.9261 82.3051 19.417C82.3233 19.2815 82.3882 19.2435 82.5161 19.2452C83.3603 19.2485 84.2045 19.2485 85.047 19.2452C85.2115 19.2452 85.2398 19.2981 85.2165 19.4617C85.0187 20.7954 84.8343 22.1307 84.6399 23.4644C84.4222 24.9617 84.1928 26.4557 83.9735 27.953C83.7791 29.2801 83.5946 30.6088 83.4035 31.9376C83.2888 32.7309 83.1659 33.5241 83.0545 34.3191C83.0379 34.4364 82.9881 34.4761 82.8751 34.4761C82.0575 34.4744 81.2399 34.4728 80.4239 34.4761C80.2245 34.4761 80.2362 34.3571 80.2528 34.2232C80.2877 33.9439 80.3242 33.6646 80.3674 33.3258C80.1797 33.501 80.0434 33.6547 79.8922 33.7919C79.2873 34.3372 78.591 34.6265 77.7668 34.638C76.9375 34.6496 76.2296 34.372 75.6397 33.8117C75.0082 33.2118 74.6393 32.4565 74.4249 31.6252C74.2671 31.0171 74.1973 30.4006 74.1773 29.771C74.1358 28.4075 74.3302 27.0821 74.7872 25.7963C75.1844 24.6758 75.761 23.6594 76.6484 22.8447C77.1586 22.3753 77.7485 22.0249 78.4414 21.9192C79.3388 21.7837 80.1581 21.977 80.861 22.5918C81.1668 22.8595 81.4094 23.1752 81.6985 23.5173L81.7002 23.5189ZM81.0072 27.4539C80.9673 26.9928 80.9491 26.5086 80.8061 26.0359C80.4605 24.8873 79.3571 24.7981 78.6708 25.2394C78.1922 25.5468 77.918 26.0078 77.7036 26.5103C77.4726 27.054 77.3513 27.6275 77.3015 28.2141C77.2383 28.9413 77.2084 29.6701 77.3979 30.3857C77.6754 31.4302 78.4182 31.7128 79.3022 31.3922C79.8024 31.2104 80.1182 30.8022 80.3641 30.3428C80.8444 29.4454 80.954 28.4687 81.0056 27.4556L81.0072 27.4539Z" fill="white"/>
<path d="M20.8635 14.3997C20.4946 14.7897 20.129 15.1401 19.6604 15.3682C19.0971 15.6442 18.5022 15.7665 17.879 15.783C17.417 15.7946 16.9667 15.7598 16.5396 15.5632C15.6855 15.1698 15.1903 14.484 14.941 13.6064C14.7482 12.9255 14.7466 12.2347 14.8479 11.534C14.951 10.8234 15.177 10.1672 15.5941 9.58055C16.0976 8.87156 16.7739 8.38238 17.5832 8.06341C18.2413 7.80395 18.9259 7.68496 19.6305 7.62546C20.1955 7.57753 20.7539 7.59902 21.3122 7.67008C21.4551 7.68826 21.5465 7.66512 21.5698 7.48664C21.5931 7.29823 21.6396 7.11314 21.6379 6.91977C21.6329 6.39423 21.4285 6.10997 20.9267 5.96123C20.6392 5.87695 20.3434 5.8472 20.0459 5.83563C18.8495 5.7877 17.6846 5.97115 16.5463 6.33639C16.3834 6.38927 16.3502 6.3463 16.3734 6.19426C16.4482 5.72656 16.518 5.26051 16.5911 4.7928C16.6476 4.42922 16.7124 4.06729 16.7656 3.7037C16.7806 3.59628 16.8238 3.54009 16.9268 3.51034C17.7461 3.2707 18.567 3.0476 19.4195 2.95505C19.9014 2.90216 20.3833 2.85423 20.8652 2.88233C21.6562 2.92695 22.4273 3.06082 23.1269 3.47068C23.9278 3.93838 24.3815 4.64737 24.561 5.53154C24.7122 6.27359 24.6723 7.02224 24.5793 7.77089C24.4746 8.62532 24.3366 9.47313 24.2103 10.3243C24.0674 11.2861 23.9162 12.2446 23.7799 13.2065C23.6753 13.9403 23.5839 14.6774 23.4958 15.4144C23.4808 15.545 23.4293 15.5814 23.3097 15.5814C22.5453 15.5781 21.7808 15.5781 21.0181 15.5814C20.8752 15.5814 20.8336 15.5202 20.8369 15.3897C20.8469 15.0674 20.9117 14.7484 20.8635 14.3964V14.3997ZM17.8724 11.848C17.8724 11.9141 17.8707 11.9802 17.8724 12.0463C17.8873 12.5355 18.1831 12.9305 18.655 13.066C19.2184 13.2263 19.9329 12.9371 20.3301 12.4744C20.8868 11.8265 21.0746 11.0399 21.1527 10.2168C21.1593 10.1441 21.1411 10.0863 21.053 10.0764C20.9682 10.0664 20.8835 10.04 20.7987 10.04C20.3484 10.035 19.8997 10.0268 19.4544 10.1177C18.4889 10.316 17.8657 10.8217 17.8707 11.8497L17.8724 11.848Z" fill="white"/>
<path d="M71.9716 14.4079C71.6725 14.6972 71.4049 14.9996 71.0526 15.2095C70.574 15.4954 70.0639 15.6788 69.5088 15.7416C68.987 15.7995 68.4636 15.8342 67.9534 15.6739C66.9248 15.35 66.3432 14.6063 66.0523 13.6114C65.8529 12.9321 65.8596 12.2413 65.956 11.5406C66.1005 10.4862 66.5359 9.5921 67.3336 8.88145C67.9601 8.32451 68.7062 7.99398 69.5171 7.80392C70.255 7.63039 71.0077 7.56263 71.7639 7.6056C71.9849 7.61882 72.2125 7.61056 72.4335 7.6684C72.5615 7.70146 72.6496 7.67171 72.6811 7.50479C72.7426 7.17756 72.7892 6.85364 72.6928 6.52972C72.6197 6.28678 72.4452 6.13474 72.2159 6.03558C71.8752 5.88849 71.5129 5.85378 71.149 5.83891C69.9525 5.78768 68.7893 5.98104 67.6493 6.33636C67.5995 6.35123 67.5479 6.3628 67.4831 6.37933C67.4665 6.143 67.528 5.9265 67.5612 5.71C67.6626 5.04233 67.7739 4.37465 67.872 3.70533C67.8903 3.58468 67.9484 3.53841 68.0548 3.50701C68.874 3.26903 69.6966 3.04922 70.5491 2.95667C71.0177 2.90544 71.4863 2.86082 71.955 2.88396C72.721 2.92197 73.4722 3.04426 74.1518 3.42107C74.9893 3.88547 75.4862 4.60107 75.6757 5.52986C75.8003 6.14135 75.7754 6.75779 75.7272 7.37588C75.6707 8.10305 75.5427 8.82196 75.438 9.54252C75.3283 10.3027 75.207 11.0613 75.0974 11.8215C74.9943 12.5289 74.8963 13.2379 74.7999 13.9469C74.7301 14.4542 74.6636 14.9616 74.5988 15.4689C74.5822 15.5962 74.4875 15.5813 74.4044 15.5813C73.846 15.583 73.2877 15.5813 72.731 15.5813C72.5316 15.5813 72.3322 15.5764 72.1328 15.5813C71.9965 15.5863 71.9433 15.5318 71.945 15.3962C71.9516 15.074 72.0248 14.755 71.9716 14.4063V14.4079ZM71.5162 10.0367C71.0875 10.0086 70.6721 10.0846 70.2616 10.1953C69.9043 10.2912 69.5853 10.4597 69.3393 10.7423C68.9953 11.1423 68.9372 11.6216 68.9854 12.1174C69.0452 12.7355 69.4689 13.109 70.0888 13.099C70.7419 13.0891 71.2404 12.7751 71.606 12.2611C72.043 11.6464 72.1926 10.9341 72.2607 10.2003C72.269 10.1193 72.2242 10.0912 72.1477 10.0697C71.9383 10.0119 71.7256 10.0466 71.5146 10.035L71.5162 10.0367Z" fill="white"/>
<path d="M73.288 27.6985C73.2614 28.9082 73.1451 30.1642 72.7214 31.3723C72.4206 32.2301 71.9835 33.0118 71.3255 33.6464C70.5445 34.3983 69.6022 34.8363 68.5171 34.9536C67.6646 35.0445 66.8271 35.023 66.0128 34.6991C65.1221 34.3438 64.479 33.7241 64.027 32.901C63.6381 32.192 63.447 31.4219 63.3357 30.627C63.246 29.9907 63.2343 29.3511 63.2659 28.7132C63.329 27.4687 63.575 26.259 64.1151 25.122C64.3826 24.5584 64.7183 24.0345 65.1537 23.5866C66.0228 22.6959 67.0597 22.1538 68.3293 22.0513C69.1569 21.9852 69.9446 22.0794 70.6874 22.4414C71.6462 22.9091 72.2893 23.6775 72.7147 24.6361C73.0305 25.3484 73.1867 26.097 73.2498 26.8721C73.2714 27.1299 73.2731 27.3845 73.2847 27.7001L73.288 27.6985ZM70.1589 27.6505C70.1789 27.1861 70.129 26.7284 69.9994 26.2821C69.8881 25.8971 69.7235 25.5384 69.3812 25.2955C68.8461 24.9154 68.0136 25.0278 67.4901 25.6393C67.1195 26.0706 66.8703 26.5713 66.7008 27.1101C66.4548 27.8935 66.3418 28.6934 66.3817 29.518C66.4116 30.1047 66.5014 30.665 66.7722 31.1938C67.2159 32.0631 68.1399 32.1458 68.8461 31.6665C69.2998 31.3574 69.5441 30.8964 69.7285 30.4039C70.0625 29.5164 70.149 28.5876 70.1606 27.6489L70.1589 27.6505Z" fill="white"/>
<path d="M45.4946 10.4712C44.5507 10.4712 43.6085 10.4712 42.6646 10.4712C42.4087 10.4712 42.3904 10.4877 42.3904 10.7406C42.3904 11.3603 42.5184 11.9338 43.0152 12.3635C43.3393 12.6444 43.7248 12.7915 44.1436 12.8626C45.5511 13.1022 46.8805 12.8345 48.1601 12.2461C48.2182 12.2197 48.2797 12.1552 48.3396 12.1982C48.3961 12.2395 48.3395 12.3089 48.3296 12.3651C48.1817 13.279 48.0305 14.193 47.8809 15.1069C47.8576 15.2474 47.7962 15.33 47.6416 15.3713C46.8489 15.5895 46.048 15.7349 45.2254 15.7911C44.4244 15.8473 43.6384 15.7993 42.8624 15.6192C42.0198 15.4242 41.2687 15.0474 40.6655 14.4177C40.0008 13.7253 39.6369 12.8841 39.4524 11.9536C39.3111 11.238 39.2613 10.5174 39.2995 9.79193C39.3876 8.10457 39.7648 6.49653 40.7602 5.08847C41.4017 4.18281 42.2143 3.47382 43.2844 3.09536C43.763 2.92679 44.2632 2.8392 44.7634 2.84581C45.9948 2.86068 47.0982 3.22261 47.9357 4.17785C48.4958 4.81743 48.7932 5.57765 48.9228 6.40563C48.9827 6.78905 49.0225 7.17577 49.0059 7.5658C48.9644 8.49294 48.8381 9.40851 48.637 10.3158C48.6054 10.4613 48.5041 10.4712 48.3828 10.4695C47.4189 10.4679 46.4568 10.4695 45.4929 10.4695L45.4946 10.4712ZM44.343 7.91121C44.7601 7.91121 45.1789 7.91451 45.596 7.91121C46.0995 7.90625 46.023 7.98062 46.0313 7.48647C46.038 7.15594 46.0313 6.83037 45.9001 6.51801C45.4697 5.49832 43.9807 5.55121 43.3642 6.31309C43.0252 6.73121 42.8308 7.21378 42.7028 7.73107C42.6663 7.88146 42.7045 7.91616 42.8491 7.91451C43.3459 7.90955 43.8445 7.91286 44.3413 7.91286L44.343 7.91121Z" fill="white"/>
<path d="M34.147 32.6218C33.803 33.1028 33.4873 33.5424 33.0868 33.9126C32.5185 34.4381 31.8654 34.7356 31.081 34.8033C29.8114 34.9124 28.9805 34.1373 28.5485 33.1309C28.2444 32.4202 28.1214 31.6749 28.0915 30.8998C28.0466 29.7941 28.2111 28.7116 28.3657 27.6259C28.4837 26.7995 28.5867 25.9715 28.6997 25.1436C28.7944 24.4527 28.8941 23.7636 28.9922 23.0728C29.0237 22.8447 29.067 22.6183 29.0902 22.3902C29.1035 22.2663 29.1517 22.2184 29.2763 22.2184C30.2136 22.2217 31.1492 22.2217 32.0864 22.2184C32.2509 22.2184 32.2758 22.3076 32.2576 22.4349C32.1745 23.0001 32.0881 23.5669 32.0033 24.1321C31.8903 24.899 31.7773 25.6675 31.666 26.4343C31.5513 27.2276 31.4283 28.0208 31.327 28.8158C31.2605 29.3281 31.1807 29.8454 31.3103 30.361C31.4084 30.7527 31.6028 31.0898 32.0249 31.1824C32.3905 31.2634 32.7644 31.232 33.1067 31.0402C33.4225 30.8634 33.6551 30.6072 33.8396 30.3032C34.2334 29.6553 34.4345 28.9397 34.5541 28.201C34.6738 27.4672 34.7735 26.7318 34.8865 25.9963C35.0144 25.1518 35.1474 24.3073 35.277 23.4612C35.3335 23.0976 35.39 22.734 35.4382 22.3687C35.4581 22.2184 35.5562 22.215 35.6675 22.215C36.3389 22.215 37.0086 22.215 37.6799 22.215C37.8926 22.215 38.1053 22.2217 38.318 22.215C38.4892 22.2084 38.539 22.2745 38.5141 22.4415C38.328 23.6628 38.1485 24.8857 37.9624 26.1087C37.8095 27.1168 37.64 28.1217 37.4988 29.1314C37.3343 30.3032 37.1282 31.4699 37.0052 32.6466C36.9471 33.2085 36.8723 33.7688 36.8158 34.3307C36.8025 34.4629 36.7593 34.5158 36.623 34.5158C35.7988 34.5125 34.9762 34.5108 34.152 34.5158C33.9393 34.5158 33.9592 34.3918 33.9758 34.2514C34.039 33.7556 34.1005 33.2598 34.1603 32.7656C34.1636 32.7342 34.157 32.7028 34.1503 32.6218H34.147Z" fill="white"/>
<path d="M93.4053 31.3029C93.4401 31.5739 93.3554 31.8136 93.3205 32.0582C93.2141 32.7936 93.0862 33.5257 92.9798 34.2612C92.9616 34.3901 92.9067 34.438 92.7937 34.4744C91.6969 34.828 90.5703 34.9768 89.422 34.909C88.184 34.8346 87.0689 34.4512 86.2214 33.4976C85.688 32.8977 85.3739 32.1854 85.1878 31.4087C84.9468 30.4039 84.9551 29.3875 85.0183 28.3661C85.0665 27.5646 85.231 26.7878 85.4753 26.0276C85.8375 24.8972 86.4075 23.8858 87.2982 23.0809C88.1906 22.2744 89.2475 21.896 90.4539 21.9852C91.333 22.0513 92.124 22.362 92.7555 22.9851C93.3986 23.6214 93.7675 24.4097 93.927 25.2955C94.0567 26.0194 94.0301 26.7465 93.9835 27.477C93.9453 28.0835 93.8307 28.6768 93.7326 29.2734C93.6844 29.5627 93.6894 29.5643 93.4003 29.5643C91.6471 29.5643 89.8923 29.5643 88.1391 29.5643C87.8749 29.5643 87.8815 29.5643 87.8715 29.8271C87.8566 30.2138 87.8981 30.5923 88.061 30.9476C88.3236 31.5227 88.8005 31.8351 89.402 31.9574C90.5969 32.202 91.7435 32.0251 92.8519 31.5458C93.033 31.4682 93.2125 31.3872 93.4069 31.3029H93.4053ZM89.6929 27.0126C90.1581 27.0126 90.6218 27.0093 91.0871 27.0143C91.23 27.0159 91.2948 26.9696 91.2865 26.8209C91.2782 26.6556 91.2865 26.492 91.2848 26.3268C91.2832 26.0111 91.2184 25.707 91.0555 25.4376C90.6484 24.7633 89.6114 24.6543 89.0032 25.2029C88.5014 25.6574 88.2903 26.2507 88.1474 26.882C88.1142 27.0291 88.2155 27.0093 88.2986 27.0093C88.7639 27.0093 89.2276 27.0093 89.6929 27.0093V27.0126Z" fill="white"/>
<path d="M52.8521 31.2881C52.7857 31.7376 52.7292 32.1392 52.666 32.5424C52.5779 33.1076 52.4782 33.6712 52.4001 34.2381C52.3802 34.3752 52.3187 34.4298 52.2007 34.4694C51.5692 34.6793 50.9245 34.8181 50.2614 34.876C49.4521 34.9454 48.6495 34.947 47.8502 34.7619C46.6105 34.4744 45.6716 33.7985 45.075 32.6763C44.6862 31.9425 44.5134 31.1509 44.4353 30.3295C44.3837 29.7891 44.3887 29.247 44.4087 28.7083C44.4369 27.9183 44.5665 27.1366 44.7859 26.3747C45.0568 25.436 45.4589 24.5584 46.0671 23.7833C46.7717 22.8843 47.6458 22.2414 48.7957 22.0431C49.9008 21.853 50.9394 22.0381 51.8517 22.7141C52.5414 23.2247 52.9518 23.9337 53.2094 24.7353C53.4088 25.355 53.4753 26.0012 53.457 26.6457C53.4354 27.4737 53.344 28.2984 53.1695 29.1115C53.1053 29.4134 52.9153 29.5643 52.5995 29.5643C50.9261 29.5643 49.2511 29.5643 47.5777 29.5643C47.2869 29.5643 47.2918 29.5643 47.2852 29.8602C47.2752 30.3378 47.3483 30.7923 47.6192 31.2005C47.9034 31.6302 48.3238 31.8549 48.8107 31.9557C49.9972 32.202 51.1388 32.0235 52.2439 31.5558C52.4317 31.4765 52.6178 31.3905 52.8488 31.2881H52.8521ZM49.1131 27.0126C49.4322 27.0126 49.7513 27.0176 50.0703 27.011C50.2681 27.006 50.5157 27.0953 50.6486 26.9713C50.7932 26.8358 50.6868 26.5829 50.7001 26.3813C50.7217 26.0425 50.637 25.7236 50.4691 25.4343C50.0554 24.7171 48.9835 24.694 48.4019 25.2228C47.9117 25.669 47.7173 26.259 47.5727 26.8755C47.5428 27.006 47.6192 27.0143 47.7173 27.0143C48.1825 27.0126 48.6478 27.0143 49.1115 27.0143L49.1131 27.0126Z" fill="white"/>
<path d="M15.6031 29.5645C14.719 29.5645 13.8366 29.5695 12.9525 29.5612C12.7581 29.5596 12.6883 29.6356 12.6867 29.8124C12.6767 30.3958 12.7847 30.9445 13.1819 31.3973C13.4577 31.7113 13.83 31.8782 14.2321 31.9609C15.397 32.1972 16.522 32.0369 17.6072 31.5742C17.7717 31.5047 17.9329 31.4254 18.0957 31.3527C18.1373 31.3345 18.1805 31.2982 18.2253 31.323C18.2769 31.3527 18.2453 31.4039 18.2386 31.4486C18.0891 32.3972 17.9362 33.3458 17.7916 34.2944C17.775 34.4002 17.7202 34.4382 17.6337 34.468C16.527 34.8382 15.3854 34.9819 14.2238 34.9076C13.0606 34.8332 11.9954 34.4779 11.1645 33.6235C10.6194 33.0649 10.2837 32.379 10.0777 31.6287C9.8334 30.7429 9.7636 29.8389 9.80348 28.9283C9.86663 27.4937 10.1458 26.1055 10.8105 24.8164C11.0714 24.3107 11.4004 23.8529 11.786 23.4282C12.2862 22.8779 12.8728 22.4531 13.5724 22.2185C14.9051 21.7706 16.178 21.8978 17.3164 22.7688C18.2037 23.4464 18.6075 24.3983 18.7837 25.4643C18.9067 26.2047 18.8768 26.9434 18.7953 27.6871C18.7338 28.2441 18.6391 28.7944 18.551 29.3464C18.5245 29.5133 18.4563 29.5678 18.2935 29.5678C17.3961 29.5629 16.5004 29.5662 15.6031 29.5662V29.5645ZM14.5213 27.0128C14.9782 27.0128 15.4369 27.0079 15.8939 27.0161C16.0501 27.0194 16.1066 26.9632 16.0999 26.8095C16.09 26.593 16.1066 26.3749 16.0949 26.1567C16.0767 25.7981 15.9703 25.4593 15.7111 25.2081C15.2109 24.7239 14.2986 24.7487 13.7917 25.2313C13.3464 25.6543 13.1486 26.2014 13.0074 26.7748C12.9509 27.0029 12.9575 27.0128 13.1902 27.0128C13.6339 27.0128 14.0792 27.0128 14.5229 27.0128H14.5213Z" fill="white"/>
<path d="M59.6417 34.8727C58.7377 34.8975 57.9085 34.6958 57.1508 34.2463C56.4478 33.8299 55.9077 33.2514 55.494 32.5507C54.9788 31.6764 54.7113 30.7212 54.58 29.7296C54.457 28.8008 54.4703 27.8671 54.56 26.9333C54.6365 26.145 54.7561 25.3666 54.9672 24.6031C55.3278 23.2991 55.8911 22.0976 56.7868 21.0614C57.626 20.0913 58.648 19.4253 59.9159 19.1609C60.7717 18.9824 61.6276 18.9873 62.4734 19.2286C63.0384 19.3906 63.62 19.5063 64.1518 19.7773C64.2631 19.8335 64.3063 19.8748 64.2847 20.012C64.1385 20.9738 64.0056 21.939 63.8693 22.9025C63.8294 23.1851 63.8261 23.19 63.5752 23.0628C63.0301 22.7868 62.4801 22.5306 61.8702 22.4232C60.5441 22.1918 59.5071 22.6513 58.7195 23.7139C58.1129 24.5303 57.8221 25.4674 57.6559 26.4507C57.5496 27.0754 57.5047 27.7068 57.5379 28.3397C57.5811 29.1627 57.7274 29.9643 58.2027 30.6667C58.6962 31.3971 59.4024 31.7029 60.2732 31.6946C61.0326 31.6864 61.709 31.4153 62.3704 31.0815C62.4302 31.0517 62.4884 31.0203 62.5482 30.9939C62.5897 30.9757 62.6346 30.9377 62.6778 30.9674C62.731 31.0038 62.7027 31.06 62.6961 31.1112C62.5432 32.1656 62.3903 33.22 62.2408 34.2744C62.2258 34.3785 62.1859 34.443 62.0812 34.4744C61.2786 34.7124 60.4676 34.8991 59.6417 34.8727Z" fill="white"/>
<path d="M27.6329 15.7862C26.7205 15.7466 25.7102 15.7069 24.7214 15.4656C24.4539 15.3995 24.4572 15.4012 24.5004 15.1252C24.625 14.3071 24.748 13.489 24.8627 12.6693C24.881 12.5338 24.9192 12.4991 25.0505 12.5437C25.4709 12.6858 25.8996 12.8015 26.3367 12.8742C27.116 13.0015 27.8987 13.0693 28.6814 12.8792C29.1251 12.7718 29.3794 12.4941 29.4458 12.0496C29.5123 11.6133 29.3495 11.3026 28.9157 11.058C28.4837 10.8134 28.0416 10.5903 27.6096 10.3457C26.8252 9.90111 26.1871 9.31441 25.8664 8.44842C25.7434 8.11458 25.672 7.76918 25.6587 7.4089C25.6354 6.73462 25.667 6.07025 25.8963 5.42736C26.3068 4.27711 27.1194 3.54994 28.2793 3.18471C28.8326 3.00952 29.3977 2.94011 29.9776 2.91532C30.9863 2.8707 31.9817 2.98969 32.9771 3.1186C33.0835 3.13182 33.0835 3.17975 33.0702 3.26569C32.9937 3.75818 32.9239 4.25232 32.8491 4.74647C32.7893 5.13649 32.7212 5.52322 32.6697 5.9149C32.6564 6.01901 32.6248 6.05041 32.5234 6.03885C32.221 6.00249 31.9202 5.96282 31.6178 5.94134C30.9265 5.89341 30.2319 5.77607 29.5489 5.99257C28.9024 6.1975 28.8061 6.75445 28.9822 7.26842C29.0869 7.57251 29.406 7.6915 29.6735 7.83363C30.1704 8.09806 30.6888 8.31786 31.1508 8.64509C31.8986 9.17229 32.334 9.88128 32.4703 10.7836C32.6032 11.6695 32.5633 12.5437 32.2709 13.3915C31.897 14.474 31.1176 15.14 30.0275 15.4755C29.2797 15.7052 28.5136 15.7796 27.6362 15.7879L27.6329 15.7862Z" fill="white"/>
<path d="M24.795 31.7295C25.4248 31.7229 25.9632 31.584 26.4684 31.3114C26.5349 31.275 26.613 31.1973 26.6844 31.2519C26.7509 31.3031 26.706 31.3973 26.6944 31.4766C26.5947 32.1856 26.4966 32.8962 26.4003 33.6052C26.3704 33.8267 26.3438 34.0482 26.3155 34.2696C26.3039 34.3638 26.2557 34.425 26.1676 34.463C25.6209 34.701 25.0443 34.8232 24.4543 34.8629C23.9226 34.8976 23.3875 34.9274 22.8557 34.8001C22.314 34.6696 21.837 34.4283 21.4183 34.0713C20.4146 33.2152 19.9277 32.0831 19.6801 30.8271C19.5737 30.29 19.5172 29.7446 19.5288 29.1993C19.5588 27.8308 19.803 26.5038 20.4079 25.261C20.707 24.6462 21.0843 24.0777 21.5629 23.5918C22.3671 22.7754 23.3243 22.23 24.4809 22.0664C25.1274 21.9755 25.7621 22.0168 26.3886 22.1969C26.8739 22.3374 27.3425 22.5176 27.7895 22.7506C27.9158 22.8167 27.9557 22.8795 27.9208 23.0282C27.723 23.8942 27.5386 24.7635 27.3508 25.6328C27.3093 25.8262 27.2827 25.8444 27.1015 25.7369C26.7293 25.5171 26.3404 25.3386 25.9167 25.2378C24.9063 24.9982 23.8893 25.4328 23.3592 26.3203C23.0136 26.8988 22.8374 27.5251 22.7643 28.1862C22.6929 28.8291 22.6613 29.4719 22.8491 30.1C23.0967 30.9329 23.5703 31.5477 24.4892 31.7047C24.6056 31.7245 24.7269 31.7212 24.79 31.7262L24.795 31.7295Z" fill="white"/>
<path d="M38.1562 6.23209C37.9501 6.23209 37.7441 6.2387 37.538 6.23044C37.4117 6.22548 37.3502 6.28001 37.3336 6.39405C37.224 7.09478 37.1176 7.7955 37.0063 8.49623C36.8966 9.19035 36.7819 9.88281 36.6722 10.5769C36.6074 10.9851 36.516 11.3933 36.4994 11.8049C36.4728 12.4659 36.767 12.689 37.3436 12.7419C37.6477 12.77 37.9535 12.7485 38.2493 12.6626C38.3473 12.6345 38.3922 12.6361 38.3722 12.7667C38.2642 13.4476 38.1695 14.1301 38.0681 14.8127C38.0515 14.9234 38.015 15.0325 38.0166 15.1432C38.0166 15.3581 37.9103 15.4424 37.7108 15.5068C36.9381 15.7547 36.1504 15.8787 35.3428 15.8142C34.3807 15.7382 33.6329 15.1631 33.362 14.1715C33.1759 13.484 33.2058 12.7898 33.3072 12.0957C33.4268 11.271 33.5498 10.4464 33.6777 9.62169C33.8157 8.73917 33.9652 7.8583 34.1048 6.97744C34.2577 6.01063 34.4039 5.04383 34.5568 4.07702C34.6798 3.30523 34.8044 2.53344 34.939 1.76495C35.0138 1.33526 35.0238 1.33691 35.4591 1.33691C36.2767 1.33691 37.0943 1.33691 37.9103 1.33691C38.1678 1.33691 38.1678 1.33691 38.118 1.59142C38.0316 2.02277 37.9435 2.45411 37.8571 2.88546C37.8022 3.15649 37.8039 3.15814 38.0864 3.15814C38.4586 3.15814 38.8309 3.1598 39.2031 3.15814C39.3394 3.15814 39.4009 3.17467 39.3743 3.3482C39.2397 4.23072 39.1217 5.11654 39.002 6.00072C38.9788 6.17259 38.9073 6.25523 38.7179 6.23705C38.5334 6.22052 38.3456 6.23374 38.1595 6.23374L38.1562 6.23209Z" fill="white"/>
<path d="M53.8211 4.8605C54.0471 4.53824 54.2731 4.22423 54.5174 3.9251C55.0242 3.30535 55.6524 2.96986 56.47 3.03928C56.7276 3.06076 56.7608 3.10538 56.6478 3.32353C56.121 4.33826 55.8169 5.42571 55.5926 6.53795C55.5627 6.68835 55.5128 6.7528 55.3466 6.74123C54.7152 6.69661 54.2881 6.98748 54.0222 7.54938C53.7065 8.2154 53.5519 8.92935 53.394 9.64165C53.1514 10.739 52.9985 11.8529 52.8074 12.9585C52.6662 13.7733 52.5549 14.593 52.4419 15.4127C52.4236 15.54 52.3804 15.583 52.2574 15.5813C51.3069 15.5796 50.358 15.5796 49.4075 15.5813C49.2695 15.5813 49.228 15.5482 49.2529 15.3945C49.4208 14.3716 49.5753 13.3453 49.7332 12.3206C49.8728 11.4116 50.004 10.5027 50.1436 9.59372C50.2683 8.78887 50.4012 7.98568 50.5258 7.18249C50.6521 6.37103 50.7751 5.55958 50.8981 4.74812C50.9679 4.29364 51.036 3.83916 51.1025 3.38468C51.1257 3.22933 51.1839 3.14835 51.37 3.15166C52.181 3.16322 52.9902 3.15827 53.8012 3.15496C53.9624 3.15496 54.0421 3.16984 54.0023 3.37311C53.9175 3.80446 53.866 4.24241 53.8028 4.67706C53.7945 4.73325 53.7779 4.79275 53.8211 4.8605Z" fill="white"/>
<path d="M80.4459 4.90995C80.7434 4.48025 81.0309 4.07866 81.3748 3.72003C81.8401 3.2358 82.4002 2.9879 83.0815 3.03748C83.1347 3.04079 83.1862 3.0474 83.2393 3.05566C83.3656 3.07219 83.4039 3.12012 83.3391 3.25068C82.9269 4.07866 82.6178 4.94465 82.4068 5.84535C82.3536 6.07507 82.3054 6.30644 82.2572 6.53781C82.2323 6.66011 82.2107 6.73118 82.0329 6.72622C81.3316 6.70969 80.9328 7.01378 80.6503 7.66327C80.2315 8.62677 80.0637 9.65142 79.8693 10.6711C79.743 11.3355 79.6383 12.0032 79.5336 12.6708C79.414 13.4294 79.3026 14.1896 79.1879 14.9482C79.1614 15.1234 79.1314 15.2986 79.1065 15.4737C79.0882 15.6026 78.9885 15.5795 78.9071 15.5795C78.4285 15.5812 77.9516 15.5795 77.473 15.5795C77.0144 15.5795 76.5557 15.5745 76.0987 15.5812C75.9492 15.5828 75.9076 15.5415 75.9325 15.3895C76.0422 14.7284 76.1403 14.0673 76.2416 13.4046C76.3546 12.6642 76.4643 11.9255 76.5773 11.1851C76.672 10.5686 76.7667 9.95221 76.8631 9.33577C76.9795 8.58381 77.0958 7.83185 77.2138 7.07989C77.3567 6.17258 77.4996 5.26527 77.6425 4.35796C77.699 4.00098 77.7572 3.64566 77.807 3.28703C77.822 3.18622 77.8718 3.15317 77.9649 3.15482C78.829 3.15482 79.6915 3.15482 80.5556 3.15482C80.6553 3.15482 80.6919 3.18292 80.6752 3.29695C80.5955 3.8225 80.5273 4.34969 80.4492 4.90829L80.4459 4.90995Z" fill="white"/>
<path d="M42.3946 23.9305C42.6123 23.6198 42.8051 23.3306 43.0111 23.0513C43.3402 22.6067 43.7257 22.2332 44.2957 22.1175C44.5217 22.0729 44.7477 22.0283 44.9837 22.0878C45.1249 22.1225 45.1382 22.1704 45.0867 22.2894C44.9006 22.7191 44.7178 23.1488 44.5732 23.5966C44.3721 24.218 44.2143 24.851 44.1029 25.4922C44.068 25.6889 43.9982 25.7765 43.7839 25.7616C43.2804 25.7286 42.9447 25.9864 42.712 26.4078C42.3547 27.054 42.2201 27.7713 42.0739 28.4786C41.7831 29.8833 41.5804 31.303 41.3826 32.7243C41.3045 33.2845 41.2231 33.8431 41.1466 34.4034C41.13 34.529 41.0768 34.5934 40.9439 34.5918C40.0665 34.5901 39.1907 34.5901 38.3133 34.5918C38.1854 34.5918 38.1588 34.5422 38.1771 34.4232C38.2685 33.8051 38.3499 33.1854 38.4396 32.5673C38.5642 31.6947 38.6939 30.8237 38.8202 29.9511C38.9481 29.0719 39.0761 28.1943 39.2024 27.3151C39.3154 26.5334 39.4267 25.7534 39.538 24.9716C39.661 24.1123 39.7823 23.2529 39.9036 22.3935C39.9203 22.2745 39.9801 22.2101 40.1163 22.2117C40.8941 22.2167 41.6718 22.215 42.4478 22.2117C42.5774 22.2117 42.6156 22.2497 42.5957 22.3902C42.5209 22.8893 42.4628 23.3901 42.393 23.9255L42.3946 23.9305Z" fill="white"/>
<path d="M97.2875 13.7667C97.2875 14.6443 96.7375 15.4144 95.9049 15.6557C95.3166 15.8259 94.7766 15.702 94.2814 15.3318C93.5967 14.8194 93.3325 13.813 93.6582 13.0214C94.1268 11.8794 95.4247 11.3984 96.4699 12.1355C97.02 12.5222 97.2892 13.0875 97.2875 13.7667ZM96.784 13.7601C96.8172 12.9949 96.1475 12.3305 95.4263 12.3239C94.6353 12.3157 94.0171 12.9899 94.0171 13.775C94.0171 14.5633 94.642 15.1996 95.413 15.2012C96.1575 15.2029 96.8023 14.5666 96.784 13.7601Z" fill="white"/>
<path d="M98.4815 32.5771C98.3735 33.1093 98.2622 33.6398 98.1608 34.1736C98.1325 34.3256 98.0777 34.4132 97.9049 34.4C97.7503 34.3884 97.5958 34.4364 97.5576 34.1918C97.4778 33.6794 97.3648 33.1704 97.2418 32.6631C97.2418 33.1588 97.2418 33.6546 97.2418 34.1488C97.2418 34.2298 97.2801 34.3405 97.1754 34.3769C97.0574 34.4182 96.9244 34.4149 96.8031 34.3736C96.745 34.3537 96.75 34.286 96.75 34.2347C96.75 33.496 96.75 32.7556 96.75 32.0169C96.75 31.9028 96.7932 31.8417 96.9128 31.8483C96.9195 31.8483 96.9261 31.8483 96.9327 31.8483C97.4712 31.8185 97.4728 31.8185 97.5858 32.3375C97.6772 32.7622 97.7636 33.1869 97.8866 33.6166C97.9448 33.334 98.0046 33.0498 98.0627 32.7672C98.1159 32.516 98.1691 32.2648 98.2223 32.0136C98.2256 31.9937 98.2223 31.9689 98.2323 31.9557C98.4084 31.7343 98.6494 31.883 98.8587 31.8549C99.0066 31.8351 98.9967 31.964 98.9967 32.0631C98.9967 32.7688 98.99 33.4762 99.0017 34.1818C99.005 34.3868 98.9019 34.4016 98.7424 34.4033C98.5829 34.4033 98.4965 34.3736 98.4998 34.1868C98.5098 33.653 98.5031 33.1175 98.5031 32.5837L98.4832 32.5804L98.4815 32.5771Z" fill="white"/>
<path d="M95.5817 31.8466C95.8343 31.8466 96.0869 31.8532 96.3378 31.845C96.5323 31.8384 96.5256 31.9607 96.5256 32.0912C96.5256 32.2218 96.5339 32.354 96.3378 32.3375C96.3312 32.3375 96.3245 32.3375 96.3179 32.3375C96.0033 32.3474 95.846 32.5116 95.846 32.83C95.846 33.2778 95.8376 33.7274 95.8493 34.1752C95.8543 34.3735 95.7612 34.4016 95.5967 34.4016C95.4272 34.4016 95.3441 34.3636 95.3474 34.1703C95.3591 33.6299 95.3474 33.0894 95.3541 32.549C95.3557 32.3837 95.2976 32.3193 95.1347 32.3358C95.0699 32.3424 95.0018 32.3358 94.9353 32.3358C94.6445 32.3358 94.5664 32.2301 94.6378 31.9474C94.6628 31.8499 94.7309 31.8499 94.804 31.845C94.8173 31.845 94.8306 31.845 94.8439 31.845C95.0898 31.845 95.3341 31.845 95.5801 31.845L95.5817 31.8466Z" fill="white"/>
<path d="M94.7501 13.7354C94.7501 13.5106 94.755 13.2858 94.7484 13.0627C94.7434 12.9223 94.7916 12.8561 94.9412 12.8628C95.1406 12.871 95.34 12.8594 95.5394 12.8661C95.7837 12.8743 95.9748 12.9784 96.0761 13.2082C96.1808 13.4445 96.1127 13.6478 95.9249 13.8114C95.8618 13.8659 95.8585 13.9105 95.8884 13.9816C95.9598 14.1452 96.0213 14.3105 96.0878 14.4757C96.1326 14.5848 96.0978 14.6278 95.9764 14.6344C95.6757 14.6509 95.6723 14.6542 95.5593 14.3749C95.5178 14.2708 95.4762 14.1667 95.443 14.0609C95.4148 13.9733 95.3566 13.9552 95.2752 13.9618C95.1838 13.97 95.1738 14.0312 95.1738 14.1022C95.1738 14.2014 95.1738 14.3006 95.1738 14.3997C95.1721 14.6113 95.011 14.7088 94.8198 14.6212C94.7401 14.5848 94.7534 14.5138 94.7534 14.451C94.7501 14.213 94.7534 13.975 94.7534 13.7387L94.7501 13.7354ZM95.3616 13.2445C95.2386 13.2181 95.1672 13.2644 95.1688 13.4313C95.1688 13.585 95.232 13.6197 95.3716 13.6197C95.5278 13.6197 95.6491 13.5701 95.6524 13.4131C95.6541 13.2594 95.5161 13.2412 95.3632 13.2445H95.3616Z" fill="white"/>
</g>
<defs>
<clipPath id="clip0_0_162">
<rect width="99" height="35" fill="white"/>
</clipPath>
</defs>
</svg>
