<svg width="64" height="36" viewBox="0 0 64 36" fill="none" xmlns="http://www.w3.org/2000/svg">
<g clip-path="url(#clip0_0_28)">
<path d="M6.14013 16.8964C6.28041 16.6626 6.40189 16.4624 6.52102 16.2608C7.01508 15.425 7.50804 14.5883 8.00195 13.7525C9.12519 11.8513 10.2528 9.95259 11.3707 8.04828C12.0132 6.95399 12.6941 5.88382 13.3691 4.80958C14.1189 3.61615 14.8683 2.42225 15.6181 1.22851C15.8485 0.861559 16.0814 0.496169 16.3088 0.127335C16.3648 0.036653 16.4366 -0.000465452 16.5407 4.40098e-06C16.9639 0.00219705 17.3871 -0.00109192 17.8101 0.0017272C18.0073 0.00298014 18.0225 0.033364 17.9296 0.209716C17.302 1.40126 16.6742 2.59281 16.0463 3.7842C15.5376 4.74944 15.034 5.71718 14.5186 6.67866C14.0845 7.48868 13.6749 8.31108 13.2667 9.13411C12.7982 10.0788 12.3311 11.0243 11.8634 11.9695C11.4096 12.8867 10.9558 13.8037 10.502 14.7208C10.0367 15.6613 9.57129 16.6018 9.10591 17.5423C8.64978 18.464 8.19349 19.3857 7.73783 20.3077C7.61071 20.565 7.4814 20.8216 7.36196 21.0826C7.30913 21.1979 7.23797 21.2422 7.10913 21.2418C5.97539 21.2374 4.8418 21.2396 3.70806 21.2389C3.53141 21.2389 3.51401 21.2256 3.49144 21.0471C3.45554 20.7625 3.42498 20.4771 3.39316 20.1921C3.33626 19.6842 3.27999 19.1761 3.22325 18.6681C3.16478 18.1445 3.10616 17.6209 3.04754 17.0975C2.98954 16.5791 2.93139 16.0608 2.87355 15.5424C2.82715 15.1277 2.78075 14.7131 2.73483 14.2984C2.67809 13.7852 2.62338 13.2718 2.56507 12.7587C2.51915 12.3545 2.48074 11.949 2.41805 11.5473C2.34218 11.0605 2.16976 10.6104 1.84279 10.2296C1.62303 9.97358 1.35061 9.79629 1.03586 9.68149C0.758893 9.58047 0.472519 9.52785 0.177367 9.52143C-0.00367431 9.51751 -0.0210731 9.49355 0.0159189 9.31579C0.0425656 9.18799 0.0598077 9.17311 0.193668 9.16919C0.251037 9.16747 0.308563 9.16872 0.366088 9.16872C2.00126 9.16872 3.63658 9.16872 5.27175 9.16872C5.52145 9.16872 5.51659 9.16997 5.53101 9.4215C5.55593 9.85361 5.58869 10.2852 5.61738 10.7172C5.6412 11.0763 5.66331 11.4355 5.6876 11.7946C5.71534 12.2055 5.74199 12.6168 5.7735 13.0275C5.80563 13.4486 5.84105 13.8696 5.87867 14.2903C5.91363 14.6798 5.9547 15.0688 5.99106 15.4583C6.02743 15.8478 6.06222 16.2374 6.09561 16.6272C6.10235 16.7052 6.11128 16.7819 6.13981 16.8966L6.14013 16.8964Z" fill="white"/>
<path d="M55.9188 21.2947C55.1766 21.2947 54.5758 21.2952 53.9752 21.2945C53.7368 21.2942 53.73 21.287 53.7661 21.0587C53.9095 20.1517 54.0543 19.245 54.1977 18.3381C54.4105 16.993 54.6221 15.6478 54.8351 14.303C54.9877 13.3393 55.1421 12.3759 55.2956 11.4126C55.3301 11.1961 55.3627 10.9795 55.3986 10.7632C55.4205 10.6314 55.4353 10.6207 55.5724 10.6152C55.5933 10.6145 55.6143 10.6148 55.6351 10.6148C56.9046 10.6148 58.1741 10.6095 59.4434 10.6174C60.0484 10.6212 60.638 10.7299 61.2036 10.9524C62.21 11.3485 62.9818 12.0121 63.4912 12.9689C63.7464 13.4481 63.9069 13.9604 63.9653 14.5008C64.132 16.0416 63.6906 17.4134 62.7747 18.6403C61.9388 19.7603 60.8456 20.5382 59.5208 20.9835C58.9993 21.1588 58.4611 21.2523 57.9081 21.2773C57.1977 21.3094 56.4875 21.2792 55.9188 21.2947ZM58.4501 12.9958C58.2792 12.9958 58.1487 12.9947 58.0181 12.9961C57.8501 12.998 57.8424 13.0034 57.8153 13.1637C57.7745 13.4054 57.7363 13.6475 57.698 13.8897C57.5226 14.9973 57.3477 16.1049 57.1723 17.2125C57.0908 17.7276 57.0084 18.2427 56.9272 18.7578C56.9074 18.8834 56.9225 18.9082 57.0339 18.9108C57.5835 18.9246 58.1302 18.9108 58.6634 18.7514C59.4105 18.528 60.0266 18.1191 60.4549 17.4616C60.9608 16.6847 61.1569 15.8258 61.0395 14.9075C60.9366 14.1019 60.498 13.533 59.7439 13.2181C59.3175 13.0398 58.8689 12.9833 58.4499 12.9957L58.4501 12.9958Z" fill="white"/>
<path d="M22.6766 17.2344C22.6358 17.3404 22.6344 17.4454 22.6181 17.5464C22.4422 18.6438 22.2686 19.7415 22.0946 20.8393C22.0791 20.9371 22.0671 21.0357 22.0497 21.1332C22.0281 21.2551 22.0118 21.2686 21.8845 21.2725C21.7958 21.2751 21.7069 21.2734 21.6181 21.2734C20.9075 21.2734 20.1969 21.2734 19.4863 21.2734C19.455 21.2734 19.4236 21.2739 19.3923 21.2733C19.2429 21.2696 19.2327 21.2598 19.2551 21.106C19.286 20.8942 19.3208 20.6831 19.3543 20.4718C19.5398 19.3019 19.7251 18.1321 19.9106 16.9622C20.0537 16.0604 20.1983 15.1587 20.3409 14.2568C20.5219 13.1127 20.7019 11.9683 20.8825 10.824C20.8873 10.7932 20.8931 10.7623 20.8981 10.7315C20.9105 10.6532 20.9525 10.6102 21.0356 10.6131C21.0773 10.6145 21.1191 10.6123 21.161 10.6123C22.4568 10.6123 23.7525 10.614 25.0483 10.6113C25.5372 10.6104 26.0187 10.661 26.4877 10.8005C27.036 10.9637 27.5156 11.2362 27.862 11.707C28.1028 12.0342 28.2388 12.4035 28.2888 12.8041C28.3852 13.5769 28.2533 14.3174 27.9142 15.0118C27.4504 15.9617 26.7168 16.6048 25.6761 16.8696C25.6558 16.8748 25.6355 16.8797 25.6152 16.885C25.4776 16.9212 25.4735 16.9276 25.5458 17.0468C25.7949 17.4576 26.0452 17.8674 26.2952 18.2776C26.8604 19.2048 27.4263 20.1318 27.9902 21.0598C28.0241 21.1155 28.0965 21.1746 28.0636 21.2383C28.0293 21.305 27.9406 21.272 27.8761 21.2722C26.8625 21.2737 25.8489 21.2704 24.8353 21.2764C24.6881 21.2772 24.6152 21.2289 24.5525 21.0944C24.2436 20.4321 23.9213 19.776 23.605 19.1171C23.3181 18.5194 23.033 17.9208 22.7468 17.3229C22.7336 17.2953 22.7264 17.2632 22.6766 17.2342V17.2344ZM23.3413 15.3749C23.692 15.3686 24.0399 15.3403 24.3729 15.22C24.6265 15.1284 24.8556 14.997 25.0254 14.7797C25.2908 14.4402 25.3707 14.0499 25.3315 13.6306C25.3141 13.4438 25.2353 13.2815 25.0995 13.1471C24.9621 13.011 24.7969 12.9263 24.6141 12.8738C24.2494 12.7692 23.8746 12.7545 23.4982 12.7531C23.418 12.7528 23.3683 12.7799 23.3587 12.8643C23.3553 12.8953 23.3463 12.9255 23.3415 12.9564C23.2694 13.4145 23.1976 13.8726 23.1256 14.3305C23.0771 14.6394 23.0272 14.9479 22.9807 15.2571C22.9662 15.3525 22.9803 15.3688 23.075 15.3736C23.1634 15.3782 23.2523 15.3746 23.341 15.3746L23.3413 15.3749Z" fill="white"/>
<path d="M16.3089 10.6146C17.244 10.6146 18.1792 10.6144 19.1143 10.6146C19.348 10.6146 19.3491 10.6191 19.3114 10.8559C19.2096 11.4948 19.1101 12.1341 19.0096 12.7731C19.0048 12.8039 18.9977 12.8346 18.9935 12.8655C18.9816 12.9515 18.9334 12.9947 18.8458 12.9941C18.7936 12.9938 18.7414 12.9955 18.6891 12.9955C17.7801 12.9955 16.871 12.9955 15.962 12.9955C15.915 12.9955 15.868 12.9941 15.821 12.9964C15.6982 13.0025 15.6789 13.0173 15.6592 13.1411C15.5829 13.6202 15.5075 14.0996 15.4343 14.5792C15.4096 14.7405 15.4133 14.7429 15.5835 14.743C16.4037 14.7437 17.2238 14.7433 18.0441 14.7433C18.1486 14.7433 18.2532 14.7415 18.3576 14.7441C18.5018 14.7479 18.5201 14.7701 18.4974 14.9153C18.4347 15.3173 18.3699 15.7192 18.3068 16.1213C18.2654 16.3841 18.2268 16.6473 18.184 16.91C18.1524 17.1039 18.1497 17.1053 17.9563 17.1053C17.0577 17.1058 16.1592 17.1053 15.2606 17.1056C15.108 17.1056 15.02 17.1807 14.9965 17.3308C14.9222 17.7997 14.8472 18.2687 14.7731 18.7376C14.7465 18.9061 14.7504 18.9117 14.9286 18.9119C15.7802 18.9125 16.6316 18.9122 17.4832 18.9122C17.6138 18.9122 17.7445 18.9106 17.8751 18.9128C18.0191 18.9152 18.0314 18.9266 18.0105 19.0668C17.9659 19.3661 17.9165 19.6646 17.869 19.9634C17.8108 20.3293 17.7508 20.6948 17.6953 21.061C17.6618 21.282 17.6531 21.294 17.4306 21.294C15.7327 21.2943 14.0348 21.2942 12.337 21.2942C12.1437 21.2942 11.9503 21.2961 11.7572 21.2933C11.5905 21.2909 11.5741 21.2716 11.5993 21.1105C11.6873 20.5485 11.7764 19.9869 11.8656 19.4253C12.0291 18.3947 12.1928 17.3642 12.3566 16.3336C12.5 15.432 12.6442 14.5303 12.7871 13.6285C12.9359 12.6907 13.0835 11.7527 13.2318 10.8147C13.2629 10.6182 13.2666 10.6144 13.4723 10.6143C14.4179 10.6138 15.3634 10.6141 16.3091 10.6141L16.3089 10.6146Z" fill="white"/>
<path d="M49.1375 21.2947C48.2077 21.2947 47.2779 21.2947 46.3479 21.2947C46.083 21.2947 46.0819 21.2939 46.1236 21.0319C46.2964 19.9447 46.4702 18.8577 46.6431 17.7705C46.8846 16.2505 47.1259 14.7306 47.3669 13.2104C47.4928 12.417 47.618 11.6233 47.7441 10.8298C47.7781 10.6153 47.779 10.6148 48.0033 10.6146C49.3667 10.6143 50.7302 10.6146 52.0936 10.6146C52.616 10.6146 53.1383 10.6142 53.6607 10.615C53.8495 10.6153 53.8618 10.63 53.8333 10.8106C53.7299 11.4651 53.6259 12.1194 53.522 12.7738C53.5172 12.8046 53.5074 12.835 53.5041 12.8659C53.4944 12.9539 53.4452 12.9948 53.3579 12.9943C53.3057 12.994 53.2535 12.9955 53.2012 12.9955C52.2922 12.9955 51.3832 12.9955 50.4743 12.9955C50.4324 12.9955 50.3907 12.9946 50.3489 12.996C50.2125 13.001 50.1943 13.0139 50.1735 13.1434C50.0943 13.6327 50.0166 14.1221 49.9398 14.6118C49.9225 14.7218 49.9372 14.7395 50.0517 14.7421C50.2031 14.7456 50.3547 14.7434 50.5061 14.7434C51.274 14.7434 52.0419 14.7432 52.8098 14.7436C53.0314 14.7436 53.0363 14.7498 53.0032 14.9619C52.9037 15.601 52.804 16.2404 52.7044 16.8795C52.7029 16.8898 52.7008 16.9 52.6989 16.9104C52.6648 17.1038 52.6643 17.1054 52.4706 17.1055C51.5721 17.106 50.6735 17.1055 49.775 17.1058C49.6224 17.1058 49.5344 17.1808 49.5107 17.3309C49.4363 17.7998 49.3614 18.2686 49.2872 18.7375C49.2606 18.9058 49.2648 18.9116 49.4429 18.9118C50.284 18.9126 51.1249 18.9121 51.966 18.9121C52.1071 18.9121 52.2481 18.9105 52.3891 18.9127C52.5323 18.9149 52.5436 18.9256 52.5221 19.0689C52.4687 19.4249 52.4112 19.7802 52.3554 20.1357C52.306 20.4501 52.2564 20.7644 52.2068 21.0787C52.2011 21.1148 52.1925 21.1503 52.1859 21.1862C52.1738 21.252 52.1334 21.2864 52.0677 21.29C52.0157 21.2928 51.9633 21.2939 51.9111 21.2939C50.9865 21.2941 50.0619 21.2941 49.1372 21.2941L49.1375 21.2947Z" fill="white"/>
<path d="M61.9632 33.1149C61.5923 33.1149 61.2213 33.1158 60.8504 33.1146C60.6827 33.114 60.6735 33.1032 60.6642 32.9396C60.6443 32.5909 60.6241 32.2419 60.6048 31.893C60.5965 31.7437 60.5888 31.7321 60.4402 31.7315C59.9805 31.7296 59.5208 31.7302 59.061 31.7299C58.5856 31.7296 58.1102 31.7338 57.6348 31.7266C57.4997 31.7246 57.4271 31.7727 57.3732 31.8945C57.2147 32.2524 57.0415 32.6037 56.8834 32.9617C56.8338 33.0739 56.7691 33.1176 56.6464 33.1169C55.8418 33.1127 55.0372 33.1152 54.2328 33.1144C54.0442 33.1143 54.034 33.0966 54.1209 32.9335C54.8377 31.5883 55.5545 30.2433 56.272 28.8986C56.7537 27.996 57.2367 27.094 57.7188 26.1918C58.1296 25.4229 58.542 24.6549 58.9493 23.8842C59.006 23.7769 59.0787 23.7376 59.1975 23.738C60.2162 23.7412 61.2351 23.7393 62.2538 23.7404C62.4143 23.7404 62.4328 23.755 62.4494 23.9163C62.4778 24.1911 62.4984 24.4669 62.5231 24.7423C62.5608 25.1629 62.5995 25.5836 62.6376 26.0043C62.6724 26.3886 62.7069 26.773 62.7417 27.1573C62.7798 27.578 62.819 27.9987 62.8566 28.4193C62.8928 28.8245 62.9273 29.2298 62.963 29.635C62.9974 30.0247 63.0319 30.4142 63.0676 30.8037C63.1043 31.2035 63.1431 31.6032 63.1797 32.0031C63.2082 32.3147 63.2333 32.6266 63.2623 32.9381C63.2767 33.0919 63.2632 33.113 63.1074 33.1138C62.726 33.1157 62.3447 33.1144 61.9633 33.1144L61.9632 33.1149ZM60.3292 25.4967C60.2781 25.6198 60.2382 25.7213 60.1941 25.8209C59.6592 27.0325 59.1153 28.2402 58.5585 29.4419C58.4928 29.5838 58.4259 29.7254 58.3651 29.8695C58.334 29.9431 58.3492 29.9611 58.4295 29.9681C58.4605 29.9708 58.492 29.9692 58.5234 29.9692C59.1132 29.9692 59.7029 29.9692 60.2927 29.9692C60.3084 29.9692 60.3241 29.9694 60.3397 29.9692C60.4999 29.9663 60.5162 29.9517 60.4968 29.799C60.4822 29.6847 60.4827 29.5702 60.4777 29.4557C60.4659 29.1902 60.4561 28.9246 60.4394 28.6593C60.3995 28.0195 60.3564 27.3799 60.3524 26.7387C60.3502 26.3789 60.3537 26.019 60.3534 25.6593C60.3534 25.6139 60.3666 25.5664 60.3292 25.4969V25.4967Z" fill="white"/>
<path d="M37.5772 29.8432C37.7398 29.3338 37.9945 28.8778 38.2534 28.4242C39.0738 26.9872 39.8963 25.5514 40.7179 24.1152C40.7723 24.0201 40.8286 23.9258 40.8814 23.8298C40.9203 23.7593 40.9778 23.7224 41.0575 23.7185C41.1043 23.7161 41.1513 23.7127 41.1982 23.7127C41.9296 23.7124 42.661 23.7124 43.3923 23.7124C43.3975 23.7124 43.4028 23.7124 43.408 23.7124C43.6182 23.7145 43.6251 23.726 43.5226 23.9066C42.8241 25.1366 42.1254 26.3666 41.4271 27.5968C40.453 29.3127 39.4793 31.0288 38.5056 32.7448C38.4644 32.8175 38.4201 32.8887 38.3853 32.9644C38.3329 33.0779 38.2531 33.1237 38.1254 33.1171C37.9377 33.1074 37.7493 33.1146 37.5612 33.1146C37.0075 33.1146 36.4537 33.1146 35.9001 33.1146C35.8582 33.1146 35.8164 33.116 35.7747 33.1136C35.6591 33.1072 35.6378 33.0903 35.624 32.9777C35.6 32.781 35.58 32.5838 35.558 32.3868C35.4978 31.8477 35.437 31.3088 35.3772 30.7697C35.3104 30.1684 35.245 29.5669 35.1776 28.9656C35.1091 28.354 35.0384 27.7428 34.9693 27.1312C34.9137 26.6388 34.8669 26.1453 34.8013 25.6544C34.7508 25.2777 34.6278 24.9246 34.3878 24.6198C34.1796 24.3554 33.908 24.1897 33.5892 24.0967C33.4487 24.0558 33.3054 24.0261 33.1579 24.0218C33.1163 24.0206 33.0746 24.0157 33.0333 24.0091C32.9155 23.9903 32.8981 23.9747 32.9007 23.8956C32.9048 23.7766 32.946 23.7254 33.0506 23.7149C33.092 23.7106 33.1341 23.7122 33.1758 23.7122C34.44 23.7122 35.7043 23.712 36.9684 23.7122C37.2231 23.7122 37.2344 23.7208 37.2503 23.9703C37.286 24.5324 37.317 25.0948 37.354 25.6568C37.3895 26.1927 37.4307 26.7282 37.468 27.264C37.4824 27.4721 37.4885 27.6807 37.4998 27.889C37.5344 28.5296 37.5907 29.1695 37.5713 29.8121C37.571 29.8222 37.575 29.8323 37.5769 29.8425L37.5772 29.8432Z" fill="white"/>
<path d="M38.307 10.6146C39.2473 10.6146 40.1877 10.6144 41.128 10.6146C41.3767 10.6146 41.3792 10.6188 41.341 10.8597C41.2413 11.4884 41.1424 12.1172 41.0433 12.7458C41.0172 12.9121 40.9187 12.9953 40.7479 12.9956C39.7971 12.9956 38.8464 12.9956 37.8956 12.9956C37.66 12.9956 37.6573 12.9956 37.6195 13.2282C37.5459 13.6813 37.4752 14.135 37.404 14.5886C37.3816 14.731 37.3893 14.7421 37.5354 14.7427C37.9586 14.7444 38.3816 14.7435 38.8049 14.7435C39.2594 14.7435 39.7138 14.7435 40.1684 14.7435C40.2102 14.7435 40.2521 14.7418 40.2938 14.7446C40.3921 14.7513 40.4057 14.7618 40.3939 14.8589C40.3758 15.009 40.3491 15.1581 40.3254 15.3076C40.2425 15.8332 40.1595 16.3588 40.0764 16.8845C40.0723 16.9101 40.0681 16.936 40.0624 16.9615C40.0334 17.0932 40.0232 17.1044 39.8844 17.105C39.4873 17.1067 39.0903 17.1058 38.6933 17.1058C38.1865 17.1058 37.6797 17.1051 37.173 17.1062C37.0128 17.1065 37.001 17.121 36.9758 17.2815C36.8567 18.039 36.7363 18.7966 36.6167 19.554C36.5361 20.0641 36.456 20.5744 36.3756 21.0846C36.3715 21.1103 36.3675 21.1363 36.3612 21.1615C36.3341 21.2707 36.3167 21.2849 36.2002 21.2931C36.169 21.2953 36.1375 21.2945 36.1062 21.2945C35.3329 21.2945 34.5599 21.2948 33.7866 21.2945C33.5504 21.2945 33.5443 21.2884 33.581 21.0569C33.7228 20.1603 33.8669 19.264 34.0089 18.3673C34.1909 17.2182 34.371 16.0688 34.5533 14.9197C34.7152 13.8995 34.879 12.8794 35.0417 11.8594C35.0975 11.509 35.1521 11.1585 35.2077 10.8082C35.2372 10.6226 35.2447 10.6151 35.4389 10.6149C36.3949 10.6143 37.3509 10.6146 38.3069 10.6146H38.307Z" fill="white"/>
<path d="M50.3831 33.3928C49 33.3919 47.9335 33.1559 46.9275 32.6592C46.7545 32.5737 46.5855 32.4793 46.4184 32.3823C46.2955 32.3111 46.2943 32.2928 46.369 32.1745C46.4527 32.0422 46.5381 31.9109 46.6239 31.7798C46.8842 31.3823 47.1448 30.985 47.4059 30.5883C47.5064 30.4356 47.5086 30.4362 47.6628 30.5255C48.0106 30.727 48.3537 30.9372 48.7287 31.0879C49.2873 31.3125 49.8699 31.3837 50.4656 31.3433C50.8449 31.3175 51.1604 31.1612 51.3567 30.8157C51.5256 30.5181 51.4902 30.2459 51.2469 30.0038C51.049 29.8069 50.8126 29.6613 50.5734 29.5222C50.0804 29.2356 49.6011 28.9289 49.164 28.5621C48.8875 28.3302 48.6321 28.0763 48.4346 27.7699C48.1417 27.3156 48.0348 26.8208 48.1194 26.2888C48.2252 25.6246 48.4689 25.0218 48.9523 24.5369C49.2707 24.2177 49.6514 23.9895 50.0707 23.8315C50.8065 23.5543 51.5695 23.47 52.3507 23.5421C53.3348 23.6327 54.2279 23.9743 55.0452 24.5229C55.2416 24.6548 55.244 24.659 55.094 24.8363C54.7096 25.2905 54.3229 25.7427 53.9356 26.1944C53.834 26.3128 53.8218 26.3132 53.6952 26.2103C53.414 25.9818 53.1108 25.7876 52.7785 25.6432C52.3081 25.4387 51.8217 25.3894 51.3252 25.5317C51.0926 25.5984 50.8974 25.7231 50.786 25.9521C50.6695 26.1916 50.691 26.4149 50.8496 26.6285C50.9957 26.8254 51.1915 26.9652 51.3913 27.0981C51.7523 27.3378 52.1203 27.5671 52.4824 27.8053C52.8417 28.0417 53.1683 28.318 53.4577 28.6365C53.6909 28.8934 53.885 29.1757 54.0138 29.5009C54.1815 29.9238 54.209 30.3554 54.0811 30.7899C53.9165 31.3488 53.6356 31.8469 53.2409 32.2768C52.8158 32.7397 52.287 33.0328 51.6857 33.2013C51.1737 33.3448 50.6499 33.3928 50.383 33.393L50.3831 33.3928Z" fill="white"/>
<path d="M21.3911 27.8012C21.4547 27.7952 21.4728 27.7674 21.495 27.7468C21.9244 27.3498 22.44 27.1418 23.0159 27.1312C23.8559 27.1157 24.5097 27.471 24.931 28.2117C25.168 28.6283 25.2731 29.0803 25.2875 29.5597C25.3118 30.362 25.1079 31.1013 24.6857 31.778C24.2638 32.4546 23.6951 32.9613 22.9187 33.1992C22.4375 33.3466 21.9523 33.3658 21.4737 33.1809C21.1938 33.0726 20.9612 32.9021 20.8028 32.6408C20.7843 32.6103 20.7704 32.5746 20.7227 32.5498C20.6847 32.6482 20.684 32.7509 20.666 32.8501C20.6163 33.1237 20.6674 33.1154 20.3589 33.1151C19.9097 33.1148 19.4603 33.1151 19.0111 33.1151C18.9746 33.1151 18.9379 33.116 18.9014 33.1144C18.7725 33.1087 18.7578 33.0942 18.7758 32.963C18.8338 32.5392 18.8942 32.1155 18.9545 31.692C19.0752 30.8451 19.1965 29.9981 19.3175 29.1511C19.4371 28.3144 19.5567 27.4778 19.6763 26.6411C19.7967 25.7993 19.9171 24.9575 20.0373 24.1157C20.0491 24.033 20.0614 23.9504 20.073 23.8677C20.0824 23.8009 20.1186 23.765 20.1878 23.765C20.2139 23.765 20.24 23.7634 20.2661 23.7634C20.7677 23.7634 21.2692 23.7634 21.7707 23.7634C21.7812 23.7634 21.7916 23.7634 21.8021 23.7637C21.9425 23.7692 21.9576 23.7858 21.9403 23.9208C21.9251 24.0399 21.9087 24.1587 21.8916 24.2774C21.7396 25.336 21.587 26.3946 21.4353 27.4533C21.4192 27.5656 21.4066 27.6786 21.3911 27.8013V27.8012ZM23.3286 30.0142C23.3286 29.962 23.3335 29.9094 23.3279 29.8579C23.2755 29.3714 23.0289 29.0361 22.5411 28.9583C22.0687 28.8828 21.6591 29.0258 21.3508 29.396C20.9991 29.8186 20.8751 30.3054 21.0157 30.8436C21.0952 31.1483 21.2927 31.3558 21.5968 31.4454C22.0706 31.5848 22.4969 31.4859 22.8586 31.1511C23.1873 30.8468 23.3183 30.4532 23.3285 30.0142H23.3286Z" fill="white"/>
<path d="M31.822 10.6147C32.2033 10.6147 32.5845 10.6147 32.9659 10.6147C33.0077 10.6147 33.0496 10.613 33.0911 10.6164C33.1916 10.6249 33.2082 10.6426 33.1935 10.7452C33.1584 10.9878 33.1197 11.2299 33.0814 11.4722C32.8955 12.647 32.7096 13.8218 32.5231 14.9964C32.38 15.898 32.2353 16.7994 32.0924 17.701C31.9127 18.8345 31.7343 19.9682 31.555 21.1018C31.5274 21.2764 31.5108 21.2937 31.3351 21.294C30.5255 21.2954 29.7158 21.2946 28.9062 21.2946C28.901 21.2946 28.8957 21.2946 28.8905 21.2945C28.7488 21.2879 28.7342 21.2742 28.7523 21.1372C28.7734 20.977 28.7996 20.8172 28.825 20.6576C28.9885 19.6273 29.1524 18.5969 29.3164 17.5665C29.4697 16.6031 29.6241 15.6399 29.7766 14.6763C29.9811 13.3829 30.1844 12.0896 30.3882 10.7961C30.4141 10.6319 30.4301 10.6158 30.5998 10.6153C31.0072 10.6142 31.4147 10.615 31.8221 10.6148L31.822 10.6147Z" fill="white"/>
<path d="M44.3582 10.6145C44.7396 10.6145 45.1211 10.6145 45.5025 10.6145C45.5495 10.6145 45.5965 10.6151 45.6434 10.6179C45.7081 10.6217 45.7374 10.6574 45.7285 10.7218C45.7141 10.8252 45.6993 10.9285 45.6829 11.0316C45.4862 12.2736 45.2894 13.5157 45.0921 14.7577C44.9504 15.6491 44.8071 16.5404 44.6659 17.4321C44.4831 18.5865 44.3019 19.7412 44.1198 20.8958C44.1052 20.9885 44.0869 21.0808 44.0722 21.1735C44.0593 21.2537 44.0117 21.291 43.9328 21.2925C43.8963 21.2933 43.8598 21.2946 43.8231 21.2946C43.0499 21.2946 42.2765 21.2949 41.5033 21.2946C41.2645 21.2946 41.2597 21.2925 41.2954 21.059C41.3783 20.5174 41.4659 19.9766 41.5517 19.4354C41.7053 18.4665 41.8588 17.4975 42.0128 16.5289C42.166 15.5652 42.3204 14.6017 42.4732 13.638C42.6229 12.6949 42.7712 11.7515 42.9204 10.8084C42.9497 10.6226 42.9574 10.6153 43.1513 10.615C43.5536 10.6142 43.9559 10.6147 44.3582 10.6147V10.6145Z" fill="white"/>
<path d="M28.4918 30.2243C28.553 30.1855 28.5737 30.1302 28.602 30.0829C29.1162 29.2287 29.6295 28.3739 30.143 27.5192C30.1565 27.4968 30.1737 27.4762 30.1837 27.4525C30.2311 27.3391 30.3182 27.3112 30.4352 27.312C31.015 27.3161 31.5949 27.3139 32.1747 27.3139C32.1852 27.3139 32.1956 27.3139 32.2061 27.3141C32.3638 27.3194 32.3788 27.3437 32.2982 27.473C31.901 28.1112 31.5031 28.7488 31.1051 29.3866C30.4198 30.4849 29.7344 31.583 29.0492 32.6815C28.3945 33.7312 27.7385 34.7802 27.0879 35.8323C27.0129 35.9534 26.9272 36.0001 26.7841 35.9982C26.22 35.9905 25.6558 35.9959 25.0916 35.994C25.0375 35.9938 24.964 36.0214 24.9336 35.9616C24.9039 35.9035 24.9665 35.8576 24.9956 35.811C25.7018 34.6826 26.4082 33.5545 27.1178 32.4283C27.1683 32.3481 27.1705 32.2787 27.1396 32.1941C26.9391 31.645 26.7421 31.0947 26.5433 30.5451C26.2435 29.7156 25.943 28.8864 25.6428 28.0569C25.5735 27.8655 25.5041 27.6741 25.4361 27.4823C25.3859 27.3407 25.4005 27.3161 25.5529 27.315C25.9499 27.3123 26.3469 27.3139 26.744 27.3138C26.9581 27.3138 27.1724 27.312 27.3865 27.3148C27.5195 27.3166 27.5355 27.3275 27.5772 27.4547C27.8264 28.2134 28.0736 28.9726 28.3219 29.7316C28.3749 29.8936 28.4183 30.0593 28.4918 30.2245V30.2243Z" fill="white"/>
<path d="M43.3556 33.1148C43.0163 33.1148 42.6768 33.1148 42.3374 33.1148C42.3061 33.1148 42.2747 33.1153 42.2434 33.1145C42.0906 33.1109 42.0755 33.0949 42.1186 32.9496C42.2332 32.5646 42.3518 32.1808 42.4683 31.7964C42.874 30.4584 43.2792 29.1204 43.6853 27.7826C44.0232 26.6694 44.3623 25.5566 44.7007 24.4435C44.7584 24.2539 44.8131 24.0633 44.8718 23.8739C44.9179 23.7253 44.9306 23.7134 45.0786 23.7132C45.8202 23.7118 46.5616 23.7126 47.3031 23.7129C47.3291 23.7129 47.3553 23.7149 47.381 23.7185C47.4368 23.7262 47.4668 23.7558 47.4528 23.8149C47.4409 23.8656 47.428 23.9162 47.4128 23.966C46.7892 26.0229 46.1653 28.0796 45.5413 30.1363C45.2596 31.0649 44.9778 31.9933 44.696 32.9217C44.6914 32.9368 44.6875 32.9519 44.6827 32.9667C44.6364 33.1046 44.6281 33.1131 44.4834 33.1139C44.1806 33.1155 43.8778 33.1145 43.5748 33.1145C43.5017 33.1145 43.4285 33.1145 43.3555 33.1145L43.3556 33.1148Z" fill="white"/>
<path d="M6.81373 4.44714C8.22413 4.44714 9.63468 4.44714 11.0451 4.44714C11.2982 4.44714 11.3131 4.42443 11.2999 4.73798C11.297 4.80877 11.2603 4.86703 11.2258 4.92529C10.7904 5.66234 10.3541 6.39891 9.9187 7.13595C9.0983 8.52468 8.27679 9.91263 7.46078 11.3039C7.38444 11.4339 7.28804 11.4719 7.15105 11.4574C7.07769 11.4495 7.03741 11.4157 7.03129 11.3399C7.01139 11.0956 6.98882 10.8516 6.96875 10.6074C6.93928 10.2489 6.9106 9.89023 6.88223 9.53174C6.85793 9.22508 6.8352 8.91826 6.8106 8.61161C6.78348 8.27378 6.75511 7.93611 6.72721 7.59845C6.70448 7.32311 6.67595 7.04793 6.662 6.77213C6.65636 6.66015 6.60855 6.60565 6.5109 6.56461C5.90429 6.30964 5.29941 6.05059 4.6939 5.79296C3.95391 5.47816 3.21391 5.1632 2.47344 4.84934C2.39821 4.81739 2.33692 4.78543 2.33081 4.68661C2.31842 4.48332 2.34538 4.4473 2.55119 4.4473C3.97209 4.44683 5.39299 4.44698 6.81389 4.44698L6.81373 4.44714Z" fill="white"/>
</g>
<defs>
<clipPath id="clip0_0_28">
<rect width="64" height="36" fill="white"/>
</clipPath>
</defs>
</svg>
