<svg width="105" height="92" viewBox="0 0 105 92" fill="none" xmlns="http://www.w3.org/2000/svg">
<g clip-path="url(#clip0_1_1304)">
<path d="M33.2462 74.2477C17.9755 68.9987 4.28401 57.0744 4.28401 41.01C4.28401 37.8773 4.82877 34.778 5.87809 31.831C11.4859 16.015 31.221 4.29941 54.6388 4.29941C69.1141 4.29941 84.6821 8.94915 95.0843 19.1584C95.2705 19.3813 97.8996 21.8219 100.201 25.3766C102.572 29.0348 104.13 33.0089 104.731 37.2265C106.733 51.5452 97.3935 64.0804 83.0229 71.2986C82.2412 71.6908 81.4452 72.0677 80.635 72.4281C80.3763 72.5433 80.1161 72.6569 79.8543 72.7683C79.0478 73.1128 78.2285 73.4419 77.3966 73.754C77.707 74.8756 78.0735 75.9897 78.4929 77.0927C79.0271 78.4924 79.648 79.8719 80.3536 81.2202C81.6351 83.6687 83.19 86.0047 84.9793 88.1719C85.111 88.3312 85.2443 88.4899 85.3781 88.6475C86.3724 89.8153 87.4397 90.9352 88.571 92C85.98 91.8147 83.4064 91.3991 80.8746 90.7632C73.9762 89.0313 67.3888 85.6676 61.617 80.8895C61.4695 80.7674 61.3224 80.6442 61.1765 80.5206C61.1283 80.4797 61.0807 80.4383 61.0326 80.3974C60.9348 80.3141 60.8369 80.2302 60.7391 80.1464C60.6814 80.0965 60.6243 80.0455 60.5667 79.9956C60.4794 79.9197 60.3921 79.8433 60.3054 79.7668C60.244 79.7127 60.1827 79.6575 60.1219 79.6028C60.0394 79.529 59.9568 79.4558 59.8749 79.3815C59.8114 79.3242 59.749 79.2663 59.6861 79.209C59.6067 79.1363 59.5269 79.0641 59.4481 78.9908C59.3841 78.9314 59.3201 78.8719 59.2566 78.8119C59.1788 78.7392 59.1011 78.667 59.0239 78.5938C58.9599 78.5333 58.8959 78.4717 58.8319 78.4107C58.7557 78.3379 58.6796 78.2652 58.6034 78.192C58.5389 78.1299 58.4749 78.0667 58.4104 78.0041C58.3136 77.9096 58.2168 77.8156 58.1211 77.7206C58.1184 77.7196 58.1158 77.7185 58.1131 77.7175C57.9169 77.7275 57.7207 77.7371 57.5239 77.7456C57.3272 77.7541 57.1304 77.7615 56.9332 77.7684C56.7322 77.7753 56.5307 77.7811 56.3292 77.7865C55.9383 77.7965 55.5464 77.8029 55.154 77.8056C54.9911 77.8066 54.8282 77.8072 54.6647 77.8072C54.2321 77.8072 53.799 77.8029 53.3647 77.7944C46.7266 77.6649 39.9171 76.5407 33.2462 74.2477ZM40.1017 41.458C42.3722 41.458 44.1974 41.1985 45.681 40.6655C47.2026 40.1199 48.4645 39.3343 49.4329 38.3301C50.3728 37.3879 51.0487 36.2908 51.4422 35.0694C51.8087 33.9325 51.9944 32.7493 51.9944 31.5529C51.9944 28.9632 50.9572 26.6829 48.912 24.7747C46.9011 22.8973 44.4936 21.9456 41.755 21.9456C37.6095 21.9456 34.3547 23.3729 32.0816 26.1877C30.9709 27.5635 30.1299 29.2126 29.582 31.0901C29.0515 32.908 28.7823 34.9887 28.7823 37.2748C28.7823 39.561 29.2499 41.7085 30.1722 43.9092C31.0724 46.0579 32.4306 48.232 34.2093 50.3711C35.9631 52.482 37.9258 54.3647 40.0419 55.9677C42.1591 57.5713 44.4878 58.938 46.963 60.0293L48.2651 60.6037L49.0156 59.3913L51.2026 55.8584L52.1631 54.3064L50.5251 53.5091C46.99 51.7893 44.199 49.7787 42.2294 47.5329C40.702 45.7909 39.7092 43.7908 39.219 41.4575H40.1022L40.1017 41.458ZM58.6748 43.9092C59.575 46.0573 60.9332 48.232 62.7113 50.3716C64.4657 52.4826 66.4284 54.3653 68.5445 55.9683C70.6616 57.5718 72.9903 58.9386 75.465 60.0299L76.7672 60.6042L77.5177 59.3919L79.7046 55.8589L80.6651 54.3069L79.0271 53.5096C75.492 51.7893 72.701 49.7787 70.732 47.5335C69.204 45.7909 68.2107 43.7908 67.7215 41.458H68.6048C70.8753 41.458 72.7005 41.1985 74.183 40.6655C75.7052 40.1199 76.9676 39.3343 77.936 38.3301C78.8759 37.3868 79.5518 36.2897 79.9448 35.0694C80.3113 33.9325 80.4969 32.7493 80.4969 31.5529C80.4969 28.9632 79.4592 26.6824 77.414 24.7747C75.4032 22.8973 72.9956 21.9456 70.2581 21.9456C66.1121 21.9456 62.8573 23.3729 60.5836 26.1877C59.4729 27.5635 58.632 29.2126 58.084 31.0901C57.5536 32.9075 57.2849 34.9882 57.2849 37.2748C57.2849 39.5615 57.7524 41.7085 58.6748 43.9092Z" fill="white"/>
<path d="M1.68082 28.6479C1.68347 28.6399 1.68612 28.6325 1.68876 28.6251C3.14533 24.5173 5.5079 20.6388 8.71087 17.0968C11.8335 13.644 15.6727 10.6004 20.1223 8.05105C24.5914 5.49051 29.5561 3.49792 34.8773 2.12901C40.3704 0.716569 46.1295 0 51.9944 0C59.64 0 67.3471 1.27655 74.2819 3.69219C77.9672 4.97564 81.4399 6.57969 84.6027 8.46029C87.9437 10.446 90.9658 12.757 93.586 15.3282C93.614 15.3558 93.6415 15.3845 93.6674 15.4142C93.6949 15.4434 93.7647 15.5135 93.8266 15.5761C94.5792 16.3346 96.8693 18.6425 98.9304 21.8267C101.479 25.7572 103.086 29.9674 103.708 34.3406C103.708 34.3417 103.708 34.3433 103.709 34.3443C104.226 38.0445 104.038 41.7372 103.15 45.3195C102.302 48.7415 100.816 52.0611 98.7342 55.1859C94.7532 61.1621 88.6593 66.3245 81.111 70.116C80.3012 70.5226 79.4746 70.9132 78.6532 71.2784C78.3935 71.3941 78.1233 71.512 77.8509 71.6282C77.4896 71.7822 77.1247 71.934 76.7571 72.0826C76.9481 72.6749 77.1559 73.2662 77.3791 73.8517C77.8911 75.193 78.4903 76.5221 79.1599 77.8008C80.3874 80.1458 81.88 82.389 83.5968 84.4681C83.7073 84.6018 83.829 84.7473 83.9813 84.9261C84.929 86.0392 85.9614 87.1231 87.0478 88.1459C87.5539 88.6226 87.7063 89.3673 87.4281 90.0053C87.1657 90.6072 86.5739 90.9915 85.9265 90.9915C85.8879 90.9915 85.8488 90.9899 85.8097 90.9873C83.143 90.7967 80.4588 90.3657 77.8318 89.7054C74.2724 88.8115 70.7738 87.4909 67.4333 85.7802C64.0854 84.0657 60.8877 81.9542 57.9291 79.5046C57.7805 79.3815 57.6276 79.2536 57.4748 79.1241C57.4436 79.0975 57.4129 79.071 57.3817 79.045L57.3261 78.9972L57.3013 78.976C57.2087 78.8969 57.1162 78.8178 57.0241 78.7382C56.9845 78.7037 56.9453 78.6697 56.9062 78.6352L56.8454 78.5821L56.8047 78.5466C56.728 78.4797 56.6518 78.4133 56.5756 78.3459C56.5317 78.3072 56.4879 78.2679 56.4445 78.2286L56.3863 78.1766L56.3413 78.1363C56.271 78.0736 56.2012 78.011 56.1314 77.9478C56.0848 77.9054 56.0378 77.8629 55.9912 77.8199L55.9367 77.77L55.9039 77.7403C55.8331 77.6755 55.7622 77.6108 55.6913 77.5455C55.6416 77.4998 55.5919 77.4531 55.5427 77.4069L55.4941 77.3613L55.4681 77.3369C55.3967 77.27 55.3253 77.2037 55.2545 77.1362C55.2042 77.089 55.1545 77.0412 55.1048 76.9935L55.0567 76.9478L55.0482 76.9399C54.9784 76.873 54.908 76.8061 54.8382 76.7387C54.6743 76.7456 54.5082 76.752 54.3437 76.7573C54.1417 76.7642 53.9333 76.7705 53.7249 76.7753C53.3235 76.7854 52.9184 76.7918 52.5206 76.795C52.3551 76.796 52.1864 76.7971 52.0192 76.7971C51.5771 76.7971 51.1286 76.7928 50.6875 76.7838C43.622 76.6458 36.6856 75.4229 30.0702 73.1489C26.0633 71.7715 22.2637 69.9881 18.7778 67.8469C15.12 65.6005 11.899 63.0145 9.2038 60.161C6.31393 57.1015 4.06455 53.7671 2.51701 50.2516C0.846237 46.4554 -0.000526428 42.4527 -0.000526428 38.3545C-0.000526428 35.053 0.564865 31.7865 1.6803 28.6463L1.68082 28.6479ZM30.6017 71.5937C37.2727 73.8867 44.0821 75.0104 50.7203 75.1405C51.1545 75.149 51.5877 75.1532 52.0203 75.1532C52.1832 75.1532 52.3466 75.1527 52.5095 75.1516C52.902 75.149 53.2939 75.1421 53.6847 75.1325C53.8862 75.1272 54.0877 75.1214 54.2887 75.1145C54.486 75.1076 54.6827 75.1001 54.8795 75.0916C55.0762 75.0831 55.2725 75.0736 55.4687 75.0635C55.4713 75.0646 55.474 75.0656 55.4766 75.0667C55.5729 75.1617 55.6691 75.2556 55.7659 75.3501C55.8299 75.4128 55.8944 75.4754 55.959 75.538C56.0346 75.6113 56.1113 75.684 56.1874 75.7567C56.2514 75.8178 56.3154 75.8788 56.3794 75.9398C56.4566 76.0131 56.5344 76.0853 56.6121 76.158C56.6761 76.2174 56.7396 76.2774 56.8036 76.3369C56.8829 76.4101 56.9623 76.4823 57.0416 76.555C57.1045 76.6124 57.1675 76.6702 57.2304 76.7275C57.3124 76.8018 57.3949 76.8751 57.4774 76.9489C57.5388 77.0035 57.5996 77.0588 57.6609 77.1129C57.7477 77.1899 57.8349 77.2658 57.9222 77.3417C57.9799 77.3921 58.037 77.4425 58.0946 77.4924C58.1919 77.5768 58.2903 77.6601 58.3882 77.7435C58.4363 77.7843 58.4839 77.8257 58.532 77.8666C58.6785 77.9903 58.825 78.1134 58.9726 78.2355C64.7444 83.0137 71.3317 86.3773 78.2301 88.1093C80.7619 88.7452 83.3355 89.1608 85.9265 89.346C84.7952 88.2813 83.7285 87.1613 82.7336 85.9936C82.5998 85.8359 82.4665 85.6777 82.3348 85.518C80.5451 83.3508 78.9906 81.0147 77.7091 78.5662C77.0036 77.2185 76.3821 75.8385 75.8485 74.4388C75.4286 73.3358 75.062 72.2216 74.7521 71.1001C75.5835 70.7874 76.4033 70.4589 77.2099 70.1144C77.4711 70.0024 77.7319 69.8894 77.9905 69.7742C78.8008 69.4138 79.5968 69.0369 80.3785 68.6446C94.7485 61.4264 104.088 48.8912 102.086 34.5726C101.486 30.3549 99.9274 26.3809 97.5558 22.7227C95.2546 19.168 92.6255 16.7274 92.4393 16.5044C82.0376 6.29519 66.4691 1.64545 51.9944 1.64545C28.5771 1.64545 8.8415 13.3611 3.23366 29.1766C2.1838 32.1235 1.63957 35.2233 1.63957 38.3561C1.63957 54.4205 15.331 66.3453 30.6017 71.5937Z" fill="#43BB9A"/>
<path d="M57.9391 23.5337C60.2123 20.7189 63.4671 19.2916 67.6136 19.2916C70.3512 19.2916 72.7592 20.2433 74.7696 22.1207C76.8153 24.0284 77.8525 26.3087 77.8525 28.899C77.8525 30.0959 77.6668 31.279 77.3003 32.4154C76.9073 33.6357 76.2314 34.7324 75.2916 35.6761C74.3232 36.6804 73.0602 37.4665 71.5386 38.0116C70.0561 38.5445 68.2309 38.8041 65.9603 38.8041H65.0771C65.5663 41.1369 66.5596 43.1369 68.0875 44.8795C70.0566 47.1248 72.8476 49.1354 76.3827 50.8557L78.0207 51.6529L77.0602 53.205L74.8732 56.7379L74.1227 57.9502L72.8206 57.3759C70.3459 56.2841 68.0172 54.9178 65.9 53.3143C63.7839 51.7113 61.8212 49.8286 60.0669 47.7176C58.2887 45.578 56.9305 43.4039 56.0304 41.2553C55.108 39.0546 54.6404 36.8221 54.6404 34.6209C54.6404 32.4197 54.9091 30.2535 55.4396 28.4361C55.9875 26.5587 56.8285 24.909 57.9391 23.5337ZM61.3256 46.6635C64.6899 50.7113 68.7407 53.7793 73.4796 55.8695L75.6666 52.3366C71.9172 50.5123 68.9798 48.3891 66.8557 45.9671C64.7322 43.5456 63.5041 40.6098 63.172 37.1591H65.9598C68.0172 37.1591 69.6932 36.9277 70.9869 36.4622C72.2811 35.9983 73.3262 35.3513 74.1227 34.5222C74.8854 33.7594 75.4254 32.8879 75.7406 31.9091C76.0558 30.9308 76.2134 29.9276 76.2134 28.899C76.2134 26.7763 75.3603 24.9175 73.6531 23.3256C71.9474 21.7327 69.9334 20.9371 67.6136 20.9371C63.969 20.9371 61.1686 22.1483 59.2132 24.5698C57.2579 26.9918 56.28 30.3416 56.28 34.6214C56.28 38.6029 57.9624 42.6167 61.3256 46.664V46.6635Z" fill="#43BB9A"/>
<path d="M29.4371 23.5337C31.7103 20.7189 34.9651 19.2916 39.1105 19.2916C41.8486 19.2916 44.2567 20.2433 46.2675 22.1207C48.3128 24.0284 49.3499 26.3092 49.3499 28.899C49.3499 30.0959 49.1643 31.279 48.7977 32.4154C48.4042 33.6368 47.7283 34.7339 46.7885 35.6761C45.8201 36.6804 44.5581 37.4659 43.0365 38.0116C41.553 38.545 39.7278 38.8041 37.4572 38.8041H36.574C37.0637 41.1374 38.0565 43.1374 39.5844 44.8795C41.554 47.1253 44.3455 49.1359 47.8801 50.8557L49.5181 51.6529L48.5576 53.205L46.3707 56.7379L45.6202 57.9502L44.318 57.3759C41.8428 56.2841 39.5141 54.9178 37.3969 53.3143C35.2808 51.7113 33.3181 49.8286 31.5643 47.7176C29.7856 45.578 28.4274 43.4039 27.5273 41.2558C26.6049 39.0551 26.1373 36.8226 26.1373 34.6214C26.1373 32.4202 26.4065 30.2546 26.937 28.4366C27.485 26.5592 28.3259 24.9101 29.4366 23.5342L29.4371 23.5337ZM32.8236 46.6635C36.1874 50.7113 40.2381 53.7793 44.9776 55.8695L47.1645 52.3366C43.4147 50.5123 40.4777 48.3891 38.3532 45.9671C36.2297 43.5456 35.0021 40.6098 34.6694 37.1591H37.4572C39.5146 37.1591 41.1907 36.9277 42.4849 36.4622C43.7786 35.9983 44.8236 35.3513 45.6196 34.5222C46.3834 33.7594 46.9223 32.8879 47.2375 31.9091C47.5527 30.9308 47.7103 29.9276 47.7103 28.899C47.7103 26.7763 46.8572 24.9175 45.1505 23.3256C43.4443 21.7327 41.4308 20.9371 39.1105 20.9371C35.4659 20.9371 32.6665 22.1483 30.7107 24.5698C28.7554 26.9918 27.7769 30.3416 27.7769 34.6214C27.7769 38.6029 29.4593 42.6167 32.8236 46.664V46.6635Z" fill="#43BB9A"/>
</g>
<defs>
<clipPath id="clip0_1_1304">
<rect width="105" height="92" fill="white" transform="matrix(-1 0 0 1 105 0)"/>
</clipPath>
</defs>
</svg>
