<svg width="38" height="65" viewBox="0 0 38 65" fill="none" xmlns="http://www.w3.org/2000/svg">
<g clip-path="url(#clip0_1_1167)">
<path d="M30.2773 2.50745H5.13079C2.30172 2.50745 0 4.73409 0 7.47089V60.0366C0 62.7734 2.30172 65 5.13079 65H30.2773C33.1063 65 35.408 62.7734 35.408 60.0366V7.47089C35.408 4.73409 33.1063 2.50745 30.2773 2.50745ZM15.7997 4.56167H19.608C20.6726 4.56167 21.5388 5.39964 21.5388 6.42954C21.5388 7.45944 20.6726 8.29741 19.608 8.29741H15.7997C14.7351 8.29741 13.8689 7.45944 13.8689 6.42954C13.8689 5.39964 14.7351 4.56167 15.7997 4.56167ZM21.6793 62.4716H13.7287C12.6641 62.4716 11.7979 61.6336 11.7979 60.6037C11.7979 59.5738 12.6641 58.7358 13.7287 58.7358H21.6793C22.7439 58.7358 23.6102 59.5738 23.6102 60.6037C23.6102 61.6336 22.7439 62.4716 21.6793 62.4716ZM31.0312 53.1331H4.37689V13.4571H31.0312V53.1334V53.1331Z" fill="#0E4C9A"/>
<path d="M31.8772 0H6.73078C3.35452 0 0.608002 2.65724 0.608002 5.92308V58.4888C0.608002 61.7549 3.35452 64.4118 6.73078 64.4118H31.8772C35.2535 64.4118 38 61.7549 38 58.4888V5.92308C38 2.65693 35.2532 0 31.8772 0ZM37.008 58.4888C37.008 61.2256 34.7063 63.4522 31.8772 63.4522H6.73078C3.90171 63.4522 1.59999 61.2256 1.59999 58.4888V5.92308C1.59999 3.18628 3.90171 0.959629 6.73078 0.959629H31.8772C34.7063 0.959629 37.008 3.18628 37.008 5.92308V58.4888Z" fill="#2B2C2C"/>
<path d="M17.3997 6.7499H21.208C22.2726 6.7499 23.1388 5.91193 23.1388 4.88203C23.1388 3.85213 22.2726 3.01416 21.208 3.01416H17.3997C16.3351 3.01416 15.4689 3.85213 15.4689 4.88203C15.4689 5.91193 16.3351 6.7499 17.3997 6.7499ZM17.3997 3.97379H21.208C21.7264 3.97379 22.1468 4.38055 22.1468 4.88203C22.1468 5.38351 21.7264 5.79027 21.208 5.79027H17.3997C16.8813 5.79027 16.4609 5.38351 16.4609 4.88203C16.4609 4.38055 16.8813 3.97379 17.3997 3.97379Z" fill="#2B2C2C"/>
<path d="M23.2793 57.1884H15.3287C14.2641 57.1884 13.3979 58.0263 13.3979 59.0562C13.3979 60.0861 14.2641 60.9241 15.3287 60.9241H23.2793C24.3439 60.9241 25.2101 60.0861 25.2101 59.0562C25.2101 58.0263 24.3439 57.1884 23.2793 57.1884ZM23.2793 59.9645H15.3287C14.8103 59.9645 14.3898 59.5577 14.3898 59.0562C14.3898 58.5547 14.8103 58.148 15.3287 58.148H23.2793C23.798 58.148 24.2182 58.5547 24.2182 59.0562C24.2182 59.5577 23.7977 59.9645 23.2793 59.9645Z" fill="#2B2C2C"/>
<path d="M4.98489 52.5453H33.6231V10.9497H4.98489V52.5453ZM5.97688 11.9096H32.6311V51.5857H5.97688V11.9093V11.9096Z" fill="#2B2C2C"/>
</g>
<defs>
<clipPath id="clip0_1_1167">
<rect width="38" height="65" fill="white"/>
</clipPath>
</defs>
</svg>
