<svg width="78" height="65" viewBox="0 0 78 65" fill="none" xmlns="http://www.w3.org/2000/svg">
<g clip-path="url(#clip0_1_1177)">
<path d="M23.8285 57.9098V55.1926C23.1588 56.112 22.2308 56.9388 21.0672 57.6518C18.6123 59.1559 15.3618 59.9846 11.9145 59.9846C8.46711 59.9846 5.21662 59.1562 2.76167 57.6518C1.59767 56.9388 0.670126 56.112 0.00038147 55.1923V57.9094C0.00038147 59.7523 1.20437 61.505 3.39026 62.8444C5.65885 64.2346 8.68609 65 11.9145 65C15.1428 65 18.1704 64.2346 20.439 62.8444C22.6249 61.505 23.8289 59.7523 23.8289 57.9094L23.8285 57.9098Z" fill="#43BB9A"/>
<path d="M25.1327 51.8057C25.1568 52.6783 25.4518 53.5293 25.9923 54.3238L26.9598 55.2676C27.4246 55.7211 27.9716 56.1415 28.5858 56.518C30.835 57.8962 33.8394 58.6554 37.0448 58.6554C40.2503 58.6554 43.255 57.8962 45.5042 56.518C46.118 56.1419 46.6651 55.7211 47.1302 55.2676L48.0989 54.3231C48.663 53.4935 48.9593 52.6026 48.9593 51.6891V48.7167C48.2895 49.636 47.3616 50.4628 46.198 51.1758C43.743 52.6799 40.4922 53.5083 37.0452 53.5083C33.5983 53.5083 30.3474 52.6799 27.8924 51.1754C26.7288 50.4624 25.8009 49.6356 25.1311 48.7163V51.801L25.1327 51.8049V51.8057Z" fill="#43BB9A"/>
<path d="M48.9597 57.9097V55.1662L47.9708 56.1305C47.4416 56.6465 46.8235 57.1225 46.1331 57.5456C43.6972 59.0381 40.4696 59.8602 37.0452 59.8602C33.6208 59.8602 30.3936 59.0381 27.9576 57.5456C27.2673 57.1225 26.6488 56.6465 26.12 56.1305L25.1311 55.1658V57.9093C25.1311 59.7522 26.3351 61.505 28.521 62.8443C30.7896 64.2345 33.8168 64.9999 37.0452 64.9999C40.2736 64.9999 43.3012 64.2345 45.5698 62.8443C47.7557 61.505 48.9597 59.7522 48.9597 57.9093V57.9097Z" fill="#43BB9A"/>
<path d="M74.0904 42.2419C73.4207 43.1613 72.4927 43.9881 71.3291 44.7011C68.8742 46.2055 65.6233 47.0339 62.1763 47.0339C58.7294 47.0339 55.4785 46.2055 53.0236 44.7011C51.8599 43.9881 50.932 43.1613 50.2623 42.2419V45.2143C50.2623 46.1274 50.5581 47.0184 51.1223 47.8479L52.091 48.7929C52.5557 49.2463 53.1028 49.6671 53.717 50.0432C55.9662 51.4214 58.9705 52.1806 62.1759 52.1806C65.3814 52.1806 68.3861 51.4218 70.6353 50.0432C71.2495 49.6671 71.7966 49.2463 72.2613 48.7929L73.2304 47.8479C73.7946 47.0184 74.0904 46.1274 74.0904 45.2143V42.2423V42.2419Z" fill="#43BB9A"/>
<path d="M71.2643 51.0701C68.8284 52.5626 65.6008 53.3847 62.1763 53.3847C58.7519 53.3847 55.5247 52.563 53.0888 51.0701C52.3985 50.6474 51.7804 50.171 51.2512 49.6551L50.2623 48.6907V51.6895C50.2623 52.6026 50.5581 53.4931 51.1223 54.3227L52.0913 55.268C52.5561 55.7215 53.1031 56.1423 53.7174 56.5184C55.9665 57.8966 58.9709 58.6558 62.1763 58.6558C65.3818 58.6558 68.3865 57.897 70.6361 56.5184C71.2499 56.1423 71.797 55.7219 72.2621 55.2684L73.2312 54.3235C73.7953 53.4939 74.0912 52.603 74.0912 51.6899V48.6915L73.1023 49.6558C72.5735 50.1718 71.955 50.6478 71.2647 51.0705L71.2643 51.0701Z" fill="#43BB9A"/>
<path d="M74.0904 57.9097V55.1662L73.1015 56.1305C72.5727 56.6465 71.9542 57.1225 71.2639 57.5452C68.828 59.0377 65.6004 59.8598 62.1759 59.8598C58.7515 59.8598 55.5243 59.0377 53.0884 57.5452C52.3981 57.1225 51.78 56.6461 51.2508 56.1301L50.2619 55.1658V57.9093C50.2619 59.7522 51.4659 61.505 53.6517 62.8443C55.9203 64.2345 58.9476 64.9999 62.1759 64.9999C65.4043 64.9999 68.4319 64.2345 70.7005 62.8443C72.8864 61.505 74.0904 59.7522 74.0904 57.9093V57.9097Z" fill="#43BB9A"/>
<path d="M0 51.6895C0 53.5324 1.20399 55.2851 3.38988 56.6244C5.65846 58.0143 8.68571 58.7797 11.9141 58.7797C15.1424 58.7797 18.1701 58.0143 20.4383 56.6244C22.6242 55.2851 23.8281 53.5324 23.8281 51.6895C23.8281 49.8466 22.6242 48.0939 20.4383 46.7545C18.1697 45.3647 15.1424 44.5992 11.9137 44.5992C8.68493 44.5992 5.65769 45.3647 3.3891 46.7545C1.20399 48.0939 0 49.8462 0 51.6895ZM7.6312 49.8178C7.6312 48.3557 8.4679 47.1594 9.83107 46.5739V45.4405H13.888V46.5307C14.4482 46.7491 14.9188 47.0692 15.2927 47.4885C15.7935 48.0499 16.0948 48.7719 16.1632 49.5766L16.2742 50.8829H15.4783C16.0086 51.4443 16.3666 52.2133 16.3666 53.2849C16.3666 54.2745 16.0265 55.1394 15.3824 55.786C15.0077 56.1625 14.5465 56.4531 14.0048 56.6555V57.9389H9.93784V56.6555C9.38923 56.4481 8.91012 56.1485 8.52342 55.7677C7.90026 55.1546 7.53452 54.36 7.46542 53.4702L7.36486 52.1725H8.5669C8.01014 51.6161 7.6312 50.8607 7.6312 49.8178Z" fill="#43BB9A"/>
<path d="M25.1311 45.2139C25.1311 47.0568 26.3351 48.8095 28.521 50.1489C30.7896 51.5387 33.8168 52.3041 37.0456 52.3041C40.2743 52.3041 43.3012 51.5387 45.5698 50.1489C47.7557 48.8095 48.9597 47.0568 48.9597 45.2139C48.9597 43.371 47.7557 41.6183 45.5698 40.2789C43.3012 38.8891 40.274 38.1237 37.0456 38.1237C33.8172 38.1237 30.7896 38.8891 28.521 40.2789C26.3351 41.6183 25.1311 43.371 25.1311 45.2139ZM32.7623 43.3423C32.7623 41.8802 33.599 40.6838 34.9622 40.0983V38.9649H39.0191V40.0551C39.5797 40.2735 40.0499 40.5937 40.4238 41.0129C40.9251 41.5744 41.226 42.2963 41.2943 43.101L41.4053 44.4073H40.6094C41.1398 44.9687 41.4977 45.7377 41.4977 46.8093C41.4977 47.7989 41.1576 48.6638 40.5135 49.3104C40.1388 49.6869 39.6776 49.9775 39.136 50.1799V51.4633H35.069V50.1799C34.5204 49.9725 34.0413 49.6729 33.6545 49.2921C33.0314 48.679 32.6657 47.8844 32.5965 46.9946L32.496 45.6969H33.698C33.1413 45.1405 32.7623 44.3851 32.7623 43.3423Z" fill="#43BB9A"/>
<path d="M50.2623 38.7387C50.2623 40.582 51.4663 42.3347 53.6521 43.6736C55.9207 45.0635 58.948 45.8293 62.1763 45.8293C65.4047 45.8293 68.4323 45.0639 70.7009 43.6736C72.8868 42.3343 74.0908 40.5816 74.0908 38.7387C74.0908 36.8958 72.8868 35.143 70.7009 33.8037C68.4323 32.4139 65.4051 31.6484 62.1763 31.6484C58.9476 31.6484 55.9203 32.4139 53.6521 33.8037C51.4663 35.143 50.2623 36.8958 50.2623 38.7387ZM57.8935 36.867C57.8935 35.4049 58.7302 34.2086 60.0933 33.623V32.4896H64.1502V33.5799C64.7109 33.7983 65.1811 34.1184 65.5553 34.5377C66.0566 35.0991 66.3575 35.8211 66.4258 36.6258L66.5369 37.9321H65.7409C66.2713 38.4935 66.6293 39.2624 66.6293 40.3341C66.6293 41.3237 66.2891 42.1886 65.645 42.8352C65.2704 43.2117 64.8091 43.5023 64.2675 43.7047V44.9881H60.2005V43.7047C59.6519 43.4972 59.1728 43.1977 58.7861 42.8169C58.1629 42.2038 57.7972 41.4092 57.7281 40.5194L57.6275 39.2216H58.8296C58.2724 38.6649 57.8939 37.9099 57.8939 36.867H57.8935Z" fill="#43BB9A"/>
<path d="M7.64828 34.84C11.1519 35.1874 14.6264 35.3634 17.9748 35.3634C20.6693 35.3634 23.3281 35.2492 25.8777 35.0238C32.2467 34.4608 38.1055 33.1957 43.2923 31.263C49.0521 29.1171 54.0284 26.1288 58.0833 22.3812C61.3777 19.3365 64.1052 15.7413 66.2076 11.6771L66.6762 13.4939C66.9107 14.4027 67.7288 15.0376 68.6664 15.0376C68.8396 15.0376 69.0128 15.0155 69.1809 14.972C70.2785 14.6883 70.9412 13.5642 70.6582 12.4654L68.6536 4.69056C68.4836 4.0308 67.9998 3.49926 67.3592 3.26847C67.1352 3.18765 66.901 3.14685 66.663 3.14685C66.2266 3.14685 65.8096 3.28207 65.4559 3.53851L58.96 8.25122C58.5154 8.57372 58.2227 9.05047 58.1361 9.59327C58.0495 10.1361 58.1796 10.68 58.5019 11.1249C58.8874 11.6572 59.5102 11.9751 60.1675 11.9751C60.6031 11.9751 61.0201 11.8395 61.3734 11.5834L61.6957 11.3495C52.1865 27.6997 32.633 31.2164 17.5795 31.2164C14.4191 31.2164 11.2148 31.0575 8.05478 30.7443C7.98723 30.7377 7.9185 30.7342 7.85056 30.7342C6.78945 30.7342 5.91044 31.5315 5.806 32.5892C5.69418 33.7183 6.52117 34.7277 7.64944 34.8396L7.64828 34.84Z" fill="#0E4C9A"/>
<path d="M77.2353 36.796C77.2353 35.6307 76.8696 34.5074 76.1486 33.4572C75.4714 32.4718 74.5031 31.589 73.2704 30.8337C70.8151 29.3296 67.5646 28.5009 64.1176 28.5009C60.6707 28.5009 57.4198 29.3292 54.9648 30.8337C53.7321 31.589 52.7638 32.4718 52.0867 33.4572C51.3653 34.507 51 35.6303 51 36.796C51 37.0175 51.0132 37.2374 51.0396 37.4557L51 37.4169V39.9075C50.324 38.9318 49.3619 38.0576 48.1397 37.3085C45.6843 35.8044 42.4338 34.976 38.9869 34.976C35.5399 34.976 32.289 35.8044 29.8341 37.3085C28.6014 38.0638 27.6331 38.9466 26.9559 39.932C26.2346 40.9818 25.8692 42.1051 25.8692 43.2708C25.8692 43.4922 25.8828 43.7126 25.9088 43.9309L25.8688 43.8921V46.3827C25.1929 45.407 24.2308 44.5328 23.0085 43.784C20.5532 42.2796 17.3027 41.4512 13.8557 41.4512C10.4088 41.4512 7.15791 42.2796 4.70296 43.784C3.47024 44.5394 2.50193 45.4222 1.82481 46.4075C1.10342 47.4574 0.738074 48.5807 0.738074 49.7463C0.738074 49.9678 0.751275 50.1877 0.777677 50.4061L0.737686 50.3672V53.2231V55.9666C0.737686 57.1319 1.10342 58.2552 1.82442 59.3054C2.50154 60.2908 3.46985 61.1736 4.70257 61.9289C7.15752 63.4334 10.408 64.2618 13.855 64.2618C17.3019 64.2618 20.5528 63.4334 23.0081 61.9289C24.2409 61.1736 25.2092 60.2908 25.8863 59.3054C26.0944 59.0023 26.2722 58.6927 26.4209 58.378C26.5696 58.6927 26.7474 59.0023 26.9556 59.3054C27.6327 60.2908 28.6006 61.1736 29.8337 61.9289C32.2887 63.4334 35.5392 64.2618 38.9865 64.2618C42.4338 64.2618 45.6843 63.4334 48.1397 61.9289C49.3724 61.1736 50.3407 60.2908 51.0178 59.3054C51.2259 59.0023 51.4037 58.6927 51.5524 58.378C51.7011 58.6927 51.879 59.002 52.0871 59.3054C52.7642 60.2908 53.7325 61.1736 54.9652 61.9289C57.4202 63.4334 60.6707 64.2618 64.118 64.2618C67.5654 64.2618 70.8158 63.4334 73.2712 61.9289C74.5039 61.1736 75.4722 60.2908 76.1493 59.3054C76.8707 58.2556 77.2361 57.1323 77.2361 55.9666V50.3672L77.1965 50.4061C77.2229 50.1877 77.2361 49.9678 77.2361 49.7463V43.8921L77.1965 43.9309C77.2229 43.7126 77.2361 43.4926 77.2361 43.2712V37.4169L77.1965 37.4557C77.2229 37.2374 77.2361 37.0175 77.2361 36.796H77.2353ZM25.7694 55.967C25.7694 57.8099 24.5654 59.5626 22.3795 60.902C20.111 62.2922 17.0833 63.0576 13.855 63.0576C10.6266 63.0576 7.59936 62.2922 5.33077 60.902C3.14488 59.5626 1.9409 57.8099 1.9409 55.967V53.2499C2.61064 54.1692 3.53819 54.996 4.70218 55.7094C7.15714 57.2139 10.408 58.0422 13.855 58.0422C17.3019 58.0422 20.5528 57.2139 23.0078 55.7094C24.1714 54.9964 25.0993 54.1696 25.769 53.2503V55.9674L25.7694 55.967ZM22.3795 54.6817C20.111 56.0715 17.0837 56.837 13.8554 56.837C10.627 56.837 7.59936 56.0715 5.33116 54.6817C3.14527 53.3424 1.94128 51.5896 1.94128 49.7467C1.94128 47.9038 3.14527 46.1511 5.33116 44.8118C7.59975 43.4219 10.627 42.6565 13.8557 42.6565C17.0845 42.6565 20.1117 43.4219 22.3803 44.8118C24.5662 46.1511 25.7702 47.9038 25.7702 49.7467C25.7702 51.5896 24.5662 53.3424 22.3803 54.6817H22.3795ZM50.9006 55.967C50.9006 57.8099 49.6966 59.5626 47.5107 60.902C45.2421 62.2922 42.2149 63.0576 38.9861 63.0576C35.7574 63.0576 32.7305 62.2922 30.4619 60.902C28.276 59.5626 27.072 57.8099 27.072 55.967V53.2235L28.0609 54.1882C28.5897 54.7042 29.2082 55.1802 29.8985 55.6033C32.3345 57.0957 35.5617 57.9179 38.9861 57.9179C42.4105 57.9179 45.6381 57.0957 48.074 55.6033C48.7644 55.1806 49.3825 54.7042 49.9117 54.1882L50.9006 53.2239V55.9674V55.967ZM50.9006 49.7467C50.9006 50.6602 50.6047 51.5511 50.0402 52.3807L49.0715 53.3253C48.6063 53.7787 48.0593 54.1995 47.4455 54.5756C45.1959 55.9538 42.1916 56.713 38.9861 56.713C35.7806 56.713 32.7763 55.9542 30.5271 54.5756C29.9129 54.1995 29.3659 53.7787 28.9011 53.3253L27.9336 52.3815C27.3931 51.5869 27.098 50.736 27.074 49.8633L27.0724 49.8594V46.7747C27.7422 47.694 28.6697 48.5208 29.8337 49.2338C32.2887 50.7379 35.5395 51.5667 38.9865 51.5667C42.4334 51.5667 45.6843 50.7383 48.1393 49.2342C49.3033 48.5212 50.2308 47.6944 50.9006 46.7751V49.7475V49.7467ZM47.5107 48.2065C45.2421 49.5964 42.2149 50.3618 38.9865 50.3618C35.7581 50.3618 32.7305 49.5964 30.4619 48.2065C28.276 46.8672 27.072 45.1144 27.072 43.2716C27.072 41.4287 28.276 39.6759 30.4619 38.3366C32.7305 36.9467 35.7577 36.1813 38.9865 36.1813C42.2152 36.1813 45.2421 36.9467 47.5107 38.3366C49.6966 39.6759 50.9006 41.4287 50.9006 43.2716C50.9006 45.1144 49.6966 46.8672 47.5107 48.2065ZM76.0317 55.967C76.0317 57.8099 74.8277 59.5626 72.6418 60.902C70.3732 62.2922 67.346 63.0576 64.1172 63.0576C60.8885 63.0576 57.8616 62.2922 55.593 60.902C53.4072 59.5626 52.2032 57.8099 52.2032 55.967V53.2235L53.1921 54.1878C53.7213 54.7038 54.3394 55.1798 55.0297 55.6029C57.4656 57.0954 60.6928 57.9175 64.1172 57.9175C67.5417 57.9175 70.7692 57.0954 73.2052 55.6029C73.8955 55.1802 74.5136 54.7038 75.0428 54.1882L76.0317 53.2239V55.9674V55.967ZM76.0317 49.7467C76.0317 50.6598 75.7358 51.5508 75.1717 52.3803L74.2026 53.3253C73.7375 53.7787 73.1904 54.1995 72.5766 54.5752C70.327 55.9534 67.3227 56.7126 64.1168 56.7126C60.911 56.7126 57.9071 55.9538 55.6579 54.5752C55.044 54.1991 54.497 53.7783 54.0319 53.3249L53.0628 52.3795C52.4986 51.55 52.2028 50.6594 52.2028 49.7463V46.7475L53.1917 47.7119C53.7209 48.2279 54.339 48.7039 55.0293 49.127C57.4652 50.6194 60.6924 51.4416 64.1168 51.4416C67.5413 51.4416 70.7689 50.6198 73.2048 49.127C73.8951 48.7039 74.5136 48.2279 75.0424 47.7123L76.0313 46.7479V49.7463L76.0317 49.7467ZM76.0317 43.2716C76.0317 44.1846 75.7358 45.0756 75.1717 45.9051L74.2026 46.8501C73.7379 47.3035 73.1908 47.7239 72.5766 48.1004C70.3274 49.4786 67.3231 50.2378 64.1172 50.2378C60.9114 50.2378 57.9074 49.479 55.6583 48.1004C55.0444 47.7243 54.4974 47.3035 54.0322 46.8501L53.0635 45.9051C52.4994 45.0756 52.2036 44.1846 52.2036 43.2716V40.2992C52.8733 41.2185 53.8012 42.0453 54.9648 42.7583C57.4198 44.2627 60.6703 45.0911 64.1176 45.0911C67.565 45.0911 70.8155 44.2627 73.2704 42.7583C74.434 42.0453 75.362 41.2185 76.0317 40.2992V43.2712V43.2716ZM72.6418 41.7313C70.3732 43.1212 67.346 43.887 64.1172 43.887C60.8885 43.887 57.8612 43.1216 55.593 41.7313C53.4072 40.392 52.2032 38.6397 52.2032 36.7964C52.2032 34.9531 53.4072 33.2007 55.593 31.8614C57.8616 30.4716 60.8889 29.7061 64.1172 29.7061C67.3456 29.7061 70.3732 30.4716 72.6418 31.8614C74.8277 33.2007 76.0317 34.9535 76.0317 36.7964C76.0317 38.6393 74.8277 40.392 72.6418 41.7313Z" fill="#2B2C2C"/>
<path d="M9.47076 34.096C13.0136 34.4472 16.5277 34.6252 19.9157 34.6252C22.6455 34.6252 25.34 34.5094 27.9246 34.2809C34.4008 33.7082 40.3656 32.4194 45.6529 30.4494C51.5602 28.2487 56.6701 25.178 60.8407 21.3236C63.5523 18.8174 65.8966 15.9429 67.8344 12.7522C68.4164 13.6948 69.455 14.2994 70.6069 14.2994C70.8818 14.2994 71.1559 14.2644 71.4223 14.1956C72.264 13.9784 72.9718 13.445 73.4144 12.6939C73.857 11.9428 73.9813 11.0651 73.7639 10.2219L71.7593 2.44708C71.4898 1.4015 70.7226 0.558345 69.707 0.19272C69.3517 0.0648877 68.9805 0 68.6031 0C67.9117 0 67.2501 0.214479 66.6902 0.620901L60.1939 5.334C59.4892 5.84533 59.0252 6.60067 58.8882 7.46131C58.7511 8.32195 58.9569 9.18414 59.4678 9.88974C59.8844 10.4648 60.475 10.8817 61.1389 11.0892C51.4251 25.0521 33.3346 28.0696 19.52 28.0696C16.3992 28.0696 13.2345 27.9126 10.1141 27.6037C10.0073 27.5932 9.89862 27.5878 9.79146 27.5878C8.10875 27.5878 6.71491 28.8521 6.54873 30.5287C6.37169 32.3187 7.68244 33.9188 9.47076 34.096ZM7.74612 30.6468C7.85056 29.5892 8.72996 28.7919 9.79068 28.7919C9.85863 28.7919 9.92735 28.7954 9.9949 28.802C13.1545 29.1152 16.3592 29.2741 19.5196 29.2741C34.5732 29.2741 54.1266 25.7573 63.6358 9.40716L63.3135 9.64107C62.9602 9.89751 62.5432 10.0327 62.1076 10.0327C61.4503 10.0327 60.8275 9.71489 60.442 9.18258C60.1197 8.7373 59.9897 8.19372 60.0762 7.65092C60.1628 7.10812 60.4552 6.63137 60.9001 6.30887L67.3961 1.59616C67.7494 1.34011 68.1667 1.2045 68.6031 1.2045C68.8411 1.2045 69.0753 1.2453 69.2993 1.32612C69.9399 1.55692 70.4237 2.08845 70.5937 2.74821L72.5983 10.5231C72.8817 11.6219 72.219 12.746 71.121 13.0296C70.9529 13.0731 70.7797 13.0953 70.6066 13.0953C69.6693 13.0953 68.8509 12.4604 68.6163 11.5516L68.1477 9.73471C66.0457 13.7989 63.3178 17.3942 60.0234 20.4389C55.9685 24.1864 50.9922 27.1747 45.2324 29.3207C40.046 31.2529 34.1868 32.5185 27.8179 33.0815C25.2682 33.3068 22.6094 33.4211 19.9149 33.4211C16.5666 33.4211 13.0924 33.245 9.5884 32.8977C8.46012 32.7858 7.63313 31.7763 7.74495 30.6472L7.74612 30.6468Z" fill="#2B2C2C"/>
<path d="M18.2155 48.9401L18.1044 47.6338C18.0361 46.8291 17.7352 46.1072 17.234 45.5457C16.8597 45.1265 16.3895 44.8063 15.8293 44.588V43.4977H11.7723V44.6311C10.4088 45.2166 9.57248 46.413 9.57248 47.8751C9.57248 48.9179 9.95103 49.6729 10.5082 50.2297H9.30614L9.4067 51.5274C9.47581 52.4172 9.84154 53.2118 10.4647 53.8249C10.8514 54.2057 11.3309 54.5053 11.8791 54.7128V55.9961H15.9461V54.7128C16.4877 54.5107 16.949 54.2197 17.3237 53.8432C17.9674 53.1963 18.3079 52.3313 18.3079 51.3421C18.3079 50.2705 17.9499 49.5015 17.4196 48.9401H18.2155ZM14.7425 53.7837V54.7913H13.0827V53.7884C11.5607 53.5498 10.6984 52.6189 10.6064 51.4342H12.5823C12.7317 52.0073 13.1821 52.3982 13.9811 52.3982C14.8524 52.3982 15.1013 51.9945 15.1013 51.5811C15.1013 51.0355 14.8077 50.7838 13.5832 50.4624C11.4008 49.8699 10.7761 49.0279 10.7761 47.8747C10.7761 46.6088 11.6807 45.7629 12.9759 45.5189V44.7018H14.6257V45.5084C16.2323 45.7625 16.8216 46.7498 16.9051 47.7352H14.9297C14.8473 47.4461 14.7305 46.8909 13.7373 46.8909C12.9507 46.8909 12.7667 47.3268 12.7667 47.6505C12.7667 48.1311 13.0454 48.353 14.3845 48.7066C16.4078 49.2245 17.1047 50.0214 17.1047 51.3413C17.1047 52.6612 16.2031 53.5545 14.7429 53.783L14.7425 53.7837Z" fill="#2B2C2C"/>
<path d="M43.3466 42.4645L43.2356 41.1582C43.1672 40.3535 42.8663 39.6316 42.3651 39.0701C41.9908 38.6509 41.5206 38.3307 40.9604 38.1124V37.0221H36.9035V38.1555C35.5399 38.741 34.7036 39.9374 34.7036 41.3995C34.7036 42.4424 35.0822 43.1973 35.6393 43.7541H34.4373L34.5378 45.0518C34.6069 45.9416 34.9727 46.7362 35.5958 47.3493C35.9825 47.7301 36.462 48.0297 37.0103 48.2372V49.5206H41.0773V48.2372C41.6189 48.0351 42.0801 47.7441 42.4548 47.3676C43.0985 46.7207 43.439 45.8558 43.439 44.8665C43.439 43.7949 43.081 43.026 42.5507 42.4645H43.3466ZM39.8737 47.3082V48.3157H38.2139V47.3128C36.6919 47.0743 35.8296 46.1433 35.7375 44.9586H37.7134C37.8629 45.5317 38.3132 45.9226 39.1123 45.9226C39.9835 45.9226 40.2324 45.5189 40.2324 45.1055C40.2324 44.5599 39.9389 44.3086 38.7143 43.9872C36.5319 43.3947 35.9072 42.5527 35.9072 41.3995C35.9072 40.1336 36.8119 39.2877 38.1071 39.0437V38.2266H39.7568V39.0332C41.3634 39.2873 41.9528 40.2746 42.0362 41.26H40.0604C39.9781 40.9709 39.8612 40.4157 38.8681 40.4157C38.0815 40.4157 37.8974 40.8516 37.8974 41.1753C37.8974 41.6559 38.1762 41.8778 39.5153 42.2314C41.5385 42.7493 42.2354 43.5462 42.2354 44.8661C42.2354 46.186 41.3339 47.0793 39.8737 47.3078V47.3082Z" fill="#2B2C2C"/>
<path d="M68.4774 35.9894L68.3663 34.6831C68.298 33.8784 67.9971 33.1561 67.4958 32.595C67.1216 32.1758 66.6514 31.8556 66.0907 31.6373V30.547H62.0338V31.6804C60.6703 32.2659 59.834 33.4623 59.834 34.9244C59.834 35.9673 60.2125 36.7222 60.7697 37.279H59.5676L59.6682 38.5768C59.7373 39.4665 60.103 40.2611 60.7262 40.8742C61.1129 41.255 61.5924 41.5546 62.1406 41.7621V43.0455H66.2076V41.7621C66.7492 41.56 67.2105 41.269 67.5851 40.8925C68.2289 40.2456 68.5694 39.3807 68.5694 38.3914C68.5694 37.3198 68.2114 36.5509 67.681 35.9894H68.477H68.4774ZM65.0048 40.8331V41.8406H63.345V40.8377C61.823 40.5992 60.9607 39.6682 60.8687 38.4835H62.8445C62.994 39.0566 63.4444 39.4475 64.2434 39.4475C65.1147 39.4475 65.3635 39.0438 65.3635 38.6304C65.3635 38.0848 65.07 37.8331 63.8455 37.5117C61.6631 36.9192 61.0383 36.0772 61.0383 34.924C61.0383 33.6577 61.943 32.8122 63.2382 32.5682V31.7511H64.8879V32.5577C66.4945 32.8118 67.0839 33.7992 67.1674 34.7845H65.1915C65.1092 34.4954 64.9924 33.9402 63.9992 33.9402C63.2126 33.9402 63.0286 34.3761 63.0286 34.6998C63.0286 35.1804 63.3073 35.4023 64.6464 35.7559C66.6696 36.2738 67.3666 37.0707 67.3666 38.3906C67.3666 39.7105 66.465 40.6038 65.0048 40.8323V40.8331Z" fill="#2B2C2C"/>
</g>
<defs>
<clipPath id="clip0_1_1177">
<rect width="77.2353" height="65" fill="white"/>
</clipPath>
</defs>
</svg>
