<svg width="75" height="64" viewBox="0 0 75 64" fill="none" xmlns="http://www.w3.org/2000/svg">
<g clip-path="url(#clip0_1_1207)">
<path d="M71.3641 26.5987C71.0737 26.4033 70.7348 26.3002 70.3838 26.3002C70.0328 26.3002 69.7184 26.3963 69.4352 26.578C67.4531 27.8502 63.9076 30.1243 60.6262 32.2293C59.6432 32.8599 58.6842 33.4752 57.7977 34.0438V38.1482C59.054 37.3421 60.5421 36.3877 62.0888 35.3957C65.5192 33.1953 69.2343 30.8118 71.3321 29.4655C71.8222 29.1509 72.1189 28.6181 72.125 28.0407C72.1313 27.463 71.8467 26.9242 71.3633 26.599L71.3641 26.5987Z" fill="#43BB9A"/>
<path d="M25.6059 58.4224C26.0063 58.4224 26.3952 58.3084 26.731 58.093C27.0759 57.8717 30.697 55.557 34.5306 53.1065C36.3147 51.9661 38.1253 50.8089 39.6259 49.8496C39.6259 48.2728 39.6259 46.9154 39.6262 45.7476C38.6964 46.3418 37.6374 47.0178 36.5024 47.7421C33.2668 49.8075 29.266 52.3614 25.6808 54.6614L2.77 39.2499C2.47472 39.0514 2.12976 38.9465 1.77273 38.9465C1.4157 38.9465 1.09558 39.0444 0.807406 39.2289C0.308419 39.5492 0.00675504 40.0914 1.1971e-05 40.6793C-0.0063762 41.2672 0.283221 41.8158 0.77511 42.147L24.4437 58.0688C24.7879 58.3003 25.1896 58.4228 25.6059 58.4228V58.4224Z" fill="#43BB9A"/>
<path d="M39.6265 51.3119C37.8098 52.4751 35.4927 53.9578 33.216 55.4149C29.9421 57.51 26.8271 59.5038 25.6805 60.2383L2.7721 44.8286C2.47789 44.6287 2.13222 44.5231 1.77235 44.5231C1.43165 44.5231 1.0984 44.6206 0.807739 44.8058C0.307332 45.1257 0.00566861 45.6687 -9.76533e-06 46.258C-0.00568814 46.8462 0.284619 47.3941 0.775798 47.7232L24.4419 63.6436C24.7854 63.8765 25.1882 64 25.607 64C26.0258 64 26.3952 63.886 26.731 63.6706L39.6287 55.4124C39.6276 53.9178 39.6269 52.5547 39.6265 51.3119Z" fill="#43BB9A"/>
<path d="M69.4338 32.1563L57.7981 39.652V43.7644C64.6331 39.3748 69.3507 36.3351 71.2281 35.1102C71.2846 35.0733 71.3162 35.053 71.3321 35.0425C71.8229 34.7275 72.1193 34.1943 72.125 33.6166C72.1306 33.0385 71.8457 32.4997 71.363 32.1753L71.1941 32.063H71.1685C70.9258 31.9413 70.6578 31.8778 70.3824 31.8778C70.0438 31.8778 69.7156 31.9743 69.4338 32.1563Z" fill="#43BB9A"/>
<path d="M71.3637 20.9866C71.0734 20.7912 70.7345 20.6881 70.3835 20.6881C70.0325 20.6881 69.718 20.7842 69.4348 20.9659C67.4662 22.2294 63.9556 24.4817 60.6926 26.5744C59.6861 27.2198 58.7038 27.8502 57.7974 28.4317V28.8913V32.5361C58.9572 31.7921 60.3949 30.87 61.9018 29.9032C65.7652 27.4247 70.0829 24.655 71.3321 23.8531C71.8222 23.5385 72.1189 23.0057 72.125 22.4283C72.1314 21.8506 71.8467 21.3118 71.3634 20.9866H71.3637Z" fill="#43BB9A"/>
<path d="M25.6063 52.81C26.0066 52.81 26.3956 52.696 26.7313 52.4806C27.0749 52.26 30.6987 49.9438 34.5355 47.4916C36.3182 46.3519 38.1278 45.1954 39.6273 44.2368C39.6283 42.6373 39.6298 41.4913 39.6312 40.6796V40.6673V40.6572C39.6312 40.4663 39.6315 40.2917 39.6319 40.1321C38.7017 40.7263 37.6423 41.4025 36.5063 42.1276C33.2696 44.1936 29.2674 46.7483 25.6812 49.0494L25.5236 48.9434L25.4849 48.9683L24.8802 48.5614L2.42645 33.4576C2.21955 33.3762 1.99845 33.3341 1.77273 33.3341C1.42919 33.3341 1.09558 33.432 0.807406 33.6168C0.308419 33.9367 0.00675504 34.479 1.1971e-05 35.0669C-0.0063762 35.6548 0.283221 36.2034 0.77511 36.5342L24.444 52.4557C24.7883 52.6872 25.19 52.8096 25.6063 52.8096V52.81Z" fill="#43BB9A"/>
<path d="M25.4991 47.6629L38.6871 39.1981L36.7725 37.903L36.6774 37.8395L36.6745 37.8374L36.6717 37.8353L36.1223 37.4638L35.9328 37.5856L30.0951 41.3325L29.589 41.6573L29.0399 41.4104L28.712 41.263C27.9089 40.9018 26.9436 40.7106 25.9197 40.7106C24.8958 40.7106 23.8602 40.9109 22.9985 41.2897L22.6645 41.4367L22.1049 41.6829L21.5984 41.3423L12.0868 34.9439L11.0171 34.2245L11.9076 33.2967L12.4388 32.7432C12.611 32.5639 12.748 32.3766 12.8459 32.1865C12.9605 31.9641 13.0205 31.7403 13.0244 31.5207C13.028 31.319 12.9836 31.1163 12.8928 30.9188C12.8186 30.7574 12.7128 30.5978 12.579 30.4446L12.0861 29.8812L11.2599 28.9373L12.3189 28.2575L17.548 24.9017L14.9835 23.1667L1.72943 31.6733L25.4991 47.6629Z" fill="#43BB9A"/>
<path d="M33.0435 11.5744L35.0281 12.9179L35.13 12.9859L35.1325 12.9877L35.135 12.9894L35.6077 13.3093L35.7245 13.2346L41.7137 9.39052L42.2198 9.06571L42.7688 9.313L43.0964 9.46033C43.8995 9.82197 44.8652 10.0131 45.8887 10.0131C46.9123 10.0131 47.9479 9.81285 48.8096 9.43402L49.1435 9.28704L49.7032 9.0408L50.2096 9.3814L59.7216 15.7802L60.7913 16.4996L59.9008 17.4274L59.3696 17.9809C59.1974 18.1602 59.0608 18.3475 58.9625 18.5376C58.8479 18.7596 58.7879 18.9834 58.784 19.203C58.7804 19.4047 58.8248 19.6074 58.9156 19.8049C58.9898 19.9663 59.0956 20.1259 59.2294 20.2792L59.7223 20.8425L60.5485 21.7864L59.4895 22.4662L54.1813 25.8733L55.9615 27.0761L55.9679 27.0803L55.9743 27.0845L56.0417 27.1315L56.7465 27.6078L70.0786 19.0501L46.3093 3.05945L33.0435 11.5741V11.5744Z" fill="#43BB9A"/>
<path d="M21.8898 34.5647C22.2596 34.8134 22.7518 34.9506 23.2757 34.9506C23.7995 34.9506 24.3077 34.8123 24.6985 34.5615C25.1368 34.2802 25.3905 33.8758 25.3955 33.4517C25.4001 33.0392 25.1786 32.6614 24.7726 32.3882C24.4028 32.1395 23.9106 32.0023 23.3868 32.0023C22.8629 32.0023 22.3544 32.1405 21.964 32.391C21.5257 32.6723 21.2719 33.0767 21.2669 33.5008C21.2623 33.9133 21.4838 34.2911 21.8898 34.5644V34.5647Z" fill="#43BB9A"/>
<path d="M49.9896 16.1572C49.6198 15.9085 49.1275 15.7714 48.6037 15.7714C48.0799 15.7714 47.5713 15.9096 47.1809 16.16C46.7426 16.4413 46.4889 16.8458 46.4839 17.2699C46.4793 17.6824 46.7007 18.0601 47.1067 18.3334C47.4765 18.5821 47.9688 18.7192 48.4926 18.7192C49.0165 18.7192 49.5247 18.581 49.9154 18.3302C50.3537 18.0489 50.6075 17.6445 50.6124 17.2204C50.617 16.8079 50.3956 16.4301 49.9896 16.1569V16.1572Z" fill="#43BB9A"/>
<path d="M56.6975 28.8913L55.4139 28.0238L55.3404 27.9729L53.1666 26.5039L51.9004 25.6466L51.7815 25.5663L35.7969 14.7538L35.7869 14.7471C35.7795 14.7422 35.772 14.7376 35.7646 14.7331L34.5128 13.8863L34.4078 13.8162L32.2464 12.3527L32.2379 12.3471C32.2326 12.3436 32.2276 12.3405 32.2223 12.3373L30.9972 11.5088L14.7599 21.6973L18.6222 24.3105L18.6822 24.3547L18.6957 24.36L37.2928 36.9383L37.3911 37.0039L40.7324 39.2643C40.7324 39.5673 40.7321 40.0269 40.731 40.6691C40.7282 42.8022 40.7221 47.2401 40.7292 56.1967L40.7303 57.4062L56.6979 46.9164V28.8913H56.6975Z" fill="#0E4C9A"/>
<path d="M75 26.2984C75.0103 25.3559 74.5461 24.4765 73.7575 23.9461C73.4842 23.7623 73.1843 23.6287 72.8692 23.5483C73.2181 23.3245 73.5023 23.1421 73.706 23.0113C74.506 22.4978 74.9897 21.6286 75 20.686C75.0103 19.7435 74.5457 18.8641 73.7575 18.3338C73.4853 18.1507 73.1865 18.0174 72.8731 17.937L73.8399 17.3165L72.4721 16.3965L48.7027 0.406895L48.098 0L47.4844 0.393916L33.95 9.08112L33.8339 9.15548L33.3931 8.85733L32.7944 8.45254L32.1819 8.83698L15.9445 19.0255L14.5359 19.9094L15.7742 20.7471L2.90486 29.0074L1.51721 29.898L2.62449 30.643C2.39984 30.7185 2.18441 30.8212 1.98283 30.9507C1.17402 31.4698 0.684969 32.3485 0.674677 33.3015C0.66403 34.2546 1.13392 35.1434 1.93102 35.6798L2.73522 36.2207C2.47082 36.2978 2.21742 36.4125 1.98319 36.563C1.17437 37.0818 0.685324 37.9608 0.674677 38.9135C0.66403 39.8666 1.13392 40.7554 1.93102 41.2918L2.69973 41.8088C2.44988 41.8853 2.20997 41.9951 1.98638 42.1375L1.98496 42.1382L1.9839 42.1389C1.17331 42.658 0.683904 43.5384 0.674677 44.4936C0.665449 45.4459 1.13533 46.3334 1.93137 46.868L25.5957 62.7874C26.1227 63.1445 26.7402 63.3332 27.3811 63.3332C28.0221 63.3332 28.5892 63.1588 29.1042 62.8288L41.4039 54.9536L41.4046 55.6527L41.4064 57.6791L43.1138 56.5573L59.0814 46.0675L59.5726 45.7448V45.1618V43.3073C66.7327 38.7097 71.6743 35.5258 73.6088 34.2637L73.623 34.2542C73.667 34.2255 73.6922 34.209 73.706 34.2002C74.5071 33.6863 74.9904 32.8161 74.9997 31.8728C75.0089 30.9303 74.544 30.0516 73.7564 29.522L73.7543 29.5206L73.7522 29.5192L73.5833 29.4069L73.3047 29.2217H73.1723C73.0853 29.1887 72.9966 29.1607 72.9065 29.1365C73.1932 28.9523 73.4612 28.7804 73.706 28.6233C74.506 28.1098 74.9897 27.2406 75 26.298V26.2984ZM16.758 21.4121L19.3225 23.1471L14.0934 26.5029L13.0344 27.1827L13.8606 28.1266L14.3535 28.6899C14.4877 28.8432 14.5931 29.0025 14.6673 29.1642C14.7581 29.362 14.8025 29.5644 14.7989 29.7661C14.795 29.9857 14.735 30.2095 14.6204 30.4319C14.5225 30.622 14.3855 30.8093 14.2133 30.9885L13.6821 31.5421L12.7916 32.4699L13.8613 33.1893L23.3729 39.5877L23.8794 39.9283L24.439 39.6821L24.773 39.5351C25.6347 39.1563 26.6451 38.956 27.6942 38.956C28.7432 38.956 29.6834 39.1471 30.4865 39.5084L30.8144 39.6558L31.3635 39.9027L31.8695 39.5779L37.7073 35.8309L37.8968 35.7092L38.4462 36.0807L38.449 36.0828L38.4519 36.0849L38.547 36.1484L40.4616 37.4434L27.2736 45.9083L3.50393 29.9194L16.758 21.4121ZM15.6691 28.7138C15.5513 28.4574 15.3888 28.2101 15.1858 27.9782L14.6928 27.4149L20.3062 23.8121L36.9134 35.0445L31.2705 38.6662L30.9429 38.5189C29.9978 38.0934 28.8746 37.8686 27.6949 37.8686C26.4928 37.8686 25.3281 38.1015 24.3262 38.5417L23.9922 38.6887L14.4806 32.2903L15.0119 31.7367C15.2567 31.4817 15.4548 31.2085 15.601 30.9254C15.7919 30.5546 15.8924 30.1713 15.8991 29.7851C15.9055 29.4202 15.8281 29.06 15.6691 28.7141V28.7138ZM2.54961 40.3927C2.05772 40.062 1.76812 39.5133 1.77451 38.9251C1.7809 38.3372 2.08291 37.7949 2.5819 37.4747C2.87008 37.2898 3.20368 37.1923 3.54723 37.1923C3.89077 37.1923 4.24921 37.2972 4.54449 37.4957L27.4557 52.9079C31.0405 50.6079 35.0416 48.0539 38.2772 45.9886C39.4126 45.2639 40.4712 44.588 41.4011 43.9941C41.4007 45.1618 41.4003 46.5193 41.4007 48.096C39.8998 49.0554 38.0895 50.2126 36.3054 51.3529C32.4718 53.8034 28.8508 56.1178 28.5058 56.3395C28.1701 56.5549 27.7811 56.6689 27.3808 56.6689C26.9805 56.6689 26.5627 56.5465 26.2185 56.3149L2.54961 40.3927ZM28.5051 61.9164C28.1694 62.1318 27.7804 62.2458 27.3811 62.2458C26.9819 62.2458 26.5596 62.1227 26.216 61.8894L2.55032 45.9693C2.05949 45.6403 1.76883 45.0924 1.77451 44.5041C1.78019 43.9148 2.08185 43.3718 2.5819 43.0516C2.87292 42.8664 3.20581 42.7689 3.54652 42.7689C3.90603 42.7689 4.2517 42.8744 4.54626 43.0744L27.4546 58.4845C28.6013 57.75 31.7162 55.7562 34.9902 53.661C37.2665 52.2039 39.5836 50.7212 41.4007 49.558C41.4011 50.8008 41.4018 52.1639 41.4028 53.6586L28.5051 61.9168V61.9164ZM41.4053 38.9034V38.9135V38.9258C41.4043 39.7375 41.4028 40.8835 41.4014 42.483C39.9016 43.4416 38.0923 44.5981 36.3097 45.7378C32.4732 48.19 28.8494 50.5062 28.5055 50.7268C28.1697 50.9422 27.7808 51.0562 27.3804 51.0562C26.9801 51.0562 26.5624 50.9338 26.2181 50.7023L2.54996 34.7807C2.05807 34.45 1.76847 33.9014 1.77486 33.3135C1.78125 32.7256 2.08327 32.1833 2.58226 31.863C2.87043 31.6782 3.20404 31.5803 3.54758 31.5803C3.77365 31.5803 3.99475 31.6224 4.2013 31.7038L26.6547 46.808L27.2594 47.2149L27.2981 47.19L27.4557 47.2959C31.0419 44.9949 35.0441 42.4405 38.2808 40.3741C39.4168 39.6491 40.4762 38.9728 41.4064 38.3786C41.4064 38.5382 41.406 38.7125 41.4057 38.9037L41.4053 38.9034ZM42.5044 55.652L42.5034 54.4425C42.4963 45.4859 42.5023 41.048 42.5051 38.9149C42.5059 38.2723 42.5066 37.8132 42.5066 37.5101L39.1652 35.2497L39.0669 35.1841L20.4699 22.6058L20.4564 22.6006L20.3964 22.5564L16.534 19.9431L32.7713 9.7546L33.9965 10.5831C34.0018 10.5863 34.0067 10.5898 34.0121 10.5929L34.0206 10.5986L36.1819 12.062L36.287 12.1321L37.5387 12.9789C37.5462 12.9835 37.5536 12.988 37.5611 12.9929L37.571 12.9996L53.5556 23.8121L53.6745 23.8924L54.9408 24.7497L57.1145 26.2188L57.188 26.2696L58.4717 27.1371V45.1618L42.5044 55.6516V55.652ZM59.6879 18.5004C59.8057 18.7568 59.9683 19.0041 60.1713 19.236L60.6642 19.7993L54.972 23.4529L54.2967 22.9955H54.2959L54.2952 22.9945L54.1763 22.9141L38.3663 12.2195L44.0869 8.54795L44.4145 8.69527C45.36 9.12076 46.4832 9.3456 47.6625 9.3456C48.8419 9.3456 50.0294 9.11269 51.0305 8.67247L51.3645 8.5255L60.8765 14.9243L60.3452 15.4778C60.1003 15.7328 59.9023 16.0057 59.7564 16.2888C59.5655 16.6592 59.465 17.0429 59.4579 17.4288C59.4516 17.7932 59.5289 18.1538 59.6879 18.4997V18.5004ZM58.5203 25.8529L57.8155 25.3766L57.748 25.3296L57.7416 25.3253L57.7353 25.3211L55.9551 24.1183L61.2633 20.7113L62.3223 20.0315L61.4961 19.0876L61.0032 18.5242C60.869 18.3713 60.7636 18.2117 60.6894 18.05C60.5986 17.8522 60.5542 17.6498 60.5578 17.4481C60.5617 17.2288 60.6217 17.0047 60.7363 16.7827C60.8342 16.5925 60.9712 16.4052 61.1434 16.226L61.6746 15.6725L62.5651 14.7447L61.4954 14.0252L51.9834 7.62647L51.477 7.28587L50.9173 7.53211L50.5834 7.67909C49.722 8.05792 48.712 8.25821 47.6625 8.25821C46.6131 8.25821 45.6737 8.06704 44.8702 7.7054L44.5426 7.55807L43.9936 7.31078L43.4875 7.63559L37.4982 11.4797L37.3815 11.5544L36.9088 11.2345L36.9063 11.2328L36.9038 11.231L36.8019 11.1629L34.8173 9.81949L48.0838 1.30557L71.8531 17.2951L58.521 25.8529H58.5203ZM59.5719 27.1374V26.6779C60.4783 26.0963 61.461 25.466 62.4671 24.8206C65.7297 22.7275 69.2407 20.4756 71.2093 19.2121C71.4925 19.0304 71.8205 18.9343 72.158 18.9343C72.4955 18.9343 72.8479 19.0374 73.1382 19.2328C73.6216 19.558 73.9062 20.0967 73.8998 20.6745C73.8934 21.2522 73.5971 21.7847 73.107 22.0993C71.8577 22.9012 67.5404 25.6709 63.6766 28.1494C62.1697 29.1161 60.732 30.0383 59.5722 30.7823V27.1374H59.5719ZM72.943 30.3091H72.9686L73.1375 30.4214C73.6202 30.7458 73.9051 31.2846 73.8995 31.8627C73.8938 32.4404 73.5975 32.9736 73.1066 33.2886C73.0907 33.2987 73.0591 33.3194 73.0026 33.3563C71.1252 34.5812 66.4076 37.6209 59.5726 42.0105V37.898L71.2083 30.4024C71.4901 30.2204 71.8184 30.1239 72.1569 30.1239C72.4323 30.1239 72.7003 30.1874 72.943 30.3091ZM73.1066 27.7113C71.0088 29.0579 67.2934 31.441 63.8633 33.6414C62.3166 34.6334 60.8286 35.5882 59.5722 36.3939V32.2896C60.4584 31.721 61.4177 31.1057 62.4008 30.475C65.6822 28.37 69.2276 26.0956 71.2097 24.8237C71.4925 24.642 71.8208 24.5459 72.1583 24.5459C72.4958 24.5459 72.8483 24.6491 73.1386 24.8444C73.6216 25.1696 73.9062 25.7084 73.9002 26.2861C73.8938 26.8638 73.5975 27.3963 73.1073 27.7109L73.1066 27.7113Z" fill="#2B2C2C"/>
<path d="M23.0454 33.7098C23.5962 34.0803 24.3081 34.2844 25.0502 34.2844C25.7923 34.2844 26.5053 34.0841 27.0724 33.72C27.8248 33.237 28.2613 32.5042 28.2702 31.7101C28.2787 30.9331 27.8762 30.2137 27.1661 29.736C26.6156 29.3655 25.9037 29.1617 25.1613 29.1617C24.4188 29.1617 23.7062 29.362 23.139 29.7258C22.3867 30.2088 21.9498 30.9416 21.9413 31.7357C21.9327 32.5127 22.3352 33.2321 23.0454 33.7098ZM23.7385 30.6378C24.1292 30.387 24.6342 30.2491 25.1613 30.2491C25.6883 30.2491 26.1773 30.3863 26.5471 30.635C26.9535 30.9082 27.1746 31.286 27.17 31.6985C27.1654 32.1226 26.9113 32.527 26.473 32.8084C26.0822 33.0592 25.5768 33.1974 25.0502 33.1974C24.5235 33.1974 24.0345 33.0602 23.6643 32.8115C23.2579 32.5383 23.0368 32.1605 23.0414 31.748C23.0461 31.3239 23.3002 30.9195 23.7385 30.6381V30.6378Z" fill="#2B2C2C"/>
<path d="M52.383 13.5044C51.8326 13.134 51.1207 12.9302 50.3782 12.9302C49.6358 12.9302 48.9231 13.1305 48.356 13.4942C47.6036 13.9772 47.1667 14.71 47.1582 15.5041C47.1497 16.2811 47.5522 17.0005 48.2623 17.4783C48.8128 17.8487 49.525 18.0525 50.2671 18.0525C51.0092 18.0525 51.7222 17.8522 52.2893 17.4881C53.0417 17.0051 53.4786 16.2723 53.4871 15.4778C53.4956 14.7009 53.0932 13.9814 52.383 13.5037V13.5044ZM51.6899 16.5764C51.2992 16.8272 50.7938 16.9655 50.2671 16.9655C49.7405 16.9655 49.2514 16.8283 48.8812 16.5796C48.4749 16.3064 48.2538 15.9286 48.2584 15.5161C48.263 15.092 48.5171 14.6875 48.9554 14.4062C49.3462 14.1554 49.8512 14.0176 50.3782 14.0176C50.9052 14.0176 51.3943 14.1547 51.7641 14.4034C52.1704 14.6767 52.3915 15.0544 52.3869 15.467C52.3823 15.891 52.1282 16.2955 51.6899 16.5768V16.5764Z" fill="#2B2C2C"/>
</g>
<defs>
<clipPath id="clip0_1_1207">
<rect width="75" height="64" fill="white"/>
</clipPath>
</defs>
</svg>
