<svg width="300" height="27" viewBox="0 0 300 27" fill="none" xmlns="http://www.w3.org/2000/svg">
<path d="M5.34353 27H4.70824C4.26609 26.9942 3.82494 26.9565 3.38824 26.8871C2.98078 26.8156 2.586 26.6848 2.21647 26.4988C1.85152 26.3178 1.51789 26.0794 1.22824 25.7929C0.945612 25.5027 0.707717 25.172 0.522353 24.8118C0.340669 24.4411 0.212339 24.0466 0.141177 23.64C0.0612954 23.1946 0.0141106 22.744 0 22.2918C0 22.1435 0 21.6494 0 21.6494V5.34353C0 5.34353 0 4.85647 0 4.70824C0.0107806 4.26577 0.0532422 3.82464 0.127059 3.38824C0.196316 2.98115 0.324734 2.58639 0.508235 2.21647C0.689309 1.85151 0.927616 1.51789 1.21412 1.22824C1.50556 0.943873 1.83884 0.705819 2.20235 0.522353C2.57248 0.33041 2.97016 0.197059 3.38118 0.127059C3.81944 0.0494373 4.26321 0.00694926 4.70824 0L78.5294 0C78.9696 0.004304 79.4087 0.0444366 79.8424 0.12C80.2526 0.185768 80.6502 0.314334 81.0212 0.501176C81.7549 0.878378 82.3522 1.47569 82.7294 2.20941C82.913 2.57623 83.0392 2.96903 83.1035 3.37412C83.1808 3.81481 83.2233 4.26089 83.2306 4.70824V5.33647C83.2306 5.59765 83.2306 5.85176 83.2306 6.10588V20.8871C83.2306 21.1412 83.2306 21.3953 83.2306 21.6424V22.2988C83.2193 22.7386 83.1792 23.1772 83.1106 23.6118C83.0405 24.0209 82.9121 24.4179 82.7294 24.7906C82.5457 25.1497 82.3076 25.4783 82.0235 25.7647C81.7336 26.0508 81.4 26.2891 81.0353 26.4706C80.6633 26.6565 80.2662 26.7873 79.8565 26.8588C79.4198 26.9282 78.9786 26.966 78.5365 26.9718H5.34353V27Z" fill="white"/>
<path d="M17.026 13.4121C17.0357 12.8006 17.1992 12.2013 17.5014 11.6696C17.8037 11.1379 18.2349 10.6909 18.7555 10.3697C18.4247 9.89507 17.9875 9.50428 17.4789 9.22853C16.9703 8.95278 16.4043 8.7997 15.826 8.7815C14.5978 8.65444 13.3978 9.52267 12.7696 9.52267C12.1413 9.52267 11.1672 8.81679 10.1225 8.81679C9.44888 8.83914 8.79251 9.03552 8.2173 9.38683C7.64209 9.73814 7.16765 10.2324 6.84016 10.8215C5.42839 13.278 6.48016 16.8921 7.84251 18.8756C8.54839 19.8497 9.31781 20.9368 10.3555 20.9015C11.3931 20.8662 11.7672 20.2521 12.9813 20.2521C14.1955 20.2521 14.5555 20.9015 15.6213 20.8733C16.6872 20.845 17.4002 19.8991 18.0566 18.9109C18.5464 18.2196 18.9228 17.4548 19.1719 16.645C18.5375 16.3747 17.9962 15.9245 17.6148 15.3499C17.2335 14.7754 17.0288 14.1017 17.026 13.4121Z" fill="black"/>
<path d="M15.0211 7.48258C15.6163 6.77542 15.9103 5.863 15.84 4.94141C14.9334 5.03147 14.0941 5.45996 13.4894 6.14141C13.1926 6.47553 12.9654 6.86552 12.8211 7.28853C12.6769 7.71154 12.6185 8.15908 12.6494 8.60494C13.104 8.61029 13.5539 8.512 13.9648 8.31753C14.3758 8.12306 14.737 7.83752 15.0211 7.48258Z" fill="black"/>
<path d="M29.2447 18.5367H25.9059L25.1012 20.9084H23.6894L26.8235 12.1414H28.2917L31.4823 20.9084H30.0706L29.2447 18.5367ZM26.2517 17.4496H28.8988L27.5929 13.6025H27.5294L26.2517 17.4496Z" fill="black"/>
<path d="M38.3221 17.7107C38.3221 19.7013 37.2563 20.9789 35.6539 20.9789C35.2471 20.999 34.8428 20.9045 34.4872 20.7061C34.1315 20.5076 33.8387 20.2133 33.6421 19.8566V23.026H32.301V14.5554H33.5716V15.6142C33.7767 15.2598 34.0741 14.9677 34.4321 14.7688C34.79 14.5699 35.1952 14.4718 35.6045 14.4848C37.2492 14.4495 38.3221 15.7342 38.3221 17.7107ZM36.9739 17.7107C36.9739 16.4189 36.268 15.593 35.2798 15.593C34.2916 15.593 33.6068 16.4613 33.6068 17.7107C33.6068 18.9601 34.3127 19.8636 35.2798 19.8636C36.2468 19.8636 36.9739 19.0166 36.9739 17.7107Z" fill="black"/>
<path d="M45.353 17.7107C45.353 19.7013 44.2941 20.9789 42.6847 20.9789C42.2781 20.9982 41.8741 20.9033 41.5186 20.705C41.1631 20.5066 40.8701 20.2127 40.673 19.8566V23.026H39.3318V14.5554H40.6024V15.6142C40.8076 15.2598 41.1049 14.9677 41.4629 14.7688C41.8209 14.5699 42.226 14.4718 42.6353 14.4848C44.2871 14.4495 45.353 15.7342 45.353 17.7107ZM44.0047 17.7107C44.0047 16.4189 43.2988 15.593 42.3177 15.593C41.3365 15.593 40.6377 16.4613 40.6377 17.7107C40.6377 18.9601 41.3436 19.8636 42.3177 19.8636C43.2918 19.8636 44.0047 19.0166 44.0047 17.7107Z" fill="black"/>
<path d="M50.0045 18.4665C50.0963 19.3347 50.9434 19.8782 52.1222 19.8782C53.301 19.8782 54.021 19.3065 54.021 18.5229C54.021 17.7394 53.541 17.4359 52.4045 17.1606L51.2469 16.9417C49.6375 16.5535 48.8893 15.7982 48.8893 14.577C48.8893 13.0665 50.2093 12.0288 52.0798 12.0288C53.9504 12.0288 55.1998 13.0665 55.2422 14.577H53.9222C53.8375 13.7017 53.1175 13.1653 52.0587 13.1653C50.9998 13.1653 50.2798 13.7017 50.2798 14.4782C50.2798 15.0994 50.7457 15.4665 51.8751 15.7417L52.8422 15.9817C54.6351 16.4053 55.3834 17.1253 55.3834 18.41C55.3834 20.0476 54.0775 21.0782 52.0022 21.0782C50.054 21.0782 48.741 20.0759 48.6563 18.4876L50.0045 18.4665Z" fill="black"/>
<path d="M58.2143 13.0029V14.5206H59.4284V15.53H58.2143V19.0594C58.2143 19.61 58.4613 19.8641 58.9907 19.8641C59.139 19.8641 59.2801 19.8641 59.4284 19.8288V20.8665C59.1955 20.9082 58.9591 20.9271 58.7225 20.9229C57.4307 20.9229 56.9295 20.4359 56.9295 19.2006V15.53H55.9695V14.5206H56.9013V13.0029H58.2143Z" fill="black"/>
<path d="M60.1342 17.7106C60.1342 15.7059 61.32 14.4424 63.1624 14.4424C65.0047 14.4424 66.1977 15.7059 66.1977 17.7106C66.1977 19.7153 65.0259 20.9859 63.1624 20.9859C61.2989 20.9859 60.1342 19.7647 60.1342 17.7106ZM64.8636 17.7106C64.8636 16.3341 64.2283 15.5224 63.1624 15.5224C62.0965 15.5224 61.4683 16.3412 61.4683 17.7106C61.4683 19.08 62.1036 19.9059 63.1624 19.9059C64.2212 19.9059 64.8636 19.1012 64.8636 17.7106Z" fill="black"/>
<path d="M67.2778 14.5202H68.5272V15.6072C68.6102 15.2661 68.8089 14.9642 69.0895 14.7531C69.3701 14.542 69.7152 14.4348 70.066 14.4496C70.2155 14.4521 70.3644 14.4686 70.5107 14.499V15.7272C70.3209 15.6699 70.123 15.6437 69.9248 15.6496C69.7486 15.6372 69.5716 15.6603 69.4045 15.7175C69.2373 15.7747 69.0833 15.8649 68.9517 15.9827C68.82 16.1006 68.7134 16.2436 68.638 16.4035C68.5627 16.5633 68.5202 16.7366 68.5131 16.9131C68.5094 16.9813 68.5094 17.0496 68.5131 17.1178V20.9084H67.2778V14.5202Z" fill="black"/>
<path d="M76.5954 19.0589C76.4189 20.2236 75.2895 21.0142 73.8424 21.0142C71.986 21.0142 70.8283 19.7719 70.8283 17.7742C70.8283 15.7766 71.993 14.4707 73.786 14.4707C75.5789 14.4707 76.666 15.6848 76.666 17.6189V18.0707H72.1554V18.1483C72.1162 18.5883 72.2533 19.0258 72.5366 19.3646C72.8198 19.7035 73.2261 19.916 73.666 19.9554H73.8707C74.1819 19.9831 74.4938 19.9103 74.7606 19.7477C75.0274 19.585 75.235 19.3412 75.353 19.0519L76.5954 19.0589ZM72.1624 17.1531H75.353C75.3765 16.7516 75.2419 16.357 74.978 16.0536C74.7142 15.7501 74.342 15.562 73.9413 15.5295H73.8213C73.609 15.5286 73.3986 15.5695 73.2021 15.6499C73.0056 15.7302 72.8269 15.8485 72.6762 15.998C72.5254 16.1474 72.4056 16.3251 72.3235 16.5209C72.2414 16.7166 72.1986 16.9267 72.1977 17.1389L72.1624 17.1531Z" fill="black"/>
<path d="M26.1174 5.54874C26.3613 5.53048 26.6065 5.5606 26.8387 5.63738C27.071 5.71416 27.2857 5.83608 27.4707 5.99613C27.6557 6.15619 27.8072 6.35122 27.9166 6.57002C28.026 6.78882 28.091 7.02708 28.108 7.2711C28.1221 7.39304 28.1221 7.51621 28.108 7.63815C28.108 8.98639 27.4021 9.7558 26.1245 9.7558H24.5645V5.52051L26.1174 5.54874ZM25.2139 9.17698H26.0115C26.1859 9.18846 26.3608 9.16541 26.5262 9.10913C26.6916 9.05285 26.8443 8.96446 26.9754 8.84903C27.1066 8.7336 27.2137 8.59341 27.2905 8.43649C27.3674 8.27957 27.4125 8.10902 27.4233 7.93463C27.4338 7.84316 27.4338 7.75079 27.4233 7.65933C27.4471 7.48642 27.4367 7.3105 27.3924 7.14164C27.3482 6.97279 27.2711 6.81432 27.1655 6.67531C27.06 6.5363 26.928 6.41948 26.7772 6.33155C26.6264 6.24361 26.4598 6.18629 26.2868 6.16286C26.2022 6.15582 26.1172 6.15582 26.0327 6.16286H25.2139V9.17698Z" fill="black"/>
<path d="M28.807 8.16745C28.7858 7.96984 28.804 7.77 28.8606 7.57948C28.9172 7.38896 29.011 7.21154 29.1365 7.05749C29.2621 6.90344 29.417 6.77582 29.5922 6.682C29.7674 6.58817 29.9594 6.53002 30.1572 6.51089C30.3551 6.49176 30.5547 6.51204 30.7446 6.57055C30.9346 6.62907 31.111 6.72466 31.2638 6.85179C31.4165 6.97893 31.5426 7.13509 31.6346 7.31124C31.7266 7.48739 31.7828 7.68004 31.7999 7.87804C31.814 7.974 31.814 8.0715 31.7999 8.16745C31.8211 8.36507 31.8028 8.56491 31.7462 8.75543C31.6897 8.94595 31.5959 9.12337 31.4703 9.27742C31.3448 9.43146 31.1899 9.55909 31.0147 9.65291C30.8395 9.74674 30.6474 9.80489 30.4496 9.82402C30.2518 9.84315 30.0522 9.82287 29.8622 9.76436C29.6723 9.70584 29.4959 9.61025 29.3431 9.48312C29.1903 9.35598 29.0643 9.19982 28.9723 9.02367C28.8803 8.84752 28.8241 8.65487 28.807 8.45687C28.7929 8.36091 28.7929 8.26341 28.807 8.16745ZM31.1575 8.16745C31.1575 7.46157 30.847 7.07334 30.3034 7.07334C29.7599 7.07334 29.4564 7.47569 29.4564 8.16745C29.4564 8.85922 29.7599 9.26157 30.3034 9.26157C30.847 9.26157 31.1575 8.85922 31.1575 8.16745Z" fill="black"/>
<path d="M35.7882 9.75582H35.1388L34.4823 7.41935H34.4329L33.7764 9.75582H33.1341L32.2588 6.57935H32.8941L33.4588 9.00758H33.5082L34.1647 6.57935H34.7647L35.4141 9.00758H35.4706L36.0353 6.57935H36.6635L35.7882 9.75582Z" fill="black"/>
<path d="M37.4116 6.57897H38.0187V7.05897H38.061C38.141 6.87662 38.2756 6.72362 38.4464 6.62118C38.6171 6.51874 38.8155 6.47192 39.014 6.48721C39.2871 6.46773 39.5568 6.55695 39.7643 6.73545C39.9719 6.91394 40.1006 7.16724 40.1222 7.44015C40.1292 7.51764 40.1292 7.5956 40.1222 7.67309V9.72721H39.501V7.85662C39.501 7.34839 39.2752 7.09427 38.7952 7.09427C38.6978 7.08646 38.5999 7.09892 38.5077 7.13088C38.4154 7.16284 38.3307 7.2136 38.2591 7.27994C38.1874 7.34628 38.1303 7.42677 38.0914 7.51631C38.0524 7.60585 38.0325 7.7025 38.0328 7.80015C38.0293 7.83772 38.0293 7.87553 38.0328 7.91309V9.76956H37.4116V6.57897Z" fill="black"/>
<path d="M41.0963 5.33691H41.7245V9.75574H41.0963V5.33691Z" fill="black"/>
<path d="M42.5928 8.1673C42.5544 7.76947 42.6756 7.3727 42.9298 7.06426C43.184 6.75581 43.5503 6.56097 43.9481 6.52259C44.3459 6.48421 44.7427 6.60544 45.0511 6.85961C45.3596 7.11378 45.5544 7.48006 45.5928 7.87789C45.6069 7.97384 45.6069 8.07134 45.5928 8.1673C45.6118 8.36428 45.5918 8.56308 45.534 8.75234C45.4762 8.9416 45.3816 9.11762 45.2558 9.27034C45.1299 9.42307 44.9752 9.54951 44.8005 9.64245C44.6258 9.73539 44.4345 9.793 44.2375 9.81201C44.0405 9.83101 43.8417 9.81103 43.6525 9.7532C43.4632 9.69538 43.2872 9.60084 43.1344 9.47499C42.9817 9.34914 42.8553 9.19444 42.7623 9.01972C42.6694 8.84501 42.6118 8.65369 42.5928 8.45671C42.5857 8.36037 42.5857 8.26364 42.5928 8.1673ZM44.9504 8.1673C44.9504 7.46142 44.6398 7.07318 44.0963 7.07318C43.5528 7.07318 43.2422 7.47553 43.2422 8.1673C43.2422 8.85906 43.5528 9.26142 44.0963 9.26142C44.6398 9.26142 44.9504 8.85906 44.9504 8.1673Z" fill="black"/>
<path d="M46.2564 8.85916C46.2564 8.28739 46.68 7.95563 47.4352 7.91327L48.2964 7.8568V7.58857C48.2964 7.24974 48.0776 7.05915 47.647 7.05915C47.2164 7.05915 47.0541 7.18621 46.9835 7.4121H46.3764C46.44 6.86857 46.9553 6.51562 47.6753 6.51562C48.3953 6.51562 48.9247 6.91092 48.9247 7.58857V9.75563H48.3176V9.31092H48.2682C48.1653 9.47373 48.0207 9.60606 47.8494 9.69418C47.6781 9.7823 47.4864 9.82302 47.2941 9.8121C47.1684 9.82477 47.0415 9.81254 46.9206 9.7761C46.7997 9.73965 46.6872 9.67972 46.5895 9.59972C46.4918 9.51973 46.4109 9.42124 46.3513 9.30991C46.2917 9.19858 46.2547 9.07659 46.2423 8.95092C46.2435 8.91989 46.2482 8.8891 46.2564 8.85916ZM48.2964 8.58386V8.32268L47.52 8.3721C47.0823 8.3721 46.8847 8.54857 46.8847 8.83092C46.8847 9.11327 47.1317 9.28268 47.4776 9.28268C47.5782 9.29235 47.6796 9.28156 47.7759 9.25095C47.8722 9.22035 47.9612 9.17056 48.0378 9.1046C48.1143 9.03865 48.1766 8.95788 48.2211 8.86717C48.2655 8.77646 48.2912 8.67768 48.2964 8.5768V8.58386Z" fill="black"/>
<path d="M49.7505 8.1675C49.7505 7.16515 50.2658 6.52986 51.0634 6.52986C51.2631 6.51997 51.4614 6.56717 51.6351 6.66593C51.8089 6.7647 51.9509 6.91093 52.0446 7.0875H52.087V5.33691H52.7152V9.75574H52.1152V9.25456H52.0658C51.9661 9.43063 51.8198 9.57583 51.6429 9.6742C51.4661 9.77257 51.2656 9.82032 51.0634 9.81221C50.2587 9.81221 49.7505 9.17691 49.7505 8.1675ZM50.3928 8.1675C50.3928 8.83809 50.7105 9.2475 51.247 9.2475C51.7834 9.2475 52.1011 8.83809 52.1011 8.1675C52.1011 7.49691 51.7693 7.05927 51.247 7.05927C50.7246 7.05927 50.3928 7.46868 50.3928 8.13927V8.1675Z" fill="black"/>
<path d="M55.3128 8.16745C55.2917 7.96984 55.3099 7.77 55.3665 7.57948C55.423 7.38896 55.5168 7.21154 55.6424 7.05749C55.768 6.90344 55.9228 6.77582 56.098 6.682C56.2732 6.58817 56.4653 6.53002 56.6631 6.51089C56.8609 6.49176 57.0606 6.51204 57.2505 6.57055C57.4404 6.62907 57.6169 6.72466 57.7696 6.85179C57.9224 6.97893 58.0484 7.13509 58.1404 7.31124C58.2325 7.48739 58.2887 7.68004 58.3058 7.87804C58.3199 7.974 58.3199 8.0715 58.3058 8.16745C58.3269 8.36507 58.3087 8.56491 58.2521 8.75543C58.1955 8.94595 58.1018 9.12337 57.9762 9.27742C57.8506 9.43146 57.6958 9.55909 57.5206 9.65291C57.3454 9.74674 57.1533 9.80489 56.9555 9.82402C56.7577 9.84315 56.558 9.82287 56.3681 9.76436C56.1782 9.70584 56.0017 9.61025 55.849 9.48312C55.6962 9.35598 55.5702 9.19982 55.4781 9.02367C55.3861 8.84752 55.3299 8.65487 55.3128 8.45687C55.2987 8.36091 55.2987 8.26341 55.3128 8.16745ZM57.6634 8.16745C57.6634 7.46157 57.3528 7.07334 56.8093 7.07334C56.2658 7.07334 55.9552 7.47569 55.9552 8.16745C55.9552 8.85922 56.2658 9.26157 56.8093 9.26157C57.3528 9.26157 57.6634 8.85922 57.6634 8.16745Z" fill="black"/>
<path d="M59.1528 6.57926H59.7528V7.05926H59.8022C59.8818 6.87811 60.0153 6.72595 60.1846 6.6236C60.354 6.52125 60.5508 6.47372 60.7481 6.4875C61.0212 6.46801 61.2909 6.55724 61.4985 6.73573C61.7061 6.91423 61.8347 7.16752 61.8564 7.44044C61.8669 7.51773 61.8669 7.59609 61.8564 7.67338V9.7275H61.2281V7.85691C61.2281 7.34867 61.0093 7.09456 60.5222 7.09456C60.4249 7.08674 60.327 7.09921 60.2347 7.13117C60.1425 7.16313 60.0578 7.21388 59.9862 7.28023C59.9145 7.34657 59.8574 7.42706 59.8185 7.5166C59.7795 7.60614 59.7596 7.70279 59.7599 7.80044C59.7564 7.838 59.7564 7.87581 59.7599 7.91338V9.76985H59.1528V6.57926Z" fill="black"/>
<path d="M65.3929 5.78882V6.59352H66.0988V7.12294H65.3929V8.75352C65.3929 9.09235 65.5341 9.23352 65.8446 9.23352C65.9245 9.24055 66.0048 9.24055 66.0846 9.23352V9.75588C65.9696 9.76664 65.8538 9.76664 65.7388 9.75588C65.0329 9.75588 64.7646 9.50882 64.7646 8.8947V7.12294H64.2352V6.59352H64.7364V5.78882H65.3929Z" fill="black"/>
<path d="M66.9386 5.33691H67.5598V7.05927H67.6092C67.6931 6.87588 67.8319 6.72306 68.0064 6.62191C68.1809 6.52076 68.3825 6.47627 68.5833 6.49456C68.7206 6.48694 68.858 6.50648 68.9876 6.55205C69.1173 6.59763 69.2367 6.66834 69.339 6.76015C69.4413 6.85195 69.5245 6.96304 69.5838 7.08704C69.643 7.21105 69.6773 7.34554 69.6845 7.4828C69.6879 7.54864 69.6879 7.61461 69.6845 7.68044V9.7275H69.0563V7.85691C69.0563 7.35574 68.8163 7.09456 68.3504 7.09456C68.2513 7.08689 68.1517 7.09922 68.0575 7.13082C67.9633 7.16241 67.8764 7.21263 67.802 7.27848C67.7276 7.34433 67.6672 7.42448 67.6243 7.51415C67.5815 7.60381 67.5572 7.70118 67.5527 7.80044C67.5492 7.84272 67.5492 7.88522 67.5527 7.9275V9.78397H66.9245L66.9386 5.33691Z" fill="black"/>
<path d="M73.3338 8.90177C73.2484 9.19906 73.0586 9.45555 72.7992 9.62412C72.5399 9.7927 72.2284 9.86204 71.9221 9.81942C71.7308 9.82899 71.5396 9.79956 71.3601 9.73291C71.1806 9.66627 71.0165 9.56379 70.8778 9.43173C70.7392 9.29967 70.6288 9.14078 70.5535 8.96473C70.4782 8.78868 70.4395 8.59914 70.4397 8.40766C70.4327 8.33017 70.4327 8.2522 70.4397 8.17471C70.4129 7.98364 70.4242 7.78914 70.4729 7.60245C70.5217 7.41577 70.6069 7.24058 70.7238 7.08701C70.8406 6.93345 70.9867 6.80453 71.1536 6.70772C71.3205 6.61091 71.5049 6.54811 71.6962 6.52295H71.9009C72.7903 6.52295 73.3127 7.13001 73.3127 8.1253V8.34413H71.068C71.0503 8.56667 71.1213 8.78717 71.2654 8.95768C71.4094 9.1282 71.615 9.23495 71.8374 9.25471H71.9997C72.1493 9.27382 72.3011 9.24773 72.4357 9.1798C72.5703 9.11187 72.6815 9.0052 72.755 8.87354L73.3338 8.90177ZM71.1244 7.87824H72.7056C72.7174 7.67679 72.6503 7.47865 72.5186 7.32581C72.3868 7.17296 72.2007 7.07742 71.9997 7.05942H71.9291C71.8219 7.05755 71.7154 7.07693 71.6158 7.11645C71.5161 7.15597 71.4253 7.21483 71.3485 7.28965C71.2717 7.36447 71.2105 7.45376 71.1684 7.55236C71.1263 7.65096 71.1042 7.75692 71.1032 7.86413L71.1244 7.87824Z" fill="black"/>
<path d="M186.86 0H102.601C100.74 0 99.2306 1.51104 99.2306 3.375V23.625C99.2306 25.489 100.74 27 102.601 27H186.86C188.722 27 190.231 25.489 190.231 23.625V3.375C190.231 1.51104 188.722 0 186.86 0Z" fill="white"/>
<path d="M131.195 6.9121C131.206 7.15964 131.167 7.40687 131.08 7.63888C130.993 7.87089 130.861 8.08289 130.69 8.2621C130.498 8.46008 130.267 8.61533 130.012 8.71769C129.756 8.82005 129.482 8.86722 129.207 8.8561C128.93 8.86228 128.655 8.81155 128.399 8.70705C128.143 8.60256 127.911 8.44653 127.717 8.24861C127.517 8.05454 127.36 7.82128 127.254 7.56343C127.149 7.30559 127.097 7.0287 127.104 6.7501C127.096 6.47038 127.147 6.19221 127.253 5.93313C127.358 5.67406 127.516 5.4397 127.717 5.24485C128.017 4.95102 128.398 4.7526 128.81 4.67454C129.223 4.59648 129.649 4.64225 130.036 4.8061C130.279 4.90616 130.496 5.06091 130.669 5.25835L130.312 5.6161C130.178 5.45463 130.009 5.32662 129.817 5.24226C129.625 5.15789 129.416 5.11949 129.207 5.1301C128.996 5.12907 128.788 5.17062 128.593 5.25227C128.399 5.33392 128.224 5.45398 128.077 5.60526C127.93 5.75654 127.816 5.93592 127.74 6.13265C127.664 6.32937 127.629 6.53939 127.636 6.7501C127.632 7.06475 127.72 7.37365 127.891 7.63784C128.062 7.90204 128.307 8.10969 128.595 8.2346C128.884 8.35952 129.203 8.3961 129.512 8.33972C129.821 8.28335 130.106 8.13656 130.332 7.91785C130.54 7.69245 130.662 7.40083 130.676 7.09436H129.207V6.60835H131.168C131.183 6.70897 131.192 6.8104 131.195 6.9121Z" fill="black"/>
<path d="M134.282 5.2246H132.462V6.5071H134.121V6.9931H132.462V8.2756H134.282V8.7751H131.937V4.7251H134.282V5.2246Z" fill="black"/>
<path d="M136.493 8.7751H135.974V5.2246H134.842V4.7251H137.653V5.2246H136.493V8.7751Z" fill="black"/>
<path d="M139.635 8.7751V4.7251H140.154V8.7751H139.635Z" fill="black"/>
<path d="M142.459 8.7751H141.94V5.2246H140.807V4.7251H143.585V5.2246H142.459V8.7751Z" fill="black"/>
<path d="M148.849 8.2484C148.655 8.44352 148.423 8.5983 148.169 8.7039C147.914 8.80951 147.642 8.86386 147.366 8.86386C147.091 8.86386 146.818 8.80951 146.564 8.7039C146.309 8.5983 146.078 8.44352 145.883 8.2484C145.687 8.0526 145.533 7.81857 145.431 7.5608C145.329 7.30304 145.281 7.02704 145.29 6.7499C145.281 6.47277 145.329 6.19676 145.431 5.939C145.533 5.68124 145.687 5.4472 145.883 5.2514C146.074 5.05079 146.304 4.89246 146.56 4.78665C146.815 4.68084 147.09 4.62991 147.366 4.63715C147.642 4.63278 147.916 4.68502 148.171 4.79066C148.426 4.8963 148.657 5.0531 148.849 5.2514C149.043 5.44883 149.195 5.68315 149.297 5.94053C149.399 6.1979 149.448 6.47311 149.442 6.7499C149.451 7.02704 149.403 7.30304 149.301 7.5608C149.199 7.81857 149.045 8.0526 148.849 8.2484ZM146.268 7.9109C146.411 8.05662 146.582 8.17232 146.771 8.25129C146.959 8.33026 147.162 8.37093 147.366 8.37093C147.571 8.37093 147.773 8.33026 147.962 8.25129C148.15 8.17232 148.321 8.05662 148.465 7.9109C148.614 7.7577 148.731 7.57593 148.809 7.37645C148.886 7.17697 148.923 6.96388 148.917 6.7499C148.92 6.534 148.879 6.31976 148.796 6.12017C148.714 5.92059 148.592 5.73984 148.438 5.5889C148.294 5.44318 148.123 5.32748 147.935 5.24851C147.746 5.16954 147.544 5.12887 147.339 5.12887C147.135 5.12887 146.932 5.16954 146.744 5.24851C146.555 5.32748 146.384 5.44318 146.241 5.5889C146.096 5.74431 145.984 5.92708 145.911 6.12646C145.838 6.32584 145.806 6.53781 145.816 6.7499C145.809 6.96388 145.846 7.17697 145.924 7.37645C146.001 7.57593 146.118 7.7577 146.268 7.9109Z" fill="black"/>
<path d="M150.177 8.7751V4.7251H150.804L152.772 7.87735V7.09435V4.7251H153.291V8.7751H152.752L150.696 5.47435V6.2506V8.7751H150.177Z" fill="black"/>
<path d="M145.162 14.6812C144.594 14.6826 144.039 14.8525 143.568 15.1696C143.096 15.4867 142.729 15.9366 142.513 16.4626C142.297 16.9885 142.242 17.5668 142.354 18.1243C142.466 18.6819 142.74 19.1936 143.143 19.5948C143.546 19.996 144.058 20.2687 144.615 20.3783C145.172 20.4879 145.75 20.4296 146.274 20.2108C146.798 19.9919 147.246 19.6223 147.56 19.1487C147.875 18.6751 148.042 18.1187 148.04 17.55C148.046 17.1706 147.975 16.794 147.832 16.4426C147.689 16.0911 147.477 15.7721 147.209 15.5044C146.94 15.2367 146.62 15.0259 146.269 14.8845C145.917 14.7431 145.541 14.674 145.162 14.6812ZM145.162 19.2915C144.814 19.3159 144.467 19.2348 144.165 19.0589C143.864 18.8829 143.622 18.6202 143.471 18.3049C143.321 17.9896 143.269 17.6363 143.322 17.2909C143.374 16.9455 143.53 16.6239 143.767 16.3681C144.005 16.1122 144.314 15.9339 144.654 15.8563C144.994 15.7786 145.35 15.8053 145.675 15.9328C146 16.0602 146.279 16.2826 146.476 16.571C146.673 16.8595 146.779 17.2006 146.78 17.55C146.791 17.7714 146.757 17.9928 146.681 18.201C146.605 18.4092 146.488 18.6001 146.338 18.7624C146.187 18.9247 146.005 19.0552 145.803 19.146C145.601 19.2369 145.383 19.2864 145.162 19.2915ZM138.88 14.6812C138.312 14.6826 137.757 14.8525 137.285 15.1696C136.814 15.4867 136.447 15.9366 136.231 16.4626C136.015 16.9885 135.959 17.5668 136.071 18.1243C136.183 18.6819 136.458 19.1936 136.861 19.5948C137.263 19.996 137.775 20.2687 138.333 20.3783C138.89 20.4879 139.467 20.4296 139.991 20.2108C140.516 19.9919 140.963 19.6223 141.278 19.1487C141.592 18.6751 141.759 18.1187 141.758 17.55C141.763 17.1706 141.693 16.794 141.55 16.4426C141.407 16.0911 141.195 15.7721 140.926 15.5044C140.658 15.2367 140.338 15.0259 139.987 14.8845C139.635 14.7431 139.258 14.674 138.88 14.6812ZM138.88 19.2915C138.532 19.3159 138.184 19.2348 137.883 19.0589C137.581 18.8829 137.339 18.6202 137.189 18.3049C137.039 17.9896 136.986 17.6363 137.039 17.2909C137.092 16.9455 137.247 16.6239 137.485 16.3681C137.723 16.1122 138.032 15.9339 138.372 15.8563C138.712 15.7786 139.068 15.8053 139.393 15.9328C139.718 16.0602 139.997 16.2826 140.194 16.571C140.391 16.8595 140.497 17.2006 140.497 17.55C140.508 17.7714 140.475 17.9928 140.399 18.201C140.323 18.4092 140.206 18.6001 140.055 18.7624C139.905 18.9247 139.723 19.0552 139.521 19.146C139.319 19.2369 139.101 19.2864 138.88 19.2915ZM131.411 15.5655V16.7805H134.323C134.277 17.3528 134.04 17.8928 133.649 18.3127C133.357 18.6108 133.005 18.8441 132.618 18.9975C132.23 19.151 131.814 19.2213 131.397 19.2037C130.539 19.2037 129.716 18.8624 129.11 18.2548C128.503 17.6472 128.162 16.823 128.162 15.9637C128.162 15.1044 128.503 14.2803 129.11 13.6727C129.716 13.0651 130.539 12.7237 131.397 12.7237C132.22 12.7115 133.014 13.0243 133.608 13.5945L134.464 12.7372C134.063 12.3393 133.586 12.0257 133.061 11.8148C132.537 11.6038 131.976 11.4998 131.411 11.5087C130.812 11.4854 130.214 11.5834 129.653 11.797C129.093 12.0105 128.581 12.3351 128.149 12.7514C127.717 13.1677 127.373 13.6671 127.138 14.2197C126.903 14.7722 126.782 15.3666 126.782 15.9671C126.782 16.5677 126.903 17.162 127.138 17.7146C127.373 18.2671 127.717 18.7665 128.149 19.1828C128.581 19.5991 129.093 19.9238 129.653 20.1373C130.214 20.3508 130.812 20.4488 131.411 20.4255C131.988 20.4486 132.562 20.3492 133.098 20.134C133.634 19.9188 134.118 19.5926 134.518 19.1767C135.226 18.3981 135.603 17.3739 135.57 16.3215C135.572 16.0682 135.552 15.8152 135.509 15.5655H131.411ZM161.953 16.5105C161.777 15.9926 161.449 15.5404 161.01 15.2137C160.572 14.8871 160.045 14.7014 159.5 14.6812C159.131 14.6805 158.766 14.7555 158.427 14.9017C158.089 15.0478 157.784 15.2619 157.531 15.5308C157.278 15.7996 157.083 16.1175 156.958 16.4649C156.833 16.8122 156.78 17.1815 156.803 17.55C156.797 18.1662 156.991 18.7677 157.355 19.2647C157.719 19.7617 158.233 20.1275 158.822 20.3075C159.41 20.4875 160.041 20.472 160.62 20.2633C161.199 20.0546 161.695 19.664 162.034 19.1497L161.057 18.4747C160.911 18.7179 160.704 18.9188 160.457 19.0573C160.21 19.1958 159.931 19.2673 159.648 19.2645C159.356 19.2766 159.067 19.1999 158.819 19.0445C158.571 18.8891 158.376 18.6622 158.259 18.3937L162.095 16.8075L161.953 16.5105ZM158.044 17.469C158.03 17.2597 158.058 17.0497 158.127 16.8515C158.195 16.6533 158.303 16.4708 158.443 16.3148C158.583 16.1589 158.753 16.0325 158.942 15.9432C159.132 15.854 159.337 15.8036 159.547 15.795C159.763 15.7811 159.979 15.8313 160.167 15.9393C160.355 16.0474 160.508 16.2084 160.605 16.4025L158.044 17.469ZM154.929 20.25H156.19V11.8125H154.929V20.25ZM152.867 15.3225H152.819C152.628 15.1139 152.394 14.9487 152.134 14.8381C151.873 14.7275 151.592 14.674 151.31 14.6812C150.573 14.717 149.878 15.0352 149.37 15.5699C148.861 16.1046 148.577 16.8149 148.577 17.5534C148.577 18.2919 148.861 19.0021 149.37 19.5368C149.878 20.0715 150.573 20.3897 151.31 20.4255C151.595 20.4312 151.879 20.3737 152.14 20.257C152.401 20.1403 152.633 19.9674 152.819 19.7505H152.867V20.1622C152.867 21.2625 152.28 21.8497 151.337 21.8497C151.021 21.8428 150.715 21.7422 150.457 21.5607C150.199 21.3793 150.001 21.1251 149.887 20.8305L148.795 21.2827C148.997 21.7905 149.348 22.225 149.802 22.5287C150.256 22.8324 150.791 22.9911 151.337 22.9837C152.813 22.9837 154.033 22.113 154.033 19.9935V14.85H152.867V15.3225ZM151.417 19.2915C150.976 19.2639 150.561 19.0688 150.258 18.7459C149.955 18.4229 149.787 17.9965 149.787 17.5534C149.787 17.1103 149.955 16.6838 150.258 16.3609C150.561 16.0379 150.976 15.8428 151.417 15.8152C151.633 15.8246 151.845 15.8773 152.04 15.9703C152.235 16.0632 152.41 16.1945 152.553 16.3564C152.696 16.5182 152.806 16.7073 152.875 16.9124C152.944 17.1174 152.971 17.3343 152.954 17.55C152.973 17.7665 152.947 17.9844 152.879 18.1907C152.811 18.3969 152.702 18.5872 152.558 18.75C152.414 18.9128 152.239 19.0447 152.043 19.1378C151.847 19.2309 151.634 19.2832 151.417 19.2915ZM167.858 11.8125H164.838V20.25H166.099V17.0505H167.858C168.217 17.0763 168.578 17.0278 168.918 16.9079C169.257 16.788 169.569 16.5993 169.832 16.3536C170.096 16.1078 170.306 15.8103 170.45 15.4797C170.594 15.149 170.668 14.7922 170.668 14.4315C170.668 14.0708 170.594 13.714 170.45 13.3833C170.306 13.0526 170.096 12.7552 169.832 12.5094C169.569 12.2637 169.257 12.075 168.918 11.9551C168.578 11.8352 168.217 11.7867 167.858 11.8125ZM167.858 15.8625H166.099V12.987H167.885C168.268 12.987 168.635 13.1392 168.905 13.4101C169.176 13.681 169.328 14.0484 169.328 14.4315C169.328 14.8146 169.176 15.182 168.905 15.4529C168.635 15.7238 168.268 15.876 167.885 15.876L167.858 15.8625ZM175.637 14.6542C175.178 14.6259 174.721 14.7329 174.322 14.9621C173.923 15.1912 173.6 15.5324 173.392 15.9435L174.504 16.4092C174.617 16.2063 174.785 16.0404 174.99 15.9314C175.195 15.8224 175.426 15.775 175.657 15.795C175.817 15.7763 175.979 15.7897 176.134 15.8344C176.289 15.8791 176.433 15.9542 176.559 16.0554C176.684 16.1565 176.788 16.2817 176.865 16.4236C176.942 16.5655 176.989 16.7212 177.005 16.8817V16.9627C176.6 16.7494 176.149 16.6382 175.691 16.6387C174.491 16.6387 173.264 17.3137 173.264 18.5422C173.276 18.8034 173.34 19.0594 173.453 19.2952C173.565 19.531 173.724 19.7418 173.92 19.9149C174.115 20.0881 174.344 20.2201 174.591 20.3032C174.839 20.3863 175.1 20.4187 175.361 20.3985C175.677 20.416 175.992 20.349 176.274 20.2043C176.556 20.0596 176.794 19.8424 176.965 19.575H177.005V20.25H178.219V17.0032C178.219 15.525 177.1 14.6677 175.664 14.6677L175.637 14.6542ZM175.482 19.278C175.071 19.278 174.498 19.0687 174.498 18.5625C174.498 17.8875 175.212 17.658 175.846 17.658C176.246 17.6481 176.642 17.746 176.992 17.9415C176.949 18.3081 176.776 18.6469 176.503 18.8951C176.231 19.1433 175.877 19.2841 175.509 19.2915L175.482 19.278ZM182.641 14.85L181.198 18.5085H181.158L179.661 14.85H178.313L180.558 19.9665L179.277 22.8082H180.625L184.043 14.85H182.641ZM171.316 20.25H172.57V11.8125H171.316V20.25Z" fill="black"/>
<path d="M106.268 5.08949C106.053 5.35547 105.947 5.69323 105.971 6.03449V20.9655C105.948 21.31 106.062 21.6496 106.288 21.9105L106.335 21.9645L114.667 13.6012V13.3987L106.315 5.04224L106.268 5.08949Z" fill="url(#paint0_linear_0_108)"/>
<path d="M117.431 16.3891L114.667 13.6013V13.3988L117.431 10.6111L117.491 10.6516L120.801 12.5281C121.745 13.0613 121.745 13.9388 120.801 14.4788L117.505 16.3553L117.431 16.3891Z" fill="url(#paint1_linear_0_108)"/>
<path d="M117.511 16.3552L114.667 13.5L106.268 21.9105C106.458 22.0803 106.702 22.178 106.957 22.1866C107.212 22.1952 107.462 22.1143 107.663 21.9577L117.511 16.3552Z" fill="url(#paint2_linear_0_108)"/>
<path d="M117.511 10.6516L107.663 5.04911C107.463 4.89043 107.213 4.8075 106.958 4.81491C106.703 4.82232 106.459 4.91959 106.268 5.08961L114.667 13.5001L117.511 10.6516Z" fill="url(#paint3_linear_0_108)"/>
<path opacity="0.2" d="M117.431 16.2878L107.663 21.8566C107.469 22.0033 107.232 22.0827 106.989 22.0827C106.746 22.0827 106.509 22.0033 106.315 21.8566L106.268 21.9038L106.315 21.9578C106.509 22.1046 106.746 22.184 106.989 22.184C107.232 22.184 107.469 22.1046 107.663 21.9578L117.511 16.3553L117.431 16.2878Z" fill="black"/>
<path opacity="0.12" d="M106.268 21.816C106.051 21.5483 105.945 21.2078 105.971 20.8643V20.9655C105.948 21.31 106.062 21.6496 106.288 21.9105L106.335 21.8633L106.268 21.816Z" fill="black"/>
<path opacity="0.12" d="M120.801 14.3775L117.431 16.2877L117.491 16.3552L120.801 14.472C120.996 14.3893 121.166 14.2553 121.292 14.0843C121.417 13.9132 121.495 13.7114 121.515 13.5C121.473 13.6921 121.387 13.8716 121.263 14.024C121.139 14.1764 120.98 14.2975 120.801 14.3775Z" fill="black"/>
<path opacity="0.25" d="M107.663 5.14356L120.801 12.6226C120.98 12.7026 121.138 12.8237 121.263 12.9761C121.387 13.1285 121.473 13.308 121.515 13.5001C121.495 13.2887 121.417 13.0868 121.292 12.9158C121.166 12.7447 120.996 12.6108 120.801 12.5281L107.663 5.04906C106.726 4.50906 105.971 4.95456 105.971 6.03456V6.13581C105.971 5.05581 106.726 4.61031 107.663 5.14356Z" fill="white"/>
<path d="M211.501 27C211.285 27 211.085 27 210.869 26.9927C210.48 26.9854 210.021 26.9635 209.569 26.8785C209.146 26.8056 208.765 26.6768 208.413 26.4969C208.053 26.3171 207.723 26.0741 207.443 25.7922C207.156 25.5054 206.918 25.1822 206.734 24.8152C206.554 24.4628 206.432 24.091 206.352 23.6584C206.267 23.1918 206.245 22.7179 206.238 22.3582C206.231 22.2076 206.231 21.7191 206.231 21.7191V5.2712C206.231 5.2712 206.238 4.79001 206.238 4.64662C206.245 4.27966 206.267 3.80576 206.352 3.34645C206.43 2.91629 206.554 2.54203 206.734 2.18236C206.921 1.82268 207.156 1.49217 207.438 1.21269C207.725 0.92592 208.055 0.680466 208.415 0.503058C208.775 0.31593 209.154 0.194419 209.572 0.121512C210.038 0.0364536 210.512 0.0145812 210.879 0.00729043L211.503 0H293.77L294.409 0.00729043C294.769 0.0145812 295.243 0.0364536 295.702 0.121512C296.125 0.194419 296.506 0.31593 296.866 0.503058C297.226 0.682896 297.556 0.92592 297.835 1.21269C298.122 1.49217 298.36 1.82268 298.552 2.18965C298.732 2.54203 298.854 2.92115 298.919 3.33915C299.004 3.7766 299.026 4.22862 299.041 4.65391C299.048 4.84833 299.048 5.0622 299.048 5.2712C299.048 5.5288 299.048 5.78155 299.048 6.03186V20.9657C299.048 21.216 299.048 21.4688 299.048 21.7191C299.048 21.9427 299.048 22.1492 299.041 22.3655C299.026 22.7738 299.004 23.2283 298.926 23.6511C298.854 24.0813 298.732 24.4555 298.545 24.8152C298.358 25.1822 298.122 25.5054 297.84 25.7849C297.554 26.0716 297.223 26.3098 296.864 26.4945C296.504 26.6816 296.132 26.7959 295.7 26.8761C295.255 26.9611 294.796 26.983 294.4 26.9903C294.198 26.9976 293.984 26.9976 293.775 26.9976H293.022H211.501V27Z" fill="white"/>
<path d="M237.651 17.2938L236.086 13.0652L234.528 17.2938H237.651ZM232.196 20.4312L235.44 11.9302H236.74L239.983 20.4312H238.786L238.01 18.2489H234.183L233.408 20.4312H232.196ZM242.187 19.4762V22.8566H241.14V14.0543H242.187V15.0167C242.408 14.6375 242.685 14.3581 243.021 14.1758C243.361 13.9887 243.762 13.8963 244.226 13.8963C245.001 13.8963 245.63 14.205 246.114 14.8222C246.602 15.4347 246.845 16.2439 246.845 17.25C246.845 18.2513 246.602 19.0581 246.114 19.6779C245.63 20.2903 245.001 20.5965 244.226 20.5965C243.762 20.5965 243.361 20.5066 243.021 20.3243C242.685 20.1372 242.408 19.8528 242.187 19.4762ZM245.754 17.25C245.754 16.4797 245.594 15.8745 245.273 15.4347C244.962 14.9948 244.53 14.7736 243.973 14.7736C243.419 14.7736 242.979 14.9948 242.659 15.4347C242.343 15.8745 242.185 16.4797 242.185 17.25C242.185 18.0204 242.343 18.6256 242.659 19.0654C242.979 19.5005 243.417 19.7192 243.973 19.7192C244.527 19.7192 244.962 19.5005 245.273 19.0654C245.594 18.6256 245.754 18.0204 245.754 17.25ZM249.596 19.4762V22.8566H248.541V14.0543H249.596V15.0167C249.817 14.6375 250.092 14.3581 250.422 14.1758C250.762 13.9887 251.166 13.8963 251.634 13.8963C252.405 13.8963 253.032 14.205 253.515 14.8222C254.004 15.4347 254.247 16.2439 254.247 17.25C254.247 18.2513 254.004 19.0581 253.515 19.6779C253.032 20.2903 252.405 20.5965 251.634 20.5965C251.166 20.5965 250.762 20.5066 250.422 20.3243C250.092 20.1372 249.815 19.8528 249.596 19.4762ZM253.156 17.25C253.156 16.4797 252.995 15.8745 252.674 15.4347C252.363 14.9948 251.931 14.7736 251.375 14.7736C250.821 14.7736 250.381 14.9948 250.06 15.4347C249.749 15.8745 249.593 16.4797 249.593 17.25C249.593 18.0204 249.749 18.6256 250.06 19.0654C250.381 19.5005 250.818 19.7192 251.375 19.7192C251.929 19.7192 252.363 19.5005 252.674 19.0654C252.995 18.6256 253.156 18.0204 253.156 17.25ZM261.784 19.2185V16.9365H259.911V15.9887H262.926V19.6438C262.481 19.9598 261.99 20.1979 261.453 20.3608C260.921 20.5187 260.353 20.5965 259.745 20.5965C258.414 20.5965 257.374 20.2077 256.623 19.4324C255.877 18.6572 255.503 17.5757 255.503 16.188C255.503 14.8004 255.877 13.7189 256.623 12.9437C257.374 12.1635 258.416 11.7723 259.745 11.7723C260.299 11.7723 260.824 11.8428 261.317 11.9813C261.82 12.1149 262.282 12.3167 262.702 12.584V13.8113C262.277 13.4467 261.825 13.1745 261.347 12.9923C260.868 12.81 260.365 12.7201 259.84 12.7201C258.803 12.7201 258.02 13.0093 257.493 13.5877C256.975 14.1709 256.718 15.0385 256.718 16.1856C256.718 17.3327 256.975 18.1978 257.493 18.7762C258.02 19.3546 258.803 19.6438 259.84 19.6438C260.246 19.6438 260.61 19.6098 260.931 19.5442C261.247 19.4761 261.531 19.3668 261.784 19.2185ZM268.884 17.2209H267.844C266.996 17.2209 266.41 17.3181 266.085 17.5149C265.759 17.7069 265.596 18.0374 265.596 18.5065C265.596 18.8807 265.718 19.1772 265.963 19.396C266.206 19.6122 266.539 19.7192 266.962 19.7192C267.545 19.7192 268.012 19.5126 268.361 19.1019C268.711 18.6912 268.886 18.1419 268.886 17.4566V17.2209H268.884ZM269.931 16.7907V20.4312H268.884V19.4616C268.646 19.8504 268.347 20.1372 267.995 20.3243C267.635 20.5066 267.198 20.5965 266.68 20.5965C266.029 20.5965 265.509 20.4142 265.123 20.0497C264.739 19.6803 264.549 19.187 264.549 18.5697C264.549 17.8576 264.787 17.3157 265.266 16.9463C265.749 16.5817 266.466 16.3995 267.419 16.3995H268.884V16.2998C268.884 15.8162 268.726 15.4419 268.41 15.1795C268.094 14.917 267.65 14.7858 267.076 14.7858C266.712 14.7858 266.359 14.8295 266.014 14.9146C265.669 14.9996 265.336 15.1333 265.016 15.3083V14.3386C265.4 14.1904 265.771 14.081 266.136 14.0081C266.495 13.9303 266.843 13.8939 267.183 13.8939C268.106 13.8939 268.796 14.132 269.251 14.6108C269.705 15.0944 269.931 15.8186 269.931 16.7907ZM272.091 20.4312V11.573H273.139V20.4312H272.091ZM275.33 20.4312V11.573H276.378V20.4312H275.33ZM283.993 16.9779V17.4955H279.177C279.22 18.2124 279.434 18.7641 279.823 19.1456C280.214 19.5199 280.759 19.7046 281.453 19.7046C281.854 19.7046 282.243 19.656 282.617 19.5612C283.001 19.4616 283.375 19.3133 283.745 19.1165V20.108C283.371 20.266 282.987 20.3875 282.588 20.475C282.197 20.5552 281.796 20.5965 281.39 20.5965C280.375 20.5965 279.57 20.3 278.97 19.707C278.377 19.1189 278.081 18.3194 278.081 17.3084C278.081 16.2609 278.363 15.4322 278.929 14.8247C279.493 14.2074 280.256 13.8987 281.21 13.8987C282.068 13.8987 282.744 14.1758 283.242 14.7323C283.742 15.2815 283.993 16.0301 283.993 16.9779ZM279.206 16.6765H282.945C282.936 16.103 282.773 15.6437 282.457 15.2986C282.146 14.9583 281.733 14.7882 281.215 14.7882C280.632 14.7882 280.163 14.9535 279.808 15.284C279.459 15.6145 279.259 16.0787 279.206 16.6765ZM289.363 13.9546L289.37 15.0312C289.251 14.9632 289.122 14.9146 288.981 14.8806C288.84 14.8465 288.692 14.8295 288.529 14.8295C287.936 14.8295 287.479 15.0239 287.159 15.4104C286.843 15.7943 286.685 16.346 286.685 17.0678V20.4288H285.638V14.0543H286.685V15.0458C286.906 14.657 287.193 14.3702 287.547 14.1831C287.902 13.9911 288.33 13.8963 288.833 13.8963C288.906 13.8963 288.986 13.9036 289.076 13.9182C289.161 13.923 289.258 13.9352 289.363 13.9546ZM295.923 14.0543L293.124 21.0194C292.828 21.78 292.538 22.2782 292.257 22.5115C291.975 22.7424 291.598 22.8566 291.129 22.8566H290.288V21.9817H290.906C291.192 21.9817 291.418 21.9113 291.581 21.7727C291.739 21.6391 291.914 21.3158 292.106 20.8031L292.3 20.3292L289.715 14.0543H290.828L292.823 19.0363L294.81 14.0543H295.923Z" fill="#010202"/>
<path d="M232.13 8.94336V4.55677H234.9V5.05254H232.718V6.35272H234.808V6.85578H232.718V8.44273H234.958V8.94579H232.13V8.94336ZM237.084 6.60304L235.721 4.55677H236.36L237.451 6.18746L238.542 4.55677H239.181L237.775 6.66137L239.274 8.94336H238.635L237.408 7.07693L236.159 8.94336H235.52L237.084 6.60304ZM241.39 5.04525H240.644V6.69053H241.39C241.667 6.69053 241.883 6.62005 242.036 6.48153C242.185 6.33814 242.26 6.13157 242.26 5.86424C242.26 5.60664 242.185 5.40493 242.036 5.26154C241.883 5.11816 241.667 5.04525 241.39 5.04525ZM240.056 8.94336V4.55677H241.39C241.883 4.55677 242.255 4.66613 242.51 4.88729C242.758 5.1133 242.884 5.43652 242.884 5.86424C242.884 6.29926 242.761 6.62734 242.51 6.84849C242.258 7.06964 241.883 7.179 241.39 7.179H240.644V8.94579H240.056V8.94336ZM243.681 8.94336V4.55677H244.277V8.4403H246.415V8.94336H243.681ZM248.604 4.96019C248.174 4.96019 247.829 5.12059 247.572 5.44138C247.324 5.76217 247.197 6.19962 247.197 6.75614C247.197 7.30538 247.321 7.74525 247.572 8.0709C247.829 8.3917 248.174 8.55209 248.604 8.55209C249.034 8.55209 249.375 8.3917 249.622 8.0709C249.875 7.74525 250.004 7.30781 250.004 6.75614C250.004 6.20205 249.878 5.76217 249.622 5.44138C249.375 5.11816 249.034 4.96019 248.604 4.96019ZM248.604 4.479C249.217 4.479 249.707 4.68558 250.077 5.09629C250.446 5.507 250.628 6.06109 250.628 6.75371C250.628 7.44876 250.444 8.00043 250.077 8.41114C249.707 8.82185 249.217 9.02842 248.604 9.02842C247.987 9.02842 247.491 8.82185 247.117 8.41114C246.748 8.00043 246.566 7.44633 246.566 6.75371C246.566 6.05866 246.75 5.507 247.117 5.09629C247.491 4.68315 247.987 4.479 248.604 4.479ZM253.637 6.88251C253.765 6.92626 253.889 7.01861 254.011 7.16199C254.13 7.30052 254.251 7.49494 254.378 7.74282L254.98 8.94093H254.341L253.782 7.8133C253.634 7.52167 253.493 7.32725 253.36 7.23247C253.221 7.13769 253.034 7.08909 252.801 7.08909H252.154V8.94093H251.559V4.55677H252.9C253.403 4.55677 253.777 4.66127 254.028 4.87271C254.271 5.07928 254.395 5.39521 254.395 5.8205C254.395 6.09755 254.329 6.32842 254.2 6.51069C254.067 6.69053 253.882 6.8169 253.637 6.88251ZM252.898 5.04525H252.152V6.60304H252.898C253.185 6.60304 253.401 6.53499 253.544 6.40133C253.692 6.26766 253.768 6.07324 253.768 5.8205C253.768 5.56289 253.692 5.36847 253.544 5.23967C253.401 5.11087 253.185 5.04525 252.898 5.04525ZM255.741 8.94336V4.55677H258.511V5.05254H256.336V6.35272H258.426V6.85578H256.336V8.44273H258.569V8.94579H255.741V8.94336ZM261.453 8.94336V4.55677H262.049V8.94336H261.453ZM262.624 5.05254V4.55677H266.335V5.05254H264.777V8.94336H264.182V5.05254H262.624ZM270.599 4.96019C270.169 4.96019 269.827 5.12059 269.574 5.44138C269.321 5.76217 269.192 6.19962 269.192 6.75614C269.192 7.30538 269.319 7.74525 269.574 8.0709C269.827 8.3917 270.169 8.55209 270.599 8.55209C271.029 8.55209 271.372 8.3917 271.625 8.0709C271.872 7.74525 271.999 7.30781 271.999 6.75614C271.999 6.20205 271.875 5.76217 271.625 5.44138C271.372 5.11816 271.029 4.96019 270.599 4.96019ZM270.599 4.479C271.216 4.479 271.71 4.68558 272.079 5.09629C272.448 5.507 272.631 6.06109 272.631 6.75371C272.631 7.44876 272.446 8.00043 272.079 8.41114C271.712 8.82185 271.216 9.02842 270.599 9.02842C269.982 9.02842 269.489 8.82185 269.119 8.41114C268.75 8.00043 268.568 7.44633 268.568 6.75371C268.568 6.05866 268.753 5.507 269.119 5.09629C269.489 4.68315 269.982 4.479 270.599 4.479ZM273.556 8.94336V4.55677H274.353L276.3 8.22644V4.55677H276.88V8.94336H276.076L274.13 5.27369V8.94336H273.556Z" fill="#010202"/>
<path d="M224.622 4.57104H216.813C213.129 4.57104 211.78 5.91254 211.78 9.59679V17.4076C211.78 21.0918 213.129 22.4406 216.813 22.4406H224.622C228.298 22.4406 229.647 21.0918 229.647 17.4076V9.59679C229.647 5.91254 228.306 4.57104 224.622 4.57104Z" fill="#010202"/>
<path fill-rule="evenodd" clip-rule="evenodd" d="M219.405 15.3541L219.189 15.8353H218.708L219.733 13.5022H220.149L221.174 15.8353H220.679L220.47 15.3541H219.405ZM219.575 14.9312H220.292L219.933 14.0976L219.575 14.9312ZM227.186 13.5022H227.659V15.8353H227.186V13.5022ZM225.327 15.4124H226.627V15.8353H224.86V13.5022H226.576V13.9324H225.327V14.4063H226.189V14.8364H225.327V15.4124ZM223.983 13.5022H224.479L223.667 15.8426H223.266L222.734 14.3066L222.202 15.8426H221.813L220.994 13.5022H221.505L222.022 15.1111L222.547 13.5022H222.936L223.468 15.1111L223.983 13.5022ZM217.991 13.5022H218.465V14.8243C218.465 15.4926 218.098 15.879 217.452 15.879C216.82 15.879 216.453 15.4975 216.453 14.8389V13.5047H216.927V14.8267C216.927 15.2204 217.114 15.4294 217.459 15.4294C217.804 15.4294 217.991 15.2204 217.991 14.8413V13.5022ZM215.321 13.5022H215.795V15.8426H215.321V14.8875H214.252V15.8426H213.778V13.5022H214.252V14.4427H215.321V13.5022ZM220.717 10.5301C219.072 10.5301 217.746 9.19585 217.746 7.55786H218.161C218.161 8.96497 219.311 10.1072 220.717 10.1072C222.124 10.1072 223.274 8.96497 223.274 7.55786H223.689C223.689 9.19341 222.355 10.5301 220.717 10.5301Z" fill="white"/>
<defs>
<linearGradient id="paint0_linear_0_108" x1="113.925" y1="5.87924" x2="102.599" y2="17.1902" gradientUnits="userSpaceOnUse">
<stop stop-color="#00A0FF"/>
<stop offset="0.01" stop-color="#00A1FF"/>
<stop offset="0.26" stop-color="#00BEFF"/>
<stop offset="0.51" stop-color="#00D2FF"/>
<stop offset="0.76" stop-color="#00DFFF"/>
<stop offset="1" stop-color="#00E3FF"/>
</linearGradient>
<linearGradient id="paint1_linear_0_108" x1="122.034" y1="13.5001" x2="105.729" y2="13.5001" gradientUnits="userSpaceOnUse">
<stop stop-color="#FFE000"/>
<stop offset="0.41" stop-color="#FFBD00"/>
<stop offset="0.78" stop-color="#FFA500"/>
<stop offset="1" stop-color="#FF9C00"/>
</linearGradient>
<linearGradient id="paint2_linear_0_108" x1="115.968" y1="15.0457" x2="100.605" y2="30.3877" gradientUnits="userSpaceOnUse">
<stop stop-color="#FF3A44"/>
<stop offset="1" stop-color="#C31162"/>
</linearGradient>
<linearGradient id="paint3_linear_0_108" x1="104.151" y1="0.114864" x2="111.009" y2="6.9702" gradientUnits="userSpaceOnUse">
<stop stop-color="#32A071"/>
<stop offset="0.07" stop-color="#2DA771"/>
<stop offset="0.48" stop-color="#15CF74"/>
<stop offset="0.8" stop-color="#06E775"/>
<stop offset="1" stop-color="#00F076"/>
</linearGradient>
</defs>
</svg>
