<svg width="102" height="64" viewBox="0 0 102 64" fill="none" xmlns="http://www.w3.org/2000/svg">
<g clip-path="url(#clip0_0_52)">
<path d="M66.5671 39.1368H24.2217C22.6461 39.1368 21.5872 38.8284 20.8899 38.1642C20.1829 37.4911 19.8445 36.4512 19.8258 34.8923C19.78 31.1904 19.7917 27.4641 19.8034 23.8594C19.8076 22.4944 19.8115 21.2634 19.8129 20.0165C19.8129 19.2982 20.1268 19.0022 20.8872 18.996C21.1977 18.996 21.5148 18.996 21.8288 18.996C22.1428 18.996 22.4598 18.996 22.7711 18.996C23.5384 19.0029 23.854 19.3135 23.8582 20.0679C23.8658 21.0279 23.865 22.0081 23.8636 22.9563V23.3308C23.8636 23.7476 23.8636 24.166 23.8636 24.5861C23.8636 25.4197 23.8636 26.2552 23.8636 27.0925V27.2856C23.8636 29.6475 23.8681 32.0865 23.8494 34.4838C23.8361 34.5751 23.8409 34.6682 23.8636 34.7576C23.8863 34.847 23.9262 34.931 23.9814 35.0049C24.056 35.0619 24.1418 35.1035 24.2325 35.1273C24.3233 35.1512 24.4178 35.1568 24.5107 35.1438H24.525C28.9279 35.1368 33.3852 35.1341 37.775 35.1341C42.1648 35.1341 46.6227 35.1341 51.0264 35.1438C51.1197 35.1572 51.2146 35.1519 51.3059 35.128C51.3972 35.1042 51.4828 35.0623 51.5577 35.0049C51.6092 34.9339 51.6463 34.8533 51.666 34.7679C51.6858 34.6824 51.6879 34.5939 51.6728 34.5075C51.6347 33.5787 51.6347 32.6353 51.6728 31.7044C51.6874 31.6172 51.6846 31.5278 51.664 31.4418C51.6434 31.3558 51.6055 31.2747 51.553 31.2036C51.4802 31.1467 51.3965 31.105 51.3073 31.0812C51.2181 31.0573 51.1252 31.0517 51.0338 31.0646H51.0216C48.1443 31.0723 44.9759 31.0758 41.054 31.0758H35.2318H33.4217C33.1763 31.0813 32.9312 31.065 32.6886 31.0271C32.5132 31.0132 32.349 30.9344 32.2283 30.806C32.1076 30.6776 32.0388 30.5088 32.0354 30.3324C32.0499 29.817 32.0357 29.2904 32.0218 28.7833V28.7722C31.9148 27.4646 32.0267 26.1483 32.3535 24.8778C32.8663 23.1947 33.8998 21.7186 35.3049 20.663C36.71 19.6074 38.414 19.027 40.1699 19.0057L40.3669 19.0009C40.6345 18.9946 40.9082 18.9877 41.1779 18.9877C41.6229 18.9826 42.0676 19.01 42.5087 19.0696C43.292 19.1836 43.5186 19.4455 43.5207 20.2367V20.5507C43.5207 21.0647 43.5248 21.5969 43.5207 22.1255C43.511 22.8042 43.21 23.1085 42.5439 23.1133H42.441C42.1499 23.1133 41.854 23.105 41.5684 23.0974C41.2641 23.089 40.9901 23.0821 40.7115 23.0821C40.3527 23.0796 39.9936 23.0959 39.6365 23.1307C38.6885 23.2076 37.794 23.6013 37.096 24.2488C36.398 24.8963 35.9371 25.76 35.7875 26.7014C35.7731 26.7461 35.7682 26.7933 35.7733 26.84C35.7785 26.8868 35.7935 26.9318 35.8173 26.9723C35.8446 26.9975 35.8774 27.0164 35.9128 27.0277C35.9481 27.039 35.985 27.0423 36.0218 27.0376H36.0712C36.1183 27.0376 36.1692 27.0327 36.2309 27.0327H36.3521H36.4719H42.3807C45.0148 27.0327 48.1343 27.0327 51.2653 27.0376C51.7024 27.0372 52.1388 27.067 52.5718 27.1265C53.3723 27.1736 54.1272 27.5171 54.6892 28.0904C55.2511 28.6638 55.5805 29.4259 55.6132 30.2289C55.7288 31.3108 55.7623 32.4 55.714 33.487V33.5752C55.7078 33.8642 55.7026 34.1636 55.7005 34.4568C55.6721 34.6515 55.7214 34.8496 55.8386 35.0076C55.9113 35.064 55.9948 35.1053 56.0836 35.1291C56.1724 35.153 56.2647 35.1589 56.3557 35.1466H56.4004C57.4402 35.1313 58.4988 35.1229 59.5406 35.1229C60.5825 35.1229 61.639 35.1306 62.6822 35.1466H62.7201C62.814 35.1599 62.9093 35.1544 63.0011 35.1306C63.0928 35.1067 63.1787 35.0649 63.2542 35.0076C63.3708 34.8504 63.4208 34.6534 63.393 34.4595V34.1414V34.1045C63.3729 32.1011 63.3504 30.0296 63.435 27.9969C63.4147 27.0091 63.778 26.0519 64.4483 25.3273C65.1916 24.6769 66.1567 24.3383 67.1425 24.3818C68.4775 24.3568 69.8511 24.3443 71.2256 24.3443C72.56 24.3443 73.9329 24.3561 75.3088 24.3798C76.3133 24.336 77.2948 24.6907 78.0402 25.3669C78.718 26.1124 79.076 27.0954 79.0359 28.1032C79.0879 30.4651 79.0879 32.9118 79.0359 35.3689C78.9881 37.8002 77.596 39.1417 75.1166 39.1417L66.5671 39.1368ZM67.9297 28.3596C67.8573 28.35 67.7836 28.3549 67.7131 28.374C67.6426 28.3931 67.5767 28.426 67.5188 28.4707C67.476 28.5254 67.4445 28.5881 67.4261 28.6551C67.4076 28.7221 67.4024 28.7922 67.4112 28.8611C67.4271 30.6353 67.4278 32.5235 67.4112 34.6332C67.4014 34.7032 67.4054 34.7744 67.4234 34.8428C67.4413 34.9111 67.4732 34.9752 67.5161 35.0312C67.5673 35.0721 67.6258 35.1025 67.6887 35.1206C67.7516 35.1387 67.8173 35.1442 67.8823 35.1368H67.8918C69.0009 35.1299 70.1213 35.1271 71.229 35.1271C72.3367 35.1271 73.4613 35.1271 74.5676 35.1368H74.5764C74.6425 35.1449 74.7093 35.1396 74.7734 35.1214C74.8374 35.1031 74.8974 35.0722 74.9494 35.0306C75.0347 34.9188 75.0726 34.7776 75.0543 34.6381C75.0397 32.4714 75.0404 30.6374 75.0543 28.866C75.0632 28.796 75.0581 28.725 75.0394 28.6571C75.0207 28.5891 74.9887 28.5255 74.9453 28.47C74.8901 28.426 74.8265 28.3935 74.7585 28.3746C74.6905 28.3556 74.6193 28.3505 74.5493 28.3596H74.5134C74.1052 28.3672 73.6624 28.3707 73.1197 28.3707C72.8096 28.3707 72.5001 28.3707 72.1909 28.3707C71.8818 28.3707 71.5712 28.3707 71.2602 28.3707H70.3483H70.3423H69.423C68.847 28.3707 68.3832 28.3707 67.9527 28.3603L67.9297 28.3596Z" fill="white"/>
<path d="M17.7367 32.2914C17.7367 34.5032 17.8296 36.7193 17.718 38.9256C17.4574 44.0822 12.3765 48.0953 7.29628 47.2457C3.60725 46.6274 1.10631 44.1141 0.320262 40.3253C-0.164954 37.9787 0.0533983 35.614 0.0131947 33.2549C0.007248 33.153 0.0228941 33.051 0.0591089 32.9556C0.0953236 32.8602 0.151279 32.7735 0.223304 32.7013C0.295329 32.6291 0.381787 32.5731 0.47699 32.5368C0.572194 32.5005 0.673986 32.4848 0.77567 32.4908C1.5742 32.4616 2.3755 32.4609 3.17403 32.4873C3.70915 32.5046 3.99265 32.8818 3.9982 33.5209C4.01137 34.9513 3.9982 36.3816 4.02939 37.8113C4.03896 38.8062 4.24265 39.7895 4.62898 40.706C5.42404 42.5434 6.99614 43.3909 9.3425 43.284C11.553 43.1832 13.0024 42.1072 13.5271 40.1447C13.7058 39.4224 13.789 38.6797 13.7746 37.9356C13.7746 33.8352 13.7746 29.735 13.7746 25.635C13.7746 24.6346 14.0158 24.3998 15.032 24.3984C15.5865 24.3984 16.1362 24.3984 16.6887 24.3984C17.5323 24.4054 17.8088 24.6805 17.8109 25.544C17.8158 27.794 17.8109 30.0434 17.8109 32.2934L17.7367 32.2914Z" fill="white"/>
<path d="M85.3358 29.1397C85.3358 32.1125 85.3358 35.0855 85.3358 38.0587C85.3358 39.0007 85.1009 39.2327 84.1512 39.2397C83.5805 39.2424 83.0098 39.2424 82.4391 39.2397C81.5962 39.2348 81.3162 38.9569 81.3148 38.1011C81.3116 34.5351 81.3116 30.9714 81.3148 27.41C81.3148 25.0087 81.3148 22.6074 81.3148 20.2062C81.3148 19.2524 81.5768 19.0002 82.5396 18.9995C83.1101 18.9995 83.6813 18.9995 84.2517 18.9995C85.0655 19.0051 85.3345 19.2774 85.3352 20.111C85.3375 23.1199 85.3377 26.1295 85.3358 29.1397Z" fill="white"/>
<path d="M77.3621 0C78.8259 0.231438 80.2714 0.567353 81.6875 1.00519C85.9967 2.29696 90.0437 4.34311 93.6411 7.0489C96.7025 9.35104 99.4084 12.093 101.671 15.1864C101.818 15.3388 101.919 15.5294 101.963 15.7364C102.006 15.9434 101.992 16.1586 101.92 16.3576C101.846 16.5195 101.729 16.6577 101.581 16.7567C101.434 16.8556 101.262 16.9115 101.084 16.9181C100.907 16.9247 100.731 16.8816 100.577 16.7938C100.422 16.706 100.296 16.5768 100.21 16.4208C98.9938 14.7623 97.6469 13.204 96.1823 11.7609C91.9871 7.62696 86.8532 4.57562 81.2217 2.86902C79.9706 2.47619 78.6949 2.16708 77.403 1.94371C77.2531 1.91662 77.1063 1.87425 76.9649 1.81728C76.7229 1.74877 76.5174 1.58762 76.3929 1.36862C76.2684 1.14962 76.2349 0.890337 76.2995 0.646745C76.4125 0.0986441 76.8409 0.0222297 77.3621 0Z" fill="white"/>
<path d="M72.1547 4.51808C76.7118 4.71667 81.1793 5.85269 85.2795 7.85553C89.3798 9.85837 93.025 12.6852 95.9886 16.1602C96.5167 16.7771 96.5431 17.3175 96.078 17.7128C95.6129 18.1081 95.0466 18.0087 94.5378 17.4169C91.5616 13.9285 87.8603 11.1345 83.6932 9.23077C79.7949 7.42975 75.5625 6.46957 71.2703 6.41246C71.0421 6.41702 70.8147 6.38513 70.5965 6.31798C70.4111 6.26698 70.2479 6.15561 70.1325 6.00142C70.0172 5.84723 69.9563 5.65898 69.9595 5.46631C69.9521 5.27329 70.0102 5.08346 70.1244 4.92786C70.2386 4.77226 70.4021 4.66011 70.5882 4.60977C71.1011 4.48824 71.6312 4.45722 72.1547 4.51808Z" fill="white"/>
<path d="M97.4515 27.8608C97.4947 28.0542 97.4653 28.2567 97.3688 28.4297C97.2724 28.6027 97.1158 28.734 96.9288 28.7986C96.7487 28.8684 96.5506 28.8764 96.3654 28.8215C96.1802 28.7666 96.0183 28.6518 95.905 28.495C95.6468 28.1638 95.4471 27.7907 95.3145 27.3919C94.2006 24.7394 92.661 22.2874 90.7569 20.1332C88.6202 17.6952 86.0603 15.6655 83.2014 14.1423C81.7504 13.3444 80.2162 12.7089 78.6265 12.2472C78.4017 12.2031 78.1905 12.1062 78.0103 11.9645C77.8504 11.8584 77.7267 11.7058 77.656 11.5272C77.5852 11.3487 77.5707 11.1526 77.6145 10.9655C77.6758 10.7727 77.7986 10.6054 77.9641 10.4893C78.1295 10.3732 78.3284 10.3148 78.5302 10.323C78.8736 10.3134 79.2151 10.3766 79.5325 10.5084C86.1555 12.682 91.7695 17.1849 95.3366 23.1849C96.0656 24.4543 96.7208 25.7648 97.299 27.1099C97.4274 27.3379 97.4808 27.6006 97.4515 27.8608Z" fill="white"/>
<path d="M72.3062 62.5877C72.2147 62.5877 72.1534 62.5294 72.1187 62.4092C72.1022 62.3667 72.0943 62.3212 72.0964 62.2756C72.0984 62.23 72.11 62.1854 72.1302 62.1445C72.1586 62.1037 72.1951 62.069 72.2372 62.0425C72.2792 62.016 72.3262 61.9982 72.3753 61.9903C72.5203 61.9482 72.6524 61.8709 72.7604 61.7652C72.8048 61.727 73.0251 61.5248 72.9682 61.3213C72.9583 61.2778 72.933 61.2395 72.8965 61.2138C72.86 61.1882 72.8148 61.177 72.7706 61.1824C72.7314 61.1831 72.6923 61.1861 72.6535 61.1914C72.6121 61.1988 72.5703 61.2026 72.5282 61.2025C72.1724 61.2379 71.8163 61.1352 71.5339 60.9155C71.2514 60.6958 71.0639 60.3758 71.0099 60.0216C70.8091 59.3765 70.8632 58.6789 71.1602 58.0723C71.2634 57.8392 71.4292 57.6396 71.6395 57.496C71.8497 57.3524 72.096 57.2705 72.3502 57.2595C72.4159 57.2591 72.4817 57.2642 72.5465 57.2748C72.8314 57.3257 73.0893 57.4742 73.2769 57.695C73.4646 57.9157 73.5699 58.195 73.5748 58.4849C73.6212 58.9816 73.6188 59.4874 73.6167 59.9757V60.0105V60.1411C73.6089 60.2037 73.6131 60.2673 73.6303 60.328C73.6474 60.3888 73.6768 60.4454 73.7162 60.4946C73.7511 60.5256 73.7919 60.5492 73.8361 60.564C73.8802 60.5788 73.927 60.5845 73.9735 60.5808C73.9999 60.5815 74.0265 60.5801 74.0527 60.5766C74.1033 60.5725 74.1544 60.5724 74.205 60.5724C74.2285 60.5724 74.2559 60.5724 74.2801 60.5724C75.1057 60.5592 75.1057 60.5593 75.1743 59.7201C75.2554 58.7239 75.7916 58.0841 76.5735 58.0528H76.6568C77.5163 58.0528 78.0606 58.6558 78.1507 59.7069C78.2277 60.5745 78.2274 60.5745 79.0869 60.5766H79.0978C79.7632 60.5766 79.9617 60.3786 79.9818 59.6937C79.9908 59.3936 79.9906 59.0872 79.9906 58.7906V58.5822C79.9906 58.3321 79.9858 58.041 79.9906 57.7486C79.9906 57.7152 79.9906 57.6868 79.9906 57.6583V57.6485C79.9707 57.5432 79.992 57.4342 80.0502 57.3443C80.0757 57.3213 80.1056 57.3037 80.1382 57.2927C80.1707 57.2817 80.2055 57.2775 80.2397 57.2804H80.2505C80.2852 57.2778 80.3201 57.2827 80.3528 57.2947C80.3854 57.3067 80.4153 57.3255 80.4401 57.3498C80.4664 57.3933 80.4836 57.4417 80.4909 57.4921C80.4981 57.5425 80.495 57.5938 80.4821 57.643V57.6631V57.6694C80.4821 57.7034 80.476 57.7389 80.476 57.7646C80.485 58.5287 80.4937 59.3123 80.459 60.1091C80.4355 60.2407 80.4618 60.3763 80.5335 60.4891C80.6291 60.5655 80.751 60.6012 80.8726 60.5884H80.9329C81.0209 60.5884 81.0945 60.5884 81.161 60.5884C82.1931 60.5884 82.2752 60.38 82.2772 59.222V58.3655C82.2772 57.4763 82.2772 56.7274 82.2772 56.073C82.2772 56.0473 82.2772 56.0181 82.2772 55.9869C82.2562 55.8844 82.2752 55.7778 82.33 55.6889C82.3558 55.6654 82.3863 55.6475 82.4194 55.6365C82.4525 55.6255 82.4876 55.6216 82.5223 55.6249H82.5487C82.5819 55.6234 82.6151 55.6288 82.6462 55.6408C82.6772 55.6527 82.7051 55.671 82.7287 55.6944C82.7766 55.7756 82.7914 55.8723 82.7694 55.964C82.7649 55.9962 82.7621 56.0287 82.7619 56.0612V56.576V56.6378C82.7619 57.7785 82.766 58.9573 82.7375 60.1216C82.7265 60.184 82.7284 60.2479 82.7423 60.3097C82.7562 60.3715 82.782 60.4299 82.8188 60.4814C82.8689 60.5206 82.9267 60.5493 82.988 60.566C83.0493 60.5827 83.1132 60.587 83.1762 60.5787C83.3627 60.5836 83.4711 60.5856 83.5661 60.5856C84.6384 60.5856 84.7013 60.4189 84.7013 59.1088V57.7048C84.7013 57.172 84.7019 56.6204 84.706 56.0779C84.7064 56.0721 84.7064 56.0663 84.706 56.0605V56.0418C84.706 56.0279 84.706 56.014 84.706 55.9987V55.9765V55.9688C84.6856 55.8734 84.7025 55.7737 84.7541 55.6909C84.7798 55.6676 84.8105 55.6499 84.8434 55.6389C84.8764 55.6279 84.9111 55.6238 84.9457 55.627H84.968C85.0051 55.6248 85.0421 55.6303 85.077 55.6432C85.1118 55.6561 85.1437 55.6762 85.1704 55.7021C85.1966 55.7452 85.2139 55.7933 85.2212 55.8433C85.2284 55.8933 85.2252 55.9443 85.2124 55.9931C85.2079 56.0298 85.2057 56.0667 85.2056 56.1036C85.216 57.4325 85.2222 58.6301 85.2056 59.8215C85.1924 60.8364 84.8306 61.197 83.8193 61.199C83.5212 61.199 83.2183 61.199 82.9244 61.199H82.0302H81.5861H81.5787H81.1346H80.7352H80.7257H80.3331H79.9297H79.5364C79.0311 61.199 78.6613 61.199 78.3376 61.19H78.3267C78.1984 61.184 78.0701 61.2078 77.9524 61.2595C77.8347 61.3112 77.7304 61.3894 77.6478 61.488C77.5236 61.6314 77.3712 61.7472 77.1997 61.8278C77.0281 61.9085 76.8415 61.9522 76.652 61.9562C76.4596 61.9522 76.2703 61.9067 76.097 61.8228C75.9237 61.7389 75.7703 61.6185 75.6475 61.47C75.5785 61.3802 75.4892 61.3081 75.3869 61.2598C75.2845 61.2115 75.1723 61.1883 75.0592 61.1921H75.0085C74.8123 61.2011 74.6618 61.2053 74.5231 61.2053C74.3588 61.2053 74.2215 61.2004 74.094 61.19C74.0558 61.19 74.025 61.19 73.9911 61.19C73.9252 61.1826 73.8584 61.1883 73.7948 61.2069C73.7312 61.2254 73.6717 61.2565 73.6201 61.2981C73.5686 61.3398 73.5258 61.3913 73.4942 61.4496C73.4626 61.508 73.4427 61.572 73.436 61.6381C73.3828 61.8434 73.2775 62.0312 73.1294 62.1827C72.9812 62.3342 72.7956 62.4441 72.5919 62.5016C72.5683 62.5106 72.5417 62.521 72.5154 62.5321C72.4499 62.5641 72.3789 62.583 72.3062 62.5877ZM76.6967 58.585C76.5406 58.5754 76.3859 58.6149 76.2533 58.698C76.1207 58.781 76.0173 58.9035 75.9575 59.0483C75.8233 59.3325 75.7507 59.6421 75.745 59.9565C75.7392 60.2709 75.8006 60.5829 75.9244 60.8718C75.9782 61.0234 76.0778 61.1545 76.2093 61.2467C76.3409 61.339 76.4976 61.3879 76.6581 61.3866C76.6817 61.3866 76.7084 61.3866 76.7319 61.3866C76.9036 61.3775 77.0679 61.3117 77.1983 61.1995C77.3287 61.0872 77.4179 60.9349 77.4528 60.7663C77.5421 60.5023 77.5788 60.2233 77.5605 59.9451C77.5932 59.6537 77.5451 59.3588 77.4217 59.0928C77.3741 58.9471 77.2824 58.82 77.1591 58.7293C77.0357 58.6386 76.8876 58.5889 76.7346 58.5871L76.6967 58.585ZM72.3103 57.8208C72.1824 57.8263 72.0587 57.865 71.9502 57.9331C71.8417 58.0012 71.7524 58.0963 71.6916 58.2092C71.5122 58.5142 71.4169 58.8617 71.4161 59.2158C71.4152 59.5699 71.5089 59.9178 71.6868 60.2237C71.7625 60.3476 71.8703 60.4484 71.9989 60.5153C72.1275 60.5823 72.2719 60.6129 72.4166 60.6037C72.5636 60.5995 72.71 60.5835 72.8545 60.5558H72.8701C73.1474 60.5072 73.1265 60.2981 73.1036 60.0959C73.0895 60.0093 73.0882 59.921 73.0996 59.834C73.1125 59.7546 73.1151 59.6738 73.1077 59.5936C73.1077 59.5464 73.1036 59.495 73.1036 59.4408C73.0979 59.3316 73.0979 59.2221 73.1036 59.1129V59.1067C73.1236 58.8734 73.1033 58.6383 73.0434 58.412C73.0087 58.2618 72.9291 58.1257 72.8153 58.022C72.7015 57.9182 72.5589 57.8517 72.4064 57.8312C72.3747 57.8266 72.3423 57.824 72.3103 57.8236V57.8208Z" fill="white"/>
<path d="M59.7587 54.0286C59.6956 53.9496 59.6612 53.8513 59.6619 53.75C59.6627 53.6488 59.6985 53.5509 59.7628 53.4729C60.4643 53.334 60.7208 53.0478 60.7443 52.3656C60.7651 51.78 60.7646 51.1624 60.7646 50.6657V50.533C60.7646 50.2336 60.7652 49.9238 60.7707 49.6202C60.7707 49.5924 60.7707 49.5639 60.7707 49.5341V49.5118C60.7476 49.4008 60.7682 49.285 60.8283 49.1888C60.8585 49.1613 60.8939 49.1403 60.9325 49.127C60.9711 49.1137 61.0116 49.1085 61.0523 49.1117H61.0611C61.1011 49.1074 61.1412 49.1114 61.1796 49.1233C61.218 49.1353 61.2533 49.155 61.2838 49.1812C61.3461 49.2773 61.3691 49.3939 61.3468 49.5063C61.3468 49.5396 61.3468 49.5758 61.3468 49.6063V49.6549C61.353 50.2899 61.36 51.0096 61.3468 51.7216C61.3388 51.7812 61.3425 51.8418 61.3583 51.8998C61.3741 51.9578 61.4017 52.012 61.4389 52.0592C61.486 52.0977 61.5403 52.1264 61.5986 52.1436C61.6569 52.1608 61.7183 52.1661 61.7787 52.1593C62.9903 52.1551 64.2182 52.1551 65.4049 52.1544C66.8932 52.1544 68.4299 52.1544 69.941 52.1461C70.1489 52.1461 70.8282 52.1127 70.9807 51.682C71.0861 51.3833 70.7859 51.1534 70.5197 50.9498C70.4587 50.9033 70.4085 50.8644 70.3613 50.8241C70.2185 50.7142 70.0669 50.6159 69.9085 50.5302C69.8496 50.4962 69.792 50.4608 69.7352 50.4288C69.6437 50.3783 69.5674 50.3043 69.5138 50.2145C69.4602 50.1247 69.4317 50.0222 69.4306 49.9175C69.4331 49.8264 69.4596 49.7377 69.5084 49.6607C69.5572 49.5838 69.6262 49.5216 69.7074 49.4806C70.2411 49.1727 70.8442 49.0054 71.46 48.9943C72.0673 49.0025 72.6608 49.1753 73.178 49.4945C73.4851 49.6779 73.529 49.8682 73.3391 50.1975C73.069 50.6804 72.7199 51.1145 72.3068 51.482C72.1744 51.598 72.1156 51.6973 72.1274 51.7869C72.1427 51.9078 72.2866 51.9953 72.4259 52.0648C72.6023 52.1396 72.7939 52.1729 72.9851 52.162L76.4055 52.1711H76.4468C78.3052 52.1766 80.2271 52.1822 82.1167 52.1836H82.1275C82.8942 52.1836 83.1305 51.9425 83.1395 51.1513C83.1458 50.4802 83.145 49.8022 83.1443 49.1471V48.7859C83.1443 48.5449 83.1443 48.3045 83.1443 48.0634C83.1443 48.0391 83.1443 48.0141 83.1443 47.9891C83.1237 47.8807 83.1474 47.7685 83.2093 47.6772C83.2397 47.6512 83.2746 47.6316 83.3128 47.6197C83.3511 47.6077 83.3914 47.6037 83.4313 47.6077H83.4685C83.509 47.6055 83.5495 47.6113 83.5877 47.6249C83.6259 47.6385 83.6606 47.6596 83.6905 47.6869C83.7421 47.7684 83.7599 47.8669 83.74 47.9613V47.9856C83.74 48.0086 83.74 48.0322 83.74 48.0551V48.5296C83.7448 49.457 83.7498 50.4163 83.7359 51.3729C83.722 52.3711 83.3339 52.7622 82.3496 52.7622H75.6257C74.5382 52.7622 73.7065 52.7622 72.9316 52.7622H72.8389C72.5253 52.7983 72.2094 52.7145 71.9548 52.5274C71.8312 52.3911 71.659 52.3086 71.4755 52.2975C71.3105 52.308 71.1516 52.3649 71.0173 52.4615C70.5913 52.6911 70.1094 52.7954 69.6269 52.7622H69.5856C68.6214 52.7622 67.6448 52.7622 66.6945 52.7622C65.1161 52.7622 63.4828 52.7623 61.8795 52.7553H61.8633C61.7105 52.7289 61.5533 52.7591 61.4213 52.8405C61.2892 52.9218 61.1912 53.0486 61.1457 53.1971C61.0305 53.4621 60.8359 53.685 60.5893 53.835C60.3427 53.985 60.056 54.0548 59.7682 54.0349L59.7587 54.0286ZM71.55 49.541C71.0503 49.5307 70.5618 49.6898 70.1637 49.9926C70.5916 50.2368 70.977 50.5488 71.3056 50.9165C71.3216 50.9359 71.3384 50.9568 71.3544 50.9776C71.4382 51.0853 71.5249 51.1971 71.6427 51.1971C71.722 51.1913 71.7961 51.1559 71.8506 51.0978C71.9122 51.0408 71.9768 50.9853 72.0475 50.9241C72.3826 50.697 72.6278 50.3596 72.7407 49.9703C72.7407 49.9488 72.6983 49.9155 72.6595 49.8856C72.6442 49.8745 72.632 49.8654 72.6216 49.8571C72.3093 49.6354 71.9323 49.5242 71.55 49.541Z" fill="white"/>
<path d="M39.9955 52.7602C39.6846 52.7958 39.3698 52.7395 39.0905 52.5981C38.8111 52.4568 38.579 52.2366 38.423 51.9647C38.362 51.8522 38.3102 51.8064 38.243 51.8064C38.1673 51.8156 38.0956 51.8451 38.0352 51.8918C37.7546 52.0815 37.4258 52.1873 37.0875 52.1968C36.7494 52.18 36.4279 52.0438 36.1804 51.8124C35.9329 51.581 35.7752 51.2693 35.735 50.9325C35.6132 50.449 35.626 49.9412 35.7722 49.4646C35.8567 49.1378 36.0484 48.849 36.3165 48.6445C36.5845 48.44 36.9138 48.3318 37.2506 48.3371H37.2553C37.5423 48.3239 37.7693 48.3142 37.962 48.3142C38.4542 48.3142 38.6554 48.3837 38.7642 48.6011C38.8829 49.0239 38.9217 49.4652 38.8786 49.9023C38.8786 50.0148 38.8786 50.1276 38.8786 50.2406V50.2753C38.8786 50.5281 38.8743 50.7893 38.8847 51.045C38.8688 51.199 38.8883 51.3546 38.9415 51.5C38.9948 51.6453 39.0805 51.7766 39.192 51.8838C39.3035 51.991 39.4382 52.0713 39.5853 52.1185C39.7324 52.1658 39.888 52.1787 40.0409 52.1565C42.5363 52.1655 45.0692 52.1718 47.5168 52.1787C48.1988 52.1787 48.4433 51.9356 48.4523 51.2506C48.4578 50.7393 48.4564 50.2169 48.4523 49.7126V49.4778C48.4366 49.3706 48.4635 49.2614 48.5267 49.1735C48.5578 49.1475 48.5936 49.1279 48.6323 49.116C48.671 49.1041 48.7119 49.1 48.7521 49.1041C49.0294 49.1041 49.05 49.2777 49.05 49.4841C49.05 49.7369 49.05 49.9953 49.05 50.1926V50.2218C49.05 50.6928 49.054 51.1798 49.0276 51.657C48.9992 51.798 49.0276 51.9445 49.1062 52.0648C49.1569 52.1049 49.2152 52.1345 49.2774 52.1518C49.3397 52.1691 49.4049 52.1738 49.469 52.1655H50.7917C52.0678 52.1655 53.3644 52.169 54.619 52.1732H54.6332C55.7125 52.1732 56.8245 52.1794 57.9176 52.1801C58.5131 52.1801 58.7602 51.9508 58.7963 51.3625C58.8178 50.9714 58.8146 50.5719 58.8118 50.1864V50.16C58.8118 49.9828 58.8118 49.7821 58.8118 49.5896V49.5313C58.7939 49.4097 58.8223 49.2858 58.891 49.1839C58.9226 49.157 58.9592 49.1365 58.9987 49.1239C59.0382 49.1113 59.0799 49.1066 59.1212 49.1103H59.1341C59.4259 49.1166 59.4238 49.3152 59.4217 49.507C59.4217 49.5257 59.4217 49.5438 59.4217 49.5612C59.4217 49.7202 59.4217 49.8911 59.4217 50.0829V50.1065C59.4259 50.5469 59.4305 51.0026 59.4055 51.4493C59.3514 52.4218 58.9819 52.7622 57.9941 52.7622H44.0807C42.4809 52.7622 41.1868 52.7622 40.0084 52.7685H39.9948L39.9955 52.7602ZM37.6872 48.7414C37.4494 48.7386 37.2142 48.7927 37.0015 48.8992C36.7888 49.0058 36.6044 49.1618 36.464 49.3541C36.3183 49.6328 36.2427 49.9427 36.2427 50.2572C36.2427 50.5718 36.3183 50.8817 36.464 51.1603C36.5302 51.322 36.6424 51.4607 36.7862 51.5594C36.9301 51.6582 37.0993 51.7126 37.2736 51.716C37.3074 51.7168 37.3415 51.7154 37.3752 51.7119C37.5663 51.6919 37.7454 51.6097 37.8856 51.478C38.0257 51.3463 38.1193 51.1723 38.1516 50.9825C38.2624 50.5791 38.3046 50.1599 38.2768 49.7425C38.2553 49.6376 38.2566 49.5293 38.2809 49.425C38.3114 49.2124 38.3429 48.9964 38.1211 48.8477C37.9901 48.7701 37.8393 48.7324 37.6872 48.7394V48.7414Z" fill="white"/>
<path d="M50.552 61.9778C50.3702 61.9788 50.1897 61.9413 50.0233 61.8678C49.8569 61.7943 49.7079 61.6864 49.586 61.5512C49.4963 61.4338 49.3797 61.3395 49.2462 61.2764C49.1127 61.2134 48.9666 61.1832 48.8191 61.1886C48.7796 61.1886 48.7375 61.1886 48.6939 61.1935C48.6245 61.199 48.5558 61.2018 48.4691 61.2018C48.3998 61.2018 48.3353 61.2018 48.2694 61.2018H48.1239C47.3496 61.1969 46.9257 60.8322 46.9007 60.1466C46.8647 59.1469 46.8694 58.116 46.8743 57.206V57.0073C46.8743 56.6496 46.8743 56.28 46.8743 55.9174C46.8743 55.7646 46.9044 55.6235 47.1221 55.6235H47.1275C47.3812 55.6235 47.3813 55.8055 47.3813 55.9792C47.3813 57.0094 47.3813 58.0744 47.3813 59.1226V59.172C47.3787 59.4039 47.3887 59.6358 47.4111 59.8666C47.4791 60.1018 47.623 60.3079 47.82 60.4528C48.0169 60.5978 48.256 60.6735 48.5003 60.6683C48.6491 60.6716 48.7954 60.6315 48.922 60.553C49.0495 60.4696 49.0373 60.3446 49.0255 60.2272C49.0214 60.1903 49.0195 60.1577 49.0188 60.1341C48.9925 59.6947 49.0768 59.2558 49.2645 58.858C49.3654 58.6124 49.5385 58.4033 49.7607 58.2585C49.9829 58.1137 50.2437 58.0401 50.5087 58.0473C50.5523 58.0473 50.5976 58.0473 50.6434 58.0521C50.912 58.0648 51.1701 58.1602 51.3826 58.3253C51.5951 58.4904 51.7515 58.7171 51.8307 58.9747C51.9868 59.3669 52.0439 59.7916 51.9965 60.2112C51.9863 60.2591 51.9857 60.3086 51.9959 60.3564C52.006 60.4043 52.0266 60.4495 52.0554 60.4891C52.0945 60.5238 52.1403 60.5498 52.1901 60.5654C52.24 60.5809 52.2927 60.5857 52.3445 60.5794H52.3533C52.6999 60.5794 53.0722 60.5794 53.5602 60.5794H56.6795C56.8181 60.5794 56.9683 60.5634 56.9794 60.371C57.0237 60.0292 56.9955 59.682 56.8961 59.3521C56.7967 59.0222 56.6283 58.7171 56.4026 58.4571C56.265 58.3055 56.0969 58.1851 55.9091 58.104C55.7213 58.0229 55.5186 57.983 55.3141 57.9868C55.1508 57.988 54.9879 58.0073 54.8288 58.0445C54.5687 58.1068 54.3343 58.248 54.1573 58.4488C54.1321 58.4777 54.1085 58.5084 54.0876 58.5405C54.0328 58.6176 53.9718 58.703 53.8845 58.703C53.804 58.6923 53.731 58.6501 53.6814 58.5856C53.4471 58.3425 53.5167 58.18 53.7261 57.9653C53.9199 57.7765 54.1492 57.6283 54.401 57.5295C54.6527 57.4308 54.9213 57.3834 55.1916 57.3901C55.5411 57.3829 55.8875 57.4587 56.2022 57.6112C56.517 57.7636 56.7915 57.9885 57.003 58.2675C57.3815 58.7996 57.5832 59.4376 57.5798 60.091C57.5839 60.4474 57.6972 60.5926 57.971 60.5926C58.0209 60.5923 58.0706 60.5886 58.12 60.5815C58.1659 60.5755 58.2124 60.5727 58.2587 60.5731H58.3596H58.4611H58.4862C59.2112 60.5731 59.4005 60.3786 59.4095 59.6284C59.4157 59.0358 59.4156 58.4384 59.4149 57.8604C59.4149 57.2984 59.4148 56.717 59.419 56.1404C59.4187 56.0986 59.4155 56.0568 59.4102 56.0153C59.3964 55.963 59.3932 55.9085 59.4007 55.855C59.4082 55.8014 59.4266 55.7499 59.4542 55.7034C59.482 55.6778 59.5151 55.6583 59.551 55.6464C59.5868 55.6344 59.6244 55.6302 59.662 55.634H59.6809C59.7162 55.6313 59.7519 55.6362 59.7852 55.6481C59.8185 55.6601 59.8489 55.6789 59.8745 55.7034C59.9234 55.7923 59.9353 55.8969 59.9077 55.9945V56.0035C59.9018 56.0405 59.8979 56.0779 59.8969 56.1154C59.91 57.5659 59.9107 58.7461 59.8969 59.8305C59.8879 60.8538 59.541 61.199 58.5207 61.199C57.5004 61.199 56.4493 61.199 55.4387 61.199H53.6882C53.3966 61.199 53.1052 61.199 52.8136 61.199C52.7484 61.199 52.6871 61.199 52.6241 61.199H52.5205C52.2899 61.1696 52.0559 61.1978 51.8388 61.2811C51.6217 61.3643 51.4284 61.5001 51.2763 61.6763C51.1848 61.7765 51.0725 61.8554 50.9473 61.9075C50.8222 61.9595 50.6874 61.9835 50.552 61.9778ZM50.5581 58.5856C50.4022 58.5747 50.2472 58.6135 50.1147 58.6965C49.9822 58.7795 49.8787 58.9024 49.8203 59.0476C49.6844 59.331 49.6114 59.6404 49.6057 59.9547C49.5999 60.269 49.6617 60.5809 49.7871 60.8691C49.8398 61.0201 49.9384 61.151 50.0687 61.2436C50.199 61.3362 50.3544 61.3859 50.5141 61.3859C50.5377 61.3859 50.565 61.3859 50.5886 61.3859C50.7602 61.378 50.9241 61.3132 51.055 61.2017C51.1858 61.0902 51.2762 60.9382 51.3115 60.7697C51.3955 60.5168 51.4308 60.2501 51.4151 59.984C51.4468 59.681 51.401 59.3748 51.2824 59.0941C51.2337 58.9493 51.1413 58.823 51.0184 58.7325C50.8955 58.642 50.7478 58.5917 50.5953 58.5884L50.5581 58.5856Z" fill="white"/>
<path d="M83.0418 46.048C82.4526 46.048 81.8634 46.048 81.2735 46.048C81.1829 46.0587 81.091 46.049 81.0046 46.0196C80.9181 45.9903 80.8393 45.9419 80.7738 45.8782C80.7084 45.8145 80.6579 45.7369 80.6261 45.6512C80.5943 45.5654 80.582 45.4737 80.59 45.3825C80.5783 45.1352 80.59 44.8872 80.59 44.6399C80.5777 44.5538 80.5839 44.466 80.6081 44.3824C80.6323 44.2988 80.6739 44.2213 80.7303 44.1551C80.7867 44.0889 80.8566 44.0356 80.9352 43.9985C81.0138 43.9615 81.0994 43.9417 81.1862 43.9404C81.573 43.923 81.609 43.732 81.5951 43.4284C81.5792 43.0672 81.5799 42.7046 81.5951 42.3433C81.5786 42.1275 81.6085 41.9107 81.6829 41.7074C81.7572 41.5042 81.8743 41.3194 82.0261 41.1654C82.178 41.0115 82.361 40.892 82.5629 40.8152C82.7648 40.7383 82.9808 40.7058 83.1963 40.7199C83.7467 40.699 84.2992 40.7136 84.8502 40.715C84.9362 40.7069 85.023 40.7172 85.1047 40.7451C85.1865 40.7731 85.2614 40.8181 85.3245 40.8772C85.3876 40.9363 85.4375 41.0081 85.471 41.0879C85.5044 41.1677 85.5206 41.2537 85.5185 41.3402C85.54 41.5861 85.524 41.8348 85.524 42.0821C85.5364 42.1826 85.526 42.2846 85.4937 42.3805C85.4614 42.4764 85.408 42.5638 85.3374 42.6362C85.2669 42.7086 85.181 42.7643 85.0861 42.7989C84.9912 42.8336 84.8898 42.8465 84.7893 42.8365C84.6184 42.8451 84.4472 42.8451 84.2763 42.8365C83.8937 42.8115 83.6337 42.8449 83.6421 43.3666C83.6497 43.8529 83.8424 43.9578 84.2576 43.9168C84.4653 43.8996 84.6741 43.9017 84.8815 43.923C85.0266 43.9198 85.168 43.9689 85.28 44.0615C85.392 44.1541 85.467 44.2839 85.4914 44.4274C85.5611 44.8029 85.5594 45.1882 85.4866 45.5632C85.458 45.716 85.3716 45.8519 85.2454 45.9425C85.1192 46.0331 84.963 46.0714 84.8094 46.0494C84.2202 46.046 83.631 46.0494 83.0411 46.0494L83.0418 46.048Z" fill="white"/>
<path d="M6.17842 22.1227C6.17256 21.861 6.21963 21.6007 6.3168 21.3577C6.41397 21.1147 6.55922 20.8939 6.74381 20.7087C6.92839 20.5234 7.1485 20.3775 7.39084 20.2798C7.63319 20.1821 7.89277 20.1346 8.15394 20.1401C8.41948 20.1378 8.68282 20.1884 8.92862 20.2892C9.17442 20.3899 9.39776 20.5386 9.58563 20.7267C9.7735 20.9148 9.92214 21.1384 10.0229 21.3847C10.1236 21.6309 10.1745 21.8948 10.1724 22.1609C10.1636 22.6887 9.94978 23.1923 9.57636 23.5646C9.20293 23.9369 8.69935 24.1485 8.17265 24.1546C7.90706 24.1578 7.64356 24.1072 7.39797 24.0058C7.15239 23.9044 6.92978 23.7543 6.74352 23.5645C6.55727 23.3747 6.4112 23.1492 6.31409 22.9014C6.21698 22.6536 6.17083 22.3888 6.17842 22.1227Z" fill="white"/>
<path d="M40.8788 60.2411C40.7711 60.9387 40.4357 61.5807 39.925 62.0667C39.7242 62.2506 39.4877 62.3912 39.2304 62.4796C38.973 62.5681 38.7003 62.6026 38.4291 62.5809C38.1579 62.5593 37.894 62.4821 37.6539 62.3539C37.4137 62.2258 37.2024 62.0495 37.0331 61.8361C36.4198 60.9987 36.1387 59.9629 36.2443 58.9296C36.2443 58.7476 36.3247 58.6413 36.5174 58.6455C36.7101 58.6496 36.7711 58.7844 36.7753 58.9504C36.7567 59.4453 36.7939 59.9408 36.8862 60.4273C37.1634 61.5388 37.9793 62.139 38.947 61.9278C39.4297 61.7723 39.8384 61.444 40.0949 61.0056C40.3515 60.5672 40.4378 60.0495 40.3375 59.5513C40.3135 59.3902 40.2443 59.2394 40.1378 59.1163C40.0314 58.9933 39.8922 58.9032 39.7365 58.8566C39.5133 58.7871 39.3996 58.6719 39.4627 58.4468C39.5355 58.1884 39.7677 58.2419 39.941 58.2745C40.1712 58.3361 40.3841 58.4502 40.5631 58.6079C40.742 58.7657 40.8821 58.9628 40.9724 59.1838C41.0909 59.3985 41.1491 59.6458 41.2497 59.8715C41.3629 60.1577 41.5811 60.3895 41.8596 60.5194C42.1381 60.6492 42.4556 60.6672 42.7469 60.5697C43.0283 60.4947 42.9133 60.3224 42.88 60.1702C42.7738 59.8032 42.7415 59.4188 42.7851 59.0391C42.8286 58.6595 42.9471 58.2924 43.1337 57.9591C43.2678 57.7394 43.4569 57.5587 43.6822 57.4349C43.9075 57.311 44.1612 57.2484 44.4181 57.2532C44.675 57.258 44.9262 57.33 45.1468 57.4621C45.3674 57.5942 45.5496 57.7818 45.6755 58.0063C45.7719 58.1828 45.9812 58.4301 45.663 58.5836C45.4135 58.7045 45.2423 58.5718 45.1536 58.3002C45.1032 58.1238 44.9919 57.971 44.8395 57.8692C44.6872 57.7674 44.5037 57.7232 44.3218 57.7445C44.139 57.7527 43.964 57.821 43.8239 57.9389C43.6838 58.0568 43.5864 58.2177 43.5468 58.3967C43.3658 58.9422 43.3444 59.5282 43.4851 60.0855C43.4925 60.1615 43.5154 60.2352 43.5525 60.3019C43.5895 60.3686 43.6399 60.427 43.7005 60.4733C43.761 60.5197 43.8304 60.553 43.9044 60.5713C43.9784 60.5895 44.0554 60.5923 44.1305 60.5794C44.6039 60.5482 45.0808 60.5794 45.5563 60.5725C45.7934 60.5725 45.9029 60.667 45.8939 60.915C45.8842 61.1442 45.7601 61.1991 45.5598 61.1984C44.3994 61.1942 43.239 61.2144 42.0794 61.1859C41.5443 61.1734 41.1935 60.8073 40.8788 60.2411Z" fill="white"/>
<path d="M67.2748 58.1383C67.2748 58.8239 67.29 59.5096 67.2672 60.1938C67.2581 60.4717 67.3365 60.5849 67.6103 60.5738C67.8383 60.5648 68.0664 60.5662 68.2944 60.5648C69.3487 60.5599 69.4479 60.4592 69.4493 59.3783C69.4493 58.7878 69.4493 58.1973 69.4493 57.6069C69.4493 57.461 69.4188 57.2804 69.6468 57.2658C69.8749 57.2512 69.94 57.3901 69.9386 57.5902C69.9338 58.4474 69.9629 59.3061 69.9171 60.1605C69.9206 60.3052 69.8933 60.4489 69.8369 60.5821C69.7804 60.7153 69.6963 60.8349 69.5901 60.9329C69.4838 61.0309 69.3579 61.105 69.2208 61.1503C69.0837 61.1956 68.9385 61.211 68.7949 61.1956C68.6052 61.2092 68.4148 61.2092 68.2251 61.1956C67.8992 61.1228 67.5586 61.1574 67.2539 61.2943C66.9493 61.4313 66.6969 61.6632 66.5345 61.9555C65.8746 62.9594 64.5645 62.8301 63.8526 61.8166C63.3686 61.011 63.158 60.07 63.2524 59.1345C63.2524 58.9629 63.314 58.8344 63.5178 58.8455C63.7362 58.8573 63.7341 59.0185 63.7348 59.1741C63.7184 59.6502 63.7672 60.1263 63.8797 60.5891C63.945 60.8268 64.0351 61.0568 64.1486 61.2755C64.2451 61.5064 64.4096 61.7023 64.6202 61.837C64.8308 61.9716 65.0774 62.0387 65.327 62.0292C65.5751 62.0112 65.8131 61.9234 66.0137 61.776C66.2143 61.6285 66.3694 61.4273 66.461 61.1956C66.7312 60.5426 66.8497 59.8366 66.8076 59.131C66.8332 58.1223 66.8076 57.1123 66.8187 56.1029C66.8187 55.9167 66.7251 55.6416 67.0599 55.627C67.4252 55.6118 67.2963 55.9049 67.3004 56.082C67.315 56.7677 67.306 57.4533 67.306 58.139L67.2748 58.1383Z" fill="white"/>
<path d="M61.314 58.3925C61.314 59.1928 61.314 59.9903 61.314 60.7926C61.314 60.9816 61.3417 61.2025 61.0457 61.1872C60.7948 61.1747 60.8135 60.9788 60.8128 60.8086C60.8128 59.2086 60.8128 57.6085 60.8128 56.0084C60.8128 55.8194 60.7886 55.602 61.0901 55.6208C61.3917 55.6395 61.314 55.8792 61.3154 56.0501C61.3189 56.8309 61.314 57.6117 61.314 58.3925Z" fill="white"/>
<path d="M85.3391 50.2094C85.3391 50.9323 85.3391 51.655 85.3391 52.3775C85.3391 52.5859 85.3246 52.7526 85.0466 52.7595C84.7687 52.7665 84.7382 52.6206 84.7382 52.4011C84.7414 50.9191 84.7414 49.4357 84.7382 47.951C84.7382 47.7294 84.7811 47.5904 85.0508 47.6036C85.3204 47.6168 85.3398 47.7842 85.3391 47.9878C85.3378 48.7262 85.3391 49.4675 85.3391 50.2094Z" fill="white"/>
<path d="M37.4675 47.5036C37.4828 47.6911 37.428 47.8384 37.1667 47.8398C36.8936 47.8398 36.8777 47.6703 36.8749 47.4654C36.8749 47.2347 36.8998 47.0541 37.2034 47.0729C37.4862 47.0902 37.4641 47.2847 37.4675 47.5036Z" fill="white"/>
<path d="M79.599 56.253C79.599 56.4517 79.592 56.6483 79.3217 56.6629C79.0514 56.6775 79.0243 56.4885 79.0278 56.2836C79.0278 56.0932 79.0049 55.8799 79.2912 55.8751C79.5525 55.8709 79.6128 56.0342 79.599 56.253Z" fill="white"/>
<path d="M79.9608 56.2717C79.9608 56.0772 79.9546 55.873 80.2332 55.8716C80.5119 55.8702 80.5216 56.0661 80.5202 56.2648C80.5188 56.4634 80.5091 56.6635 80.2429 56.667C79.9768 56.6705 79.9615 56.469 79.9608 56.2717Z" fill="white"/>
<path d="M55.6588 62.0076C55.6456 62.2993 55.6754 62.5105 55.3954 62.5223C55.1153 62.5342 55.107 62.3362 55.1015 62.1424C55.0959 61.9485 55.0835 61.7429 55.3593 61.7367C55.6151 61.7318 55.6692 61.8992 55.6588 62.0076Z" fill="white"/>
<path d="M38.1853 47.8217C37.9358 47.8217 37.9081 47.6452 37.9081 47.4389C37.9081 47.2145 37.9836 47.0756 38.2325 47.0916C38.464 47.1048 38.4876 47.268 38.4917 47.4486C38.4966 47.6536 38.464 47.8272 38.1853 47.8217Z" fill="white"/>
<path d="M38.8242 63.5859C38.8242 63.3684 38.8935 63.1982 39.1465 63.2302C39.4092 63.2635 39.3794 63.49 39.3808 63.6727C39.3822 63.8554 39.3115 64.0103 39.0855 63.9985C38.809 63.9846 38.8305 63.7755 38.8242 63.5859Z" fill="white"/>
<path d="M49.0494 53.5903C49.0639 53.8182 49.0113 53.9647 48.7492 53.9633C48.4872 53.962 48.4498 53.8112 48.4491 53.5979C48.4484 53.3847 48.4914 53.2346 48.7527 53.2381C49.014 53.2416 49.0695 53.384 49.0494 53.5903Z" fill="white"/>
<path d="M59.3849 53.9001C59.1943 53.8348 59.021 54.1655 58.8227 53.9245C58.7991 53.8736 58.7852 53.8186 58.7818 53.7626C58.7874 53.5618 58.7292 53.3381 58.9641 53.2166C59.02 53.1804 59.0864 53.164 59.1527 53.1702C59.2189 53.1764 59.2812 53.2047 59.3294 53.2506C59.3771 53.2886 59.4166 53.3359 59.4454 53.3897C59.4742 53.4435 59.4918 53.5026 59.497 53.5634C59.5021 53.6242 59.4949 53.6855 59.4756 53.7434C59.4563 53.8013 59.4255 53.8546 59.3849 53.9001Z" fill="white"/>
<path d="M48.0162 53.5513C48.0266 53.7882 48.0065 53.9605 47.7306 53.9584C47.4713 53.9584 47.4166 53.8104 47.4221 53.5923C47.427 53.4033 47.4658 53.2575 47.6952 53.245C47.9406 53.2318 48.046 53.3429 48.0162 53.5513Z" fill="white"/>
<path d="M69.0335 62.1064C69.0079 62.2863 69.0793 62.4982 68.8117 62.51C68.5441 62.5218 68.5192 62.3349 68.5157 62.13C68.5123 61.9251 68.5469 61.7431 68.8131 61.7507C69.0793 61.7584 69.0023 61.9785 69.0335 62.1064Z" fill="white"/>
<path d="M69.9535 62.1543C69.9535 62.3363 69.932 62.5016 69.6929 62.5106C69.3823 62.5183 69.4523 62.2821 69.4454 62.107C69.4385 61.9319 69.4115 61.743 69.6804 61.752C69.9494 61.7611 69.9597 61.9535 69.9535 62.1543Z" fill="white"/>
<path d="M59.3871 53.9002C59.3871 53.8078 59.3948 53.7154 59.3968 53.6223C59.4017 53.4389 59.3649 53.2833 59.1383 53.275C58.9241 53.268 58.8471 53.3938 58.8451 53.5911C58.8451 53.7015 58.8319 53.812 58.8243 53.9224C58.6738 53.6577 58.6163 53.3583 58.8985 53.1867C58.9563 53.1446 59.0239 53.1179 59.0949 53.1093C59.1659 53.1006 59.2379 53.1103 59.3042 53.1374C59.3704 53.1644 59.4286 53.208 59.4733 53.2639C59.5181 53.3199 59.5478 53.3863 59.5597 53.457C59.568 53.4813 59.6935 53.4653 59.7642 53.4674C59.7642 53.6527 59.7631 53.8379 59.7607 54.0232C59.629 53.9995 59.5521 53.8203 59.3871 53.9002Z" fill="white"/>
<path d="M38.1594 63.2754C38.3965 63.2754 38.4256 63.44 38.427 63.6227C38.4284 63.8054 38.4076 63.9701 38.1712 63.9777C37.9349 63.9853 37.9085 63.8151 37.9099 63.6304C37.9113 63.4456 37.9189 63.283 38.1594 63.2754Z" fill="white"/>
</g>
<defs>
<clipPath id="clip0_0_52">
<rect width="102" height="64" fill="white"/>
</clipPath>
</defs>
</svg>
