<svg width="96" height="34" viewBox="0 0 96 34" fill="none" xmlns="http://www.w3.org/2000/svg">
<path d="M61.9998 17C61.9998 25.8094 69.3596 32.9999 78.4998 32.9999C87.64 32.9999 94.9997 25.8094 94.9997 17C94.9997 8.19055 87.64 0.999997 78.4998 0.999997C69.3596 0.999997 61.9998 8.19055 61.9998 17Z" stroke="#0E4C9A" stroke-opacity="0.3" stroke-width="2"/>
<path d="M75.9998 9.99997L83.9998 17.3442L75.9998 23.9999" stroke="#0E4C9A" stroke-opacity="0.3" stroke-width="2" stroke-linecap="round"/>
<path d="M33.9999 17C33.9999 25.8095 26.6402 33 17.5 33C8.35976 33 0.999997 25.8095 0.999997 17C0.999997 8.19064 8.35976 1.00009 17.5 1.00009C26.6402 1.00009 33.9999 8.19064 33.9999 17Z" stroke="#0E4C9A" stroke-width="2"/>
<path d="M19.9999 10.0001L12 17.3443L19.9999 24" stroke="#0E4C9A" stroke-width="2" stroke-linecap="round"/>
</svg>
