<svg width="96" height="45" viewBox="0 0 96 45" fill="none" xmlns="http://www.w3.org/2000/svg">
<path d="M62.6608 36.7308H22.8021C21.3191 36.7308 20.3224 36.4413 19.666 35.818C19.0005 35.1863 18.682 34.2103 18.6644 32.7473C18.6213 29.2729 18.6322 25.7757 18.6433 22.3927C18.6473 21.1115 18.651 19.9562 18.6523 18.786C18.6523 18.1118 18.9477 17.8341 19.6634 17.8282C19.9557 17.8282 20.2542 17.8282 20.5497 17.8282C20.8453 17.8282 21.1437 17.8282 21.4367 17.8282C22.159 17.8347 22.4561 18.1262 22.46 18.8342C22.4671 19.7352 22.4664 20.6551 22.4651 21.5451V21.8965C22.4651 22.2877 22.4651 22.6804 22.4651 23.0746C22.4651 23.857 22.4651 24.6411 22.4651 25.4269V25.6082C22.4651 27.8249 22.4693 30.1139 22.4517 32.3639C22.4392 32.4496 22.4437 32.5369 22.4651 32.6208C22.4865 32.7047 22.5239 32.7836 22.5759 32.8529C22.6462 32.9064 22.7269 32.9455 22.8123 32.9678C22.8978 32.9902 22.9867 32.9955 23.0742 32.9833H23.0876C27.232 32.9768 31.4275 32.9741 35.5595 32.9741C39.6915 32.9741 43.8876 32.9741 48.0327 32.9833C48.1206 32.9959 48.2099 32.9909 48.2958 32.9685C48.3818 32.9461 48.4623 32.9068 48.5329 32.8529C48.5813 32.7863 48.6162 32.7107 48.6348 32.6305C48.6534 32.5503 48.6554 32.4672 48.6412 32.3861C48.6053 31.5144 48.6053 30.629 48.6412 29.7554C48.6549 29.6734 48.6523 29.5896 48.6329 29.5089C48.6135 29.4281 48.5778 29.3521 48.5284 29.2853C48.4599 29.2319 48.3811 29.1928 48.2971 29.1704C48.2132 29.148 48.1257 29.1427 48.0397 29.1549H48.0282C45.3199 29.1621 42.3376 29.1653 38.6459 29.1653H33.1657H31.4619C31.2309 29.1705 31.0001 29.1552 30.7718 29.1197C30.6067 29.1066 30.4521 29.0326 30.3386 28.9121C30.225 28.7916 30.1602 28.6332 30.157 28.4677C30.1707 27.984 30.1573 27.4898 30.1442 27.0138V27.0034C30.0434 25.7762 30.1487 24.5408 30.4564 23.3484C30.9391 21.7688 31.9119 20.3834 33.2345 19.3927C34.557 18.402 36.161 17.8573 37.8138 17.8373L37.9992 17.8328C38.2511 17.8269 38.5087 17.8204 38.7625 17.8204C39.1814 17.8156 39.6001 17.8413 40.0152 17.8973C40.7525 18.0042 40.9658 18.25 40.9678 18.9926V19.2873C40.9678 19.7698 40.9717 20.2692 40.9678 20.7653C40.9586 21.4023 40.6754 21.6879 40.0483 21.6924H39.9515C39.6775 21.6924 39.399 21.6846 39.1302 21.6774C38.8438 21.6696 38.5858 21.6631 38.3235 21.6631C37.9859 21.6608 37.6478 21.676 37.3117 21.7087C36.4194 21.7809 35.5774 22.1504 34.9204 22.7581C34.2634 23.3658 33.8296 24.1764 33.6888 25.0599C33.6751 25.1018 33.6706 25.1462 33.6754 25.19C33.6802 25.2339 33.6944 25.2762 33.7168 25.3141C33.7425 25.3378 33.7734 25.3555 33.8067 25.3661C33.8399 25.3767 33.8746 25.3799 33.9092 25.3754H33.9558C34.0001 25.3754 34.0481 25.3709 34.1061 25.3709H34.2202H34.333H39.8948C42.3741 25.3709 45.3105 25.3709 48.2576 25.3754C48.669 25.3751 49.0798 25.403 49.4873 25.4589C50.2409 25.503 50.9515 25.8255 51.4804 26.3636C52.0094 26.9016 52.3194 27.6169 52.3501 28.3706C52.459 29.386 52.4905 30.4081 52.4451 31.4283V31.5111C52.4392 31.7823 52.4343 32.0633 52.4323 32.3385C52.4056 32.5213 52.452 32.7072 52.5623 32.8555C52.6307 32.9084 52.7094 32.9471 52.793 32.9695C52.8765 32.9919 52.9634 32.9975 53.0491 32.9859H53.0912C54.0699 32.9715 55.0663 32.9637 56.047 32.9637C57.0276 32.9637 58.0221 32.9709 59.0041 32.9859H59.0398C59.1281 32.9983 59.2179 32.9932 59.3042 32.9709C59.3905 32.9485 59.4714 32.9093 59.5425 32.8555C59.6522 32.708 59.6993 32.523 59.6731 32.3411V32.0425V32.0079C59.6542 30.1276 59.633 28.1835 59.7126 26.2758C59.6936 25.3486 60.0355 24.4503 60.6665 23.7703C61.3661 23.1599 62.2745 22.8421 63.2024 22.8829C64.459 22.8595 65.7519 22.8477 67.0458 22.8477C68.3018 22.8477 69.594 22.8588 70.8892 22.881C71.8347 22.8399 72.7585 23.1728 73.4601 23.8074C74.0982 24.5071 74.4351 25.4297 74.3974 26.3755C74.4464 28.5922 74.4464 30.8885 74.3974 33.1945C74.3524 35.4764 73.0421 36.7354 70.7082 36.7354L62.6608 36.7308ZM63.9434 26.6161C63.8752 26.6072 63.8059 26.6118 63.7395 26.6297C63.6731 26.6476 63.6111 26.6784 63.5566 26.7204C63.5164 26.7718 63.4867 26.8306 63.4694 26.8935C63.452 26.9564 63.4471 27.0221 63.4553 27.0868C63.4703 28.752 63.471 30.524 63.4553 32.5041C63.4461 32.5698 63.4499 32.6366 63.4668 32.7008C63.4837 32.7649 63.5137 32.825 63.5541 32.8776C63.6023 32.916 63.6574 32.9445 63.7166 32.9615C63.7758 32.9785 63.8376 32.9837 63.8988 32.9768H63.9077C64.9517 32.9702 66.0063 32.9676 67.049 32.9676C68.0916 32.9676 69.1502 32.9676 70.1915 32.9768H70.1998C70.262 32.9843 70.3249 32.9793 70.3852 32.9622C70.4454 32.9451 70.5019 32.9161 70.5508 32.877C70.6312 32.7721 70.6669 32.6396 70.6496 32.5086C70.6359 30.4751 70.6366 28.7539 70.6496 27.0914C70.658 27.0258 70.6532 26.9591 70.6356 26.8953C70.618 26.8315 70.5878 26.7719 70.547 26.7198C70.495 26.6785 70.4352 26.648 70.3712 26.6302C70.3072 26.6124 70.2402 26.6076 70.1743 26.6161H70.1405C69.7562 26.6233 69.3395 26.6266 68.8286 26.6266C68.5367 26.6266 68.2454 26.6266 67.9544 26.6266C67.6634 26.6266 67.371 26.6266 67.0783 26.6266H66.22H66.2143H65.349C64.8068 26.6266 64.3703 26.6266 63.9651 26.6168L63.9434 26.6161Z" fill="#0E4C9A"/>
<path d="M16.697 30.3061C16.697 32.382 16.7844 34.4618 16.6794 36.5325C16.4341 41.372 11.6515 45.1385 6.86964 44.3411C3.39725 43.7609 1.04318 41.402 0.303293 37.8462C-0.153428 35.6438 0.0521009 33.4245 0.0142583 31.2104C0.00866079 31.1148 0.0233881 31.019 0.0574762 30.9295C0.0915642 30.8399 0.144234 30.7586 0.212029 30.6909C0.279824 30.6231 0.361205 30.5705 0.450818 30.5364C0.54043 30.5024 0.636244 30.4877 0.731958 30.4933C1.48359 30.4659 2.23784 30.4652 2.98947 30.49C3.49317 30.5063 3.76002 30.8603 3.76524 31.4601C3.77764 32.8025 3.76524 34.1449 3.7946 35.4867C3.80361 36.4204 3.99534 37.3433 4.35898 38.2035C5.10736 39.9279 6.58713 40.7233 8.79571 40.6229C10.8764 40.5284 12.2407 39.5185 12.7346 37.6767C12.9028 36.9987 12.9811 36.3017 12.9675 35.6034C12.9675 31.755 12.9675 27.9069 12.9675 24.0589C12.9675 23.1201 13.1946 22.8997 14.1511 22.8984C14.6731 22.8984 15.1905 22.8984 15.7105 22.8984C16.5045 22.905 16.7649 23.1631 16.7668 23.9735C16.7714 26.0853 16.7668 28.1963 16.7668 30.3081L16.697 30.3061Z" fill="#0E4C9A"/>
<path d="M80.3269 27.3481C80.3269 30.1381 80.3269 32.9283 80.3269 35.7188C80.3269 36.6028 80.1057 36.8206 79.2118 36.8271C78.6746 36.8297 78.1374 36.8297 77.6002 36.8271C76.8068 36.8226 76.5433 36.5618 76.542 35.7585C76.5389 32.4118 76.5389 29.0671 76.542 25.7247C76.542 23.4711 76.542 21.2174 76.542 18.9638C76.542 18.0686 76.7886 17.832 77.6948 17.8313C78.2318 17.8313 78.7695 17.8313 79.3064 17.8313C80.0724 17.8365 80.3256 18.0921 80.3262 18.8745C80.3284 21.6984 80.3286 24.5229 80.3269 27.3481Z" fill="#0E4C9A"/>
<path d="M72.821 0C74.1988 0.21721 75.5594 0.532474 76.8923 0.943396C80.9485 2.15574 84.7578 4.0761 88.144 6.61555C91.0256 8.77615 93.5725 11.3496 95.7027 14.2527C95.8406 14.3958 95.9355 14.5747 95.9768 14.769C96.0181 14.9633 96.004 15.1652 95.9363 15.352C95.867 15.5039 95.7568 15.6336 95.6179 15.7265C95.4791 15.8194 95.3171 15.8719 95.1501 15.878C94.9832 15.8842 94.8177 15.8438 94.6724 15.7614C94.5271 15.6789 94.4076 15.5577 94.3273 15.4113C93.1823 13.8547 91.9145 12.3922 90.5359 11.0379C86.5871 7.15808 81.7547 4.29432 76.4539 2.69264C75.2763 2.32396 74.0755 2.03385 72.8594 1.82422C72.7183 1.79879 72.5802 1.75902 72.4471 1.70555C72.2193 1.64126 72.0259 1.49002 71.9087 1.28448C71.7915 1.07895 71.7599 0.835601 71.8207 0.606985C71.9271 0.0925797 72.3303 0.0208631 72.821 0Z" fill="#43BB9A"/>
<path d="M67.9196 4.24058C72.209 4.42696 76.4142 5.49315 80.2736 7.37286C84.1331 9.25257 87.5642 11.9056 90.3538 15.167C90.8509 15.7459 90.8757 16.2531 90.4379 16.6241C90.0001 16.9951 89.4671 16.9018 88.9882 16.3464C86.1868 13.0725 82.7028 10.4503 78.7804 8.66355C75.111 6.97325 71.1272 6.0721 67.0871 6.0185C66.8723 6.02278 66.6582 5.99285 66.4529 5.92983C66.2783 5.88196 66.1247 5.77744 66.0161 5.63273C65.9076 5.48802 65.8503 5.31134 65.8533 5.13051C65.8462 4.94936 65.901 4.7712 66.0085 4.62517C66.116 4.47914 66.2699 4.37389 66.445 4.32663C66.9278 4.21258 67.4268 4.18346 67.9196 4.24058Z" fill="#0E4C9A"/>
<path d="M91.7311 26.1478C91.7717 26.3293 91.744 26.5194 91.6532 26.6817C91.5625 26.8441 91.415 26.9674 91.2391 27.028C91.0695 27.0934 90.883 27.101 90.7087 27.0494C90.5344 26.9979 90.382 26.8902 90.2754 26.743C90.0323 26.4322 89.8443 26.082 89.7195 25.7077C88.671 23.2183 87.2219 20.917 85.4296 18.8953C83.4184 16.6072 81.0088 14.7022 78.3178 13.2727C76.9519 12.5238 75.5079 11.9274 74.0115 11.4941C73.7999 11.4527 73.6012 11.3618 73.4315 11.2287C73.281 11.1292 73.1646 10.986 73.098 10.8184C73.0314 10.6508 73.0178 10.4668 73.0589 10.2912C73.1167 10.1102 73.2323 9.9532 73.388 9.84425C73.5437 9.7353 73.7309 9.68046 73.9209 9.68814C74.2441 9.67917 74.5656 9.73849 74.8643 9.86222C81.0984 11.9021 86.3827 16.1282 89.7404 21.7594C90.4265 22.9507 91.0432 24.1807 91.5875 25.443C91.7084 25.657 91.7586 25.9036 91.7311 26.1478Z" fill="#7FCED6"/>
<path d="M78.1678 43.2171C77.6133 43.2171 77.0586 43.2171 76.5034 43.2171C76.4181 43.2271 76.3316 43.218 76.2502 43.1905C76.1689 43.1629 76.0947 43.1175 76.0331 43.0577C75.9714 42.9979 75.924 42.9251 75.894 42.8446C75.8641 42.7642 75.8525 42.678 75.8601 42.5925C75.849 42.3604 75.8601 42.1277 75.8601 41.8956C75.8485 41.8147 75.8543 41.7323 75.877 41.6538C75.8998 41.5754 75.939 41.5027 75.9921 41.4406C76.0452 41.3784 76.111 41.3283 76.1849 41.2936C76.2589 41.2588 76.3395 41.2402 76.4212 41.239C76.7853 41.2227 76.8192 41.0434 76.8061 40.7585C76.7911 40.4195 76.7918 40.0792 76.8061 39.7401C76.7906 39.5376 76.8187 39.3341 76.8887 39.1433C76.9587 38.9526 77.0689 38.7792 77.2118 38.6347C77.3547 38.4902 77.527 38.3781 77.7171 38.3059C77.9071 38.2338 78.1105 38.2033 78.3133 38.2165C78.8314 38.1969 79.3514 38.2106 79.8701 38.2119C79.951 38.2044 80.0327 38.214 80.1096 38.2402C80.1866 38.2665 80.2571 38.3087 80.3165 38.3641C80.3759 38.4196 80.4229 38.487 80.4544 38.5619C80.4858 38.6368 80.5011 38.7175 80.4991 38.7987C80.5193 39.0295 80.5043 39.2629 80.5043 39.495C80.5159 39.5893 80.5061 39.685 80.4757 39.775C80.4453 39.865 80.3951 39.947 80.3287 40.015C80.2623 40.083 80.1814 40.1352 80.0921 40.1677C80.0028 40.2003 79.9073 40.2124 79.8127 40.203C79.6519 40.2111 79.4907 40.2111 79.3298 40.203C78.9697 40.1796 78.725 40.2109 78.7329 40.7005C78.74 41.1569 78.9214 41.2553 79.3122 41.2169C79.5077 41.2008 79.7043 41.2027 79.8995 41.2227C80.0361 41.2197 80.1692 41.2658 80.2746 41.3527C80.38 41.4396 80.4507 41.5615 80.4736 41.6961C80.5392 42.0485 80.5376 42.4102 80.4691 42.762C80.4421 42.9055 80.3608 43.0331 80.242 43.1181C80.1233 43.2031 79.9762 43.2391 79.8316 43.2184C79.277 43.2151 78.7224 43.2184 78.1672 43.2184L78.1678 43.2171Z" fill="#0E4C9A"/>
<path d="M5.81661 20.7627C5.8111 20.5171 5.85541 20.2729 5.94687 20.0448C6.03833 19.8167 6.17506 19.6095 6.3488 19.4357C6.52255 19.2618 6.72973 19.1249 6.95784 19.0332C7.18596 18.9415 7.43029 18.8968 7.67612 18.902C7.92607 18.8998 8.17395 18.9474 8.40532 19.0419C8.63668 19.1364 8.84691 19.276 9.02374 19.4526C9.20058 19.6291 9.34049 19.839 9.43532 20.0701C9.53015 20.3012 9.578 20.5488 9.57608 20.7986C9.56779 21.294 9.36651 21.7666 9.01501 22.116C8.66351 22.4654 8.18951 22.664 7.69374 22.6697C7.44374 22.6727 7.19571 22.6252 6.96455 22.5301C6.73339 22.4349 6.52385 22.294 6.34853 22.1159C6.17321 21.9378 6.03573 21.7261 5.94432 21.4936C5.85291 21.261 5.80947 21.0125 5.81661 20.7627Z" fill="#0E4C9A"/>
</svg>
