<svg width="167" height="60" viewBox="0 0 167 60" fill="none" xmlns="http://www.w3.org/2000/svg">
<g filter="url(#filter0_d_853_5485)">
<path d="M16.9271 47.5224C16.5785 47.5224 16.2573 47.5224 15.9087 47.5107C15.2821 47.4989 14.5418 47.4637 13.8133 47.3266C13.1317 47.209 12.5168 47.0014 11.9489 46.7115C11.3692 46.4216 10.8365 46.0299 10.3861 45.5755C9.92392 45.1132 9.54008 44.5922 9.24241 44.0007C8.95257 43.4327 8.75673 42.8333 8.62748 42.136C8.49039 41.3839 8.45514 40.62 8.44339 40.0402C8.43164 39.7973 8.43164 39.0099 8.43164 39.0099V12.4969C8.43164 12.4969 8.44339 11.7212 8.44339 11.4901C8.45514 10.8986 8.49039 10.1347 8.62748 9.39428C8.75281 8.7009 8.95257 8.09761 9.24241 7.51783C9.544 6.93806 9.92392 6.40529 10.3783 5.95478C10.8404 5.49253 11.3731 5.09687 11.9528 4.8109C12.5325 4.50926 13.1435 4.31339 13.8172 4.19587C14.5692 4.05876 15.333 4.0235 15.9244 4.01175L16.931 4H149.541L150.571 4.01175C151.15 4.0235 151.914 4.05876 152.654 4.19587C153.336 4.31339 153.951 4.50926 154.531 4.8109C155.11 5.10079 155.643 5.49253 156.093 5.95478C156.556 6.40529 156.939 6.93806 157.249 7.52959C157.539 8.09761 157.734 8.70872 157.84 9.38252C157.977 10.0877 158.013 10.8163 158.036 11.5018C158.048 11.8152 158.048 12.16 158.048 12.4969C158.048 12.9121 158.048 13.3195 158.048 13.723V37.7955C158.048 38.199 158.048 38.6064 158.048 39.0099C158.048 39.3703 158.048 39.7033 158.036 40.0519C158.013 40.7101 157.977 41.4426 157.852 42.1242C157.734 42.8176 157.539 43.4209 157.237 44.0007C156.935 44.5922 156.556 45.1132 156.101 45.5637C155.639 46.026 155.106 46.4099 154.527 46.7076C153.947 47.0093 153.348 47.1934 152.651 47.3227C151.934 47.4598 151.194 47.495 150.555 47.5068C150.23 47.5185 149.885 47.5185 149.548 47.5185H148.334H16.9271V47.5224Z" fill="white"/>
<path d="M59.0793 31.8769L56.5569 25.0606L54.0462 31.8769H59.0793ZM50.2861 36.9342L55.515 23.2311H57.6105L62.8393 36.9342H60.9084L59.6589 33.4164H53.49L52.2406 36.9342H50.2861ZM66.3918 35.3947V40.8438H64.7037V26.655H66.3918V28.2062C66.7483 27.5951 67.1948 27.1446 67.7353 26.8508C68.2836 26.5492 68.9299 26.4003 69.678 26.4003C70.9274 26.4003 71.9419 26.8978 72.7213 27.8929C73.5086 28.88 73.9003 30.1845 73.9003 31.8063C73.9003 33.4203 73.5086 34.7209 72.7213 35.7198C71.9419 36.707 70.9274 37.2006 69.678 37.2006C68.9299 37.2006 68.2836 37.0557 67.7353 36.7619C67.1948 36.4602 66.7483 36.0019 66.3918 35.3947ZM72.1416 31.8063C72.1416 30.5645 71.8831 29.5891 71.3661 28.88C70.8648 28.171 70.1676 27.8145 69.2707 27.8145C68.3776 27.8145 67.6687 28.171 67.1517 28.88C66.6425 29.5891 66.3879 30.5645 66.3879 31.8063C66.3879 33.0482 66.6425 34.0236 67.1517 34.7327C67.6687 35.4339 68.3737 35.7864 69.2707 35.7864C70.1637 35.7864 70.8648 35.4339 71.3661 34.7327C71.8831 34.0236 72.1416 33.0482 72.1416 31.8063ZM78.334 35.3947V40.8438H76.6342V26.655H78.334V28.2062C78.6905 27.5951 79.1331 27.1446 79.6657 26.8508C80.2141 26.5492 80.8643 26.4003 81.6202 26.4003C82.8618 26.4003 83.8723 26.8978 84.6518 27.8929C85.439 28.88 85.8307 30.1845 85.8307 31.8063C85.8307 33.4203 85.439 34.7209 84.6518 35.7198C83.8723 36.707 82.8618 37.2006 81.6202 37.2006C80.8643 37.2006 80.2141 37.0557 79.6657 36.7619C79.1331 36.4602 78.6865 36.0019 78.334 35.3947ZM84.0721 31.8063C84.0721 30.5645 83.8136 29.5891 83.2966 28.88C82.7952 28.171 82.098 27.8145 81.2011 27.8145C80.3081 27.8145 79.5991 28.171 79.0821 28.88C78.5808 29.5891 78.3301 30.5645 78.3301 31.8063C78.3301 33.0482 78.5808 34.0236 79.0821 34.7327C79.5991 35.4339 80.3042 35.7864 81.2011 35.7864C82.0941 35.7864 82.7952 35.4339 83.2966 34.7327C83.8136 34.0236 84.0721 33.0482 84.0721 31.8063ZM97.9805 34.9795V31.301H94.9607V29.7732H99.8214V35.665C99.1046 36.1743 98.3134 36.5582 97.4478 36.8206C96.59 37.0753 95.6735 37.2006 94.6943 37.2006C92.5479 37.2006 90.8716 36.5738 89.6613 35.3242C88.4588 34.0745 87.8557 32.3313 87.8557 30.0944C87.8557 27.8576 88.4588 26.1143 89.6613 24.8647C90.8716 23.6072 92.5519 22.9765 94.6943 22.9765C95.5873 22.9765 96.4334 23.0901 97.2285 23.3134C98.0392 23.5289 98.7834 23.854 99.461 24.2849V26.2632C98.7756 25.6756 98.0471 25.2368 97.2755 24.943C96.5039 24.6492 95.6931 24.5043 94.8471 24.5043C93.1746 24.5043 91.9134 24.9705 91.0635 25.9028C90.2292 26.843 89.814 28.2415 89.814 30.0905C89.814 31.9395 90.2292 33.3341 91.0635 34.2665C91.9134 35.1988 93.1746 35.665 94.8471 35.665C95.5012 35.665 96.0887 35.6102 96.6057 35.5044C97.1149 35.3947 97.5731 35.2184 97.9805 34.9795ZM109.425 31.7593H107.749C106.382 31.7593 105.438 31.916 104.913 32.2333C104.388 32.5428 104.126 33.0756 104.126 33.8316C104.126 34.4349 104.322 34.9129 104.717 35.2654C105.109 35.6141 105.646 35.7864 106.327 35.7864C107.267 35.7864 108.019 35.4535 108.583 34.7914C109.147 34.1294 109.429 33.244 109.429 32.1393V31.7593H109.425ZM111.113 31.066V36.9342H109.425V35.3712C109.041 35.998 108.56 36.4602 107.992 36.7619C107.412 37.0557 106.707 37.2006 105.873 37.2006C104.823 37.2006 103.985 36.9068 103.362 36.3192C102.743 35.7238 102.438 34.9285 102.438 33.9335C102.438 32.7857 102.822 31.9121 103.593 31.3167C104.373 30.7291 105.528 30.4353 107.063 30.4353H109.425V30.2746C109.425 29.4951 109.171 28.8918 108.661 28.4687C108.152 28.0456 107.436 27.8341 106.511 27.8341C105.924 27.8341 105.356 27.9046 104.8 28.0417C104.243 28.1788 103.707 28.3943 103.19 28.6763V27.1133C103.809 26.8743 104.408 26.698 104.995 26.5805C105.575 26.4552 106.135 26.3964 106.684 26.3964C108.172 26.3964 109.284 26.7803 110.017 27.552C110.749 28.3316 111.113 29.499 111.113 31.066ZM114.595 36.9342V22.6553H116.283V36.9342H114.595ZM119.816 36.9342V22.6553H121.505V36.9342H119.816ZM133.78 31.3676V32.202H126.017C126.087 33.3576 126.432 34.2469 127.058 34.8619C127.689 35.4652 128.566 35.7629 129.687 35.7629C130.333 35.7629 130.96 35.6846 131.563 35.5318C132.182 35.3712 132.785 35.1322 133.38 34.8149V36.4132C132.777 36.6679 132.158 36.8637 131.516 37.0048C130.885 37.134 130.239 37.2006 129.585 37.2006C127.948 37.2006 126.651 36.7227 125.684 35.7668C124.728 34.8188 124.25 33.53 124.25 31.9004C124.25 30.212 124.705 28.8761 125.617 27.8968C126.526 26.9017 127.756 26.4042 129.295 26.4042C130.678 26.4042 131.766 26.8508 132.569 27.7479C133.376 28.6332 133.78 29.8398 133.78 31.3676ZM126.064 30.8818H132.092C132.076 29.9573 131.813 29.2169 131.304 28.6607C130.803 28.1122 130.137 27.838 129.303 27.838C128.363 27.838 127.607 28.1044 127.035 28.6372C126.471 29.1699 126.15 29.9182 126.064 30.8818ZM142.436 26.4943L142.447 28.2297C142.256 28.1201 142.048 28.0417 141.821 27.9869C141.594 27.932 141.355 27.9046 141.092 27.9046C140.137 27.9046 139.4 28.218 138.883 28.8409C138.374 29.4598 138.119 30.3491 138.119 31.5125V36.9303H136.431V26.655H138.119V28.2533C138.476 27.6265 138.938 27.1642 139.51 26.8626C140.082 26.5531 140.771 26.4003 141.582 26.4003C141.699 26.4003 141.829 26.4121 141.973 26.4356C142.111 26.4434 142.267 26.463 142.436 26.4943ZM153.011 26.655L148.499 37.8822C148.021 39.1084 147.555 39.9115 147.101 40.2875C146.646 40.6597 146.039 40.8438 145.283 40.8438H143.928V39.4335H144.923C145.385 39.4335 145.749 39.3199 146.012 39.0966C146.266 38.8812 146.548 38.3602 146.858 37.5336L147.171 36.7697L143.004 26.655H144.797L148.013 34.6856L151.217 26.655H153.011Z" fill="#010202"/>
<path d="M50.1802 18.4161V11.3452H54.6453V12.1444H51.128V14.2402H54.4964V15.0511H51.128V17.6091H54.7393V18.4201H50.1802V18.4161ZM58.1664 14.6437L55.9691 11.3452H56.9992L58.7579 13.9738L60.5165 11.3452H61.5466L59.2788 14.7377L61.6954 18.4161H60.6653L58.6874 15.4076L56.6742 18.4161H55.6441L58.1664 14.6437ZM65.1069 12.1326H63.9045V14.7847H65.1069C65.5534 14.7847 65.902 14.6711 66.1488 14.4478C66.3877 14.2167 66.5091 13.8837 66.5091 13.4528C66.5091 13.0375 66.3877 12.7124 66.1488 12.4813C65.902 12.2501 65.5534 12.1326 65.1069 12.1326ZM62.9566 18.4161V11.3452H65.1069C65.902 11.3452 66.5013 11.5215 66.9126 11.878C67.3121 12.2423 67.5157 12.7633 67.5157 13.4528C67.5157 14.154 67.316 14.6828 66.9126 15.0393C66.5052 15.3958 65.902 15.5721 65.1069 15.5721H63.9045V18.4201H62.9566V18.4161ZM68.8004 18.4161V11.3452H69.76V17.6052H73.2068V18.4161H68.8004ZM76.7358 11.9955C76.0425 11.9955 75.4863 12.254 75.0712 12.7711C74.6717 13.2882 74.468 13.9934 74.468 14.8905C74.468 15.7758 74.6677 16.4848 75.0712 17.0098C75.4863 17.5269 76.0425 17.7854 76.7358 17.7854C77.429 17.7854 77.9774 17.5269 78.3769 17.0098C78.7842 16.4848 78.9918 15.7797 78.9918 14.8905C78.9918 13.9973 78.7882 13.2882 78.3769 12.7711C77.9774 12.2501 77.429 11.9955 76.7358 11.9955ZM76.7358 11.2198C77.7228 11.2198 78.514 11.5528 79.1093 12.2149C79.7047 12.8769 79.9984 13.7701 79.9984 14.8865C79.9984 16.0069 79.7008 16.8962 79.1093 17.5582C78.514 18.2203 77.7228 18.5532 76.7358 18.5532C75.7409 18.5532 74.9419 18.2203 74.3387 17.5582C73.7434 16.8962 73.4496 16.003 73.4496 14.8865C73.4496 13.7662 73.7473 12.8769 74.3387 12.2149C74.9419 11.5489 75.7409 11.2198 76.7358 11.2198ZM84.8474 15.0942C85.055 15.1647 85.2547 15.3135 85.4506 15.5447C85.6425 15.768 85.8383 16.0814 86.042 16.4809L87.0133 18.4122H85.9832L85.0824 16.5945C84.8435 16.1244 84.6163 15.8111 84.4009 15.6583C84.1776 15.5055 83.876 15.4272 83.5 15.4272H82.4582V18.4122H81.4986V11.3452H83.6606C84.4714 11.3452 85.0746 11.5137 85.478 11.8545C85.8697 12.1875 86.0694 12.6967 86.0694 13.3823C86.0694 13.8288 85.9637 14.201 85.7561 14.4948C85.5406 14.7847 85.243 14.9884 84.8474 15.0942ZM83.6567 12.1326H82.4543V14.6437H83.6567C84.1189 14.6437 84.4675 14.534 84.6986 14.3185C84.9375 14.1031 85.0589 13.7897 85.0589 13.3823C85.0589 12.967 84.9375 12.6536 84.6986 12.446C84.4675 12.2384 84.1189 12.1326 83.6567 12.1326ZM88.2393 18.4161V11.3452H92.7044V12.1444H89.1989V14.2402H92.5673V15.0511H89.1989V17.6091H92.7984V18.4201H88.2393V18.4161ZM97.4476 18.4161V11.3452H98.4072V18.4161H97.4476ZM99.3355 12.1444V11.3452H105.316V12.1444H102.806V18.4161H101.846V12.1444H99.3355ZM112.19 11.9955C111.497 11.9955 110.945 12.254 110.537 12.7711C110.13 13.2882 109.922 13.9934 109.922 14.8905C109.922 15.7758 110.126 16.4848 110.537 17.0098C110.945 17.5269 111.497 17.7854 112.19 17.7854C112.884 17.7854 113.436 17.5269 113.843 17.0098C114.243 16.4848 114.446 15.7797 114.446 14.8905C114.446 13.9973 114.247 13.2882 113.843 12.7711C113.436 12.2501 112.884 11.9955 112.19 11.9955ZM112.19 11.2198C113.185 11.2198 113.98 11.5528 114.576 12.2149C115.171 12.8769 115.465 13.7701 115.465 14.8865C115.465 16.0069 115.167 16.8962 114.576 17.5582C113.984 18.2203 113.185 18.5532 112.19 18.5532C111.195 18.5532 110.4 18.2203 109.805 17.5582C109.21 16.8962 108.916 16.003 108.916 14.8865C108.916 13.7662 109.214 12.8769 109.805 12.2149C110.4 11.5489 111.195 11.2198 112.19 11.2198ZM116.957 18.4161V11.3452H118.242L121.379 17.2605V11.3452H122.315V18.4161H121.019L117.881 12.5008V18.4161H116.957Z" fill="#010202"/>
<path d="M38.0775 11.3677H25.489C19.5512 11.3677 17.3774 13.5301 17.3774 19.4689V32.0594C17.3774 37.9982 19.5512 40.1724 25.489 40.1724H38.0775C44.0035 40.1724 46.1774 37.9982 46.1774 32.0594V19.4689C46.1774 13.5301 44.0153 11.3677 38.0775 11.3677Z" fill="#010202"/>
<path fill-rule="evenodd" clip-rule="evenodd" d="M29.6684 28.7495L29.3198 29.5252H28.5443L30.1971 25.7645H30.8669L32.5198 29.5252H31.7208L31.3839 28.7495H29.6684ZM29.9425 28.0679H31.098L30.5183 26.7242L29.9425 28.0679ZM42.2098 25.7645H42.9736V29.5252H42.2098V25.7645ZM39.2135 28.8436H41.309V29.5252H38.4615V25.7645H41.2267V26.4579H39.2135V27.2218H40.604V27.9151H39.2135V28.8436ZM37.0475 25.7645H37.8466L36.5384 29.537H35.8921L35.0343 27.0611L34.1766 29.537H33.5499L32.2299 25.7645H33.0525L33.8867 28.3578L34.7327 25.7645H35.3594L36.2172 28.3578L37.0475 25.7645ZM27.3888 25.7645H28.1526V27.8956C28.1526 28.9728 27.5612 29.5957 26.5193 29.5957C25.501 29.5957 24.9095 28.9807 24.9095 27.9191V25.7684H25.6733V27.8995C25.6733 28.5341 25.9749 28.871 26.5311 28.871C27.0872 28.871 27.3888 28.5341 27.3888 27.923V25.7645ZM23.0843 25.7645H23.8481V29.537H23.0843V27.9974H21.3609V29.537H20.5972V25.7645H21.3609V27.2805H23.0843V25.7645ZM31.7834 20.9735C29.1318 20.9735 26.9932 18.8228 26.9932 16.1825H27.663C27.663 18.4507 29.5156 20.2919 31.7834 20.2919C34.0512 20.2919 35.9039 18.4507 35.9039 16.1825H36.5736C36.5736 18.8189 34.4233 20.9735 31.7834 20.9735Z" fill="white"/>
</g>
<defs>
<filter id="filter0_d_853_5485" x="0.431641" y="0" width="165.616" height="59.5225" filterUnits="userSpaceOnUse" color-interpolation-filters="sRGB">
<feFlood flood-opacity="0" result="BackgroundImageFix"/>
<feColorMatrix in="SourceAlpha" type="matrix" values="0 0 0 0 0 0 0 0 0 0 0 0 0 0 0 0 0 0 127 0" result="hardAlpha"/>
<feOffset dy="4"/>
<feGaussianBlur stdDeviation="4"/>
<feComposite in2="hardAlpha" operator="out"/>
<feColorMatrix type="matrix" values="0 0 0 0 0.575167 0 0 0 0 0.575167 0 0 0 0 0.575167 0 0 0 0.15 0"/>
<feBlend mode="normal" in2="BackgroundImageFix" result="effect1_dropShadow_853_5485"/>
<feBlend mode="normal" in="SourceGraphic" in2="effect1_dropShadow_853_5485" result="shape"/>
</filter>
</defs>
</svg>
