<svg width="99" height="87" viewBox="0 0 99 87" fill="none" xmlns="http://www.w3.org/2000/svg">
<path d="M85.7344 31.2748C87.5263 30.5322 89.6521 31.0091 91.2668 32.0924C92.8816 33.1757 94.0671 34.7769 95.0959 36.4257C96.9219 39.335 98.4209 42.5986 98.4072 46.0325C98.3936 49.4665 96.5472 53.0639 93.3381 54.2903C95.0278 55.7552 95.6683 58.317 94.8643 60.4087C94.0603 62.5004 91.88 63.9721 89.6384 63.9381C91.1987 70.7105 92.6432 77.776 90.7968 84.4122C90.6469 84.9573 90.422 85.55 89.911 85.7885C89.4 86.027 88.7732 85.8021 88.378 85.4001C87.9828 84.9981 87.7648 84.4599 87.5604 83.9353C85.0872 77.7078 82.0688 71.5077 77.1768 66.9291C77.1768 69.2661 75.3645 71.5963 72.9866 72.2027C70.6088 72.8022 67.897 71.6167 66.7319 69.4637C63.2571 73.613 58.3856 76.8971 52.9826 77.2514C47.5796 77.6057 41.7951 74.417 40.2757 69.2184C38.0545 72.2572 33.8575 73.6948 30.2396 72.6523C26.6217 71.6099 23.8282 68.1623 23.5625 64.4082C20.66 68.4553 14.2827 67.9579 11.7004 64.2378C9.11135 60.5177 10.3105 54.958 13.7581 52.0147C8.43684 51.0744 4.98926 44.4655 7.26492 39.5599C9.54058 34.6542 16.8172 33.0258 20.9666 36.487C19.4336 32.7669 20.6805 28.42 22.888 25.061C24.9592 21.8996 28.0117 19.2152 31.6909 18.3635C35.3701 17.5118 39.6693 18.8404 42.2448 21.4568C42.272 19.6376 47.4978 22.213 48.8264 20.9594C50.155 19.7057 47.5387 14.5957 49.2966 14.1392C50.6865 13.7781 52.1786 13.6214 53.5549 14.0234C56.2394 14.8069 57.929 17.505 59.1282 19.9306C60.0548 17.0962 62.5621 14.9704 65.3556 13.928C68.1491 12.8856 71.2152 12.8106 74.1858 13.0627C76.5364 13.2603 79.0573 13.7577 80.6448 15.5019C82.8387 17.907 82.4027 21.6203 81.8372 24.8226C83.4519 23.9368 85.714 24.5091 86.7087 26.0626C87.7035 27.616 87.281 29.9121 85.7276 31.2407L85.7344 31.2748Z" fill="white"/>
<path d="M89.468 86.4766C88.8889 86.4766 88.337 86.1836 87.9691 85.8157C87.4854 85.332 87.2401 84.7051 87.022 84.1532C84.8963 78.8048 82.13 72.7749 77.6264 68.1827C77.1086 70.3221 75.3235 72.2231 73.1432 72.7749C70.7722 73.3745 68.1286 72.3866 66.6774 70.4448C62.7733 74.8394 57.8404 77.5238 53.037 77.8441C47.3683 78.212 42.0062 75.071 40.078 70.3971C37.6115 73.0475 33.578 74.2262 30.0896 73.2246C26.6829 72.2435 23.9439 69.2184 23.1808 65.764C21.7909 67.0926 19.9036 67.8353 17.8187 67.8353C17.7983 67.8353 17.7778 67.8353 17.7574 67.8353C15.1138 67.8148 12.6133 66.568 11.2302 64.5785C8.78424 61.056 9.45195 55.687 12.5929 52.3349C10.3445 51.6058 8.36182 49.882 7.14904 47.5587C5.74549 44.8674 5.59561 41.7946 6.74026 39.3282C7.8849 36.8617 10.3377 34.9949 13.2947 34.3272C15.6385 33.8025 18.0095 34.0955 19.9377 35.1039C19.2768 31.9425 20.1489 28.1883 22.4042 24.7476C24.8093 21.0752 28.066 18.6087 31.5613 17.7979C35.1042 16.9803 39.3217 18.0909 42.1083 20.5233C42.7761 20.0055 43.9889 20.2167 45.3856 20.4688C46.4962 20.6664 48.0155 20.9389 48.4243 20.5437C48.8263 20.1622 48.5538 18.6632 48.3562 17.5663C48.036 15.7948 47.7022 13.9552 49.1534 13.5873C50.9181 13.1308 52.417 13.0967 53.7252 13.4783C56.2529 14.2141 57.9017 16.4216 59.0736 18.561C60.2251 16.299 62.419 14.4185 65.1512 13.3965C67.6449 12.4699 70.5337 12.1837 74.2402 12.4972C76.4886 12.6879 79.2957 13.158 81.0876 15.1271C83.1453 17.3823 83.0975 20.6391 82.5933 23.9436C84.3103 23.5552 86.2453 24.2638 87.2128 25.7764C88.0713 27.1186 88.0304 28.8901 87.24 30.3413C88.6776 30.2528 90.2447 30.6888 91.6006 31.6018C93.3789 32.7941 94.6189 34.5452 95.6 36.1123C97.9302 39.8255 99.0135 42.9801 98.9999 46.0393C98.9863 49.664 97.1126 53.0094 94.3464 54.4879C95.7363 56.1503 96.1928 58.6031 95.4161 60.6267C94.6189 62.698 92.575 64.2378 90.3742 64.4967C91.9549 71.4395 93.1404 78.1984 91.369 84.5825C91.2531 84.9913 90.9874 85.952 90.1698 86.3335C89.9381 86.4425 89.6997 86.4902 89.468 86.4902V86.4766ZM77.1835 66.3431C77.3334 66.3431 77.4765 66.3976 77.5855 66.4998C82.7637 71.3373 85.8161 77.919 88.119 83.7172C88.3097 84.2077 88.4937 84.6711 88.8071 84.9845C89.0252 85.2093 89.4067 85.3796 89.6724 85.2502C89.9654 85.1139 90.1289 84.6438 90.2379 84.2486C91.9958 77.919 90.6944 71.092 89.0729 64.0606C89.032 63.8835 89.0728 63.6995 89.1886 63.5565C89.3045 63.4134 89.468 63.3384 89.6588 63.3384C89.6861 63.3384 89.7065 63.3384 89.7337 63.3384C91.696 63.3384 93.6173 62.0235 94.3259 60.1907C95.0413 58.3306 94.4622 56.0345 92.9633 54.7263C92.8066 54.5901 92.7316 54.3857 92.7725 54.1813C92.8065 53.9769 92.9496 53.8065 93.1404 53.7316C95.8862 52.6823 97.8144 49.5073 97.828 46.0189C97.8416 43.1913 96.8128 40.2411 94.6053 36.7255C93.6923 35.2674 92.5409 33.6322 90.9465 32.5693C89.3386 31.4928 87.4308 31.1998 85.9659 31.8062C85.7002 31.9152 85.3868 31.813 85.2369 31.5677C85.087 31.3225 85.1347 31.0022 85.3527 30.8115C86.6677 29.6804 87.0561 27.6978 86.218 26.3964C85.3868 25.1019 83.4722 24.6113 82.1232 25.354C81.9256 25.463 81.6804 25.4493 81.4964 25.3131C81.3124 25.1836 81.2171 24.952 81.258 24.7339C81.8098 21.6271 82.2322 18.125 80.2155 15.9106C78.7029 14.2482 76.1751 13.8394 74.1379 13.6622C70.6154 13.3624 67.8901 13.6282 65.56 14.4935C62.6847 15.5632 60.4908 17.6685 59.6868 20.1281C59.6119 20.353 59.4075 20.5165 59.169 20.5301C58.9374 20.5505 58.7057 20.4211 58.5967 20.2031C57.5066 17.9819 55.9259 15.3383 53.3913 14.5957C52.2875 14.2754 50.9998 14.3163 49.4395 14.7115C49.0512 14.8137 49.3441 16.4557 49.5076 17.3414C49.7938 18.929 50.0936 20.571 49.2284 21.3818C48.3835 22.1789 46.7551 21.886 45.1744 21.6066C44.3976 21.4703 43.11 21.2387 42.8374 21.4227C42.8374 21.4227 42.8374 21.4363 42.8374 21.4499C42.8374 21.6884 42.6875 21.8996 42.4695 21.9882C42.2514 22.0767 41.9994 22.0222 41.8291 21.8519C39.349 19.331 35.2337 18.125 31.827 18.9153C28.6247 19.658 25.6268 21.9473 23.3852 25.3608C20.9393 29.0877 20.2443 33.1553 21.5184 36.2417C21.6206 36.4938 21.5388 36.78 21.3208 36.9435C21.1028 37.1002 20.803 37.0934 20.5918 36.923C18.7794 35.4105 16.1495 34.8586 13.54 35.4445C10.9373 36.0305 8.79103 37.6521 7.79628 39.7915C6.80153 41.9309 6.94465 44.6153 8.17787 46.9796C9.41108 49.3438 11.5368 50.9994 13.8534 51.4151C14.0782 51.4559 14.2622 51.6195 14.3167 51.8375C14.378 52.0555 14.3031 52.294 14.1327 52.4439C10.7601 55.3191 9.86758 60.5586 12.1773 63.8767C13.3424 65.5528 15.4749 66.6088 17.7438 66.6225H17.7983C19.9718 66.6225 21.8932 65.6822 23.0787 64.0334C23.2218 63.829 23.4806 63.7404 23.7191 63.8086C23.9576 63.8767 24.1279 64.0879 24.1483 64.3332C24.3936 67.8353 27.0236 71.0852 30.3962 72.0527C33.7688 73.0202 37.7205 71.6712 39.7918 68.8368C39.9212 68.6529 40.1461 68.5643 40.371 68.6052C40.589 68.646 40.7729 68.8027 40.8342 69.0208C42.1833 73.647 47.5113 76.9924 52.9348 76.6313C57.636 76.3247 62.494 73.5585 66.2686 69.0548C66.3912 68.9049 66.5888 68.83 66.7796 68.8436C66.9703 68.8641 67.1474 68.9799 67.236 69.1502C68.2716 71.058 70.7245 72.1345 72.8298 71.603C74.9352 71.0716 76.5772 69.0071 76.5772 66.9018C76.5772 66.6702 76.7134 66.4521 76.9314 66.3636C77.0064 66.3295 77.0882 66.3159 77.1699 66.3159L77.1835 66.3431Z" fill="#2B2C2C"/>
<path d="M53.0642 64.9123C52.1444 64.9123 51.2381 64.7556 50.3933 64.4422C48.5469 63.7541 47.0683 62.3778 45.767 61.1582C45.5285 60.9333 45.515 60.5654 45.7398 60.327C45.9646 60.0885 46.3325 60.0749 46.571 60.2997C47.7906 61.4375 49.1737 62.7321 50.8021 63.3385C52.5872 63.9994 54.7129 63.829 56.4844 62.8683C58.1673 61.9622 59.5505 60.3474 60.2931 58.4397C60.4089 58.1331 60.7496 57.9832 61.0562 58.1058C61.3628 58.2216 61.5127 58.5623 61.3901 58.8689C60.552 61.0355 58.9713 62.8752 57.0431 63.9108C55.8099 64.5785 54.4268 64.9192 53.0642 64.9192V64.9123Z" fill="#2B2C2C"/>
<path d="M30.6754 61.2537C30.2053 61.2537 29.7352 61.1924 29.2787 61.0629C28.9653 60.9744 28.7813 60.6473 28.8699 60.3339C28.9585 60.0205 29.2855 59.8434 29.5989 59.9251C31.1864 60.3748 32.9988 59.782 34.0139 58.4875C35.0291 57.1861 35.1654 55.2852 34.3478 53.8544C33.026 51.5447 29.9328 51.1223 28.6655 51.0405C26.9417 50.9383 25.1702 51.1359 23.4532 51.3335L13.5398 52.4645C13.2196 52.5054 12.9266 52.2669 12.8857 51.9467C12.8516 51.6264 13.0833 51.3335 13.4035 51.2926L23.317 50.1616C25.0817 49.964 26.9076 49.7528 28.7336 49.8618C31.82 50.0457 34.2388 51.2858 35.3698 53.2685C36.4191 55.1013 36.2419 57.5472 34.9405 59.2097C33.9322 60.5042 32.297 61.2469 30.6686 61.2469L30.6754 61.2537Z" fill="#2B2C2C"/>
<path d="M18.5682 45.5897C17.4372 45.5897 16.3198 45.1878 15.4954 44.4315C15.2569 44.2134 15.2433 43.8387 15.4613 43.6002C15.6793 43.3618 16.054 43.3481 16.2925 43.5662C17.2464 44.4451 18.8271 44.6631 20.0467 44.084C21.2458 43.5185 22.1112 42.2035 22.2065 40.8272C22.3019 39.4782 21.6955 38.061 20.6258 37.1207C20.3805 36.9095 20.3533 36.5348 20.5713 36.2895C20.7825 36.0442 21.1573 36.017 21.4025 36.235C22.7516 37.4069 23.5079 39.1988 23.3852 40.909C23.2558 42.7281 22.1452 44.3906 20.5509 45.1469C19.9308 45.4467 19.2428 45.5897 18.5682 45.5897Z" fill="#2B2C2C"/>
<path d="M63.1342 15.4882C59.8502 16.5851 56.9409 18.9085 55.3874 22.0018C53.834 25.095 53.7386 28.9446 55.3874 31.9901C57.7857 36.4188 63.727 38.4015 68.4282 36.6028C73.5587 34.6474 76.6724 28.4881 75.1735 23.2145C73.6745 17.9342 67.631 13.9893 63.1342 15.4882ZM69.3685 29.3329C68.9051 30.4163 67.8627 31.4178 66.8066 31.9356C64.4151 33.1075 61.6898 32.0992 60.2726 29.9257C58.8146 27.6909 59.0258 24.6794 60.5315 22.5128C61.281 21.4363 62.228 20.5914 63.5498 20.3461C64.7694 20.1213 65.9891 20.3393 66.9498 21.116C67.5698 21.225 68.1625 21.4839 68.6531 21.8927C69.6002 22.6763 70.0089 24.2434 70.0771 25.4289C70.1588 26.7234 69.8726 28.161 69.3616 29.3466L69.3685 29.3329Z" fill="white"/>
<path d="M87.8463 25.4085C86.4768 24.9929 85.1687 24.2774 84.2693 23.1737C83.0156 21.6271 82.7158 19.44 83.2268 17.5186C83.7378 15.5972 84.9915 13.928 86.5109 12.6402C85.1619 10.5008 83.7106 8.49771 82.1845 6.54909C80.3312 7.91858 78.5529 9.21993 76.4952 9.32213C74.5126 9.42433 72.5912 8.33419 71.358 6.78075C70.1248 5.2273 69.5116 3.25143 69.2663 1.28236C69.1981 1.09159 69.0959 1.05752 69.021 1.05071C66.9429 0.894003 64.8581 0.74411 62.78 0.587402C62.4053 2.52921 61.5195 4.26662 60.1568 5.52027C58.7941 6.77393 56.9546 7.53021 55.1014 7.46889C54.3383 7.44164 53.5888 7.29175 52.8461 7.12823C51.6333 6.86251 50.3456 6.53546 49.4872 5.62929C47.8315 6.75349 46.3461 7.95264 44.9153 9.19949C45.6512 9.70368 45.9578 10.3918 46.2167 11.0595C46.7686 12.4972 47.1911 14.071 46.8436 15.57C46.4825 17.1234 45.3105 18.4043 43.9138 19.1742C42.5171 19.9442 40.9023 20.2439 39.3148 20.3393C38.8719 22.615 38.6607 25.0474 38.5858 27.4865C39.9416 27.9703 41.2293 28.3791 42.3876 29.0536C43.5459 29.7281 44.5815 30.6888 45.0925 31.9289C45.6716 33.3188 45.5354 34.9472 44.929 36.3303C44.3226 37.7134 43.2869 38.8649 42.1082 39.8119C43.5254 42.1148 44.8881 44.2474 46.2916 46.3595C48.4583 44.9424 51.1837 44.4995 53.5547 45.2626C54.1475 45.4534 54.7197 45.7191 55.2035 46.1075C55.8099 46.5912 56.2596 47.2521 56.6071 47.9402C57.4451 49.6027 57.7586 51.5173 57.4929 53.3637C60.0206 53.8679 62.4665 54.1881 64.9262 54.3857C64.7763 51.8307 65.88 49.2688 67.8968 47.8653C69.9135 46.4617 72.8024 46.3732 74.826 47.7563C75.7867 48.4104 76.5294 49.3438 77.2448 50.2636C79.4591 48.7033 81.6462 47.1022 83.697 45.3444C82.5524 43.5661 81.3873 41.7742 81.3396 39.771C81.2919 37.6793 82.5524 35.683 84.3034 34.5452C86.0544 33.4074 88.2483 33.0667 90.3264 33.2847C91.0418 30.8523 91.6482 28.4813 92.1524 26.083C90.6262 25.9603 89.1953 25.8241 87.8259 25.4085H87.8463ZM74.7919 30.757C73.947 32.6238 72.5776 34.2318 70.9288 35.4377C69.9681 36.1395 68.912 36.7186 67.7742 37.0798C63.1275 38.5719 57.6768 35.9555 55.517 31.5746C53.9431 28.3791 54.0112 24.4342 55.7009 21.2932C57.3838 18.1591 60.6406 15.9175 64.1699 15.4678C67.3313 15.0658 71.3375 16.7691 73.62 19.8488C75.9025 22.9284 76.3658 27.2549 74.7919 30.7501V30.757Z" fill="#7FCED6"/>
<g opacity="0.13">
<path d="M77.6262 25.6741C77.5785 25.313 77.5036 24.9519 77.415 24.5976C77.3741 24.5158 77.34 24.4273 77.2924 24.3455C76.6383 23.051 75.848 21.8177 74.9554 20.6731C74.8055 20.7753 74.6965 20.932 74.6419 21.1023C74.5534 21.7224 75.0303 22.2879 75.1802 22.8738C75.7253 24.4886 76.0796 25.2653 75.9092 26.7438C75.9297 27.3093 74.9963 30.4366 74.7033 30.825C74.349 31.5131 73.947 32.174 73.4769 32.7941C73.3338 32.9644 73.2861 33.0393 73.3066 33.0462C73.0749 33.2301 72.8705 33.4618 72.6457 33.6525C72.1619 34.0613 71.6782 34.477 71.1876 34.8858C71.0582 34.9811 70.847 35.1515 70.6971 35.3082C70.7788 35.1924 70.5607 35.3968 70.3631 35.5603C70.2541 35.6284 69.7704 35.9623 69.5251 36.0917C67.8218 36.6913 66.0571 37.0252 65.1169 37.0797C63.87 37.1955 62.6436 36.8753 61.6829 36.6504C61.0016 36.4528 60.402 35.7715 59.6662 35.9146C59.346 35.9895 59.1416 36.2348 59.053 36.5142C59.1211 36.5891 59.1961 36.664 59.2711 36.739C59.5231 36.9434 59.7684 37.1546 60.0273 37.3522C60.9403 37.945 61.8533 38.5445 62.7663 39.1305C64.2789 39.5665 65.9072 39.6551 67.8422 39.2872C67.8082 39.2872 67.7673 39.294 67.7264 39.3008C69.7636 38.8716 70.3973 38.599 71.8894 37.8291C73.1908 37.0524 74.2332 35.9282 75.0372 34.6541C75.0576 34.62 75.0849 34.5792 75.1053 34.5451C75.1053 34.5451 75.1053 34.5451 75.1121 34.5315C76.0592 33.3459 76.7813 31.9969 77.2855 30.5661C77.7965 28.9922 77.7897 27.3025 77.633 25.6673L77.6262 25.6741Z" fill="#2B2C2C"/>
</g>
<g opacity="0.13">
<path d="M82.5795 42.3259C82.3751 42.3396 82.1775 42.3872 82.0004 42.4894C81.7346 42.6325 81.5779 42.871 81.4144 43.1163C81.2645 43.3071 81.1078 43.5046 80.9715 43.709C80.5627 44.2269 80.4537 44.4517 79.5544 45.3647C79.057 45.8961 78.2734 46.23 77.9464 46.8977C77.9464 46.9113 77.9396 46.9249 77.9328 46.9386C77.742 47.0476 77.5512 47.1634 77.3536 47.2656C76.9925 47.4905 76.5224 47.5995 76.2703 47.9538C75.4868 48.8872 76.6996 50.2567 77.7352 49.623C78.8117 49.0507 79.8201 48.3762 80.7263 47.5586C80.7671 47.5109 80.8148 47.47 80.8625 47.4223C81.5711 46.8568 82.2592 46.264 82.886 45.61C83.1177 45.3647 83.3903 45.0785 83.6151 44.7651C83.3767 44.2882 83.1722 43.8044 82.9814 43.3071C82.8384 42.9868 82.7021 42.6666 82.5795 42.3396V42.3259Z" fill="#2B2C2C"/>
</g>
<g opacity="0.13">
<path d="M89.5905 25.967C89.1817 27.5409 88.7184 29.1012 88.2142 30.6478C87.9825 31.3632 87.7509 32.0854 87.5192 32.8145C87.7918 33.1551 88.2619 33.3459 88.6979 33.2096C88.7184 33.2096 88.7388 33.1892 88.7592 33.1824C89.134 33.7138 90.1151 33.6457 90.299 32.9099C90.3944 32.5692 90.5307 32.2353 90.6534 31.8878C90.7283 31.8538 90.8033 31.8061 90.8646 31.7516C91.3075 31.4245 91.4369 30.8113 91.6004 30.314C91.8457 29.3056 91.982 28.27 92.0228 27.2275C92.0228 27.1662 92.0229 27.1049 92.0365 27.0436C91.2121 26.7029 90.3945 26.3418 89.5837 25.967H89.5905Z" fill="#2B2C2C"/>
</g>
<path d="M64.9329 54.9784C64.9329 54.9784 64.8988 54.9784 64.8852 54.9784C62.2893 54.774 59.8365 54.4401 57.3837 53.9496C57.0771 53.8883 56.8727 53.5953 56.9135 53.2887C57.1588 51.5717 56.8659 49.7662 56.0823 48.2195C55.7144 47.4905 55.3056 46.9523 54.8355 46.5775C54.454 46.2709 53.977 46.0325 53.3706 45.8349C51.1904 45.1331 48.6694 45.5146 46.6117 46.8637C46.3392 47.0408 45.9781 46.9659 45.801 46.7002C44.4179 44.6221 43.0484 42.4759 41.6039 40.1389C41.4472 39.8868 41.5018 39.5598 41.7334 39.369C42.9871 38.3606 43.8728 37.2637 44.3839 36.1054C44.9698 34.77 45.0311 33.3324 44.5405 32.1673C44.0159 30.9 42.9122 30.0551 42.0809 29.5714C41.1134 29.0127 40.0301 28.6311 38.8854 28.2291L38.3812 28.052C38.1428 27.9634 37.9793 27.7386 37.9929 27.4797C38.0679 24.7952 38.3199 22.3628 38.7287 20.2371C38.7832 19.9714 39.0013 19.7806 39.2738 19.7601C41.0589 19.6511 42.4829 19.2968 43.6275 18.67C44.9834 17.9274 45.9713 16.7214 46.2643 15.4473C46.5981 14.0097 46.1144 12.463 45.6579 11.2775C45.4263 10.6711 45.1673 10.092 44.5746 9.69C44.4247 9.5878 44.3293 9.41747 44.3157 9.24032C44.302 9.05636 44.377 8.87921 44.5201 8.76338C46.1757 7.31895 47.6475 6.1675 49.1532 5.14549C49.3917 4.98197 49.7119 5.01604 49.9095 5.22725C50.6385 5.99716 51.7695 6.29014 52.9618 6.55586C53.7249 6.71938 54.4131 6.86246 55.1081 6.8829C56.7705 6.93741 58.4534 6.28332 59.7411 5.09099C60.9743 3.95315 61.8192 2.35883 62.1803 0.478342C62.2348 0.185367 62.4937 -0.0190334 62.8003 0.00140671L69.0414 0.464715C69.382 0.491969 69.6614 0.709996 69.7976 1.07792C69.8113 1.1188 69.8249 1.16649 69.8317 1.20737C70.1043 3.35358 70.7652 5.10461 71.8008 6.41278C73 7.92534 74.785 8.81789 76.4475 8.72932C78.3552 8.63393 80.1131 7.33258 81.8164 6.07211C82.0753 5.88133 82.4364 5.92903 82.634 6.18112C84.3441 8.37502 85.7749 10.3782 86.9945 12.32C87.1512 12.5721 87.1036 12.8923 86.8788 13.0831C85.775 14.0165 84.3442 15.5631 83.7855 17.6616C83.2949 19.5149 83.6492 21.4771 84.7189 22.7989C85.4547 23.7051 86.5925 24.4137 88.0097 24.8429C89.3179 25.2381 90.6874 25.3743 92.2136 25.497C92.3839 25.5106 92.5406 25.5992 92.636 25.7286C92.7382 25.8649 92.7723 26.0352 92.7382 26.2056C92.2409 28.5698 91.6412 30.9409 90.9054 33.455C90.8236 33.7275 90.558 33.8979 90.2786 33.8774C88.146 33.6594 86.1429 34.075 84.6303 35.0493C82.9542 36.1326 81.8914 37.9859 81.9323 39.7642C81.9731 41.5833 83.0359 43.2322 84.1602 44.9696L84.2011 45.0309C84.3578 45.2762 84.3101 45.6032 84.092 45.794C81.9595 47.62 79.7111 49.2552 77.5922 50.7473C77.3332 50.9244 76.9789 50.8768 76.7881 50.6315C76.1477 49.8071 75.4187 48.8736 74.4989 48.2536C72.7138 47.0408 70.0838 47.0817 68.2306 48.3626C66.4387 49.6027 65.3689 51.9601 65.512 54.3584C65.5188 54.5287 65.4576 54.6922 65.3349 54.8149C65.2259 54.9239 65.0759 54.9852 64.9192 54.9852L64.9329 54.9784ZM58.1468 52.8935C60.1704 53.2819 62.2075 53.5612 64.3265 53.7452C64.3742 51.1493 65.5801 48.7578 67.5628 47.3815C69.8317 45.8076 72.959 45.7667 75.1597 47.2725C76.0455 47.8789 76.7677 48.7101 77.3604 49.4596C79.1864 48.165 81.101 46.7615 82.9202 45.2285C81.8368 43.5388 80.7944 41.7877 80.7467 39.7846C80.699 37.6043 81.9663 35.3559 83.9831 34.0546C85.5979 33.0121 87.6759 32.5216 89.897 32.6646C90.4966 30.5798 91.0076 28.5903 91.4369 26.6212C90.1014 26.5054 88.875 26.3487 87.6554 25.9807C86.0134 25.4834 84.678 24.6385 83.7923 23.5484C82.4909 21.9472 82.048 19.5762 82.634 17.3687C83.0973 15.6176 84.1602 13.9552 85.7204 12.5312C84.6644 10.8892 83.4584 9.19263 82.048 7.36665C80.3515 8.61349 78.58 9.80583 76.5019 9.91484C74.4579 10.0239 72.305 8.96097 70.8674 7.14862C69.7364 5.72463 69.0073 3.86458 68.687 1.62299L63.2159 1.21418C62.7526 3.12192 61.8328 4.75032 60.5247 5.95628C59.0121 7.35983 57.0158 8.12293 55.0535 8.06161C54.2563 8.03436 53.4865 7.87765 52.6961 7.70731C51.531 7.45522 50.3318 7.14181 49.412 6.38552C48.2401 7.20313 47.0683 8.11612 45.7942 9.20625C46.2779 9.72407 46.5369 10.3168 46.7481 10.8551C47.2659 12.1973 47.8041 13.962 47.4021 15.713C47.0274 17.3278 45.8555 18.7858 44.1794 19.6988C42.9803 20.3529 41.5426 20.7481 39.7916 20.898C39.4645 22.7376 39.2534 24.8088 39.1716 27.0777L39.267 27.1118C40.4662 27.5342 41.604 27.9294 42.6669 28.5494C43.6548 29.1217 44.9698 30.1369 45.617 31.704C46.2234 33.162 46.1621 34.9335 45.4467 36.5687C44.9221 37.7678 44.0499 38.8989 42.8576 39.9413C44.084 41.924 45.2695 43.7704 46.4482 45.5623C48.7035 44.2746 51.3811 43.9476 53.7181 44.7038C54.4608 44.9423 55.0603 45.2489 55.5509 45.6441C56.1573 46.1278 56.6683 46.7887 57.118 47.6745C57.9288 49.2688 58.2762 51.1016 58.1263 52.8867L58.1468 52.8935Z" fill="#2B2C2C"/>
<path d="M64.6604 32.9917C62.8004 32.9917 60.9131 31.9629 59.857 30.3004C58.7465 28.5494 58.5693 26.1715 59.3869 24.1002C59.9387 22.6967 60.8927 21.5248 62.0714 20.7889C63.3795 19.9782 64.933 19.7261 66.3365 20.1008C67.9172 20.53 69.096 21.2318 69.8454 22.1857C70.7448 23.3371 71.2353 24.8838 71.2285 26.5326C71.2285 27.6568 70.9901 28.6243 70.5268 29.4078C70.118 30.096 69.5593 30.6206 69.0551 31.0499C67.7946 32.1196 66.6636 32.7191 65.4985 32.9235C65.2192 32.9712 64.9397 32.9985 64.6604 32.9985V32.9917ZM65.0352 21.1092C64.238 21.1092 63.4068 21.3408 62.6914 21.7905C61.7239 22.3901 60.9403 23.3644 60.4838 24.5295C59.8025 26.2601 59.9456 28.2291 60.8518 29.6667C61.8124 31.1861 63.6384 32.0446 65.2941 31.7584C66.2411 31.5949 67.195 31.0839 68.2852 30.1505C68.7076 29.7894 69.1845 29.3465 69.5048 28.8083C69.8591 28.2087 70.043 27.4388 70.043 26.5258C70.043 25.1359 69.6479 23.855 68.912 22.9079C68.3261 22.1584 67.3517 21.5929 66.0231 21.2318C65.7028 21.1432 65.369 21.1024 65.0352 21.1024V21.1092Z" fill="#2B2C2C"/>
<path d="M65.0555 38.088C61.0016 38.088 56.8726 35.6556 54.9922 31.8401C53.3365 28.4743 53.4047 24.325 55.183 21.0205C56.9612 17.716 60.3747 15.3654 64.0948 14.8885C67.5764 14.4388 71.7803 16.3874 74.0968 19.508C76.5224 22.7784 77.0061 27.2888 75.33 31.0021C74.4715 32.903 73.068 34.5995 71.2761 35.9145C70.2064 36.6981 69.089 37.2772 67.9512 37.6451C67.0109 37.9449 66.0366 38.088 65.0555 38.088ZM65.1373 15.9991C64.8375 15.9991 64.5376 16.0195 64.2447 16.0536C60.8925 16.4828 57.8197 18.595 56.2186 21.5724C54.6175 24.5498 54.5561 28.2836 56.0483 31.3155C58.14 35.5534 63.3181 37.8904 67.5969 36.5209C68.6121 36.1939 69.6136 35.6692 70.5811 34.9607C72.2095 33.7683 73.4836 32.2285 74.2535 30.5115C75.732 27.2343 75.2892 23.0918 73.1498 20.2029C71.2693 17.6684 68.0261 15.9991 65.1373 15.9991Z" fill="#2B2C2C"/>
<path d="M87.8463 25.4085C86.4768 24.9929 85.1687 24.2774 84.2693 23.1737C83.0156 21.6271 82.7158 19.44 83.2268 17.5186C83.7378 15.5972 84.9915 13.928 86.5109 12.6402C85.1619 10.5008 83.7106 8.49771 82.1845 6.54909C80.3312 7.91858 78.5529 9.21993 76.4952 9.32213C74.5126 9.42433 72.5912 8.33419 71.358 6.78075C70.1248 5.2273 69.5116 3.25143 69.2663 1.28236C69.1981 1.09159 69.0959 1.05752 69.021 1.05071C66.9429 0.894003 64.8581 0.74411 62.78 0.587402C62.4053 2.52921 61.5195 4.26662 60.1568 5.52027C58.7941 6.77393 56.9546 7.53021 55.1014 7.46889C54.3383 7.44164 53.5888 7.29175 52.8461 7.12823C51.6333 6.86251 50.3456 6.53546 49.4872 5.62929C47.8315 6.75349 46.3461 7.95264 44.9153 9.19949C45.6512 9.70368 45.9578 10.3918 46.2167 11.0595C46.7686 12.4972 47.1911 14.071 46.8436 15.57C46.4825 17.1234 45.3105 18.4043 43.9138 19.1742C42.5171 19.9442 40.9023 20.2439 39.3148 20.3393C38.8719 22.615 38.6607 25.0474 38.5858 27.4865C39.9416 27.9703 41.2293 28.3791 42.3876 29.0536C43.5459 29.7281 44.5815 30.6888 45.0925 31.9289C45.6716 33.3188 45.5354 34.9472 44.929 36.3303C44.3226 37.7134 43.2869 38.8649 42.1082 39.8119C43.5254 42.1148 44.8881 44.2474 46.2916 46.3595C48.4583 44.9424 51.1837 44.4995 53.5547 45.2626C54.1475 45.4534 54.7197 45.7191 55.2035 46.1075C55.8099 46.5912 56.2596 47.2521 56.6071 47.9402C57.4451 49.6027 57.7586 51.5173 57.4929 53.3637C60.0206 53.8679 62.4665 54.1881 64.9262 54.3857C64.7763 51.8307 65.88 49.2688 67.8968 47.8653C69.9135 46.4617 72.8024 46.3732 74.826 47.7563C75.7867 48.4104 76.5294 49.3438 77.2448 50.2636C79.4591 48.7033 81.6462 47.1022 83.697 45.3444C82.5524 43.5661 81.3873 41.7742 81.3396 39.771C81.2919 37.6793 82.5524 35.683 84.3034 34.5452C86.0544 33.4074 88.2483 33.0667 90.3264 33.2847C91.0418 30.8523 91.6482 28.4813 92.1524 26.083C90.6262 25.9603 89.1953 25.8241 87.8259 25.4085H87.8463ZM74.7919 30.757C73.947 32.6238 72.5776 34.2318 70.9288 35.4377C69.9681 36.1395 68.912 36.7186 67.7742 37.0798C63.1275 38.5719 57.6768 35.9555 55.517 31.5746C53.9431 28.3791 54.0112 24.4342 55.7009 21.2932C57.3838 18.1591 60.6406 15.9175 64.1699 15.4678C67.3313 15.0658 71.3375 16.7691 73.62 19.8488C75.9025 22.9284 76.3658 27.2549 74.7919 30.7501V30.757Z" fill="#7FCED6"/>
<g opacity="0.13">
<path d="M77.6262 25.6741C77.5785 25.313 77.5036 24.9519 77.415 24.5976C77.3741 24.5158 77.34 24.4273 77.2924 24.3455C76.6383 23.051 75.848 21.8177 74.9554 20.6731C74.8055 20.7753 74.6965 20.932 74.6419 21.1023C74.5534 21.7224 75.0303 22.2879 75.1802 22.8738C75.7253 24.4886 76.0796 25.2653 75.9092 26.7438C75.9297 27.3093 74.9963 30.4366 74.7033 30.825C74.349 31.5131 73.947 32.174 73.4769 32.7941C73.3338 32.9644 73.2861 33.0393 73.3066 33.0462C73.0749 33.2301 72.8705 33.4618 72.6457 33.6525C72.1619 34.0613 71.6782 34.477 71.1876 34.8858C71.0582 34.9811 70.847 35.1515 70.6971 35.3082C70.7788 35.1924 70.5607 35.3968 70.3631 35.5603C70.2541 35.6284 69.7704 35.9623 69.5251 36.0917C67.8218 36.6913 66.0571 37.0252 65.1169 37.0797C63.87 37.1955 62.6436 36.8753 61.6829 36.6504C61.0016 36.4528 60.402 35.7715 59.6662 35.9146C59.346 35.9895 59.1416 36.2348 59.053 36.5142C59.1211 36.5891 59.1961 36.664 59.2711 36.739C59.5231 36.9434 59.7684 37.1546 60.0273 37.3522C60.9403 37.945 61.8533 38.5445 62.7663 39.1305C64.2789 39.5665 65.9072 39.6551 67.8422 39.2872C67.8082 39.2872 67.7673 39.294 67.7264 39.3008C69.7636 38.8716 70.3973 38.599 71.8894 37.8291C73.1908 37.0524 74.2332 35.9282 75.0372 34.6541C75.0576 34.62 75.0849 34.5792 75.1053 34.5451C75.1053 34.5451 75.1053 34.5451 75.1121 34.5315C76.0592 33.3459 76.7813 31.9969 77.2855 30.5661C77.7965 28.9922 77.7897 27.3025 77.633 25.6673L77.6262 25.6741Z" fill="#2B2C2C"/>
</g>
<g opacity="0.13">
<path d="M82.5795 42.3259C82.3751 42.3396 82.1775 42.3872 82.0004 42.4894C81.7346 42.6325 81.5779 42.871 81.4144 43.1163C81.2645 43.3071 81.1078 43.5046 80.9715 43.709C80.5627 44.2269 80.4537 44.4517 79.5544 45.3647C79.057 45.8961 78.2734 46.23 77.9464 46.8977C77.9464 46.9113 77.9396 46.9249 77.9328 46.9386C77.742 47.0476 77.5512 47.1634 77.3536 47.2656C76.9925 47.4905 76.5224 47.5995 76.2703 47.9538C75.4868 48.8872 76.6996 50.2567 77.7352 49.623C78.8117 49.0507 79.8201 48.3762 80.7263 47.5586C80.7671 47.5109 80.8148 47.47 80.8625 47.4223C81.5711 46.8568 82.2592 46.264 82.886 45.61C83.1177 45.3647 83.3903 45.0785 83.6151 44.7651C83.3767 44.2882 83.1722 43.8044 82.9814 43.3071C82.8384 42.9868 82.7021 42.6666 82.5795 42.3396V42.3259Z" fill="#2B2C2C"/>
</g>
<g opacity="0.13">
<path d="M89.5905 25.967C89.1817 27.5409 88.7184 29.1012 88.2142 30.6478C87.9825 31.3632 87.7509 32.0854 87.5192 32.8145C87.7918 33.1551 88.2619 33.3459 88.6979 33.2096C88.7184 33.2096 88.7388 33.1892 88.7592 33.1824C89.134 33.7138 90.1151 33.6457 90.299 32.9099C90.3944 32.5692 90.5307 32.2353 90.6534 31.8878C90.7283 31.8538 90.8033 31.8061 90.8646 31.7516C91.3075 31.4245 91.4369 30.8113 91.6004 30.314C91.8457 29.3056 91.982 28.27 92.0228 27.2275C92.0228 27.1662 92.0229 27.1049 92.0365 27.0436C91.2121 26.7029 90.3945 26.3418 89.5837 25.967H89.5905Z" fill="#2B2C2C"/>
</g>
<path d="M64.9329 54.9784C64.9329 54.9784 64.8988 54.9784 64.8852 54.9784C62.2893 54.774 59.8365 54.4401 57.3837 53.9496C57.0771 53.8883 56.8727 53.5953 56.9135 53.2887C57.1588 51.5717 56.8659 49.7662 56.0823 48.2195C55.7144 47.4905 55.3056 46.9523 54.8355 46.5775C54.454 46.2709 53.977 46.0325 53.3706 45.8349C51.1904 45.1331 48.6694 45.5146 46.6117 46.8637C46.3392 47.0408 45.9781 46.9659 45.801 46.7002C44.4179 44.6221 43.0484 42.4759 41.6039 40.1389C41.4472 39.8868 41.5018 39.5598 41.7334 39.369C42.9871 38.3606 43.8728 37.2637 44.3839 36.1054C44.9698 34.77 45.0311 33.3324 44.5405 32.1673C44.0159 30.9 42.9122 30.0551 42.0809 29.5714C41.1134 29.0127 40.0301 28.6311 38.8854 28.2291L38.3812 28.052C38.1428 27.9634 37.9793 27.7386 37.9929 27.4797C38.0679 24.7952 38.3199 22.3628 38.7287 20.2371C38.7832 19.9714 39.0013 19.7806 39.2738 19.7601C41.0589 19.6511 42.4829 19.2968 43.6275 18.67C44.9834 17.9274 45.9713 16.7214 46.2643 15.4473C46.5981 14.0097 46.1144 12.463 45.6579 11.2775C45.4263 10.6711 45.1673 10.092 44.5746 9.69C44.4247 9.5878 44.3293 9.41747 44.3157 9.24032C44.302 9.05636 44.377 8.87921 44.5201 8.76338C46.1757 7.31895 47.6475 6.1675 49.1532 5.14549C49.3917 4.98197 49.7119 5.01604 49.9095 5.22725C50.6385 5.99716 51.7695 6.29014 52.9618 6.55586C53.7249 6.71938 54.4131 6.86246 55.1081 6.8829C56.7705 6.93741 58.4534 6.28332 59.7411 5.09099C60.9743 3.95315 61.8192 2.35883 62.1803 0.478342C62.2348 0.185367 62.4937 -0.0190334 62.8003 0.00140671L69.0414 0.464715C69.382 0.491969 69.6614 0.709996 69.7976 1.07792C69.8113 1.1188 69.8249 1.16649 69.8317 1.20737C70.1043 3.35358 70.7652 5.10461 71.8008 6.41278C73 7.92534 74.785 8.81789 76.4475 8.72932C78.3552 8.63393 80.1131 7.33258 81.8164 6.07211C82.0753 5.88133 82.4364 5.92903 82.634 6.18112C84.3441 8.37502 85.7749 10.3782 86.9945 12.32C87.1512 12.5721 87.1036 12.8923 86.8788 13.0831C85.775 14.0165 84.3442 15.5631 83.7855 17.6616C83.2949 19.5149 83.6492 21.4771 84.7189 22.7989C85.4547 23.7051 86.5925 24.4137 88.0097 24.8429C89.3179 25.2381 90.6874 25.3743 92.2136 25.497C92.3839 25.5106 92.5406 25.5992 92.636 25.7286C92.7382 25.8649 92.7723 26.0352 92.7382 26.2056C92.2409 28.5698 91.6412 30.9409 90.9054 33.455C90.8236 33.7275 90.558 33.8979 90.2786 33.8774C88.146 33.6594 86.1429 34.075 84.6303 35.0493C82.9542 36.1326 81.8914 37.9859 81.9323 39.7642C81.9731 41.5833 83.0359 43.2322 84.1602 44.9696L84.2011 45.0309C84.3578 45.2762 84.3101 45.6032 84.092 45.794C81.9595 47.62 79.7111 49.2552 77.5922 50.7473C77.3332 50.9244 76.9789 50.8768 76.7881 50.6315C76.1477 49.8071 75.4187 48.8736 74.4989 48.2536C72.7138 47.0408 70.0838 47.0817 68.2306 48.3626C66.4387 49.6027 65.3689 51.9601 65.512 54.3584C65.5188 54.5287 65.4576 54.6922 65.3349 54.8149C65.2259 54.9239 65.0759 54.9852 64.9192 54.9852L64.9329 54.9784ZM58.1468 52.8935C60.1704 53.2819 62.2075 53.5612 64.3265 53.7452C64.3742 51.1493 65.5801 48.7578 67.5628 47.3815C69.8317 45.8076 72.959 45.7667 75.1597 47.2725C76.0455 47.8789 76.7677 48.7101 77.3604 49.4596C79.1864 48.165 81.101 46.7615 82.9202 45.2285C81.8368 43.5388 80.7944 41.7877 80.7467 39.7846C80.699 37.6043 81.9663 35.3559 83.9831 34.0546C85.5979 33.0121 87.6759 32.5216 89.897 32.6646C90.4966 30.5798 91.0076 28.5903 91.4369 26.6212C90.1014 26.5054 88.875 26.3487 87.6554 25.9807C86.0134 25.4834 84.678 24.6385 83.7923 23.5484C82.4909 21.9472 82.048 19.5762 82.634 17.3687C83.0973 15.6176 84.1602 13.9552 85.7204 12.5312C84.6644 10.8892 83.4584 9.19263 82.048 7.36665C80.3515 8.61349 78.58 9.80583 76.5019 9.91484C74.4579 10.0239 72.305 8.96097 70.8674 7.14862C69.7364 5.72463 69.0073 3.86458 68.687 1.62299L63.2159 1.21418C62.7526 3.12192 61.8328 4.75032 60.5247 5.95628C59.0121 7.35983 57.0158 8.12293 55.0535 8.06161C54.2563 8.03436 53.4865 7.87765 52.6961 7.70731C51.531 7.45522 50.3318 7.14181 49.412 6.38552C48.2401 7.20313 47.0683 8.11612 45.7942 9.20625C46.2779 9.72407 46.5369 10.3168 46.7481 10.8551C47.2659 12.1973 47.8041 13.962 47.4021 15.713C47.0274 17.3278 45.8555 18.7858 44.1794 19.6988C42.9803 20.3529 41.5426 20.7481 39.7916 20.898C39.4645 22.7376 39.2534 24.8088 39.1716 27.0777L39.267 27.1118C40.4662 27.5342 41.604 27.9294 42.6669 28.5494C43.6548 29.1217 44.9698 30.1369 45.617 31.704C46.2234 33.162 46.1621 34.9335 45.4467 36.5687C44.9221 37.7678 44.0499 38.8989 42.8576 39.9413C44.084 41.924 45.2695 43.7704 46.4482 45.5623C48.7035 44.2746 51.3811 43.9476 53.7181 44.7038C54.4608 44.9423 55.0603 45.2489 55.5509 45.6441C56.1573 46.1278 56.6683 46.7887 57.118 47.6745C57.9288 49.2688 58.2762 51.1016 58.1263 52.8867L58.1468 52.8935Z" fill="#2B2C2C"/>
<path d="M64.6604 32.9917C62.8004 32.9917 60.9131 31.9629 59.857 30.3004C58.7465 28.5494 58.5693 26.1715 59.3869 24.1002C59.9387 22.6967 60.8927 21.5248 62.0714 20.7889C63.3795 19.9782 64.933 19.7261 66.3365 20.1008C67.9172 20.53 69.096 21.2318 69.8454 22.1857C70.7448 23.3371 71.2353 24.8838 71.2285 26.5326C71.2285 27.6568 70.9901 28.6243 70.5268 29.4078C70.118 30.096 69.5593 30.6206 69.0551 31.0499C67.7946 32.1196 66.6636 32.7191 65.4985 32.9235C65.2192 32.9712 64.9397 32.9985 64.6604 32.9985V32.9917ZM65.0352 21.1092C64.238 21.1092 63.4068 21.3408 62.6914 21.7905C61.7239 22.3901 60.9403 23.3644 60.4838 24.5295C59.8025 26.2601 59.9456 28.2291 60.8518 29.6667C61.8124 31.1861 63.6384 32.0446 65.2941 31.7584C66.2411 31.5949 67.195 31.0839 68.2852 30.1505C68.7076 29.7894 69.1845 29.3465 69.5048 28.8083C69.8591 28.2087 70.043 27.4388 70.043 26.5258C70.043 25.1359 69.6479 23.855 68.912 22.9079C68.3261 22.1584 67.3517 21.5929 66.0231 21.2318C65.7028 21.1432 65.369 21.1024 65.0352 21.1024V21.1092Z" fill="#2B2C2C"/>
<path d="M65.0555 38.088C61.0016 38.088 56.8726 35.6556 54.9922 31.8401C53.3365 28.4743 53.4047 24.325 55.183 21.0205C56.9612 17.716 60.3747 15.3654 64.0948 14.8885C67.5764 14.4388 71.7803 16.3874 74.0968 19.508C76.5224 22.7784 77.0061 27.2888 75.33 31.0021C74.4715 32.903 73.068 34.5995 71.2761 35.9145C70.2064 36.6981 69.089 37.2772 67.9512 37.6451C67.0109 37.9449 66.0366 38.088 65.0555 38.088ZM65.1373 15.9991C64.8375 15.9991 64.5376 16.0195 64.2447 16.0536C60.8925 16.4828 57.8197 18.595 56.2186 21.5724C54.6175 24.5498 54.5561 28.2836 56.0483 31.3155C58.14 35.5534 63.3181 37.8904 67.5969 36.5209C68.6121 36.1939 69.6136 35.6692 70.5811 34.9607C72.2095 33.7683 73.4836 32.2285 74.2535 30.5115C75.732 27.2343 75.2892 23.0918 73.1498 20.2029C71.2693 17.6684 68.0261 15.9991 65.1373 15.9991Z" fill="#2B2C2C"/>
<path d="M18.4797 64.8577C18.4797 64.8577 18.4388 64.8577 18.4183 64.8508C16.606 64.2513 15.1411 62.6433 14.6983 60.7492C14.2554 58.8823 14.8005 56.8247 16.1087 55.3803C16.1836 55.2985 16.3062 55.2917 16.388 55.3667C16.4697 55.4416 16.4766 55.5642 16.4016 55.646C15.1752 56.995 14.6711 58.9164 15.0799 60.6606C15.4955 62.4185 16.8513 63.9174 18.541 64.4761C18.6432 64.5102 18.6978 64.6192 18.6637 64.7214C18.6364 64.8032 18.5615 64.8577 18.4797 64.8577Z" fill="#2B2C2C"/>
<path d="M21.457 63.0453C21.457 63.0453 21.4025 63.0453 21.3752 63.0248C20.4146 62.5752 19.6719 61.6486 19.447 60.6129C19.2154 59.5773 19.4947 58.4258 20.1693 57.6082C20.2374 57.5265 20.3601 57.5128 20.4486 57.581C20.5304 57.6491 20.544 57.7718 20.4758 57.8603C19.8763 58.5825 19.631 59.6045 19.8354 60.5243C20.0398 61.4442 20.6939 62.2618 21.5524 62.6637C21.6478 62.7114 21.6954 62.8273 21.6477 62.9227C21.6136 62.9908 21.5456 63.0385 21.4706 63.0385L21.457 63.0453Z" fill="#2B2C2C"/>
<path d="M12.7086 47.9607C12.6609 47.9607 12.6133 47.9471 12.5792 47.913C11.4823 46.9183 10.7396 45.6646 10.4807 44.3769C10.1878 42.9325 10.5284 41.4403 11.3801 40.3774C12.0341 39.5598 12.988 39.0148 13.7511 38.5719C13.8465 38.5174 13.9623 38.5515 14.0168 38.64C14.0713 38.7354 14.0373 38.8513 13.9487 38.9058C13.2129 39.3282 12.2998 39.8596 11.6866 40.6227C10.9099 41.5902 10.6033 42.9597 10.8691 44.2951C11.1075 45.5011 11.8161 46.6798 12.8449 47.62C12.9267 47.695 12.9335 47.8176 12.8586 47.8994C12.8177 47.9403 12.7631 47.9607 12.7155 47.9607H12.7086Z" fill="#2B2C2C"/>
<path d="M26.2059 35.8669C26.1173 35.8669 26.0287 35.7988 26.0151 35.7102C25.5518 33.3528 25.8925 30.8659 26.9826 28.7197C28.0659 26.5735 29.8646 24.8225 32.0381 23.8004C32.1334 23.7528 32.2561 23.8004 32.297 23.8958C32.3447 23.9912 32.297 24.1139 32.2017 24.1547C30.1031 25.1427 28.3725 26.8256 27.3301 28.8968C26.2808 30.9681 25.9538 33.3596 26.3967 35.6353C26.4171 35.7443 26.349 35.8465 26.24 35.8669C26.2263 35.8669 26.2127 35.8669 26.199 35.8669H26.2059Z" fill="#2B2C2C"/>
<path d="M32.229 68.2712C31.5544 68.2712 30.8731 68.0736 30.3348 67.6648C29.4832 67.0244 29.0199 66.0365 28.6111 65.1643C28.5634 65.069 28.6111 64.9463 28.7065 64.9054C28.8019 64.8577 28.9245 64.9054 28.9654 65.0008C29.3538 65.832 29.7966 66.7723 30.5665 67.3514C31.6771 68.1827 33.4077 68.0191 34.3411 66.9971C34.416 66.9154 34.5387 66.9086 34.6205 66.9835C34.7022 67.0585 34.7022 67.1811 34.6341 67.2629C34.0277 67.9237 33.1283 68.2712 32.229 68.2712Z" fill="#2B2C2C"/>
<path d="M52.3078 72.8634C51.1836 72.8634 50.0186 72.5568 48.9421 71.9572C47.5317 71.1737 46.3053 69.9269 45.2901 68.2576C45.2356 68.1622 45.2628 68.0464 45.3582 67.9851C45.4468 67.9305 45.5695 67.9578 45.6308 68.0532C46.6119 69.6611 47.7906 70.8603 49.1397 71.6166C50.6999 72.4887 52.4577 72.7067 53.9567 72.223C54.0589 72.1889 54.1679 72.2434 54.202 72.3524C54.236 72.4546 54.1816 72.5636 54.0725 72.5977C53.507 72.7817 52.9142 72.8702 52.3078 72.8702V72.8634Z" fill="#2B2C2C"/>
<path d="M59.1893 70.9352C57.6154 70.9352 56.1437 69.9882 54.7675 69.0003C54.6789 68.9389 54.6584 68.8163 54.7197 68.7277C54.781 68.6391 54.9037 68.6187 54.9923 68.68C56.4844 69.7497 58.0855 70.7717 59.748 70.4992C59.857 70.4787 59.9592 70.5537 59.9728 70.6627C59.9932 70.7717 59.9183 70.8739 59.8093 70.8875C59.5981 70.9216 59.3937 70.9421 59.1825 70.9421L59.1893 70.9352Z" fill="#2B2C2C"/>
<path d="M72.7957 68.6595C72.0667 68.6595 71.3172 68.4142 70.6699 67.9373C69.8183 67.3173 69.2731 66.4111 69.1846 65.4572C69.1778 65.3482 69.2527 65.2528 69.3617 65.246C69.4707 65.2392 69.5662 65.3142 69.573 65.4232C69.6479 66.268 70.1316 67.0652 70.8947 67.6239C71.6578 68.1758 72.5708 68.387 73.3953 68.203C73.5043 68.1758 73.6065 68.2439 73.6269 68.3529C73.6541 68.4551 73.586 68.5641 73.477 68.5846C73.2522 68.6391 73.0205 68.6595 72.7889 68.6595H72.7957Z" fill="#2B2C2C"/>
<path d="M89.1203 61.0081C89.0317 61.0081 88.9499 60.9468 88.9295 60.8514C88.9091 60.7424 88.9773 60.6402 89.0795 60.6198C89.7608 60.4699 90.19 59.7749 90.5375 59.1344C90.7487 58.7393 90.9531 58.3237 90.8305 57.9489C90.7555 57.7036 90.5443 57.5129 90.3263 57.3153C90.1151 57.1245 89.9039 56.9269 89.7676 56.6612C89.7199 56.5658 89.7608 56.4432 89.8562 56.3955C89.9516 56.3478 90.0741 56.3887 90.1218 56.484C90.224 56.6884 90.4012 56.852 90.592 57.0223C90.8373 57.2471 91.0962 57.4856 91.2052 57.8263C91.3687 58.3441 91.1235 58.8687 90.8782 59.3116C90.4558 60.0815 89.9584 60.8173 89.1612 60.9945C89.1476 60.9945 89.1339 60.9945 89.1203 60.9945V61.0081Z" fill="#2B2C2C"/>
<path d="M90.9123 52.4165C90.8578 52.4165 90.7965 52.3892 90.7556 52.3415C90.6874 52.2598 90.7011 52.1303 90.7897 52.0622C92.6702 50.5564 93.8829 48.2262 94.0464 45.8279C94.2099 43.4296 93.3105 40.9564 91.6549 39.2122C91.58 39.1372 91.58 39.0078 91.6617 38.9328C91.7435 38.8579 91.8661 38.8579 91.9411 38.9396C93.6785 40.7588 94.612 43.3411 94.4416 45.8552C94.2713 48.3625 93.004 50.8017 91.0418 52.3688C91.0077 52.396 90.96 52.4097 90.9191 52.4097L90.9123 52.4165Z" fill="#2B2C2C"/>
<path d="M87.642 51.6671C87.5943 51.6671 87.5534 51.6534 87.5193 51.6194C87.4376 51.5512 87.4239 51.4286 87.492 51.34C88.187 50.502 88.9092 49.6435 89.3589 48.6419C89.8495 47.5586 89.9313 46.4344 89.5838 45.5487C89.5429 45.4465 89.5906 45.3306 89.6928 45.2966C89.795 45.2557 89.9108 45.3034 89.9449 45.4056C90.3401 46.4003 90.2583 47.6063 89.7132 48.8055C89.2363 49.8547 88.5005 50.7336 87.7851 51.5921C87.7442 51.6398 87.6897 51.6603 87.6352 51.6603L87.642 51.6671Z" fill="#2B2C2C"/>
<g opacity="0.13">
<path d="M1.15997 48.3218C-0.386658 48.349 -0.386658 50.6519 1.15997 50.6792C2.70661 50.6519 2.70661 48.349 1.15997 48.3218Z" fill="#2B2C2C"/>
</g>
<g opacity="0.13">
<path d="M91.11 32.4264C90.8102 32.4945 90.5989 32.7057 90.3877 32.9169C90.3741 32.9169 90.3673 32.9305 90.3537 32.9374C87.5398 33.789 83.8128 34.0275 82.3752 36.9913C81.6189 38.6197 81.7007 40.5343 82.2526 42.2103C82.6342 43.3345 83.3359 44.2952 83.9355 45.3036C83.3018 45.8419 82.1368 46.7685 80.8899 47.4634C79.9156 48.1516 78.9413 48.8329 77.892 49.3984C77.5718 48.8466 76.9381 48.5536 76.3386 48.3356C74.6966 47.7019 72.9592 47.1637 71.1809 47.1841C68.1421 47.3817 66.1117 49.4393 65.2805 52.2669C65.0352 53.3502 64.9739 53.868 64.933 54.2427C63.7543 54.0997 62.5756 54.0111 61.3969 53.8748C59.7549 53.65 60.1092 53.7181 58.6375 53.4933C58.5217 53.466 58.4058 53.4456 58.29 53.4319C58.1333 52.8051 58.0311 52.1578 57.8744 51.531C57.4315 49.2962 56.1165 47.3135 54.2088 46.0667C53.2004 45.4126 52.0354 45.0106 50.8362 44.9152C50.4206 44.8744 50.6863 44.9016 50.9452 44.9357C50.2638 44.8062 49.5961 44.8744 48.908 44.9357C48.3697 45.0038 47.7702 44.9152 47.266 45.1196C45.9374 45.6306 46.3598 47.6747 47.777 47.6542C48.4924 47.627 49.2146 47.5997 49.93 47.661C50.0117 47.6747 50.0936 47.6883 50.1753 47.7019C50.3866 47.7292 50.9452 47.9268 51.1564 47.9949C53.3299 49.1463 53.9295 49.9912 54.42 51.3266C54.9106 52.6484 54.8493 54.3041 55.5919 55.4964C55.9871 56.0823 56.6957 56.2391 57.3157 56.0619C57.4179 56.1164 57.5269 56.1641 57.6428 56.1914C59.898 56.6479 62.1532 57.0771 64.4493 57.2474C65.8733 57.4382 67.4812 57.3973 67.8423 55.7008C68.0195 54.6243 68.2103 53.541 68.6054 52.5258C68.6872 52.3759 68.9325 51.8853 69.0756 51.715C69.1301 51.6332 69.1914 51.5515 69.2527 51.4765C69.2732 51.4561 69.2868 51.4356 69.314 51.4084C69.4435 51.2585 69.5866 51.129 69.7365 50.9996C69.7773 50.9723 69.8182 50.9451 69.8795 50.911C70.0839 50.8224 69.9272 50.7884 70.9152 50.5226C71.0037 50.5022 71.0923 50.4886 71.1741 50.4681C71.4125 50.4545 71.651 50.4681 71.8895 50.4886C72.0803 50.5158 72.3732 50.5635 72.5299 50.5976C72.9251 50.6657 73.3339 50.7679 73.7291 50.8906C74.424 51.3062 75.4256 52.008 75.3234 51.9262C75.7799 52.3146 76.3931 52.9686 77.0063 52.6893C77.2992 52.737 77.6332 52.6961 78.0079 52.5326C79.4523 51.8104 80.8831 51.0677 82.1777 50.0866C83.5471 49.2349 84.9371 48.3356 86.0953 47.2045C86.7631 46.9456 87.2196 46.1348 86.7767 45.3854C85.8978 43.1778 84.7872 42.1831 84.5692 40.4184C84.3784 37.8975 84.828 37.0799 89.025 35.8807C90.1016 35.5196 91.3893 35.4924 92.2137 34.6203C93.2494 33.755 92.4181 32.0789 91.1031 32.4195L91.11 32.4264Z" fill="#2B2C2C"/>
</g>
<g opacity="0.13">
<path d="M36.821 68.8298C36.0648 68.6254 35.3835 69.1978 34.6476 69.2863C33.4825 69.4771 33.3871 69.5452 31.6634 69.0819C30.546 68.68 30.7981 68.8843 29.6262 68.1349C29.6057 68.1213 29.5853 68.1008 29.5649 68.0872C29.415 67.9645 29.0811 67.6852 28.9653 67.5762C28.8018 67.4672 28.3316 66.9085 28.134 66.67C27.7388 66.1386 27.3641 65.5935 26.9894 65.0416C26.8463 64.7963 26.6079 64.6124 26.3285 64.5374C25.4155 64.2513 24.5775 65.3482 25.0816 66.1522C26.4579 68.3325 28.0387 70.649 30.5869 71.5416C32.0995 72.182 33.7619 72.3319 35.3562 71.9572C35.8809 71.8482 36.385 71.6778 36.8756 71.4666C37.1958 71.3644 37.4684 71.1464 37.6387 70.8534C38.102 70.0971 37.6659 69.0479 36.8142 68.8162L36.821 68.8298Z" fill="#2B2C2C"/>
</g>
<g opacity="0.13">
<path d="M64.3538 68.4758C64.2244 68.5099 64.1154 68.5712 64.0132 68.6461C64.0677 68.5984 63.7406 68.8573 63.5975 68.98C62.7391 69.6477 63.0797 69.4365 61.6353 70.4789C59.0803 72.0324 57.5882 72.8772 55.1831 73.5109C53.9839 73.7289 52.3351 74.0082 50.2502 73.763C49.2418 73.5994 46.0804 72.5979 45.3445 71.6985C44.3634 70.7651 44.5406 70.9218 43.7775 69.7908C43.5118 69.4365 43.3551 68.9732 42.994 68.7143C41.9924 67.8898 40.5548 69.1571 41.2225 70.2677C42.1764 71.8961 43.246 73.5177 44.8267 74.601C46.1758 75.5072 47.7429 76.0931 49.3168 76.461C51.6946 76.9244 54.1815 76.6314 56.498 75.9841C59.1484 75.0302 61.6625 73.6403 63.8428 71.8484C64.4492 71.2556 65.2123 70.6833 65.6416 69.9543C66.0367 69.1571 65.1919 68.2237 64.3538 68.4758Z" fill="#2B2C2C"/>
</g>
<g opacity="0.13">
<path d="M72.1553 68.469C72.1008 68.469 72.0463 68.4826 71.9918 68.4894C71.4603 68.578 70.9289 68.5644 70.3906 68.5099C70.3293 68.5031 70.268 68.4894 70.2067 68.4758C70.05 68.4622 69.7025 68.3395 69.5253 68.2782C69.3209 68.1828 69.1302 68.067 68.9462 67.9444C68.6737 67.7808 68.4147 67.5424 68.0809 67.5424C66.7114 67.3039 66.0574 69.2457 67.2565 69.9271C68.4965 70.8196 70.0431 71.1535 71.5557 71.0717C72.3801 70.9968 73.5861 70.8946 73.6679 69.8453C73.8382 69.0141 72.9661 68.2578 72.1621 68.4622L72.1553 68.469Z" fill="#2B2C2C"/>
</g>
<g opacity="0.13">
<path d="M60.334 60.1292C59.8366 60.5244 58.7329 61.9143 57.6427 62.8341C57.5405 62.9227 57.4316 63.0045 57.3294 63.093C56.8252 63.461 56.28 63.7744 55.7145 64.0333C55.2716 64.2036 54.8016 64.3058 54.3315 64.3808C54.277 64.3808 54.2156 64.3876 54.1611 64.3944C53.398 64.5852 50.952 64.0878 49.4394 63.1271C48.6423 62.6093 49.0102 62.8546 48.3766 62.3436C48.179 62.146 47.9064 62.0301 47.6271 62.037C46.7209 62.0029 46.2167 63.2157 46.8776 63.8425C48.2335 65.1779 49.9641 66.0977 51.7628 66.6905C56.0484 68.1008 59.7957 65.2597 61.7784 61.6145C62.3576 60.6947 61.2674 59.5705 60.3272 60.1292H60.334Z" fill="#2B2C2C"/>
</g>
<g opacity="0.13">
<path d="M93.0245 57.4653C92.8406 56.491 92.7656 55.4145 92.2751 54.5492C91.5869 53.5681 89.9858 54.3789 90.3196 55.5235C90.7012 57.002 90.7352 57.2473 90.8102 58.3511C90.8034 59.5093 90.9124 59.0528 90.5513 60.1498C90.2379 61.199 91.4507 62.1257 92.3841 61.5601C93.5628 60.654 93.1949 58.7599 93.0177 57.4653H93.0245Z" fill="#2B2C2C"/>
</g>
<g opacity="0.13">
<path d="M91.2666 73.2858C91.0622 71.3576 90.5853 69.4771 90.0062 67.6307C89.7881 66.888 89.5497 66.1454 89.2976 65.4164C89.2226 65.1302 89.025 64.8781 88.7661 64.7282C87.9212 64.1968 86.7766 65.0757 87.0696 66.0296C88.6775 70.7989 89.1954 74.2669 88.7797 79.3837C88.6298 81.0871 88.5004 81.5981 88.3778 82.7155C88.3573 82.879 88.3437 83.0425 88.3233 83.206C88.3097 83.2674 88.3028 83.3219 88.3028 83.3832C88.3028 83.39 88.3028 83.4036 88.3028 83.4104C88.3028 83.4036 88.3028 83.39 88.3028 83.3832C88.3028 83.4513 88.3029 83.5195 88.3233 83.5808C88.3301 83.7511 88.3778 83.901 88.4732 84.0509C88.8615 84.7527 89.8904 84.8753 90.4422 84.303C90.7216 84.0441 90.7897 83.683 90.8374 83.3219C90.96 82.6882 91.0554 82.0478 91.1508 81.4073C91.6141 78.7297 91.58 75.9839 91.2598 73.2858H91.2666Z" fill="#2B2C2C"/>
</g>
<g opacity="0.13">
<path d="M97.317 44.3428C97.1875 43.1709 96.9627 42.0126 96.5675 40.8952C96.4176 40.466 96.329 39.955 95.8862 39.7233C95.0754 39.2123 93.9784 40.0572 94.2646 40.9702C95.0141 43.314 95.1299 45.3989 94.7892 47.2248C94.3532 49.4187 93.9171 49.5959 93.7468 50.4407C93.5696 51.272 94.4758 52.0214 95.2661 51.7762C95.9543 51.5922 96.1791 50.8632 96.4585 50.284C97.2556 48.4308 97.5554 46.3391 97.317 44.336V44.3428Z" fill="#2B2C2C"/>
</g>
</svg>
