<svg width="166" height="60" viewBox="0 0 166 60" fill="none" xmlns="http://www.w3.org/2000/svg">
<g filter="url(#filter0_d_1_1361)">
<path d="M16.5337 47.6326C16.1843 47.6326 15.8624 47.6326 15.513 47.6208C14.8848 47.609 14.1428 47.5737 13.4126 47.4362C12.7295 47.3184 12.1132 47.1103 11.5439 46.8198C10.9629 46.5292 10.429 46.1366 9.97753 45.6811C9.51428 45.2178 9.12955 44.6956 8.83119 44.1027C8.54067 43.5333 8.34438 42.9326 8.21483 42.2336C8.07743 41.4798 8.04209 40.7141 8.03032 40.133C8.01854 39.8895 8.01854 39.1003 8.01854 39.1003V12.5258C8.01854 12.5258 8.03032 11.7484 8.03032 11.5167C8.04209 10.9238 8.07743 10.1582 8.21483 9.41605C8.34046 8.72106 8.54067 8.11638 8.83119 7.53526C9.13348 6.95413 9.51428 6.42013 9.96968 5.96858C10.4329 5.50526 10.9668 5.10868 11.5479 4.82205C12.1289 4.51971 12.7413 4.32339 13.4166 4.20559C14.1703 4.06817 14.9359 4.03283 15.5287 4.02105L16.5376 4.00927H149.455L150.487 4.02105C151.068 4.03283 151.834 4.06817 152.576 4.20559C153.259 4.32339 153.875 4.51971 154.456 4.82205C155.037 5.11261 155.571 5.50526 156.022 5.96858C156.486 6.42013 156.87 6.95413 157.181 7.54703C157.471 8.11637 157.667 8.72891 157.773 9.40426C157.911 10.111 157.946 10.8414 157.97 11.5285C157.981 11.8426 157.981 12.1881 157.981 12.5258C157.981 12.942 157.981 13.3504 157.981 13.7548V37.8831C157.981 38.2875 157.981 38.6959 157.981 39.1003C157.981 39.4615 157.981 39.7953 157.97 40.1448C157.946 40.8044 157.911 41.5387 157.785 42.2219C157.667 42.9168 157.471 43.5215 157.169 44.1027C156.867 44.6956 156.486 45.2178 156.03 45.6693C155.567 46.1326 155.033 46.5174 154.452 46.8159C153.871 47.1182 153.27 47.3027 152.572 47.4323C151.853 47.5697 151.111 47.6051 150.471 47.6169C150.145 47.6286 149.8 47.6286 149.462 47.6286H148.245H16.5337V47.6326Z" fill="white"/>
<path d="M58.7835 31.9507L56.2552 25.1186L53.7388 31.9507H58.7835ZM49.97 37.0198L55.211 23.285H57.3113L62.5523 37.0198H60.6168L59.3645 33.4938H53.1813L51.929 37.0198H49.97ZM66.113 35.4767V40.9385H64.421V26.7167H66.113V28.2716C66.4702 27.6591 66.9178 27.2075 67.4596 26.913C68.0092 26.6107 68.6569 26.4615 69.4068 26.4615C70.6591 26.4615 71.6759 26.9602 72.4571 27.9575C73.2462 28.947 73.6388 30.2545 73.6388 31.8801C73.6388 33.4978 73.2462 34.8014 72.4571 35.8026C71.6759 36.7921 70.6591 37.2868 69.4068 37.2868C68.6569 37.2868 68.0092 37.1415 67.4596 36.8471C66.9178 36.5447 66.4702 36.0853 66.113 35.4767ZM71.8761 31.8801C71.8761 30.6354 71.617 29.6577 71.0988 28.947C70.5963 28.2363 69.8975 27.879 68.9985 27.879C68.1034 27.879 67.3928 28.2363 66.8746 28.947C66.3642 29.6577 66.1091 30.6354 66.1091 31.8801C66.1091 33.1248 66.3642 34.1024 66.8746 34.8131C67.3928 35.516 68.0995 35.8694 68.9985 35.8694C69.8936 35.8694 70.5963 35.516 71.0988 34.8131C71.617 34.1024 71.8761 33.1248 71.8761 31.8801ZM78.0829 35.4767V40.9385H76.379V26.7167H78.0829V28.2716C78.4401 27.6591 78.8837 27.2075 79.4176 26.913C79.9673 26.6107 80.6189 26.4615 81.3766 26.4615C82.6211 26.4615 83.634 26.9602 84.4152 27.9575C85.2043 28.947 85.5969 30.2545 85.5969 31.8801C85.5969 33.4978 85.2043 34.8014 84.4152 35.8026C83.634 36.7921 82.6211 37.2868 81.3766 37.2868C80.6189 37.2868 79.9673 37.1415 79.4176 36.8471C78.8837 36.5447 78.4362 36.0853 78.0829 35.4767ZM83.8342 31.8801C83.8342 30.6354 83.5751 29.6577 83.0569 28.947C82.5544 28.2363 81.8556 27.879 80.9566 27.879C80.0615 27.879 79.3509 28.2363 78.8327 28.947C78.3302 29.6577 78.0789 30.6354 78.0789 31.8801C78.0789 33.1248 78.3302 34.1024 78.8327 34.8131C79.3509 35.516 80.0575 35.8694 80.9566 35.8694C81.8517 35.8694 82.5544 35.516 83.0569 34.8131C83.5751 34.1024 83.8342 33.1248 83.8342 31.8801ZM97.7748 35.0605V31.3735H94.748V29.8422H99.62V35.7476C98.9015 36.2581 98.1085 36.6429 97.2409 36.906C96.3812 37.1612 95.4625 37.2868 94.4811 37.2868C92.3297 37.2868 90.6494 36.6586 89.4364 35.406C88.2311 34.1535 87.6266 32.4062 87.6266 30.1642C87.6266 27.9222 88.2311 26.1749 89.4364 24.9223C90.6494 23.6619 92.3336 23.0297 94.4811 23.0297C95.3762 23.0297 96.2241 23.1436 97.0211 23.3674C97.8337 23.5834 98.5796 23.9093 99.2588 24.3412V26.3241C98.5718 25.7351 97.8416 25.2953 97.0682 25.0008C96.2948 24.7064 95.4821 24.5611 94.6342 24.5611C92.9578 24.5611 91.6937 25.0283 90.8418 25.9628C90.0056 26.9052 89.5895 28.3069 89.5895 30.1602C89.5895 32.0136 90.0056 33.4114 90.8418 34.3459C91.6937 35.2804 92.9578 35.7476 94.6342 35.7476C95.2898 35.7476 95.8787 35.6927 96.3969 35.5867C96.9072 35.4767 97.3665 35.3 97.7748 35.0605ZM109.246 31.8329H107.566C106.196 31.8329 105.25 31.99 104.724 32.308C104.197 32.6182 103.934 33.1522 103.934 33.91C103.934 34.5147 104.131 34.9938 104.527 35.3471C104.92 35.6966 105.458 35.8694 106.141 35.8694C107.083 35.8694 107.837 35.5356 108.402 34.872C108.967 34.2085 109.25 33.3211 109.25 32.2138V31.8329H109.246ZM110.938 31.1379V37.0198H109.246V35.4532C108.861 36.0814 108.379 36.5447 107.809 36.8471C107.228 37.1415 106.522 37.2868 105.685 37.2868C104.633 37.2868 103.793 36.9923 103.169 36.4034C102.549 35.8065 102.242 35.0095 102.242 34.0121C102.242 32.8617 102.627 31.9861 103.401 31.3892C104.182 30.8003 105.34 30.5058 106.879 30.5058H109.246V30.3448C109.246 29.5634 108.991 28.9587 108.481 28.5347C107.97 28.1106 107.252 27.8986 106.325 27.8986C105.736 27.8986 105.167 27.9693 104.61 28.1067C104.052 28.2441 103.514 28.4601 102.996 28.7428V27.1761C103.616 26.9366 104.217 26.7599 104.806 26.6421C105.387 26.5165 105.948 26.4576 106.498 26.4576C107.99 26.4576 109.105 26.8424 109.839 27.6159C110.573 28.3973 110.938 29.5674 110.938 31.1379ZM114.428 37.0198V22.7078H116.12V37.0198H114.428ZM119.661 37.0198V22.7078H121.353V37.0198H119.661ZM133.657 31.4403V32.2766H125.876C125.947 33.4349 126.292 34.3263 126.92 34.9427C127.552 35.5474 128.432 35.8458 129.554 35.8458C130.202 35.8458 130.83 35.7673 131.435 35.6141C132.055 35.4532 132.66 35.2136 133.257 34.8956V36.4976C132.652 36.7528 132.032 36.9492 131.388 37.0905C130.756 37.2201 130.108 37.2868 129.452 37.2868C127.811 37.2868 126.512 36.8078 125.542 35.8497C124.584 34.8995 124.105 33.6077 124.105 31.9743C124.105 30.282 124.561 28.943 125.476 27.9614C126.386 26.9641 127.619 26.4654 129.162 26.4654C130.548 26.4654 131.639 26.913 132.444 27.8122C133.253 28.6996 133.657 29.909 133.657 31.4403ZM125.923 30.9534H131.965C131.949 30.0267 131.686 29.2846 131.176 28.7271C130.673 28.1774 130.006 27.9025 129.17 27.9025C128.228 27.9025 127.47 28.1695 126.897 28.7035C126.331 29.2375 126.009 29.9875 125.923 30.9534ZM142.333 26.5557L142.345 28.2952C142.152 28.1852 141.944 28.1067 141.717 28.0517C141.489 27.9968 141.25 27.9693 140.986 27.9693C140.029 27.9693 139.291 28.2834 138.772 28.9077C138.262 29.5281 138.007 30.4194 138.007 31.5856V37.0159H136.315V26.7167H138.007V28.3187C138.364 27.6905 138.827 27.2272 139.4 26.9248C139.974 26.6146 140.665 26.4615 141.477 26.4615C141.595 26.4615 141.725 26.4733 141.87 26.4968C142.007 26.5047 142.164 26.5243 142.333 26.5557ZM152.933 26.7167L148.41 37.97C147.931 39.199 147.464 40.004 147.009 40.3809C146.553 40.7539 145.945 40.9385 145.187 40.9385H143.829V39.5249H144.826C145.289 39.5249 145.654 39.4111 145.917 39.1872C146.173 38.9713 146.455 38.4491 146.765 37.6206L147.079 36.8549L142.902 26.7167H144.7L147.923 34.766L151.135 26.7167H152.933Z" fill="#010202"/>
<path d="M49.8636 18.4588V11.3715H54.339V12.1725H50.8136V14.2732H54.1898V15.086H50.8136V17.65H54.4332V18.4627H49.8636V18.4588ZM57.8683 14.6776L55.666 11.3715H56.6984L58.4611 14.0062L60.2238 11.3715H61.2563L58.9833 14.7718L61.4055 18.4588H60.373L58.3905 15.4433L56.3726 18.4588H55.3401L57.8683 14.6776ZM64.8249 12.1607H63.6197V14.819H64.8249C65.2725 14.819 65.6219 14.7051 65.8692 14.4813C66.1087 14.2496 66.2304 13.9159 66.2304 13.4839C66.2304 13.0677 66.1087 12.7418 65.8692 12.5102C65.6219 12.2785 65.2725 12.1607 64.8249 12.1607ZM62.6696 18.4588V11.3715H64.8249C65.6219 11.3715 66.2225 11.5482 66.6347 11.9055C67.0352 12.2707 67.2393 12.7929 67.2393 13.4839C67.2393 14.1868 67.0391 14.7169 66.6347 15.0742C66.2264 15.4315 65.6219 15.6082 64.8249 15.6082H63.6197V18.4627H62.6696V18.4588ZM68.527 18.4588V11.3715H69.4888V17.646H72.9435V18.4588H68.527ZM76.4807 12.0233C75.7858 12.0233 75.2284 12.2824 74.8122 12.8007C74.4118 13.319 74.2077 14.0258 74.2077 14.925C74.2077 15.8124 74.4079 16.523 74.8122 17.0492C75.2284 17.5675 75.7858 17.8266 76.4807 17.8266C77.1756 17.8266 77.7252 17.5675 78.1256 17.0492C78.5339 16.523 78.742 15.8163 78.742 14.925C78.742 14.0297 78.5379 13.319 78.1256 12.8007C77.7252 12.2785 77.1756 12.0233 76.4807 12.0233ZM76.4807 11.2458C77.47 11.2458 78.263 11.5796 78.8598 12.2432C79.4565 12.9068 79.7509 13.802 79.7509 14.921C79.7509 16.044 79.4526 16.9353 78.8598 17.5989C78.263 18.2625 77.47 18.5962 76.4807 18.5962C75.4836 18.5962 74.6827 18.2625 74.0781 17.5989C73.4814 16.9353 73.187 16.0401 73.187 14.921C73.187 13.7981 73.4853 12.9068 74.0781 12.2432C74.6827 11.5757 75.4836 11.2458 76.4807 11.2458ZM84.6111 15.1291C84.8192 15.1998 85.0194 15.349 85.2157 15.5807C85.4081 15.8045 85.6044 16.1186 85.8085 16.5191L86.7821 18.4549H85.7496L84.8467 16.633C84.6072 16.1618 84.3795 15.8477 84.1636 15.6946C83.9398 15.5414 83.6375 15.4629 83.2606 15.4629H82.2164V18.4549H81.2545V11.3715H83.4216C84.2342 11.3715 84.8388 11.5403 85.2432 11.8819C85.6358 12.2157 85.836 12.7261 85.836 13.4133C85.836 13.8609 85.73 14.2339 85.5219 14.5284C85.306 14.819 85.0076 15.0231 84.6111 15.1291ZM83.4177 12.1607H82.2124V14.6776H83.4177C83.8809 14.6776 84.2303 14.5677 84.4619 14.3517C84.7014 14.1357 84.8231 13.8216 84.8231 13.4133C84.8231 12.9971 84.7014 12.6829 84.4619 12.4748C84.2303 12.2667 83.8809 12.1607 83.4177 12.1607ZM88.0109 18.4588V11.3715H92.4863V12.1725H88.9727V14.2732H92.3489V15.086H88.9727V17.65H92.5806V18.4627H88.0109V18.4588ZM97.2405 18.4588V11.3715H98.2024V18.4588H97.2405ZM99.1328 12.1725V11.3715H105.128V12.1725H102.611V18.4588H101.649V12.1725H99.1328ZM112.017 12.0233C111.322 12.0233 110.769 12.2824 110.361 12.8007C109.952 13.319 109.744 14.0258 109.744 14.925C109.744 15.8124 109.948 16.523 110.361 17.0492C110.769 17.5675 111.322 17.8266 112.017 17.8266C112.712 17.8266 113.266 17.5675 113.674 17.0492C114.074 16.523 114.279 15.8163 114.279 14.925C114.279 14.0297 114.078 13.319 113.674 12.8007C113.266 12.2785 112.712 12.0233 112.017 12.0233ZM112.017 11.2458C113.015 11.2458 113.811 11.5796 114.408 12.2432C115.005 12.9068 115.299 13.802 115.299 14.921C115.299 16.044 115.001 16.9353 114.408 17.5989C113.815 18.2625 113.015 18.5962 112.017 18.5962C111.02 18.5962 110.223 18.2625 109.627 17.5989C109.03 16.9353 108.735 16.0401 108.735 14.921C108.735 13.7981 109.034 12.9068 109.627 12.2432C110.223 11.5757 111.02 11.2458 112.017 11.2458ZM116.795 18.4588V11.3715H118.083L121.227 17.3005V11.3715H122.166V18.4588H120.866L117.722 12.5298V18.4588H116.795Z" fill="#010202"/>
<path d="M37.7332 11.394H25.1156C19.164 11.394 16.9852 13.5614 16.9852 19.514V32.1337C16.9852 38.0863 19.164 40.2655 25.1156 40.2655H37.7332C43.673 40.2655 45.8518 38.0863 45.8518 32.1337V19.514C45.8518 13.5614 43.6848 11.394 37.7332 11.394Z" fill="#010202"/>
<path fill-rule="evenodd" clip-rule="evenodd" d="M29.3045 28.8162L28.9551 29.5936H28.1777L29.8344 25.8242H30.5058L32.1625 29.5936H31.3616L31.024 28.8162H29.3045ZM29.5793 28.133H30.7374L30.1564 26.7862L29.5793 28.133ZM41.875 25.8242H42.6405V29.5936H41.875V25.8242ZM38.8717 28.9104H40.972V29.5936H38.118V25.8242H40.8896V26.5192H38.8717V27.2848H40.2654V27.9798H38.8717V28.9104ZM36.7007 25.8242H37.5016L36.1904 29.6054H35.5426L34.6828 27.1239L33.8231 29.6054H33.195L31.872 25.8242H32.6964L33.5326 28.4235L34.3806 25.8242H35.0087L35.8685 28.4235L36.7007 25.8242ZM27.0196 25.8242H27.7852V27.9602C27.7852 29.04 27.1924 29.6643 26.1481 29.6643C25.1274 29.6643 24.5346 29.0478 24.5346 27.9838V25.8281H25.3001V27.9641C25.3001 28.6002 25.6024 28.9379 26.1599 28.9379C26.7173 28.9379 27.0196 28.6002 27.0196 27.9877V25.8242ZM22.7051 25.8242H23.4707V29.6054H22.7051V28.0623H20.9778V29.6054H20.2122V25.8242H20.9778V27.3437H22.7051V25.8242ZM31.4244 21.0221C28.7666 21.0221 26.6231 18.8664 26.6231 16.22H27.2944C27.2944 18.4934 29.1514 20.3389 31.4244 20.3389C33.6975 20.3389 35.5544 18.4934 35.5544 16.22H36.2257C36.2257 18.8625 34.0704 21.0221 31.4244 21.0221Z" fill="white"/>
</g>
<defs>
<filter id="filter0_d_1_1361" x="0" y="0" width="166" height="59.6604" filterUnits="userSpaceOnUse" color-interpolation-filters="sRGB">
<feFlood flood-opacity="0" result="BackgroundImageFix"/>
<feColorMatrix in="SourceAlpha" type="matrix" values="0 0 0 0 0 0 0 0 0 0 0 0 0 0 0 0 0 0 127 0" result="hardAlpha"/>
<feOffset dy="4"/>
<feGaussianBlur stdDeviation="4"/>
<feComposite in2="hardAlpha" operator="out"/>
<feColorMatrix type="matrix" values="0 0 0 0 0.575167 0 0 0 0 0.575167 0 0 0 0 0.575167 0 0 0 0.15 0"/>
<feBlend mode="normal" in2="BackgroundImageFix" result="effect1_dropShadow_1_1361"/>
<feBlend mode="normal" in="SourceGraphic" in2="effect1_dropShadow_1_1361" result="shape"/>
</filter>
</defs>
</svg>
