<svg width="129" height="122" viewBox="0 0 129 122" fill="none" xmlns="http://www.w3.org/2000/svg">
<g opacity="0.3">
<path d="M24.7284 78.4121C24.7284 78.4121 24.6984 78.4121 24.6784 78.4121C24.1984 78.3821 23.8384 77.9721 23.8684 77.5021C24.9884 57.7121 25.4384 37.6321 25.1984 17.8021C25.1984 17.3221 25.5784 16.9321 26.0484 16.9321H26.0584C26.5284 16.9321 26.9184 17.3121 26.9184 17.7821C27.1584 37.6421 26.7084 57.7721 25.5884 77.6021C25.5584 78.0621 25.1784 78.4221 24.7284 78.4221V78.4121Z" fill="#2B2C2C"/>
<path d="M25.6382 58.9919C27.9482 52.7219 30.4182 46.2119 35.5182 41.5119C40.7982 36.6419 45.3982 36.0319 51.5982 32.1719C51.1982 38.9719 47.4482 46.1719 41.9982 50.8119C36.5482 55.4519 32.2782 56.0519 25.6382 58.9919Z" fill="#0E4C9A"/>
<path d="M25.6383 59.862C25.4183 59.862 25.2083 59.782 25.0483 59.632C24.7983 59.392 24.7083 59.0319 24.8283 58.7019C27.0583 52.6619 29.5783 45.822 34.9283 40.882C38.2583 37.812 41.3383 36.372 44.5983 34.862C46.6483 33.902 48.7783 32.912 51.1383 31.442C51.4083 31.272 51.7583 31.272 52.0383 31.442C52.3183 31.602 52.4783 31.9119 52.4583 32.2319C52.0483 39.2619 48.2483 46.632 42.5583 51.472C38.5483 54.882 35.1183 56.1919 31.1483 57.7019C29.5383 58.3219 27.8683 58.952 25.9883 59.7819C25.8783 59.8319 25.7583 59.8519 25.6383 59.8519V59.862ZM50.5683 33.7919C48.7083 34.8519 46.9983 35.6519 45.3283 36.4219C42.0583 37.9419 39.2283 39.2619 36.0983 42.1519C31.5883 46.3119 29.1483 52.062 27.1483 57.412C28.3383 56.922 29.4483 56.502 30.5283 56.082C34.5083 54.562 37.6583 53.3619 41.4383 50.1519C46.3383 45.9919 49.7383 39.8419 50.5683 33.7919Z" fill="#2B2C2C"/>
<path d="M25.4584 54.4319C21.7884 53.4819 16.6684 53.7019 13.4284 51.8019C5.98841 47.4319 4.3984 40.5819 0.858398 32.9219C5.1984 34.1919 9.61837 35.5019 13.3284 38.0219C19.5384 42.2419 21.9784 46.7019 25.4584 54.4419V54.4319Z" fill="#0E4C9A"/>
<path d="M25.4584 55.2919C25.3884 55.2919 25.3084 55.2919 25.2384 55.2619C23.9484 54.9319 22.4784 54.7419 20.9084 54.5519C18.0984 54.2019 15.1984 53.8419 12.9884 52.5419C6.69843 48.8519 4.47841 43.5919 1.90841 37.4919C1.32841 36.1219 0.738397 34.7119 0.0783973 33.2819C-0.0616027 32.9719 -0.0115978 32.6119 0.208402 32.3519C0.428402 32.0919 0.778427 31.9919 1.10843 32.0819C5.45843 33.3619 9.96839 34.6819 13.8184 37.2919C20.3884 41.7519 22.8984 46.6019 26.2484 54.0719C26.3884 54.3719 26.3384 54.7319 26.1184 54.9819C25.9484 55.1819 25.7084 55.2919 25.4584 55.2919ZM2.41842 34.2719C2.79842 35.1319 3.14844 35.9819 3.49844 36.8119C5.94844 42.6219 8.06843 47.6519 13.8584 51.0419C15.7684 52.1619 18.4884 52.5019 21.1184 52.8319C22.0984 52.9519 23.0484 53.0719 23.9584 53.2319C20.8084 46.3719 18.4184 42.5119 12.8384 38.7319C9.71841 36.6119 6.05841 35.3719 2.40841 34.2819L2.41842 34.2719Z" fill="#2B2C2C"/>
<path d="M25.9682 0.921929C22.0082 0.651929 17.9082 1.36192 15.0482 4.35192C12.1882 7.34192 10.7082 11.8119 10.9882 16.1419C11.6882 26.8519 23.2882 27.9619 26.5482 27.7419C30.8682 27.4519 34.9782 24.4819 36.8482 20.1719C38.7082 15.8619 39.1482 10.1519 36.4082 6.46192C34.1582 3.43192 31.3782 1.28193 25.9682 0.911934V0.921929Z" fill="white"/>
<path d="M25.7383 28.632C22.8683 28.632 17.7283 27.842 14.1383 24.702C11.6983 22.572 10.3483 19.712 10.1183 16.202C9.8183 11.532 11.4183 6.88204 14.4183 3.75204C17.0983 0.962043 20.9983 -0.277954 26.0283 0.0520456C32.2383 0.472046 35.1083 3.27205 37.0983 5.94205C40.2883 10.242 39.3783 16.472 37.6283 20.512C35.6383 25.102 31.3083 28.282 26.5983 28.602C26.3383 28.622 26.0483 28.632 25.7283 28.632H25.7383ZM24.4583 1.73204C20.6783 1.73204 17.7283 2.81204 15.6783 4.95204C13.0083 7.73204 11.5783 11.902 11.8583 16.092C12.0583 19.122 13.2083 21.582 15.2883 23.402C18.9783 26.632 24.6383 27.002 26.4983 26.882C30.5083 26.612 34.3583 23.782 36.0583 19.832C37.7483 15.932 38.2983 10.452 35.7183 6.98204C33.8783 4.50204 31.4183 2.15204 25.9183 1.78204C25.4183 1.75204 24.9383 1.73204 24.4583 1.73204Z" fill="#2B2C2C"/>
<path d="M24.5983 21.402C22.3683 21.402 20.1383 20.482 18.6883 18.772C18.3783 18.412 18.4283 17.862 18.7883 17.552C19.1483 17.242 19.6982 17.292 20.0082 17.652C21.8082 19.782 25.3282 20.312 27.6982 18.802C28.1682 18.502 28.7682 18.012 28.8982 17.382C28.9582 17.082 28.9183 16.702 28.7783 16.302C28.4083 15.272 27.5182 14.432 26.4582 14.112C25.9382 13.952 25.3582 13.902 24.7582 13.852C24.2082 13.802 23.6283 13.752 23.0483 13.622C21.5983 13.282 20.0583 12.152 20.1283 10.472C20.1583 9.78201 20.4583 9.102 21.0483 8.452C22.9583 6.332 26.5783 5.982 29.2883 7.652C29.6983 7.902 29.8182 8.432 29.5682 8.842C29.3182 9.252 28.7883 9.372 28.3783 9.122C26.3883 7.902 23.6782 8.11201 22.3282 9.61201C22.1182 9.84201 21.8683 10.192 21.8583 10.532C21.8383 11.172 22.6482 11.742 23.4482 11.932C23.9082 12.042 24.3883 12.082 24.9083 12.122C25.5783 12.182 26.2783 12.242 26.9683 12.452C28.5483 12.932 29.8683 14.182 30.4183 15.712C30.6783 16.432 30.7383 17.112 30.6083 17.742C30.4083 18.702 29.7282 19.572 28.6482 20.262C27.4382 21.032 26.0283 21.402 24.6183 21.402H24.5983Z" fill="#2B2C2C"/>
<path d="M24.9185 24.022C24.5185 24.022 24.1484 23.742 24.0684 23.322C22.8284 17.042 23.8285 10.432 24.7185 4.60196C24.7885 4.13196 25.2384 3.81197 25.7084 3.87197C26.1784 3.94197 26.5085 4.38197 26.4385 4.86197C25.5285 10.832 24.5885 17.002 25.7785 22.992C25.8685 23.462 25.5685 23.912 25.0985 24.012C25.0385 24.022 24.9885 24.032 24.9285 24.032L24.9185 24.022Z" fill="#2B2C2C"/>
<path d="M106.358 107.562C92.2085 110.992 77.7884 113.382 63.3184 113.092C48.8484 112.802 34.2885 109.772 21.2185 102.772C14.3685 99.1022 7.87847 94.2822 3.04847 87.7122C2.08847 86.4122 1.16847 84.9722 0.918468 83.3122C0.668468 81.6422 1.28847 79.7022 2.66847 79.0422C3.71847 78.5422 4.91845 78.8722 6.02845 79.2122C23.4485 84.6122 41.4485 91.4822 59.1885 87.5922C60.4485 87.3122 62.0385 86.3922 61.6885 85.0022C61.5385 84.4122 61.0485 84.0122 60.5885 83.6722C55.1485 79.6722 48.9284 76.9422 44.0684 72.0922C43.1684 71.1922 42.2585 70.0822 42.1885 68.7322C42.0685 66.1622 44.8885 64.7522 47.1685 64.7522C51.9685 64.7522 56.3384 67.5622 60.8184 69.5022C68.0484 72.6422 75.8685 73.5622 83.4285 75.5222C90.9885 77.4722 98.6685 80.7222 105.438 86.6122C107.448 88.7022 109.268 90.9622 110.898 93.3522C112.828 96.1922 114.508 99.8422 113.038 102.942C112.108 104.902 110.298 106.612 106.368 107.562H106.358Z" fill="white"/>
<path d="M65.7483 113.982C64.9283 113.982 64.1183 113.982 63.3083 113.962C47.4383 113.642 33.1383 110.142 20.8183 103.542C12.8283 99.2621 6.78831 94.2621 2.35831 88.2321C1.33832 86.8421 0.348276 85.3021 0.0682759 83.4421C-0.221724 81.5321 0.458327 79.1421 2.30833 78.2621C3.71833 77.5921 5.26831 78.0721 6.28831 78.3921C8.14831 78.9721 10.0283 79.5621 11.8983 80.1621C27.3783 85.0921 43.3883 90.1821 58.9983 86.7521C59.7683 86.5821 60.4983 86.1621 60.7583 85.7421C60.8683 85.5721 60.8883 85.4121 60.8383 85.2221C60.7583 84.9121 60.4183 84.6321 60.0683 84.3821C58.0783 82.9121 55.9283 81.5921 53.8483 80.3121C50.2783 78.1121 46.5783 75.8321 43.4583 72.7121C42.5083 71.7621 41.4083 70.4621 41.3283 68.7821C41.2783 67.6521 41.6683 66.6121 42.4783 65.7621C43.5783 64.6121 45.3783 63.8921 47.1783 63.8921C51.0483 63.8921 54.6183 65.6121 58.0783 67.2721C59.0883 67.7621 60.1383 68.2621 61.1683 68.7121C66.0383 70.8221 71.2983 71.9421 76.3883 73.0321C78.7683 73.5421 81.2383 74.0621 83.6483 74.6921C92.6483 77.0121 99.9583 80.7021 106.008 85.9721C106.028 85.9921 106.048 86.0021 106.068 86.0221C108.098 88.1421 109.968 90.4421 111.618 92.8821C114.418 97.0021 115.158 100.512 113.818 103.322C112.598 105.892 110.298 107.512 106.568 108.412C90.9483 112.202 77.8883 113.992 65.7483 113.992V113.982ZM3.88828 79.6521C3.58828 79.6521 3.30832 79.7021 3.04832 79.8221C2.11832 80.2621 1.5683 81.7321 1.7783 83.1821C1.9983 84.6721 2.85833 85.9921 3.74833 87.2021C8.02833 93.0121 13.8783 97.8621 21.6383 102.012C33.7183 108.482 47.7583 111.912 63.3483 112.222C76.0283 112.472 89.6383 110.722 106.168 106.722C110.348 105.712 111.648 103.862 112.268 102.572C113.318 100.352 112.628 97.4121 110.198 93.8421C108.608 91.5021 106.808 89.2821 104.858 87.2421C99.0183 82.1721 91.9483 78.6121 83.2283 76.3621C80.8583 75.7521 78.4083 75.2321 76.0383 74.7221C70.8683 73.6221 65.5183 72.4821 60.4883 70.3021C59.4283 69.8421 58.3683 69.3321 57.3383 68.8421C53.9083 67.1921 50.6683 65.6321 47.1983 65.6321C45.8983 65.6321 44.5083 66.1721 43.7583 66.9621C43.2783 67.4621 43.0483 68.0521 43.0783 68.7021C43.1283 69.7921 43.9283 70.7221 44.6983 71.4921C47.6783 74.4721 51.2883 76.6921 54.7783 78.8421C56.8883 80.1421 59.0683 81.4821 61.1183 82.9921C61.5283 83.2921 62.2983 83.8621 62.5383 84.8021C62.6983 85.4421 62.5983 86.0821 62.2483 86.6521C61.6383 87.6421 60.3683 88.2321 59.3883 88.4421C43.3183 91.9721 27.0883 86.8021 11.3883 81.8121C9.51828 81.2121 7.64831 80.6221 5.78831 80.0421C5.09831 79.8321 4.46829 79.6521 3.89829 79.6521H3.88828Z" fill="#2B2C2C"/>
<path d="M126.298 119.252C118.048 120.892 109.438 120.992 101.148 119.552C103.488 106.062 103.778 92.592 102.358 79.052C107.848 79.702 113.418 79.652 118.958 79.602C121.628 79.582 124.288 79.552 126.768 79.662C128.178 92.782 128.628 105.992 126.298 119.252Z" fill="white"/>
<path d="M112.908 121.412C108.908 121.412 104.908 121.072 101.008 120.392C100.778 120.352 100.578 120.222 100.448 120.042C100.318 119.852 100.268 119.622 100.308 119.392C102.588 106.282 102.978 93.1119 101.508 79.1319C101.478 78.8719 101.578 78.6119 101.758 78.4219C101.948 78.2319 102.208 78.1519 102.468 78.1819C107.918 78.8319 113.528 78.7819 118.958 78.7319C121.618 78.7119 124.318 78.6819 126.808 78.7919C127.238 78.8119 127.588 79.1419 127.628 79.5619C129.338 95.5019 129.188 107.782 127.148 119.392C127.088 119.742 126.818 120.022 126.468 120.092C122.038 120.972 117.468 121.412 112.908 121.412ZM102.148 118.832C109.848 120.062 117.908 119.952 125.548 118.502C127.428 107.412 127.568 95.6319 125.988 80.4819C123.748 80.4119 121.338 80.4319 119.008 80.4519C113.848 80.5019 108.548 80.5419 103.338 80.0119C104.658 93.4519 104.278 106.172 102.158 118.822L102.148 118.832Z" fill="#2B2C2C"/>
<path d="M114.518 87.6122C113.028 87.3722 111.468 88.3922 111.018 89.8322C110.568 91.2722 111.228 92.9522 112.498 93.7622C113.768 94.5722 115.528 94.4822 116.748 93.6022C118.238 92.5322 118.748 90.1422 117.488 88.8122C116.648 87.9322 115.328 87.7422 114.508 87.6122H114.518Z" fill="white"/>
<path d="M114.478 95.182C113.618 95.182 112.758 94.952 112.038 94.492C110.428 93.472 109.638 91.352 110.198 89.572C110.778 87.722 112.778 86.462 114.658 86.752H114.728C115.618 86.902 117.118 87.142 118.128 88.212C118.838 88.962 119.168 89.992 119.058 91.1119C118.938 92.3919 118.268 93.582 117.268 94.302C116.458 94.882 115.468 95.182 114.488 95.182H114.478ZM114.078 88.442C113.118 88.442 112.138 89.142 111.838 90.092C111.508 91.132 112.008 92.422 112.958 93.032C113.908 93.642 115.288 93.582 116.238 92.902C116.828 92.482 117.248 91.732 117.318 90.952C117.348 90.592 117.338 89.922 116.858 89.412C116.248 88.772 115.158 88.602 114.448 88.482H114.378C114.278 88.452 114.178 88.452 114.078 88.452V88.442Z" fill="#2B2C2C"/>
<path d="M113.028 118.062C113.028 118.062 112.968 118.062 112.938 118.052C110.348 117.222 107.848 116.102 105.498 114.712C105.358 114.632 105.318 114.452 105.398 114.322C105.478 114.182 105.658 114.142 105.788 114.222C108.098 115.592 110.558 116.692 113.108 117.512C113.258 117.562 113.348 117.722 113.298 117.872C113.258 117.992 113.148 118.072 113.028 118.072V118.062Z" fill="#2B2C2C"/>
<path d="M122.718 118.062C122.718 118.062 122.648 118.062 122.618 118.042C116.998 115.872 111.508 113.252 106.288 110.262C106.148 110.182 106.098 110.002 106.178 109.872C106.258 109.732 106.428 109.682 106.568 109.762C111.768 112.742 117.238 115.352 122.818 117.502C122.968 117.562 123.038 117.722 122.988 117.872C122.948 117.982 122.838 118.052 122.718 118.052V118.062Z" fill="#2B2C2C"/>
<path d="M123.608 113.782C123.608 113.782 123.528 113.782 123.488 113.752C118.058 111.292 112.658 108.572 107.458 105.652C107.318 105.572 107.268 105.402 107.348 105.262C107.428 105.122 107.598 105.072 107.738 105.152C112.928 108.062 118.298 110.782 123.718 113.232C123.868 113.302 123.928 113.472 123.858 113.612C123.808 113.722 123.708 113.782 123.598 113.782H123.608Z" fill="#2B2C2C"/>
<path d="M123.678 109.702C123.678 109.702 123.588 109.692 123.538 109.672C117.768 106.562 111.888 103.492 106.068 100.532C105.928 100.462 105.869 100.282 105.939 100.142C106.009 100.002 106.178 99.942 106.328 100.012C112.158 102.972 118.038 106.042 123.808 109.152C123.948 109.232 123.998 109.402 123.928 109.542C123.878 109.642 123.778 109.692 123.678 109.692V109.702Z" fill="#2B2C2C"/>
<path d="M124.409 104.652C124.409 104.652 124.319 104.642 124.279 104.622L106.629 95.5923C106.489 95.5223 106.429 95.3423 106.499 95.2023C106.569 95.0623 106.749 95.0023 106.889 95.0723L124.538 104.102C124.678 104.172 124.738 104.352 124.668 104.492C124.618 104.592 124.519 104.652 124.409 104.652Z" fill="#2B2C2C"/>
<path d="M124.409 99.752C124.409 99.752 124.319 99.742 124.269 99.712C122.329 98.652 120.399 97.512 118.529 96.332C118.399 96.242 118.359 96.072 118.439 95.932C118.529 95.802 118.699 95.762 118.839 95.842C120.699 97.012 122.619 98.142 124.549 99.202C124.689 99.282 124.739 99.452 124.659 99.592C124.609 99.692 124.509 99.742 124.409 99.742V99.752Z" fill="#2B2C2C"/>
<path d="M124.618 94.7019C124.618 94.7019 124.538 94.7019 124.498 94.6719C123.248 94.0919 122.018 93.4419 120.848 92.7219C120.708 92.6419 120.668 92.4619 120.748 92.3219C120.828 92.1819 121.008 92.1419 121.148 92.2219C122.308 92.9219 123.518 93.5719 124.748 94.1419C124.888 94.2119 124.958 94.3819 124.888 94.5219C124.838 94.6319 124.738 94.6919 124.628 94.6919L124.618 94.7019Z" fill="#2B2C2C"/>
<path d="M124.998 88.8121C124.948 88.8121 124.888 88.8021 124.838 88.7621L114.578 82.2121C114.448 82.1221 114.408 81.9521 114.488 81.8121C114.578 81.6821 114.748 81.6421 114.888 81.7221L125.148 88.2721C125.278 88.3621 125.318 88.5321 125.238 88.6721C125.188 88.7621 125.088 88.8021 124.998 88.8021V88.8121Z" fill="#2B2C2C"/>
<path d="M108.418 89.852C108.368 89.852 108.308 89.842 108.268 89.812C107.458 89.302 106.658 88.752 105.878 88.172C105.748 88.082 105.728 87.902 105.818 87.772C105.918 87.642 106.098 87.622 106.218 87.712C106.978 88.282 107.778 88.822 108.568 89.322C108.698 89.412 108.738 89.582 108.658 89.722C108.598 89.812 108.508 89.852 108.418 89.852Z" fill="#2B2C2C"/>
<path d="M110.718 86.0119C110.658 86.0119 110.608 85.9918 110.558 85.9618L106.018 82.9318C105.888 82.8418 105.848 82.6618 105.938 82.5318C106.028 82.4018 106.208 82.3619 106.338 82.4519L110.878 85.4819C111.008 85.5719 111.048 85.7519 110.958 85.8819C110.898 85.9619 110.808 86.0119 110.718 86.0119Z" fill="#2B2C2C"/>
<g opacity="0.13">
<path d="M127.378 103.632C127.288 103.362 127.118 103.142 126.918 102.982C127.228 98.172 127.158 92.042 126.818 86.772C126.738 85.252 126.698 83.732 126.668 82.202C126.578 81.442 126.708 80.622 126.418 79.912C125.708 78.062 122.838 78.632 122.858 80.632C123.028 84.842 122.548 89.042 122.528 93.242C122.568 94.972 122.628 96.702 122.508 98.432C122.388 99.902 122.238 101.372 122.348 102.842C122.378 105.512 122.188 105.032 121.918 107.512C121.668 109.852 121.658 112.202 121.688 114.552C121.668 115.082 121.718 115.612 121.688 116.142C121.588 116.722 121.468 117.312 121.568 117.892C121.678 119.442 123.558 120.432 124.888 119.602C125.408 119.312 125.738 118.812 125.898 118.252C125.898 118.242 125.898 118.222 125.908 118.212C125.908 118.202 125.908 118.192 125.908 118.182C125.958 118.032 125.978 117.872 125.988 117.712C125.988 117.692 125.988 117.672 125.988 117.652C126.048 117.422 126.098 117.192 126.148 116.962C126.528 115.962 126.828 110.902 127.198 108.102C127.328 107.042 127.368 105.972 127.468 104.902C127.508 104.482 127.588 104.032 127.368 103.642L127.378 103.632Z" fill="#2B2C2C"/>
</g>
<g opacity="0.13">
<path d="M103.278 101.782C103.278 98.752 103.108 95.722 103.018 92.692C103.018 90.832 102.758 88.982 102.608 87.132C102.448 85.942 102.528 84.362 101.908 83.332C101.868 83.282 101.828 83.242 101.788 83.192C101.528 83.302 101.208 83.312 100.958 83.172C100.758 83.062 100.568 82.952 100.378 82.842C100.298 82.872 100.218 82.902 100.138 82.942C100.128 82.862 100.118 82.772 100.098 82.692C99.1484 82.152 98.1984 81.602 97.2684 81.032C96.9184 81.382 96.7284 81.902 96.8884 82.532C97.4184 86.282 97.8684 88.702 97.7684 93.012C97.6784 94.692 97.8785 96.372 97.9285 98.052C97.9585 99.662 97.9284 101.272 98.0084 102.882C98.0984 104.892 98.0685 107.812 98.3585 108.272C98.7785 109.512 100.568 109.822 101.438 108.882C101.438 108.872 101.448 108.862 101.458 108.852C101.698 108.822 101.928 108.762 102.138 108.632C102.538 108.362 102.858 108.012 102.978 107.542C103.158 107.032 103.188 106.482 103.178 105.942C103.058 104.552 103.248 103.182 103.268 101.792L103.278 101.782Z" fill="#2B2C2C"/>
</g>
<g opacity="0.13">
<path d="M37.6486 12.732C35.8686 12.342 35.8786 14.452 35.5086 15.622C35.0086 17.102 34.8887 17.412 33.8587 19.072C33.6887 19.552 31.0487 21.902 30.7887 22.022C30.9087 21.932 31.3287 21.602 30.9987 21.852C29.1687 23.002 28.2887 23.322 27.1687 23.692C24.5587 24.422 22.5987 24.092 20.7887 23.672C18.8487 23.262 18.4287 22.922 17.9187 22.732C17.4487 22.532 17.0486 22.102 16.5286 22.072C14.9986 21.792 14.2487 24.002 15.5987 24.752C16.6387 25.402 17.5987 26.182 18.6787 26.762C20.2287 27.612 21.9386 28.102 23.6986 28.282C26.9186 28.372 30.1487 27.262 32.6287 25.202C35.1587 22.992 36.5986 20.572 37.5186 18.252C38.0286 17.132 38.3587 15.942 38.5487 14.732C38.8087 13.942 38.5487 12.962 37.6587 12.732H37.6486Z" fill="#2B2C2C"/>
</g>
<g opacity="0.13">
<path d="M51.5784 33.802C51.3084 32.692 49.7384 32.3719 49.0784 33.3219C48.1884 34.9319 47.5584 36.6919 46.6184 38.2819C46.1284 39.1819 45.5984 40.0519 44.9684 40.8619C43.7284 42.4819 42.2584 43.8919 40.7784 45.2819C39.4784 46.7519 36.1084 49.7119 35.8284 49.8319C34.2084 51.1919 30.6484 53.032 28.6584 54.272C27.7384 54.902 26.5484 55.212 25.7984 56.052C24.6584 57.412 26.4184 59.4219 27.9384 58.4919C30.6584 56.9719 31.5784 56.6619 33.8384 55.3119C35.3784 54.5019 36.9284 53.6619 38.2784 52.5419C39.0784 51.9319 39.8084 51.2619 40.5084 50.5619C40.5384 50.6019 40.5684 50.642 40.6084 50.6919C41.6784 51.702 42.9185 51.0119 43.6285 49.9719C44.2785 49.2519 44.9184 48.5019 45.4384 47.6719C46.5684 45.6919 47.8984 43.8119 48.8284 41.7219C50.0184 38.8619 50.0684 39.1619 51.2184 35.8119C51.4584 34.9719 51.4484 35.0319 51.5184 34.7519C51.6084 34.4419 51.6784 34.112 51.5684 33.802H51.5784Z" fill="#2B2C2C"/>
</g>
</g>
</svg>
