<svg width="20" height="20" viewBox="0 0 20 20" fill="none" xmlns="http://www.w3.org/2000/svg">
<path d="M5.90717 1.36067C5.00763 0.79874 3.82782 0.891832 3.06847 1.65118L1.7817 2.93795C-0.172609 4.89227 1.66372 9.89718 5.88327 14.1167C10.1028 18.3363 15.1077 20.1726 17.0621 18.2183L18.3488 16.9315C19.2371 16.0432 19.2137 14.5795 18.2964 13.6622L16.3033 11.6691C15.386 10.7518 13.9222 10.7283 13.0339 11.6166L12.7575 11.893C12.2779 12.3726 11.5042 12.4196 10.9641 11.9739C10.4432 11.544 9.92435 11.0806 9.42188 10.5781C8.9194 10.0756 8.45597 9.55679 8.0261 9.03587C7.58045 8.49581 7.62737 7.72209 8.10699 7.24247L8.38337 6.96609C9.08368 6.26578 9.21731 5.20785 8.79308 4.34197" stroke="white" stroke-width="1.5" stroke-linecap="round"/>
</svg>
