<svg width="17" height="17" viewBox="0 0 17 17" fill="none" xmlns="http://www.w3.org/2000/svg">
<path d="M8.49995 1.53614C10.7529 1.53614 11.0602 1.53614 11.9819 1.53614C12.8011 1.53614 13.2108 1.74095 13.518 1.84336C13.9276 2.04818 14.2349 2.15059 14.5421 2.45782C14.8493 2.76504 15.0541 3.07227 15.1565 3.48191C15.2589 3.78913 15.3614 4.19877 15.4638 5.01804C15.4638 5.93972 15.4638 6.14454 15.4638 8.49995C15.4638 10.8554 15.4638 11.0602 15.4638 11.9819C15.4638 12.8011 15.2589 13.2108 15.1565 13.518C14.9517 13.9276 14.8493 14.2349 14.5421 14.5421C14.2349 14.8493 13.9276 15.0541 13.518 15.1565C13.2108 15.2589 12.8011 15.3614 11.9819 15.4638C11.0602 15.4638 10.8554 15.4638 8.49995 15.4638C6.14454 15.4638 5.93972 15.4638 5.01804 15.4638C4.19877 15.4638 3.78913 15.2589 3.48191 15.1565C3.07227 14.9517 2.76504 14.8493 2.45782 14.5421C2.15059 14.2349 1.94577 13.9276 1.84336 13.518C1.74095 13.2108 1.63854 12.8011 1.53614 11.9819C1.53614 11.0602 1.53614 10.8554 1.53614 8.49995C1.53614 6.14454 1.53614 5.93972 1.53614 5.01804C1.53614 4.19877 1.74095 3.78913 1.84336 3.48191C2.04818 3.07227 2.15059 2.76504 2.45782 2.45782C2.76504 2.15059 3.07227 1.94577 3.48191 1.84336C3.78913 1.74095 4.19877 1.63854 5.01804 1.53614C5.93972 1.53614 6.24695 1.53614 8.49995 1.53614ZM8.49995 0C6.14454 0 5.93972 0 5.01804 0C4.09636 0 3.48191 0.204819 2.96986 0.409637C2.45782 0.614455 1.94577 0.921682 1.43373 1.43373C0.921682 1.94577 0.716864 2.35541 0.409637 2.96986C0.204819 3.48191 0.102409 4.09636 0 5.01804C0 5.93972 0 6.24695 0 8.49995C0 10.8554 0 11.0602 0 11.9819C0 12.9035 0.204819 13.518 0.409637 14.03C0.614455 14.5421 0.921682 15.0541 1.43373 15.5662C1.94577 16.0782 2.35541 16.283 2.96986 16.5903C3.48191 16.7951 4.09636 16.8975 5.01804 16.9999C5.93972 16.9999 6.24695 16.9999 8.49995 16.9999C10.7529 16.9999 11.0602 16.9999 11.9819 16.9999C12.9035 16.9999 13.518 16.7951 14.03 16.5903C14.5421 16.3854 15.0541 16.0782 15.5662 15.5662C16.0782 15.0541 16.283 14.6445 16.5903 14.03C16.7951 13.518 16.8975 12.9035 16.9999 11.9819C16.9999 11.0602 16.9999 10.7529 16.9999 8.49995C16.9999 6.24695 16.9999 5.93972 16.9999 5.01804C16.9999 4.09636 16.7951 3.48191 16.5903 2.96986C16.3854 2.45782 16.0782 1.94577 15.5662 1.43373C15.0541 0.921682 14.6445 0.716864 14.03 0.409637C13.518 0.204819 12.9035 0.102409 11.9819 0C11.0602 0 10.8554 0 8.49995 0Z" fill="white"/>
<path d="M8.49995 4.09636C6.04213 4.09636 4.09636 6.04213 4.09636 8.49995C4.09636 10.9578 6.04213 12.9035 8.49995 12.9035C10.9578 12.9035 12.9035 10.9578 12.9035 8.49995C12.9035 6.04213 10.9578 4.09636 8.49995 4.09636ZM8.49995 11.3674C6.96381 11.3674 5.6325 10.1385 5.6325 8.49995C5.6325 6.96381 6.86141 5.6325 8.49995 5.6325C10.0361 5.6325 11.3674 6.86141 11.3674 8.49995C11.3674 10.0361 10.0361 11.3674 8.49995 11.3674Z" fill="white"/>
<path d="M13.0059 5.01804C13.5715 5.01804 14.03 4.55954 14.03 3.99395C14.03 3.42836 13.5715 2.96986 13.0059 2.96986C12.4404 2.96986 11.9819 3.42836 11.9819 3.99395C11.9819 4.55954 12.4404 5.01804 13.0059 5.01804Z" fill="white"/>
</svg>
