<svg width="164" height="60" viewBox="0 0 164 60" fill="none" xmlns="http://www.w3.org/2000/svg">
<g filter="url(#filter0_d_853_5466)">
<path d="M150.208 4H14.3869C11.3865 4 8.9541 6.43571 8.9541 9.4403V42.0821C8.9541 45.0867 11.3865 47.5224 14.3869 47.5224H150.208C153.208 47.5224 155.641 45.0867 155.641 42.0821V9.4403C155.641 6.43571 153.208 4 150.208 4Z" fill="white"/>
<path d="M60.4794 15.1415C60.4972 15.5405 60.4342 15.939 60.2941 16.313C60.1541 16.687 59.9399 17.0287 59.6644 17.3176C59.3558 17.6367 58.9833 17.887 58.5713 18.052C58.1594 18.217 57.7173 18.293 57.274 18.2751C56.8281 18.285 56.385 18.2033 55.9719 18.0348C55.5589 17.8664 55.1847 17.6149 54.8727 17.2958C54.5507 16.983 54.2968 16.607 54.1266 16.1914C53.9565 15.7757 53.8739 15.3294 53.8839 14.8803C53.8723 14.4294 53.9543 13.981 54.1244 13.5634C54.2946 13.1458 54.5494 12.768 54.8727 12.454C55.3567 11.9803 55.9698 11.6605 56.6348 11.5346C57.2998 11.4088 57.9872 11.4826 58.6105 11.7467C59.0023 11.908 59.3518 12.1574 59.6318 12.4757L59.056 13.0524C58.8402 12.7921 58.5668 12.5858 58.2574 12.4498C57.9481 12.3138 57.6114 12.2519 57.274 12.269C56.9346 12.2673 56.5983 12.3343 56.2854 12.4659C55.9725 12.5975 55.6893 12.7911 55.4529 13.0349C55.2165 13.2788 55.0317 13.5679 54.9096 13.885C54.7875 14.2021 54.7306 14.5407 54.7423 14.8803C54.7352 15.3875 54.8782 15.8854 55.1534 16.3113C55.4285 16.7372 55.8235 17.0719 56.2884 17.2733C56.7533 17.4746 57.2674 17.5336 57.7657 17.4427C58.264 17.3518 58.7244 17.1152 59.0886 16.7627C59.4236 16.3993 59.6198 15.9293 59.6427 15.4352H57.274V14.6518H60.4359C60.4602 14.814 60.4747 14.9775 60.4794 15.1415Z" fill="black"/>
<path d="M65.4556 12.4219H62.5218V14.4892H65.1948V15.2726H62.5218V17.3399H65.4556V18.1451H61.6743V11.6167H65.4556V12.4219Z" fill="black"/>
<path d="M69.0195 18.1451H68.1829V12.4219H66.3574V11.6167H70.8884V12.4219H69.0195V18.1451Z" fill="black"/>
<path d="M74.083 18.1451V11.6167H74.9197V18.1451H74.083Z" fill="black"/>
<path d="M78.6357 18.1451H77.7991V12.4219H75.9736V11.6167H80.4503V12.4219H78.6357V18.1451Z" fill="black"/>
<path d="M88.9365 17.2962C88.6227 17.6107 88.25 17.8602 87.8399 18.0305C87.4297 18.2007 86.9901 18.2883 86.5461 18.2883C86.1021 18.2883 85.6624 18.2007 85.2522 18.0305C84.8421 17.8602 84.4694 17.6107 84.1556 17.2962C83.8396 16.9806 83.5916 16.6033 83.4271 16.1878C83.2627 15.7723 83.1852 15.3274 83.1994 14.8807C83.1852 14.434 83.2627 13.9891 83.4271 13.5736C83.5916 13.1581 83.8396 12.7808 84.1556 12.4652C84.4627 12.1419 84.8341 11.8866 85.2459 11.7161C85.6576 11.5455 86.1006 11.4634 86.5461 11.4751C86.9909 11.468 87.4324 11.5523 87.8436 11.7225C88.2547 11.8928 88.6266 12.1456 88.9365 12.4652C89.2489 12.7835 89.4945 13.1612 89.6587 13.5761C89.823 13.9909 89.9025 14.4346 89.8927 14.8807C89.9069 15.3274 89.8294 15.7723 89.6649 16.1878C89.5005 16.6033 89.2525 16.9806 88.9365 17.2962ZM84.7749 16.7522C85.0064 16.9871 85.2822 17.1736 85.5862 17.3009C85.8902 17.4282 86.2165 17.4937 86.5461 17.4937C86.8756 17.4937 87.2019 17.4282 87.5059 17.3009C87.8099 17.1736 88.0857 16.9871 88.3172 16.7522C88.5579 16.5052 88.7464 16.2122 88.8715 15.8907C88.9965 15.5691 89.0556 15.2256 89.0452 14.8807C89.0499 14.5327 88.984 14.1874 88.8514 13.8656C88.7188 13.5439 88.5222 13.2526 88.2737 13.0093C88.0422 12.7744 87.7665 12.5879 87.4624 12.4606C87.1584 12.3333 86.8321 12.2677 86.5026 12.2677C86.173 12.2677 85.8468 12.3333 85.5427 12.4606C85.2387 12.5879 84.9629 12.7744 84.7315 13.0093C84.4986 13.2598 84.318 13.5544 84.2005 13.8758C84.0829 14.1972 84.0307 14.5388 84.0469 14.8807C84.0365 15.2256 84.0956 15.5691 84.2206 15.8907C84.3457 16.2122 84.5342 16.5052 84.7749 16.7522Z" fill="black"/>
<path d="M91.0771 18.1451V11.6167H92.0877L95.2604 16.6979V15.4358V11.6167H96.0971V18.1451H95.2278L91.9138 12.8244V14.0757V18.1451H91.0771Z" fill="black"/>
<path d="M82.9927 27.6651C82.0773 27.6673 81.183 27.9412 80.423 28.4523C79.663 28.9634 79.0714 29.6887 78.723 30.5365C78.3747 31.3843 78.2852 32.3165 78.4659 33.2152C78.6466 34.1139 79.0894 34.9387 79.7383 35.5855C80.3871 36.2322 81.2129 36.6717 82.1112 36.8484C83.0096 37.0252 83.94 36.9312 84.785 36.5784C85.63 36.2256 86.3515 35.6298 86.8583 34.8663C87.3652 34.1029 87.6345 33.2061 87.6324 32.2894C87.6413 31.6778 87.5271 31.0707 87.2968 30.5042C87.0665 29.9377 86.7247 29.4235 86.2918 28.992C85.8589 28.5605 85.3438 28.2207 84.777 27.9927C84.2102 27.7648 83.6034 27.6534 82.9927 27.6651ZM82.9927 35.0966C82.4316 35.1359 81.8717 35.0052 81.3857 34.7216C80.8997 34.438 80.5101 34.0145 80.2677 33.5063C80.0252 32.998 79.941 32.4285 80.0261 31.8717C80.1111 31.3149 80.3615 30.7966 80.7446 30.3842C81.1277 29.9718 81.6259 29.6843 82.1743 29.5592C82.7227 29.434 83.2961 29.477 83.8198 29.6825C84.3436 29.8879 84.7935 30.2464 85.111 30.7114C85.4286 31.1763 85.5991 31.7261 85.6005 32.2894C85.618 32.6463 85.564 33.0031 85.4416 33.3387C85.3192 33.6744 85.1309 33.9821 84.8879 34.2437C84.6448 34.5053 84.3519 34.7156 84.0264 34.8621C83.701 35.0085 83.3495 35.0883 82.9927 35.0966ZM72.8659 27.6651C71.9504 27.6673 71.0562 27.9412 70.2962 28.4523C69.5362 28.9634 68.9446 29.6887 68.5962 30.5365C68.2479 31.3843 68.1584 32.3165 68.3391 33.2152C68.5198 34.1139 68.9626 34.9387 69.6115 35.5855C70.2603 36.2322 71.0861 36.6717 71.9844 36.8484C72.8827 37.0252 73.8132 36.9312 74.6582 36.5784C75.5032 36.2256 76.2247 35.6298 76.7315 34.8663C77.2383 34.1029 77.5077 33.2061 77.5056 32.2894C77.5144 31.6778 77.4003 31.0707 77.17 30.5042C76.9397 29.9377 76.5979 29.4235 76.165 28.992C75.7321 28.5605 75.2169 28.2207 74.6502 27.9927C74.0834 27.7648 73.4766 27.6534 72.8659 27.6651ZM72.8659 35.0966C72.3048 35.1359 71.7449 35.0052 71.2589 34.7216C70.7729 34.438 70.3833 34.0145 70.1408 33.5063C69.8984 32.998 69.8142 32.4285 69.8992 31.8717C69.9843 31.3149 70.2347 30.7966 70.6178 30.3842C71.0009 29.9718 71.4991 29.6843 72.0475 29.5592C72.5959 29.434 73.1693 29.477 73.693 29.6825C74.2167 29.8879 74.6666 30.2464 74.9842 30.7114C75.3018 31.1763 75.4723 31.7261 75.4737 32.2894C75.4912 32.6463 75.4372 33.0031 75.3148 33.3387C75.1924 33.6744 75.0041 33.9821 74.7611 34.2437C74.518 34.5053 74.2251 34.7156 73.8996 34.8621C73.5741 35.0085 73.2227 35.0883 72.8659 35.0966ZM60.8268 29.0905V31.049H65.5207C65.4471 31.9714 65.0642 32.8419 64.4342 33.5189C63.9633 33.9993 63.397 34.3753 62.7718 34.6227C62.1467 34.8701 61.4766 34.9834 60.805 34.9551C59.4218 34.9551 58.0952 34.4049 57.1171 33.4254C56.139 32.446 55.5895 31.1176 55.5895 29.7324C55.5895 28.3473 56.139 27.0189 57.1171 26.0394C58.0952 25.06 59.4218 24.5097 60.805 24.5097C62.1311 24.49 63.4116 24.9943 64.369 25.9133L65.7489 24.5315C65.1013 23.8901 64.3324 23.3846 63.4872 23.0445C62.642 22.7045 61.7375 22.5368 60.8268 22.5512C59.8608 22.5136 58.8972 22.6716 57.9937 23.0158C57.0901 23.36 56.2653 23.8833 55.5686 24.5543C54.8719 25.2254 54.3176 26.0304 53.939 26.9211C53.5604 27.8118 53.3652 28.7698 53.3652 29.7379C53.3652 30.7059 53.5604 31.6639 53.939 32.5546C54.3176 33.4453 54.8719 34.2503 55.5686 34.9214C56.2653 35.5924 57.0901 36.1157 57.9937 36.4599C58.8972 36.8041 59.8608 36.9621 60.8268 36.9245C61.7562 36.9617 62.683 36.8015 63.5463 36.4546C64.4096 36.1077 65.1899 35.5819 65.8358 34.9116C66.9769 33.6564 67.5848 32.0056 67.5309 30.3091C67.5348 29.9008 67.502 29.4929 67.4331 29.0905H60.8268ZM110.059 30.6137C109.776 29.7789 109.246 29.05 108.54 28.5234C107.833 27.9969 106.984 27.6976 106.104 27.6651C105.51 27.6639 104.921 27.7849 104.376 28.0204C103.83 28.2559 103.338 28.6011 102.931 29.0345C102.523 29.4679 102.209 29.9803 102.007 30.5402C101.806 31.1 101.721 31.6954 101.758 32.2894C101.748 33.2826 102.06 34.2522 102.647 35.0533C103.233 35.8544 104.063 36.4441 105.011 36.7342C105.96 37.0244 106.977 36.9994 107.91 36.663C108.843 36.3267 109.643 35.697 110.19 34.8681L108.614 33.78C108.379 34.172 108.046 34.4957 107.648 34.719C107.249 34.9423 106.8 35.0575 106.343 35.053C105.872 35.0725 105.406 34.9489 105.007 34.6984C104.607 34.4479 104.293 34.0822 104.105 33.6494L110.287 31.0925L110.059 30.6137ZM103.757 32.1588C103.735 31.8214 103.781 31.4829 103.891 31.1634C104.002 30.8439 104.175 30.5498 104.401 30.2984C104.627 30.0469 104.9 29.8433 105.206 29.6993C105.511 29.5554 105.843 29.4742 106.18 29.4604C106.529 29.438 106.877 29.519 107.18 29.6931C107.483 29.8672 107.729 30.1268 107.886 30.4397L103.757 32.1588ZM98.7371 36.6416H100.769V23.0408H98.7371V36.6416ZM95.4122 28.6988H95.3362C95.0276 28.3625 94.6508 28.0963 94.231 27.918C93.8112 27.7397 93.3581 27.6535 92.9022 27.6651C91.7148 27.7228 90.5951 28.2357 89.7751 29.0976C88.9551 29.9595 88.4977 31.1044 88.4977 32.2948C88.4977 33.4852 88.9551 34.6301 89.7751 35.492C90.5951 36.3539 91.7148 36.8668 92.9022 36.9245C93.3629 36.9338 93.8199 36.841 94.2407 36.6529C94.6614 36.4649 95.0355 36.186 95.3362 35.8364H95.4122V36.5002C95.4122 38.2737 94.4669 39.2203 92.9457 39.2203C92.4376 39.2091 91.9442 39.047 91.5282 38.7544C91.1123 38.4619 90.7925 38.0522 90.6096 37.5773L88.8493 38.3063C89.1748 39.1248 89.7406 39.8252 90.472 40.3147C91.2034 40.8043 92.066 41.0601 92.9457 41.0483C95.3253 41.0483 97.292 39.6447 97.292 36.2281V27.9371H95.4122V28.6988ZM93.0761 35.0966C92.3642 35.0521 91.696 34.7376 91.2075 34.217C90.7191 33.6965 90.4472 33.0091 90.4472 32.2948C90.4472 31.5805 90.7191 30.8931 91.2075 30.3726C91.696 29.852 92.3642 29.5375 93.0761 29.493C93.4241 29.5081 93.7654 29.5931 94.0799 29.7429C94.3944 29.8928 94.6756 30.1044 94.9067 30.3653C95.1379 30.6262 95.3142 30.931 95.4254 31.2615C95.5365 31.5921 95.58 31.9416 95.5535 32.2894C95.5831 32.6383 95.5418 32.9896 95.432 33.3221C95.3221 33.6546 95.1461 33.9613 94.9145 34.2237C94.683 34.4861 94.4006 34.6988 94.0846 34.8488C93.7686 34.9988 93.4255 35.0831 93.0761 35.0966ZM119.577 23.0408H114.71V36.6416H116.742V31.4842H119.577C120.157 31.5259 120.738 31.4476 121.286 31.2543C121.833 31.061 122.335 30.7569 122.76 30.3608C123.185 29.9647 123.524 29.4851 123.756 28.9521C123.988 28.419 124.107 27.8439 124.107 27.2625C124.107 26.6811 123.988 26.106 123.756 25.5729C123.524 25.0399 123.185 24.5604 122.76 24.1643C122.335 23.7682 121.833 23.464 121.286 23.2707C120.738 23.0774 120.157 22.9992 119.577 23.0408ZM119.577 29.5692H116.742V24.9341H119.621C120.238 24.9341 120.829 25.1794 121.265 25.6161C121.701 26.0527 121.946 26.645 121.946 27.2625C121.946 27.8801 121.701 28.4723 121.265 28.909C120.829 29.3457 120.238 29.591 119.621 29.591L119.577 29.5692ZM132.116 27.6216C131.377 27.5759 130.639 27.7484 129.996 28.1178C129.353 28.4871 128.832 29.0371 128.498 29.6998L130.291 30.4505C130.472 30.1235 130.744 29.8559 131.074 29.6802C131.404 29.5045 131.777 29.4282 132.149 29.4604C132.407 29.4302 132.668 29.4518 132.918 29.5239C133.167 29.5959 133.4 29.717 133.602 29.8801C133.805 30.0431 133.973 30.2449 134.096 30.4736C134.22 30.7023 134.297 30.9534 134.322 31.2122V31.3427C133.669 30.9988 132.942 30.8196 132.203 30.8205C130.269 30.8205 128.292 31.9085 128.292 33.8888C128.311 34.3097 128.414 34.7225 128.596 35.1026C128.777 35.4827 129.033 35.8224 129.349 36.1015C129.664 36.3806 130.032 36.5934 130.431 36.7273C130.83 36.8612 131.251 36.9135 131.671 36.881C132.181 36.9092 132.689 36.8012 133.144 36.5679C133.598 36.3346 133.982 35.9846 134.257 35.5535H134.322V36.6416H136.278V31.408C136.278 29.0252 134.474 27.6433 132.16 27.6433L132.116 27.6216ZM131.867 35.0748C131.204 35.0748 130.28 34.7375 130.28 33.9215C130.28 32.8334 131.432 32.4635 132.453 32.4635C133.099 32.4475 133.737 32.6053 134.3 32.9204C134.232 33.5113 133.952 34.0574 133.513 34.4576C133.073 34.8577 132.504 35.0847 131.91 35.0966L131.867 35.0748ZM143.406 27.9371L141.081 33.8344H141.015L138.603 27.9371H136.43L140.048 36.1846L137.984 40.7654H140.157L145.666 27.9371H143.406ZM125.152 36.6416H127.173V23.0408H125.152V36.6416Z" fill="black"/>
<path d="M20.2976 12.2043C19.9512 12.6331 19.7803 13.1775 19.8195 13.7276V37.7955C19.7825 38.3509 19.966 38.8983 20.3302 39.3188L20.4062 39.4059L33.8362 25.9248V25.5984L20.3736 12.1282L20.2976 12.2043Z" fill="url(#paint0_linear_853_5466)"/>
<path d="M38.2914 30.4178L33.8364 25.9241V25.5977L38.2914 21.104L38.3891 21.1693L43.7242 24.1941C45.2454 25.0537 45.2454 26.4681 43.7242 27.3386L38.4109 30.3634L38.2914 30.4178Z" fill="url(#paint1_linear_853_5466)"/>
<path d="M38.4218 30.3637L33.8365 25.7612L20.2979 39.3185C20.6049 39.5921 20.9979 39.7496 21.4087 39.7635C21.8195 39.7774 22.2223 39.6469 22.547 39.3946L38.4218 30.3637Z" fill="url(#paint2_linear_853_5466)"/>
<path d="M38.4218 21.17L22.547 12.1391C22.2244 11.8833 21.822 11.7497 21.4106 11.7616C20.9992 11.7735 20.6052 11.9303 20.2979 12.2044L33.8365 25.7616L38.4218 21.17Z" fill="url(#paint3_linear_853_5466)"/>
<path opacity="0.2" d="M38.2914 30.2545L22.547 39.231C22.2341 39.4676 21.8526 39.5955 21.4605 39.5955C21.0684 39.5955 20.6869 39.4676 20.3739 39.231L20.2979 39.3072L20.3739 39.3942C20.6869 39.6308 21.0684 39.7587 21.4605 39.7587C21.8526 39.7587 22.2341 39.6308 22.547 39.3942L38.4218 30.3633L38.2914 30.2545Z" fill="black"/>
<path opacity="0.12" d="M20.2978 39.166C19.9488 38.7344 19.7777 38.1856 19.8197 37.6318V37.795C19.7827 38.3504 19.9663 38.8978 20.3304 39.3183L20.4065 39.2422L20.2978 39.166Z" fill="black"/>
<path opacity="0.12" d="M43.7243 27.1757L38.2915 30.2549L38.3893 30.3637L43.7243 27.328C44.0393 27.1947 44.3125 26.9788 44.5151 26.7031C44.7178 26.4273 44.8425 26.102 44.8761 25.7612C44.8082 26.0709 44.6686 26.3602 44.4685 26.6059C44.2684 26.8516 44.0135 27.0467 43.7243 27.1757Z" fill="black"/>
<path opacity="0.25" d="M22.5471 12.2913L43.7243 24.347C44.0135 24.476 44.2684 24.6712 44.4685 24.9169C44.6685 25.1626 44.8082 25.4519 44.8761 25.7615C44.8425 25.4208 44.7178 25.0954 44.5151 24.8197C44.3124 24.5439 44.0392 24.328 43.7243 24.1947L22.5471 12.139C21.0368 11.2685 19.8198 11.9866 19.8198 13.7275V13.8908C19.8198 12.1499 21.0368 11.4317 22.5471 12.2913Z" fill="white"/>
</g>
<defs>
<filter id="filter0_d_853_5466" x="0.954102" y="0" width="162.687" height="59.5225" filterUnits="userSpaceOnUse" color-interpolation-filters="sRGB">
<feFlood flood-opacity="0" result="BackgroundImageFix"/>
<feColorMatrix in="SourceAlpha" type="matrix" values="0 0 0 0 0 0 0 0 0 0 0 0 0 0 0 0 0 0 127 0" result="hardAlpha"/>
<feOffset dy="4"/>
<feGaussianBlur stdDeviation="4"/>
<feComposite in2="hardAlpha" operator="out"/>
<feColorMatrix type="matrix" values="0 0 0 0 0.575167 0 0 0 0 0.575167 0 0 0 0 0.575167 0 0 0 0.15 0"/>
<feBlend mode="normal" in2="BackgroundImageFix" result="effect1_dropShadow_853_5466"/>
<feBlend mode="normal" in="SourceGraphic" in2="effect1_dropShadow_853_5466" result="shape"/>
</filter>
<linearGradient id="paint0_linear_853_5466" x1="32.641" y1="13.4774" x2="14.3833" y2="31.71" gradientUnits="userSpaceOnUse">
<stop stop-color="#00A0FF"/>
<stop offset="0.01" stop-color="#00A1FF"/>
<stop offset="0.26" stop-color="#00BEFF"/>
<stop offset="0.51" stop-color="#00D2FF"/>
<stop offset="0.76" stop-color="#00DFFF"/>
<stop offset="1" stop-color="#00E3FF"/>
</linearGradient>
<linearGradient id="paint1_linear_853_5466" x1="45.7126" y1="25.7609" x2="19.4285" y2="25.7609" gradientUnits="userSpaceOnUse">
<stop stop-color="#FFE000"/>
<stop offset="0.41" stop-color="#FFBD00"/>
<stop offset="0.78" stop-color="#FFA500"/>
<stop offset="1" stop-color="#FF9C00"/>
</linearGradient>
<linearGradient id="paint2_linear_853_5466" x1="35.9336" y1="28.2529" x2="11.1693" y2="52.9832" gradientUnits="userSpaceOnUse">
<stop stop-color="#FF3A44"/>
<stop offset="1" stop-color="#C31162"/>
</linearGradient>
<linearGradient id="paint3_linear_853_5466" x1="16.886" y1="4.1854" x2="27.9407" y2="15.2358" gradientUnits="userSpaceOnUse">
<stop stop-color="#32A071"/>
<stop offset="0.07" stop-color="#2DA771"/>
<stop offset="0.48" stop-color="#15CF74"/>
<stop offset="0.8" stop-color="#06E775"/>
<stop offset="1" stop-color="#00F076"/>
</linearGradient>
</defs>
</svg>
