<svg width="163" height="60" viewBox="0 0 163 60" fill="none" xmlns="http://www.w3.org/2000/svg">
<g filter="url(#filter0_d_1_1342)">
<path d="M149.541 4.0077H13.4587C10.4525 4.0077 8.01541 6.4481 8.01541 9.45848V42.1632C8.01541 45.1736 10.4525 47.614 13.4587 47.614H149.541C152.548 47.614 154.985 45.1736 154.985 42.1632V9.45848C154.985 6.4481 152.548 4.0077 149.541 4.0077Z" fill="white"/>
<path d="M59.6397 15.1706C59.6575 15.5704 59.5944 15.9697 59.4541 16.3444C59.3138 16.7191 59.0992 17.0615 58.8232 17.3509C58.5139 17.6707 58.1407 17.9214 57.728 18.0867C57.3152 18.252 56.8723 18.3282 56.4281 18.3103C55.9814 18.3202 55.5374 18.2383 55.1235 18.0695C54.7097 17.9008 54.3349 17.6488 54.0222 17.3291C53.6996 17.0157 53.4452 16.639 53.2747 16.2225C53.1042 15.8061 53.0214 15.3589 53.0315 14.909C53.0199 14.4572 53.102 14.008 53.2725 13.5895C53.443 13.1711 53.6983 12.7926 54.0222 12.4779C54.5072 12.0034 55.1214 11.6829 55.7877 11.5569C56.454 11.4308 57.1427 11.5047 57.7672 11.7693C58.1598 11.9309 58.5099 12.1809 58.7905 12.4997L58.2135 13.0775C57.9973 12.8167 57.7234 12.61 57.4135 12.4737C57.1035 12.3375 56.7662 12.2755 56.4281 12.2926C56.0881 12.2909 55.7512 12.358 55.4377 12.4899C55.1241 12.6218 54.8404 12.8157 54.6036 13.06C54.3667 13.3043 54.1815 13.594 54.0592 13.9118C53.9368 14.2295 53.8798 14.5687 53.8915 14.909C53.8844 15.4171 54.0277 15.916 54.3034 16.3427C54.5791 16.7694 54.9748 17.1048 55.4406 17.3065C55.9064 17.5083 56.4215 17.5673 56.9208 17.4763C57.4201 17.3853 57.8813 17.1482 58.2462 16.795C58.5819 16.4309 58.7785 15.9599 58.8014 15.465H56.4281V14.6801H59.5961C59.6205 14.8426 59.635 15.0064 59.6397 15.1706Z" fill="black"/>
<path d="M64.6257 12.4458H61.6864V14.5171H64.3645V15.302H61.6864V17.3733H64.6257V18.18H60.8372V11.6391H64.6257V12.4458Z" fill="black"/>
<path d="M68.1966 18.18H67.3583V12.4458H65.5294V11.6391H70.0691V12.4458H68.1966V18.18Z" fill="black"/>
<path d="M73.2697 18.18V11.6391H74.108V18.18H73.2697Z" fill="black"/>
<path d="M77.8312 18.18H76.993V12.4458H75.164V11.6391H79.6493V12.4458H77.8312V18.18Z" fill="black"/>
<path d="M88.1518 17.3295C87.8373 17.6446 87.464 17.8946 87.053 18.0652C86.6421 18.2357 86.2016 18.3235 85.7567 18.3235C85.3119 18.3235 84.8714 18.2357 84.4604 18.0652C84.0495 17.8946 83.6761 17.6446 83.3617 17.3295C83.045 17.0133 82.7966 16.6353 82.6318 16.219C82.467 15.8027 82.3894 15.357 82.4036 14.9094C82.3894 14.4618 82.467 14.016 82.6318 13.5997C82.7966 13.1834 83.045 12.8055 83.3617 12.4892C83.6693 12.1652 84.0415 11.9095 84.454 11.7386C84.8666 11.5677 85.3104 11.4855 85.7567 11.4972C86.2024 11.4901 86.6448 11.5745 87.0567 11.7451C87.4686 11.9157 87.8413 12.169 88.1518 12.4892C88.4648 12.8081 88.7109 13.1865 88.8754 13.6022C89.04 14.0179 89.1196 14.4623 89.1098 14.9094C89.1241 15.357 89.0464 15.8027 88.8816 16.219C88.7168 16.6353 88.4684 17.0133 88.1518 17.3295ZM83.9822 16.7844C84.2141 17.0198 84.4904 17.2067 84.795 17.3342C85.0996 17.4617 85.4265 17.5274 85.7567 17.5274C86.0869 17.5274 86.4138 17.4617 86.7184 17.3342C87.023 17.2067 87.2993 17.0198 87.5312 16.7844C87.7724 16.537 87.9613 16.2435 88.0866 15.9213C88.2119 15.5991 88.2711 15.255 88.2606 14.9094C88.2654 14.5607 88.1994 14.2147 88.0665 13.8923C87.9336 13.57 87.7367 13.2781 87.4877 13.0343C87.2558 12.799 86.9795 12.6121 86.6749 12.4846C86.3702 12.357 86.0433 12.2913 85.7132 12.2913C85.383 12.2913 85.0561 12.357 84.7515 12.4846C84.4469 12.6121 84.1706 12.799 83.9386 13.0343C83.7053 13.2853 83.5244 13.5805 83.4066 13.9025C83.2889 14.2245 83.2366 14.5668 83.2528 14.9094C83.2423 15.255 83.3015 15.5991 83.4268 15.9213C83.5521 16.2435 83.741 16.537 83.9822 16.7844Z" fill="black"/>
<path d="M90.2964 18.18V11.6391H91.3088L94.4877 16.7301V15.4655V11.6391H95.326V18.18H94.455L91.1346 12.8491V14.1028V18.18H90.2964Z" fill="black"/>
<path d="M82.1967 27.7184C81.2794 27.7205 80.3834 27.995 79.622 28.5071C78.8605 29.0192 78.2678 29.7459 77.9188 30.5953C77.5697 31.4447 77.4801 32.3787 77.6611 33.2791C77.8422 34.1796 78.2858 35.006 78.9359 35.654C79.5861 36.3019 80.4135 36.7423 81.3135 36.9194C82.2135 37.0965 83.1458 37.0023 83.9924 36.6488C84.839 36.2953 85.5619 35.6984 86.0697 34.9335C86.5775 34.1686 86.8474 33.27 86.8453 32.3515C86.8542 31.7388 86.7398 31.1305 86.5091 30.563C86.2783 29.9954 85.9359 29.4801 85.5021 29.0478C85.0684 28.6155 84.5522 28.275 83.9844 28.0466C83.4165 27.8183 82.8085 27.7066 82.1967 27.7184ZM82.1967 35.1641C81.6345 35.2035 81.0735 35.0726 80.5865 34.7885C80.0996 34.5043 79.7093 34.08 79.4663 33.5708C79.2234 33.0616 79.1391 32.4909 79.2243 31.9331C79.3095 31.3752 79.5604 30.8559 79.9442 30.4427C80.3281 30.0295 80.8272 29.7415 81.3767 29.6161C81.9262 29.4907 82.5006 29.5337 83.0254 29.7396C83.5501 29.9455 84.0009 30.3047 84.319 30.7705C84.6372 31.2363 84.8081 31.7872 84.8095 32.3515C84.827 32.7091 84.7729 33.0666 84.6502 33.4029C84.5276 33.7392 84.339 34.0475 84.0955 34.3097C83.852 34.5718 83.5585 34.7824 83.2324 34.9292C82.9063 35.076 82.5541 35.1558 82.1967 35.1641ZM72.0504 27.7184C71.1331 27.7205 70.2371 27.995 69.4757 28.5071C68.7142 29.0192 68.1215 29.7459 67.7724 30.5953C67.4234 31.4447 67.3338 32.3787 67.5148 33.2791C67.6959 34.1796 68.1395 35.006 68.7896 35.654C69.4397 36.3019 70.2671 36.7423 71.1672 36.9194C72.0672 37.0965 72.9995 37.0023 73.8461 36.6488C74.6927 36.2953 75.4156 35.6984 75.9234 34.9335C76.4312 34.1686 76.7011 33.27 76.699 32.3515C76.7078 31.7388 76.5935 31.1305 76.3627 30.563C76.132 29.9954 75.7896 29.4801 75.3558 29.0478C74.9221 28.6155 74.4059 28.275 73.838 28.0466C73.2702 27.8183 72.6622 27.7066 72.0504 27.7184ZM72.0504 35.1641C71.4882 35.2035 70.9271 35.0726 70.4402 34.7885C69.9533 34.5043 69.563 34.08 69.32 33.5708C69.0771 33.0616 68.9928 32.4909 69.078 31.9331C69.1632 31.3752 69.414 30.8559 69.7979 30.4427C70.1818 30.0295 70.6809 29.7415 71.2304 29.6161C71.7799 29.4907 72.3543 29.5337 72.879 29.7396C73.4038 29.9455 73.8545 30.3047 74.1727 30.7705C74.4909 31.2363 74.6618 31.7872 74.6632 32.3515C74.6807 32.7091 74.6266 33.0666 74.5039 33.4029C74.3813 33.7392 74.1927 34.0475 73.9492 34.3097C73.7056 34.5718 73.4122 34.7824 73.0861 34.9292C72.76 35.076 72.4078 35.1558 72.0504 35.1641ZM59.988 29.1465V31.1088H64.691C64.6173 32.033 64.2336 32.9051 63.6024 33.5834C63.1306 34.0647 62.5632 34.4415 61.9368 34.6894C61.3105 34.9373 60.6391 35.0507 59.9662 35.0224C58.5803 35.0224 57.2512 34.4711 56.2712 33.4898C55.2912 32.5085 54.7407 31.1775 54.7407 29.7897C54.7407 28.4019 55.2912 27.0709 56.2712 26.0896C57.2512 25.1082 58.5803 24.5569 59.9662 24.5569C61.2949 24.5371 62.5778 25.0424 63.537 25.9632L64.9196 24.5787C64.2708 23.9361 63.5004 23.4296 62.6536 23.0889C61.8067 22.7482 60.9005 22.5802 59.988 22.5946C59.0202 22.5569 58.0547 22.7152 57.1495 23.0601C56.2442 23.405 55.4178 23.9293 54.7197 24.6016C54.0217 25.274 53.4663 26.0805 53.087 26.9729C52.7077 27.8653 52.5121 28.8252 52.5121 29.7951C52.5121 30.765 52.7077 31.7249 53.087 32.6173C53.4663 33.5097 54.0217 34.3163 54.7197 34.9886C55.4178 35.661 56.2442 36.1853 57.1495 36.5301C58.0547 36.875 59.0202 37.0333 59.988 36.9956C60.9193 37.0329 61.8479 36.8724 62.7128 36.5248C63.5778 36.1772 64.3595 35.6504 65.0067 34.9788C66.15 33.7212 66.7591 32.0672 66.705 30.3675C66.7089 29.9584 66.6762 29.5497 66.6071 29.1465H59.988ZM109.315 30.6727C109.031 29.8363 108.5 29.1059 107.793 28.5783C107.085 28.0508 106.234 27.7509 105.353 27.7184C104.757 27.7172 104.168 27.8384 103.621 28.0744C103.074 28.3103 102.581 28.6561 102.173 29.0904C101.765 29.5246 101.45 30.0381 101.248 30.599C101.046 31.1599 100.961 31.7564 100.998 32.3515C100.989 33.3467 101.301 34.3182 101.889 35.1208C102.476 35.9235 103.307 36.5143 104.258 36.805C105.208 37.0957 106.227 37.0707 107.162 36.7337C108.097 36.3967 108.898 35.7658 109.446 34.9352L107.867 33.8451C107.632 34.2378 107.298 34.5622 106.899 34.7859C106.5 35.0096 106.049 35.125 105.592 35.1205C105.12 35.14 104.653 35.0162 104.253 34.7652C103.853 34.5142 103.538 34.1478 103.349 33.7142L109.544 31.1524L109.315 30.6727ZM103.001 32.2207C102.979 31.8827 103.025 31.5436 103.135 31.2235C103.246 30.9033 103.42 30.6086 103.646 30.3567C103.872 30.1048 104.146 29.9007 104.453 29.7565C104.759 29.6124 105.091 29.531 105.429 29.5171C105.778 29.4947 106.127 29.5758 106.431 29.7503C106.735 29.9247 106.981 30.1849 107.138 30.4983L103.001 32.2207ZM97.9714 36.7122H100.007V23.0852H97.9714V36.7122ZM94.6401 28.754H94.5639C94.2548 28.4171 93.8772 28.1504 93.4566 27.9717C93.036 27.7931 92.582 27.7067 92.1253 27.7184C90.9356 27.7762 89.8137 28.2901 88.9921 29.1537C88.1705 30.0172 87.7122 31.1643 87.7122 32.357C87.7122 33.5497 88.1705 34.6967 88.9921 35.5603C89.8137 36.4239 90.9356 36.9378 92.1253 36.9956C92.5868 37.0049 93.0447 36.912 93.4663 36.7235C93.8878 36.5351 94.2626 36.2557 94.5639 35.9055H94.6401V36.5704C94.6401 38.3474 93.6929 39.2958 92.1688 39.2958C91.6597 39.2846 91.1653 39.1222 90.7486 38.8291C90.3319 38.536 90.0115 38.1255 89.8282 37.6497L88.0646 38.3801C88.3906 39.2002 88.9575 39.9018 89.6904 40.3924C90.4232 40.8829 91.2874 41.1392 92.1688 41.1273C94.553 41.1273 96.5235 39.721 96.5235 36.2979V27.9909H94.6401V28.754ZM92.2995 35.1641C91.5862 35.1196 90.9167 34.8045 90.4273 34.2829C89.9379 33.7614 89.6655 33.0726 89.6655 32.357C89.6655 31.6413 89.9379 30.9526 90.4273 30.4311C90.9167 29.9095 91.5862 29.5944 92.2995 29.5498C92.6481 29.5649 92.9901 29.65 93.3052 29.8002C93.6203 29.9503 93.9021 30.1624 94.1336 30.4238C94.3652 30.6852 94.5419 30.9906 94.6532 31.3217C94.7646 31.6529 94.8082 32.0031 94.7816 32.3515C94.8113 32.7011 94.7699 33.0532 94.6599 33.3863C94.5498 33.7194 94.3735 34.0267 94.1414 34.2896C93.9094 34.5525 93.6265 34.7656 93.3099 34.9159C92.9933 35.0662 92.6496 35.1507 92.2995 35.1641ZM118.852 23.0852H113.975V36.7122H116.01V31.5448H118.852C119.432 31.5866 120.015 31.5082 120.563 31.3145C121.112 31.1208 121.615 30.8161 122.041 30.4192C122.466 30.0224 122.806 29.5419 123.038 29.0079C123.27 28.4738 123.39 27.8975 123.39 27.315C123.39 26.7325 123.27 26.1563 123.038 25.6222C122.806 25.0881 122.466 24.6077 122.041 24.2108C121.615 23.814 121.112 23.5092 120.563 23.3155C120.015 23.1219 119.432 23.0435 118.852 23.0852ZM118.852 29.6262H116.01V24.9821H118.895C119.513 24.9821 120.106 25.2279 120.543 25.6654C120.98 26.1029 121.225 26.6963 121.225 27.315C121.225 27.9338 120.98 28.5271 120.543 28.9647C120.106 29.4022 119.513 29.648 118.895 29.648L118.852 29.6262ZM131.415 27.6748C130.674 27.629 129.935 27.8018 129.291 28.1719C128.647 28.542 128.125 29.093 127.79 29.757L129.586 30.5092C129.768 30.1815 130.04 29.9134 130.37 29.7374C130.701 29.5613 131.075 29.4848 131.448 29.5171C131.706 29.4869 131.968 29.5085 132.218 29.5807C132.468 29.6529 132.701 29.7742 132.904 29.9376C133.106 30.101 133.275 30.3032 133.398 30.5323C133.522 30.7615 133.599 31.013 133.625 31.2723V31.4031C132.97 31.0585 132.242 30.8789 131.502 30.8798C129.564 30.8798 127.583 31.97 127.583 33.9541C127.602 34.3758 127.706 34.7894 127.888 35.1702C128.07 35.551 128.326 35.8914 128.642 36.171C128.958 36.4507 129.326 36.6639 129.726 36.7981C130.126 36.9322 130.548 36.9846 130.969 36.952C131.48 36.9803 131.989 36.872 132.444 36.6383C132.899 36.4046 133.284 36.0539 133.56 35.622H133.625V36.7122H135.585V31.4685C135.585 29.0811 133.777 27.6966 131.459 27.6966L131.415 27.6748ZM131.165 35.1423C130.501 35.1423 129.575 34.8044 129.575 33.9868C129.575 32.8966 130.729 32.526 131.753 32.526C132.399 32.51 133.038 32.6681 133.603 32.9838C133.535 33.5759 133.255 34.123 132.814 34.5239C132.374 34.9248 131.803 35.1523 131.208 35.1641L131.165 35.1423ZM142.726 27.9909L140.396 33.8996H140.331L137.914 27.9909H135.737L139.362 36.2543L137.294 40.8439H139.471L144.991 27.9909H142.726ZM124.437 36.7122H126.462V23.0852H124.437V36.7122Z" fill="black"/>
<path d="M19.3809 12.2278C19.0339 12.6574 18.8627 13.2029 18.9019 13.7541V37.8683C18.8648 38.4247 19.0487 38.9732 19.4136 39.3945L19.4898 39.4817L32.9456 25.9747V25.6477L19.4571 12.1515L19.3809 12.2278Z" fill="url(#paint0_linear_1_1342)"/>
<path d="M37.4092 30.4764L32.9457 25.974V25.647L37.4092 21.1446L37.5072 21.2101L42.8525 24.2407C44.3766 25.1019 44.3766 26.5191 42.8525 27.3912L37.529 30.4219L37.4092 30.4764Z" fill="url(#paint1_linear_1_1342)"/>
<path d="M37.5399 30.4222L32.9457 25.8108L19.381 39.3942C19.6886 39.6684 20.0824 39.8261 20.494 39.8401C20.9056 39.854 21.3091 39.7233 21.6345 39.4705L37.5399 30.4222Z" fill="url(#paint2_linear_1_1342)"/>
<path d="M37.5399 21.2108L21.6345 12.1625C21.3112 11.9062 20.9081 11.7723 20.4959 11.7843C20.0837 11.7962 19.689 11.9533 19.381 12.2279L32.9457 25.8113L37.5399 21.2108Z" fill="url(#paint3_linear_1_1342)"/>
<path opacity="0.2" d="M37.4092 30.3128L21.6345 39.3066C21.321 39.5436 20.9388 39.6718 20.5459 39.6718C20.153 39.6718 19.7708 39.5436 19.4572 39.3066L19.381 39.3829L19.4572 39.4701C19.7708 39.7071 20.153 39.8353 20.5459 39.8353C20.9388 39.8353 21.321 39.7071 21.6345 39.4701L37.5399 30.4218L37.4092 30.3128Z" fill="black"/>
<path opacity="0.12" d="M19.3809 39.2414C19.0313 38.809 18.8599 38.2591 18.9019 37.7043V37.8678C18.8649 38.4242 19.0488 38.9727 19.4136 39.394L19.4898 39.3177L19.3809 39.2414Z" fill="black"/>
<path opacity="0.12" d="M42.8525 27.228L37.4092 30.3132L37.5072 30.4222L42.8525 27.3807C43.168 27.2471 43.4417 27.0307 43.6448 26.7545C43.8479 26.4782 43.9728 26.1522 44.0065 25.8108C43.9384 26.1211 43.7985 26.4109 43.5981 26.6571C43.3976 26.9033 43.1422 27.0988 42.8525 27.228Z" fill="black"/>
<path opacity="0.25" d="M21.6345 12.315L42.8525 24.3939C43.1422 24.5231 43.3976 24.7187 43.5981 24.9648C43.7985 25.211 43.9384 25.5009 44.0065 25.8111C43.9728 25.4697 43.8479 25.1437 43.6448 24.8675C43.4417 24.5912 43.168 24.3749 42.8525 24.2413L21.6345 12.1624C20.1212 11.2902 18.9019 12.0097 18.9019 13.754V13.9175C18.9019 12.1733 20.1212 11.4538 21.6345 12.315Z" fill="white"/>
</g>
<defs>
<filter id="filter0_d_1_1342" x="0" y="0" width="163" height="59.6371" filterUnits="userSpaceOnUse" color-interpolation-filters="sRGB">
<feFlood flood-opacity="0" result="BackgroundImageFix"/>
<feColorMatrix in="SourceAlpha" type="matrix" values="0 0 0 0 0 0 0 0 0 0 0 0 0 0 0 0 0 0 127 0" result="hardAlpha"/>
<feOffset dy="4"/>
<feGaussianBlur stdDeviation="4"/>
<feComposite in2="hardAlpha" operator="out"/>
<feColorMatrix type="matrix" values="0 0 0 0 0.575167 0 0 0 0 0.575167 0 0 0 0 0.575167 0 0 0 0.15 0"/>
<feBlend mode="normal" in2="BackgroundImageFix" result="effect1_dropShadow_1_1342"/>
<feBlend mode="normal" in="SourceGraphic" in2="effect1_dropShadow_1_1342" result="shape"/>
</filter>
<linearGradient id="paint0_linear_1_1342" x1="31.7481" y1="13.5033" x2="13.4553" y2="31.771" gradientUnits="userSpaceOnUse">
<stop stop-color="#00A0FF"/>
<stop offset="0.01" stop-color="#00A1FF"/>
<stop offset="0.26" stop-color="#00BEFF"/>
<stop offset="0.51" stop-color="#00D2FF"/>
<stop offset="0.76" stop-color="#00DFFF"/>
<stop offset="1" stop-color="#00E3FF"/>
</linearGradient>
<linearGradient id="paint1_linear_1_1342" x1="44.8448" y1="25.8105" x2="18.5101" y2="25.8105" gradientUnits="userSpaceOnUse">
<stop stop-color="#FFE000"/>
<stop offset="0.41" stop-color="#FFBD00"/>
<stop offset="0.78" stop-color="#FFA500"/>
<stop offset="1" stop-color="#FF9C00"/>
</linearGradient>
<linearGradient id="paint2_linear_1_1342" x1="35.0468" y1="28.3073" x2="10.2349" y2="53.0852" gradientUnits="userSpaceOnUse">
<stop stop-color="#FF3A44"/>
<stop offset="1" stop-color="#C31162"/>
</linearGradient>
<linearGradient id="paint3_linear_1_1342" x1="15.9626" y1="4.19346" x2="27.0386" y2="15.2651" gradientUnits="userSpaceOnUse">
<stop stop-color="#32A071"/>
<stop offset="0.07" stop-color="#2DA771"/>
<stop offset="0.48" stop-color="#15CF74"/>
<stop offset="0.8" stop-color="#06E775"/>
<stop offset="1" stop-color="#00F076"/>
</linearGradient>
</defs>
</svg>
