<svg width="151" height="60" viewBox="0 0 151 60" fill="none" xmlns="http://www.w3.org/2000/svg">
<g filter="url(#filter0_d_853_5439)">
<path d="M16.6135 47.5224H15.5894C14.8767 47.5131 14.1656 47.4523 13.4616 47.3404C12.8049 47.2251 12.1685 47.0143 11.5728 46.7146C10.9845 46.4227 10.4467 46.0386 9.97984 45.5767C9.52427 45.1088 9.1408 44.5758 8.842 43.9951C8.54914 43.3977 8.34228 42.7617 8.22757 42.1063C8.0988 41.3884 8.02275 40.662 8 39.933C8 39.6941 8 38.8976 8 38.8976V12.6135C8 12.6135 8 11.8283 8 11.5894C8.01738 10.8762 8.08582 10.1651 8.20481 9.46164C8.31645 8.80545 8.52345 8.16911 8.81925 7.57282C9.11113 6.98453 9.49526 6.44674 9.95709 5.97984C10.4269 5.52147 10.9641 5.13774 11.5501 4.842C12.1467 4.5326 12.7877 4.31765 13.4503 4.20481C14.1567 4.07969 14.872 4.0112 15.5894 4H134.585C135.294 4.00694 136.002 4.07163 136.701 4.19343C137.362 4.29945 138.003 4.50669 138.601 4.80787C139.784 5.41589 140.747 6.37873 141.355 7.56144C141.651 8.15273 141.854 8.78591 141.958 9.43888C142.083 10.1492 142.151 10.8683 142.163 11.5894V12.6021C142.163 13.0231 142.163 13.4327 142.163 13.8423V37.6687C142.163 38.0784 142.163 38.488 142.163 38.8862V39.9444C142.145 40.6533 142.08 41.3603 141.969 42.0608C141.856 42.7203 141.649 43.3602 141.355 43.961C141.059 44.5399 140.675 45.0695 140.217 45.5312C139.75 45.9924 139.212 46.3765 138.624 46.6691C138.025 46.9688 137.384 47.1796 136.724 47.2949C136.02 47.4067 135.309 47.4676 134.596 47.4769H16.6135V47.5224Z" fill="white"/>
</g>
<path d="M35.4449 25.6191C35.4605 24.6334 35.724 23.6674 36.2112 22.8103C36.6984 21.9533 37.3936 21.2327 38.2327 20.715C37.6994 19.9499 36.9948 19.32 36.175 18.8755C35.3551 18.431 34.4427 18.1842 33.5106 18.1549C31.5308 17.9501 29.5964 19.3496 28.5838 19.3496C27.5711 19.3496 26.0009 18.2118 24.3169 18.2118C23.231 18.2478 22.173 18.5643 21.2458 19.1306C20.3186 19.6969 19.5538 20.4936 19.0259 21.4432C16.7502 25.4029 18.4456 31.2287 20.6416 34.426C21.7795 35.9962 23.0197 37.7485 24.6923 37.6916C26.365 37.6347 26.968 36.6448 28.9251 36.6448C30.8822 36.6448 31.4625 37.6916 33.1806 37.6461C34.8988 37.6006 36.048 36.0759 37.1062 34.4829C37.8956 33.3686 38.5025 32.1357 38.904 30.8304C37.8814 30.3947 37.0088 29.6689 36.394 28.7428C35.7793 27.8166 35.4494 26.7307 35.4449 25.6191Z" fill="black"/>
<path d="M32.2133 16.0613C33.1726 14.9214 33.6465 13.4507 33.5332 11.9651C32.0718 12.1103 30.7189 12.801 29.7442 13.8994C29.2657 14.438 28.8995 15.0666 28.667 15.7485C28.4345 16.4304 28.3404 17.1518 28.3901 17.8705C29.1229 17.8791 29.8481 17.7207 30.5105 17.4072C31.173 17.0937 31.7553 16.6335 32.2133 16.0613Z" fill="black"/>
<path d="M55.1406 33.8798H49.7586L48.4615 37.7029H46.1858L51.2378 23.5709H53.6045L58.7476 37.7029H56.4719L55.1406 33.8798ZM50.3162 32.1275H54.5831L52.4781 25.9263H52.3756L50.3162 32.1275Z" fill="black"/>
<path d="M69.7732 32.5481C69.7732 35.7568 68.055 37.8163 65.4721 37.8163C64.8164 37.8488 64.1647 37.6964 63.5914 37.3765C63.0181 37.0567 62.5461 36.5822 62.2293 36.0071V41.116H60.0674V27.4619H62.1155V29.1687C62.4462 28.5975 62.9256 28.1265 63.5026 27.806C64.0796 27.4854 64.7327 27.3272 65.3925 27.3482C68.0437 27.2913 69.7732 29.3621 69.7732 32.5481ZM67.5999 32.5481C67.5999 30.4658 66.4621 29.1346 64.8691 29.1346C63.2761 29.1346 62.1724 30.5341 62.1724 32.5481C62.1724 34.5621 63.3102 36.0185 64.8691 36.0185C66.4279 36.0185 67.5999 34.6531 67.5999 32.5481Z" fill="black"/>
<path d="M81.1064 32.5481C81.1064 35.7568 79.3997 37.8163 76.8054 37.8163C76.1499 37.8474 75.4987 37.6945 74.9256 37.3747C74.3525 37.055 73.8804 36.5813 73.5625 36.0071V41.116H71.4006V27.4619H73.4487V29.1687C73.7795 28.5975 74.2588 28.1265 74.8359 27.806C75.4129 27.4854 76.066 27.3272 76.7257 27.3482C79.3883 27.2913 81.1064 29.3621 81.1064 32.5481ZM78.9331 32.5481C78.9331 30.4658 77.7953 29.1346 76.2137 29.1346C74.6321 29.1346 73.5056 30.5341 73.5056 32.5481C73.5056 34.5621 74.6435 36.0185 76.2137 36.0185C77.7839 36.0185 78.9331 34.6531 78.9331 32.5481Z" fill="black"/>
<path d="M88.6044 33.767C88.7523 35.1666 90.1178 36.0427 92.018 36.0427C93.9181 36.0427 95.0787 35.121 95.0787 33.858C95.0787 32.595 94.305 32.1058 92.4731 31.662L90.607 31.3093C88.0128 30.6835 86.8066 29.466 86.8066 27.4975C86.8066 25.0625 88.9344 23.3899 91.9497 23.3899C94.965 23.3899 96.9789 25.0625 97.0472 27.4975H94.9194C94.7829 26.0866 93.6223 25.2218 91.9155 25.2218C90.2088 25.2218 89.0482 26.0866 89.0482 27.3382C89.0482 28.3395 89.7992 28.9312 91.6197 29.3749L93.1786 29.7618C96.0687 30.4445 97.2748 31.6051 97.2748 33.676C97.2748 36.3158 95.1698 37.977 91.8245 37.977C88.6841 37.977 86.5677 36.3613 86.4312 33.8011L88.6044 33.767Z" fill="black"/>
<path d="M101.838 24.9601V27.4064H103.795V29.0336H101.838V34.7228C101.838 35.6103 102.236 36.0199 103.09 36.0199C103.329 36.0199 103.556 36.0199 103.795 35.963V37.6356C103.42 37.7029 103.039 37.7334 102.657 37.7267C100.575 37.7267 99.7672 36.9416 99.7672 34.9503V29.0336H98.2197V27.4064H99.7217V24.9601H101.838Z" fill="black"/>
<path d="M104.933 32.5485C104.933 29.317 106.844 27.2803 109.814 27.2803C112.784 27.2803 114.707 29.317 114.707 32.5485C114.707 35.7799 112.818 37.8281 109.814 37.8281C106.81 37.8281 104.933 35.8596 104.933 32.5485ZM112.556 32.5485C112.556 30.3297 111.532 29.0212 109.814 29.0212C108.096 29.0212 107.083 30.3411 107.083 32.5485C107.083 34.7559 108.107 36.0872 109.814 36.0872C111.521 36.0872 112.556 34.79 112.556 32.5485Z" fill="black"/>
<path d="M116.448 27.4059H118.462V29.1582C118.595 28.6082 118.916 28.1216 119.368 27.7813C119.82 27.4411 120.377 27.2682 120.942 27.2921C121.183 27.2961 121.423 27.3228 121.659 27.3718V29.3516C121.353 29.2591 121.034 29.2169 120.715 29.2264C120.431 29.2064 120.145 29.2436 119.876 29.3359C119.606 29.4281 119.358 29.5735 119.146 29.7634C118.934 29.9534 118.762 30.184 118.64 30.4416C118.519 30.6992 118.45 30.9786 118.439 31.2632C118.433 31.3731 118.433 31.4832 118.439 31.5931V37.7034H116.448V27.4059Z" fill="black"/>
<path d="M131.467 34.7219C131.183 36.5993 129.362 37.8737 127.029 37.8737C124.037 37.8737 122.171 35.8711 122.171 32.651C122.171 29.4309 124.048 27.3259 126.938 27.3259C129.829 27.3259 131.581 29.283 131.581 32.4007V33.1289H124.31V33.2541C124.247 33.9632 124.468 34.6684 124.924 35.2146C125.381 35.7609 126.036 36.1034 126.745 36.167H127.075C127.577 36.2116 128.079 36.0942 128.509 35.8321C128.94 35.5699 129.274 35.1769 129.464 34.7105L131.467 34.7219ZM124.321 31.6497H129.464C129.502 31.0027 129.285 30.3665 128.86 29.8774C128.435 29.3883 127.835 29.0851 127.189 29.0327H126.995C126.653 29.0312 126.314 29.0971 125.997 29.2267C125.681 29.3562 125.393 29.5469 125.15 29.7878C124.907 30.0287 124.713 30.3151 124.581 30.6307C124.449 30.9463 124.38 31.2848 124.378 31.627L124.321 31.6497Z" fill="black"/>
<path d="M50.0997 12.9442C50.4929 12.9148 50.888 12.9633 51.2624 13.0871C51.6368 13.2108 51.983 13.4074 52.2812 13.6654C52.5793 13.9234 52.8236 14.2377 52.9999 14.5904C53.1762 14.9431 53.281 15.3272 53.3084 15.7205C53.3312 15.9171 53.3312 16.1156 53.3084 16.3122C53.3084 18.4855 52.1706 19.7257 50.1111 19.7257H47.5964V12.8987L50.0997 12.9442ZM48.6433 18.7927H49.929C50.2101 18.8112 50.492 18.774 50.7586 18.6833C51.0253 18.5926 51.2714 18.4501 51.4828 18.2641C51.6942 18.078 51.8668 17.852 51.9907 17.5991C52.1146 17.3461 52.1873 17.0712 52.2047 16.7901C52.2217 16.6427 52.2217 16.4938 52.2047 16.3463C52.2432 16.0676 52.2263 15.784 52.155 15.5119C52.0837 15.2397 51.9594 14.9842 51.7892 14.7602C51.619 14.5361 51.4063 14.3478 51.1633 14.206C50.9202 14.0643 50.6516 13.9719 50.3728 13.9341C50.2365 13.9228 50.0995 13.9228 49.9631 13.9341H48.6433V18.7927Z" fill="black"/>
<path d="M54.4353 17.1653C54.4012 16.8468 54.4306 16.5246 54.5217 16.2175C54.6129 15.9104 54.7641 15.6244 54.9665 15.3761C55.1689 15.1278 55.4185 14.9221 55.7009 14.7708C55.9834 14.6196 56.293 14.5259 56.6118 14.495C56.9307 14.4642 57.2525 14.4969 57.5587 14.5912C57.8648 14.6855 58.1493 14.8396 58.3955 15.0445C58.6417 15.2495 58.8449 15.5012 58.9932 15.7851C59.1416 16.0691 59.2321 16.3796 59.2597 16.6988C59.2824 16.8535 59.2824 17.0106 59.2597 17.1653C59.2938 17.4838 59.2644 17.806 59.1732 18.1131C59.082 18.4202 58.9309 18.7062 58.7285 18.9545C58.5261 19.2028 58.2764 19.4085 57.994 19.5598C57.7116 19.711 57.402 19.8048 57.0831 19.8356C56.7643 19.8664 56.4424 19.8337 56.1363 19.7394C55.8301 19.6451 55.5457 19.491 55.2995 19.2861C55.0532 19.0811 54.8501 18.8294 54.7017 18.5455C54.5534 18.2615 54.4628 17.951 54.4353 17.6318C54.4125 17.4771 54.4125 17.32 54.4353 17.1653ZM58.2243 17.1653C58.2243 16.0275 57.7236 15.4017 56.8475 15.4017C55.9713 15.4017 55.4821 16.0502 55.4821 17.1653C55.4821 18.2804 55.9713 18.929 56.8475 18.929C57.7236 18.929 58.2243 18.2804 58.2243 17.1653Z" fill="black"/>
<path d="M65.6885 19.7255H64.6417L63.5835 15.9593H63.5038L62.4456 19.7255H61.4102L59.9993 14.6052H61.0233L61.9336 18.5194H62.0132L63.0714 14.6052H64.0386L65.0854 18.5194H65.1764L66.0867 14.6052H67.0994L65.6885 19.7255Z" fill="black"/>
<path d="M68.3054 14.6049H69.284V15.3786H69.3522C69.4811 15.0847 69.6981 14.838 69.9734 14.6729C70.2486 14.5078 70.5683 14.4323 70.8883 14.457C71.3285 14.4256 71.7633 14.5694 72.0979 14.8571C72.4325 15.1448 72.6398 15.5531 72.6747 15.993C72.686 16.118 72.686 16.2436 72.6747 16.3685V19.6797H71.6734V16.6644C71.6734 15.8451 71.3093 15.4355 70.5356 15.4355C70.3787 15.4229 70.2209 15.443 70.0722 15.4945C69.9234 15.546 69.787 15.6279 69.6715 15.7348C69.556 15.8417 69.464 15.9715 69.4012 16.1158C69.3384 16.2602 69.3062 16.4159 69.3067 16.5733C69.3011 16.6339 69.3011 16.6948 69.3067 16.7554V19.7479H68.3054V14.6049Z" fill="black"/>
<path d="M74.2449 12.6025H75.2576V19.7254H74.2449V12.6025Z" fill="black"/>
<path d="M76.657 17.1651C76.5951 16.5238 76.7905 15.8842 77.2002 15.387C77.6099 14.8899 78.2004 14.5758 78.8416 14.5139C79.4829 14.4521 80.1225 14.6475 80.6197 15.0572C81.1169 15.4669 81.4309 16.0573 81.4928 16.6986C81.5155 16.8532 81.5155 17.0104 81.4928 17.1651C81.5234 17.4826 81.4912 17.8031 81.398 18.1081C81.3048 18.4132 81.1524 18.6969 80.9496 18.9431C80.7467 19.1893 80.4973 19.3931 80.2157 19.5429C79.9341 19.6928 79.6257 19.7856 79.3082 19.8163C78.9906 19.8469 78.6702 19.8147 78.3651 19.7215C78.06 19.6283 77.7763 19.4759 77.5301 19.273C77.2839 19.0701 77.0801 18.8208 76.9303 18.5391C76.7805 18.2575 76.6876 17.9491 76.657 17.6316C76.6456 17.4763 76.6456 17.3204 76.657 17.1651ZM80.4574 17.1651C80.4574 16.0272 79.9567 15.4014 79.0806 15.4014C78.2045 15.4014 77.7038 16.05 77.7038 17.1651C77.7038 18.2802 78.2045 18.9287 79.0806 18.9287C79.9567 18.9287 80.4574 18.2802 80.4574 17.1651Z" fill="black"/>
<path d="M82.5628 18.2803C82.5628 17.3587 83.2455 16.8239 84.463 16.7556L85.8512 16.6646V16.2322C85.8512 15.686 85.4984 15.3788 84.8043 15.3788C84.1103 15.3788 83.8486 15.5836 83.7348 15.9477H82.7562C82.8586 15.0716 83.6893 14.5027 84.8499 14.5027C86.0105 14.5027 86.8638 15.1399 86.8638 16.2322V19.7254H85.8853V19.0085H85.8056C85.6397 19.271 85.4067 19.4843 85.1306 19.6263C84.8545 19.7684 84.5454 19.834 84.2354 19.8164C84.0329 19.8368 83.8284 19.8171 83.6335 19.7584C83.4386 19.6996 83.2572 19.603 83.0997 19.4741C82.9422 19.3451 82.8117 19.1864 82.7157 19.0069C82.6197 18.8275 82.56 18.6308 82.54 18.4282C82.5419 18.3782 82.5495 18.3286 82.5628 18.2803ZM85.8512 17.8366V17.4156L84.5995 17.4952C83.8941 17.4952 83.5755 17.7797 83.5755 18.2348C83.5755 18.6899 83.9737 18.963 84.5313 18.963C84.6933 18.9786 84.8569 18.9612 85.0121 18.9119C85.1673 18.8625 85.3109 18.7823 85.4342 18.676C85.5575 18.5696 85.6581 18.4395 85.7297 18.2932C85.8014 18.147 85.8427 17.9878 85.8512 17.8252V17.8366Z" fill="black"/>
<path d="M88.1948 17.1653C88.1948 15.5495 89.0254 14.5255 90.3112 14.5255C90.633 14.5096 90.9527 14.5856 91.2328 14.7448C91.5129 14.904 91.7418 15.1398 91.8928 15.4244H91.9611V12.6025H92.9738V19.7254H92.0066V18.9176H91.9269C91.7662 19.2014 91.5304 19.4354 91.2454 19.594C90.9603 19.7526 90.6371 19.8295 90.3112 19.8165C89.0141 19.8165 88.1948 18.7924 88.1948 17.1653ZM89.2303 17.1653C89.2303 18.2462 89.7423 18.9062 90.607 18.9062C91.4718 18.9062 91.9838 18.2462 91.9838 17.1653C91.9838 16.0843 91.449 15.3789 90.607 15.3789C89.765 15.3789 89.2303 16.0388 89.2303 17.1198V17.1653Z" fill="black"/>
<path d="M97.1611 17.1653C97.127 16.8468 97.1564 16.5246 97.2476 16.2175C97.3388 15.9104 97.4899 15.6244 97.6923 15.3761C97.8947 15.1278 98.1444 14.9221 98.4268 14.7708C98.7092 14.6196 99.0188 14.5259 99.3377 14.495C99.6565 14.4642 99.9783 14.4969 100.285 14.5912C100.591 14.6855 100.875 14.8396 101.121 15.0445C101.368 15.2495 101.571 15.5012 101.719 15.7851C101.867 16.0691 101.958 16.3796 101.986 16.6988C102.008 16.8535 102.008 17.0106 101.986 17.1653C102.02 17.4838 101.99 17.806 101.899 18.1131C101.808 18.4202 101.657 18.7062 101.454 18.9545C101.252 19.2028 101.002 19.4085 100.72 19.5598C100.437 19.711 100.128 19.8048 99.809 19.8356C99.4901 19.8664 99.1683 19.8337 98.8621 19.7394C98.556 19.6451 98.2715 19.491 98.0253 19.2861C97.7791 19.0811 97.5759 18.8294 97.4276 18.5455C97.2792 18.2615 97.1887 17.951 97.1611 17.6318C97.1384 17.4771 97.1384 17.32 97.1611 17.1653ZM100.95 17.1653C100.95 16.0275 100.449 15.4017 99.5733 15.4017C98.6972 15.4017 98.1965 16.0502 98.1965 17.1653C98.1965 18.2804 98.6972 18.929 99.5733 18.929C100.449 18.929 100.95 18.2804 100.95 17.1653Z" fill="black"/>
<path d="M103.351 14.6054H104.318V15.3791H104.398C104.526 15.0871 104.741 14.8419 105.014 14.6769C105.287 14.5119 105.604 14.4353 105.923 14.4575C106.363 14.4261 106.798 14.5699 107.132 14.8576C107.467 15.1454 107.674 15.5537 107.709 15.9936C107.726 16.1182 107.726 16.2445 107.709 16.3691V19.6802H106.696V16.6649C106.696 15.8457 106.344 15.436 105.558 15.436C105.402 15.4234 105.244 15.4435 105.095 15.4951C104.946 15.5466 104.81 15.6284 104.694 15.7353C104.579 15.8423 104.487 15.972 104.424 16.1163C104.361 16.2607 104.329 16.4165 104.33 16.5739C104.324 16.6344 104.324 16.6954 104.33 16.7559V19.7485H103.351V14.6054Z" fill="black"/>
<path d="M113.41 13.3307V14.6278H114.547V15.4812H113.41V18.1096C113.41 18.6558 113.637 18.8834 114.138 18.8834C114.266 18.8947 114.396 18.8947 114.525 18.8834V19.7254C114.339 19.7427 114.152 19.7427 113.967 19.7254C112.829 19.7254 112.397 19.3271 112.397 18.3372V15.4812H111.543V14.6278H112.351V13.3307H113.41Z" fill="black"/>
<path d="M115.901 12.6025H116.902V15.3789H116.982C117.117 15.0833 117.341 14.8369 117.622 14.6739C117.904 14.5108 118.229 14.4391 118.552 14.4686C118.774 14.4563 118.995 14.4878 119.204 14.5613C119.413 14.6347 119.606 14.7487 119.77 14.8967C119.935 15.0447 120.069 15.2238 120.165 15.4236C120.261 15.6235 120.316 15.8403 120.327 16.0616C120.333 16.1677 120.333 16.274 120.327 16.3802V19.6799H119.315V16.6646C119.315 15.8568 118.928 15.4358 118.177 15.4358C118.017 15.4234 117.857 15.4433 117.705 15.4942C117.553 15.5451 117.413 15.6261 117.293 15.7322C117.173 15.8384 117.076 15.9676 117.007 16.1121C116.937 16.2566 116.898 16.4136 116.891 16.5736C116.885 16.6418 116.885 16.7103 116.891 16.7784V19.7709H115.878L115.901 12.6025Z" fill="black"/>
<path d="M126.21 18.3493C126.072 18.8285 125.766 19.2419 125.348 19.5137C124.93 19.7854 124.428 19.8972 123.934 19.8285C123.626 19.8439 123.318 19.7965 123.028 19.689C122.739 19.5816 122.475 19.4164 122.251 19.2036C122.028 18.9907 121.85 18.7346 121.728 18.4508C121.607 18.167 121.544 17.8615 121.545 17.5528C121.534 17.4279 121.534 17.3022 121.545 17.1773C121.502 16.8693 121.52 16.5558 121.598 16.2549C121.677 15.9539 121.814 15.6716 122.003 15.424C122.191 15.1765 122.426 14.9687 122.696 14.8126C122.965 14.6566 123.262 14.5553 123.57 14.5148H123.9C125.334 14.5148 126.176 15.4933 126.176 17.0977V17.4504H122.558C122.529 17.8091 122.643 18.1646 122.876 18.4394C123.108 18.7143 123.439 18.8864 123.798 18.9182H124.059C124.301 18.949 124.545 18.907 124.762 18.7975C124.979 18.688 125.159 18.516 125.277 18.3038L126.21 18.3493ZM122.649 16.6994H125.197C125.216 16.3747 125.108 16.0553 124.896 15.8089C124.683 15.5626 124.383 15.4085 124.059 15.3795H123.946C123.773 15.3765 123.601 15.4078 123.441 15.4715C123.28 15.5352 123.133 15.63 123.01 15.7507C122.886 15.8713 122.787 16.0152 122.719 16.1741C122.652 16.3331 122.616 16.5039 122.614 16.6767L122.649 16.6994Z" fill="black"/>
<defs>
<filter id="filter0_d_853_5439" x="0" y="0" width="150.163" height="59.5225" filterUnits="userSpaceOnUse" color-interpolation-filters="sRGB">
<feFlood flood-opacity="0" result="BackgroundImageFix"/>
<feColorMatrix in="SourceAlpha" type="matrix" values="0 0 0 0 0 0 0 0 0 0 0 0 0 0 0 0 0 0 127 0" result="hardAlpha"/>
<feOffset dy="4"/>
<feGaussianBlur stdDeviation="4"/>
<feComposite in2="hardAlpha" operator="out"/>
<feColorMatrix type="matrix" values="0 0 0 0 0.575167 0 0 0 0 0.575167 0 0 0 0 0.575167 0 0 0 0.15 0"/>
<feBlend mode="normal" in2="BackgroundImageFix" result="effect1_dropShadow_853_5439"/>
<feBlend mode="normal" in="SourceGraphic" in2="effect1_dropShadow_853_5439" result="shape"/>
</filter>
</defs>
</svg>
