<svg width="151" height="60" viewBox="0 0 151 60" fill="none" xmlns="http://www.w3.org/2000/svg">
<g filter="url(#filter0_d_1_1315)">
<path d="M16.7061 47.7874H15.6763C14.9596 47.778 14.2445 47.7168 13.5367 47.6043C12.8762 47.4884 12.2363 47.2764 11.6373 46.975C11.0458 46.6815 10.505 46.2952 10.0355 45.8308C9.57737 45.3603 9.19176 44.8243 8.89129 44.2404C8.5968 43.6396 8.38878 43.0001 8.27343 42.341C8.14395 41.6191 8.06747 40.8887 8.0446 40.1556C8.0446 39.9154 8.0446 39.1144 8.0446 39.1144V12.6838C8.0446 12.6838 8.0446 11.8943 8.0446 11.654C8.06207 10.9368 8.1309 10.2218 8.25055 9.51438C8.36281 8.85453 8.57097 8.21465 8.86841 7.61504C9.16192 7.02347 9.54819 6.48268 10.0126 6.01318C10.485 5.55225 11.0252 5.16638 11.6145 4.86899C12.2144 4.55787 12.859 4.34172 13.5252 4.22825C14.2356 4.10243 14.9549 4.03356 15.6763 4.0223H135.335C136.049 4.02927 136.76 4.09433 137.463 4.21681C138.128 4.32341 138.773 4.53181 139.374 4.83467C140.563 5.44609 141.532 6.41429 142.143 7.6036C142.441 8.19817 142.645 8.83488 142.749 9.4915C142.875 10.2058 142.944 10.9289 142.955 11.654V12.6723C142.955 13.0957 142.955 13.5076 142.955 13.9195V37.8787C142.955 38.2906 142.955 38.7025 142.955 39.103V40.1671C142.937 40.88 142.872 41.5909 142.761 42.2953C142.647 42.9584 142.439 43.6019 142.143 44.2061C141.845 44.7881 141.459 45.3208 140.999 45.785C140.529 46.2488 139.988 46.635 139.397 46.9292C138.794 47.2306 138.15 47.4426 137.486 47.5585C136.778 47.671 136.063 47.7322 135.347 47.7416H16.7061V47.7874Z" fill="white"/>
</g>
<path d="M35.6426 25.7619C35.6582 24.7707 35.9232 23.7993 36.4131 22.9375C36.903 22.0756 37.6021 21.351 38.4458 20.8305C37.9096 20.0611 37.2011 19.4277 36.3766 18.9807C35.5522 18.5337 34.6348 18.2856 33.6974 18.2561C31.7066 18.0501 29.7614 19.4575 28.7431 19.4575C27.7248 19.4575 26.1458 18.3133 24.4524 18.3133C23.3605 18.3495 22.2966 18.6678 21.3642 19.2373C20.4318 19.8067 19.6628 20.6079 19.132 21.5628C16.8436 25.5445 18.5484 31.4028 20.7567 34.6179C21.9009 36.1969 23.1481 37.9589 24.83 37.9017C26.512 37.8445 27.1184 36.8491 29.0864 36.8491C31.0544 36.8491 31.6379 37.9017 33.3656 37.856C35.0933 37.8102 36.249 36.277 37.3131 34.6751C38.1069 33.5546 38.7171 32.3148 39.1209 31.0023C38.0925 30.5641 37.2151 29.8343 36.5969 28.903C35.9788 27.9717 35.647 26.8797 35.6426 25.7619Z" fill="black"/>
<path d="M32.3928 16.1509C33.3575 15.0046 33.834 13.5256 33.72 12.0318C32.2505 12.1778 30.89 12.8723 29.9099 13.9769C29.4288 14.5185 29.0605 15.1506 28.8267 15.8363C28.5929 16.522 28.4983 17.2474 28.5483 17.9701C29.2852 17.9788 30.0144 17.8195 30.6805 17.5042C31.3467 17.189 31.9322 16.7262 32.3928 16.1509Z" fill="black"/>
<path d="M55.448 34.0686H50.0361L48.7317 37.9131H46.4433L51.5235 23.7023H53.9034L59.0751 37.9131H56.7867L55.448 34.0686ZM50.5967 32.3066H54.8874L52.7707 26.0708H52.6677L50.5967 32.3066Z" fill="black"/>
<path d="M70.1621 32.7295C70.1621 35.9561 68.4344 38.0271 65.8371 38.0271C65.1777 38.0598 64.5224 37.9065 63.9459 37.5849C63.3693 37.2632 62.8947 36.7861 62.5762 36.2079V41.3452H60.4022V27.615H62.4618V29.3313C62.7943 28.7569 63.2764 28.2833 63.8566 27.961C64.4368 27.6386 65.0936 27.4795 65.757 27.5006C68.423 27.4434 70.1621 29.5258 70.1621 32.7295ZM67.9767 32.7295C67.9767 30.6357 66.8325 29.297 65.2307 29.297C63.6288 29.297 62.519 30.7043 62.519 32.7295C62.519 34.7547 63.6632 36.2193 65.2307 36.2193C66.7982 36.2193 67.9767 34.8463 67.9767 32.7295Z" fill="black"/>
<path d="M81.5585 32.7295C81.5585 35.9561 79.8422 38.0271 77.2335 38.0271C76.5743 38.0584 75.9196 37.9046 75.3433 37.5831C74.767 37.2616 74.2922 36.7852 73.9726 36.2079V41.3452H71.7986V27.615H73.8582V29.3313C74.1907 28.7569 74.6728 28.2833 75.253 27.961C75.8332 27.6386 76.49 27.4795 77.1534 27.5006C79.8308 27.4434 81.5585 29.5258 81.5585 32.7295ZM79.3731 32.7295C79.3731 30.6357 78.2289 29.297 76.6385 29.297C75.0481 29.297 73.9154 30.7043 73.9154 32.7295C73.9154 34.7547 75.0596 36.2193 76.6385 36.2193C78.2175 36.2193 79.3731 34.8463 79.3731 32.7295Z" fill="black"/>
<path d="M89.0984 33.9552C89.2472 35.3626 90.6202 36.2436 92.531 36.2436C94.4418 36.2436 95.6088 35.3168 95.6088 34.0468C95.6088 32.7767 94.8308 32.2847 92.9886 31.8385L91.1122 31.4838C88.5034 30.8545 87.2906 29.6302 87.2906 27.6508C87.2906 25.2022 89.4302 23.5203 92.4623 23.5203C95.4944 23.5203 97.5196 25.2022 97.5883 27.6508H95.4486C95.3113 26.232 94.1443 25.3624 92.428 25.3624C90.7117 25.3624 89.5447 26.232 89.5447 27.4906C89.5447 28.4975 90.2998 29.0925 92.1305 29.5387L93.698 29.9277C96.6043 30.6142 97.8171 31.7813 97.8171 33.8637C97.8171 36.5182 95.7004 38.1887 92.3365 38.1887C89.1785 38.1887 87.0503 36.564 86.913 33.9896L89.0984 33.9552Z" fill="black"/>
<path d="M102.406 25.0992V27.5592H104.374V29.1954H102.406V34.9163C102.406 35.8088 102.806 36.2207 103.664 36.2207C103.905 36.2207 104.133 36.2207 104.374 36.1635V37.8454C103.996 37.9131 103.613 37.9438 103.23 37.937C101.136 37.937 100.323 37.1475 100.323 35.1452V29.1954H98.7673V27.5592H100.278V25.0992H102.406Z" fill="black"/>
<path d="M105.518 32.7299C105.518 29.4804 107.44 27.4323 110.426 27.4323C113.413 27.4323 115.346 29.4804 115.346 32.7299C115.346 35.9794 113.447 38.0389 110.426 38.0389C107.406 38.0389 105.518 36.0595 105.518 32.7299ZM113.184 32.7299C113.184 30.4988 112.154 29.183 110.426 29.183C108.699 29.183 107.68 30.5102 107.68 32.7299C107.68 34.9496 108.71 36.2883 110.426 36.2883C112.143 36.2883 113.184 34.984 113.184 32.7299Z" fill="black"/>
<path d="M117.097 27.5587H119.122V29.3207C119.257 28.7677 119.579 28.2784 120.034 27.9362C120.489 27.5941 121.048 27.4202 121.617 27.4442C121.859 27.4483 122.1 27.4751 122.337 27.5243V29.5152C122.03 29.4222 121.709 29.3797 121.388 29.3894C121.102 29.3692 120.815 29.4066 120.544 29.4994C120.273 29.5922 120.024 29.7384 119.81 29.9294C119.597 30.1204 119.424 30.3523 119.302 30.6113C119.18 30.8704 119.111 31.1513 119.099 31.4375C119.093 31.548 119.093 31.6587 119.099 31.7693V37.9135H117.097V27.5587Z" fill="black"/>
<path d="M132.2 34.9155C131.914 36.8034 130.083 38.0848 127.738 38.0848C124.728 38.0848 122.852 36.0711 122.852 32.833C122.852 29.595 124.74 27.4783 127.646 27.4783C130.552 27.4783 132.314 29.4463 132.314 32.5813V33.3136H125.003V33.4395C124.94 34.1525 125.162 34.8617 125.621 35.4109C126.08 35.9602 126.739 36.3047 127.452 36.3686H127.783C128.288 36.4134 128.793 36.2954 129.226 36.0318C129.658 35.7682 129.995 35.373 130.186 34.904L132.2 34.9155ZM125.015 31.8262H130.186C130.224 31.1755 130.006 30.5358 129.578 30.044C129.151 29.5521 128.548 29.2472 127.898 29.1945H127.703C127.359 29.193 127.018 29.2593 126.7 29.3896C126.381 29.5199 126.092 29.7116 125.847 29.9539C125.603 30.1961 125.409 30.4841 125.276 30.8014C125.142 31.1188 125.073 31.4592 125.072 31.8033L125.015 31.8262Z" fill="black"/>
<path d="M50.379 13.0164C50.7744 12.9868 51.1717 13.0356 51.5482 13.16C51.9246 13.2845 52.2728 13.4821 52.5726 13.7415C52.8725 14.001 53.1181 14.3171 53.2953 14.6718C53.4726 15.0264 53.578 15.4126 53.6056 15.8082C53.6285 16.0058 53.6285 16.2055 53.6056 16.4031C53.6056 18.5885 52.4614 19.8357 50.3904 19.8357H47.8618V12.9706L50.379 13.0164ZM48.9144 18.8975H50.2074C50.49 18.9161 50.7735 18.8787 51.0416 18.7875C51.3097 18.6963 51.5572 18.553 51.7698 18.3659C51.9824 18.1788 52.156 17.9515 52.2806 17.6972C52.4051 17.4428 52.4783 17.1664 52.4957 16.8837C52.5128 16.7354 52.5128 16.5857 52.4957 16.4375C52.5344 16.1572 52.5174 15.872 52.4457 15.5983C52.374 15.3246 52.249 15.0678 52.0779 14.8424C51.9068 14.6171 51.6929 14.4278 51.4485 14.2852C51.2041 14.1427 50.934 14.0498 50.6536 14.0118C50.5165 14.0004 50.3787 14.0004 50.2417 14.0118H48.9144V18.8975Z" fill="black"/>
<path d="M54.7386 17.261C54.7043 16.9407 54.7338 16.6167 54.8255 16.3079C54.9172 15.9991 55.0692 15.7115 55.2728 15.4618C55.4763 15.2121 55.7273 15.0053 56.0113 14.8532C56.2953 14.7011 56.6066 14.6068 56.9273 14.5758C57.2479 14.5448 57.5715 14.5777 57.8794 14.6725C58.1873 14.7674 58.4733 14.9223 58.7209 15.1284C58.9685 15.3345 59.1728 15.5876 59.3219 15.8731C59.4711 16.1587 59.5622 16.4709 59.5899 16.7919C59.6128 16.9474 59.6128 17.1055 59.5899 17.261C59.6242 17.5813 59.5946 17.9052 59.5029 18.2141C59.4113 18.5229 59.2592 18.8105 59.0557 19.0602C58.8522 19.3099 58.6012 19.5167 58.3172 19.6688C58.0332 19.8209 57.7219 19.9152 57.4012 19.9462C57.0806 19.9772 56.757 19.9443 56.4491 19.8495C56.1412 19.7546 55.8552 19.5997 55.6076 19.3936C55.36 19.1875 55.1557 18.9344 55.0065 18.6489C54.8574 18.3633 54.7663 18.0511 54.7386 17.7301C54.7157 17.5746 54.7157 17.4165 54.7386 17.261ZM58.5487 17.261C58.5487 16.1168 58.0453 15.4875 57.1642 15.4875C56.2832 15.4875 55.7912 16.1397 55.7912 17.261C55.7912 18.3823 56.2832 19.0345 57.1642 19.0345C58.0453 19.0345 58.5487 18.3823 58.5487 17.261Z" fill="black"/>
<path d="M66.0547 19.8355H65.002L63.9379 16.0482H63.8578L62.7937 19.8355H61.7525L60.3338 14.6866H61.3635L62.2789 18.6226H62.359L63.4231 14.6866H64.3956L65.4483 18.6226H65.5398L66.4551 14.6866H67.4735L66.0547 19.8355Z" fill="black"/>
<path d="M68.686 14.6863H69.67V15.4643H69.7387C69.8683 15.1688 70.0865 14.9208 70.3633 14.7547C70.64 14.5887 70.9616 14.5128 71.2833 14.5376C71.726 14.506 72.1632 14.6506 72.4996 14.9399C72.8361 15.2293 73.0446 15.6398 73.0797 16.0822C73.0911 16.2078 73.0911 16.3342 73.0797 16.4598V19.7894H72.0728V16.7573C72.0728 15.9335 71.7067 15.5216 70.9286 15.5216C70.7709 15.5089 70.6122 15.5291 70.4626 15.5809C70.3131 15.6327 70.1759 15.715 70.0597 15.8225C69.9436 15.93 69.851 16.0605 69.7879 16.2057C69.7248 16.3508 69.6924 16.5075 69.6929 16.6657C69.6872 16.7266 69.6872 16.7879 69.6929 16.8488V19.858H68.686V14.6863Z" fill="black"/>
<path d="M74.6587 12.6728H75.6771V19.8354H74.6587V12.6728Z" fill="black"/>
<path d="M77.0843 17.2608C77.0221 16.6159 77.2186 15.9728 77.6306 15.4728C78.0426 14.9729 78.6363 14.657 79.2812 14.5948C79.926 14.5326 80.5692 14.7291 81.0691 15.1411C81.5691 15.5531 81.8849 16.1468 81.9471 16.7917C81.97 16.9472 81.97 17.1052 81.9471 17.2608C81.9779 17.5801 81.9455 17.9023 81.8518 18.2091C81.7581 18.5159 81.6048 18.8012 81.4008 19.0487C81.1969 19.2963 80.9461 19.5012 80.6629 19.6519C80.3797 19.8025 80.0696 19.8959 79.7503 19.9267C79.431 19.9575 79.1088 19.9251 78.802 19.8314C78.4952 19.7377 78.2099 19.5844 77.9623 19.3804C77.7148 19.1765 77.5098 18.9257 77.3592 18.6425C77.2085 18.3593 77.1151 18.0492 77.0843 17.7299C77.0729 17.5737 77.0729 17.4169 77.0843 17.2608ZM80.9059 17.2608C80.9059 16.1166 80.4025 15.4873 79.5215 15.4873C78.6404 15.4873 78.137 16.1395 78.137 17.2608C78.137 18.3821 78.6404 19.0343 79.5215 19.0343C80.4025 19.0343 80.9059 18.3821 80.9059 17.2608Z" fill="black"/>
<path d="M83.0229 18.3822C83.0229 17.4554 83.7094 16.9177 84.9337 16.849L86.3296 16.7575V16.3227C86.3296 15.7735 85.9749 15.4646 85.2769 15.4646C84.579 15.4646 84.3158 15.6705 84.2014 16.0366H83.2174C83.3204 15.1556 84.1556 14.5835 85.3227 14.5835C86.4898 14.5835 87.3479 15.2243 87.3479 16.3227V19.8353H86.3639V19.1145H86.2838C86.117 19.3784 85.8826 19.5929 85.605 19.7357C85.3273 19.8786 85.0165 19.9446 84.7048 19.9269C84.5012 19.9474 84.2955 19.9276 84.0995 19.8685C83.9036 19.8095 83.7212 19.7123 83.5628 19.5826C83.4044 19.453 83.2732 19.2933 83.1766 19.1129C83.0801 18.9324 83.02 18.7347 83 18.531C83.0019 18.4807 83.0095 18.4308 83.0229 18.3822ZM86.3296 17.936V17.5126L85.071 17.5927C84.3616 17.5927 84.0412 17.8788 84.0412 18.3365C84.0412 18.7941 84.4417 19.0687 85.0023 19.0687C85.1653 19.0844 85.3298 19.0669 85.4858 19.0173C85.6419 18.9677 85.7863 18.887 85.9103 18.7801C86.0343 18.6732 86.1354 18.5422 86.2075 18.3952C86.2795 18.2482 86.3211 18.0881 86.3296 17.9246V17.936Z" fill="black"/>
<path d="M88.6865 17.261C88.6865 15.6362 89.5218 14.6065 90.8147 14.6065C91.1383 14.5904 91.4598 14.667 91.7414 14.827C92.0231 14.9871 92.2533 15.2242 92.4051 15.5104H92.4738V12.6728H93.4921V19.8354H92.5196V19.023H92.4395C92.2778 19.3084 92.0407 19.5438 91.7541 19.7032C91.4675 19.8627 91.1424 19.9401 90.8147 19.9269C89.5103 19.9269 88.6865 18.8972 88.6865 17.261ZM89.7277 17.261C89.7277 18.3479 90.2426 19.0116 91.1122 19.0116C91.9818 19.0116 92.4967 18.3479 92.4967 17.261C92.4967 16.174 91.9589 15.4646 91.1122 15.4646C90.2655 15.4646 89.7277 16.1282 89.7277 17.2152V17.261Z" fill="black"/>
<path d="M97.7026 17.261C97.6683 16.9407 97.6979 16.6167 97.7896 16.3079C97.8813 15.9991 98.0333 15.7115 98.2368 15.4618C98.4404 15.2121 98.6914 15.0053 98.9754 14.8532C99.2593 14.7011 99.5707 14.6068 99.8913 14.5758C100.212 14.5448 100.536 14.5777 100.843 14.6725C101.151 14.7674 101.437 14.9223 101.685 15.1284C101.933 15.3345 102.137 15.5876 102.286 15.8731C102.435 16.1587 102.526 16.4709 102.554 16.7919C102.577 16.9474 102.577 17.1055 102.554 17.261C102.588 17.5813 102.559 17.9052 102.467 18.2141C102.375 18.5229 102.223 18.8105 102.02 19.0602C101.816 19.3099 101.565 19.5167 101.281 19.6688C100.997 19.8209 100.686 19.9152 100.365 19.9462C100.045 19.9772 99.721 19.9443 99.4131 19.8495C99.1053 19.7546 98.8193 19.5997 98.5716 19.3936C98.324 19.1875 98.1198 18.9344 97.9706 18.6489C97.8214 18.3633 97.7303 18.0511 97.7026 17.7301C97.6798 17.5746 97.6798 17.4165 97.7026 17.261ZM101.513 17.261C101.513 16.1168 101.009 15.4875 100.128 15.4875C99.2473 15.4875 98.7438 16.1397 98.7438 17.261C98.7438 18.3823 99.2473 19.0345 100.128 19.0345C101.009 19.0345 101.513 18.3823 101.513 17.261Z" fill="black"/>
<path d="M103.927 14.6868H104.9V15.4649H104.98C105.109 15.1712 105.325 14.9246 105.6 14.7587C105.874 14.5928 106.193 14.5158 106.513 14.5381C106.956 14.5065 107.393 14.6511 107.729 14.9405C108.066 15.2298 108.274 15.6404 108.309 16.0827C108.326 16.208 108.326 16.335 108.309 16.4603V19.7899H107.291V16.7578C107.291 15.934 106.936 15.5221 106.147 15.5221C105.989 15.5094 105.83 15.5296 105.681 15.5814C105.531 15.6332 105.394 15.7155 105.278 15.823C105.162 15.9306 105.069 16.061 105.006 16.2062C104.943 16.3513 104.911 16.508 104.911 16.6663C104.905 16.7272 104.905 16.7884 104.911 16.8493V19.8585H103.927V14.6868Z" fill="black"/>
<path d="M114.042 13.405V14.7094H115.186V15.5675H114.042V18.2106C114.042 18.7598 114.27 18.9886 114.774 18.9886C114.903 19 115.034 19 115.163 18.9886V19.8353C114.976 19.8528 114.789 19.8528 114.602 19.8353C113.458 19.8353 113.023 19.4349 113.023 18.4394V15.5675H112.165V14.7094H112.978V13.405H114.042Z" fill="black"/>
<path d="M116.547 12.6728H117.554V15.4646H117.634C117.77 15.1673 117.995 14.9196 118.278 14.7557C118.561 14.5917 118.887 14.5196 119.213 14.5493C119.436 14.5369 119.658 14.5686 119.868 14.6424C120.079 14.7163 120.272 14.8309 120.438 14.9797C120.604 15.1286 120.739 15.3086 120.835 15.5096C120.931 15.7106 120.986 15.9286 120.998 16.1511C121.003 16.2578 121.003 16.3648 120.998 16.4715V19.7896H119.98V16.7575C119.98 15.9452 119.591 15.5218 118.835 15.5218C118.675 15.5094 118.513 15.5294 118.361 15.5806C118.208 15.6318 118.067 15.7132 117.947 15.8199C117.826 15.9267 117.728 16.0566 117.659 16.2019C117.589 16.3473 117.55 16.5051 117.543 16.666C117.537 16.7345 117.537 16.8034 117.543 16.8719V19.8812H116.524L116.547 12.6728Z" fill="black"/>
<path d="M126.913 18.4516C126.775 18.9335 126.467 19.3492 126.047 19.6225C125.626 19.8957 125.122 20.0081 124.625 19.939C124.315 19.9545 124.005 19.9068 123.714 19.7988C123.423 19.6908 123.157 19.5247 122.932 19.3106C122.708 19.0966 122.529 18.839 122.407 18.5536C122.285 18.2683 122.222 17.961 122.222 17.6507C122.211 17.5251 122.211 17.3987 122.222 17.2731C122.179 16.9634 122.197 16.6481 122.276 16.3455C122.355 16.0429 122.493 15.7589 122.683 15.51C122.872 15.2611 123.109 15.0521 123.379 14.8952C123.65 14.7383 123.949 14.6365 124.259 14.5957H124.591C126.032 14.5957 126.879 15.5797 126.879 17.193V17.5477H123.241C123.212 17.9084 123.327 18.2658 123.561 18.5422C123.794 18.8186 124.127 18.9916 124.488 19.0237H124.751C124.993 19.0547 125.239 19.0124 125.458 18.9023C125.676 18.7921 125.856 18.6192 125.975 18.4058L126.913 18.4516ZM123.332 16.7925H125.895C125.914 16.466 125.805 16.1448 125.592 15.8971C125.378 15.6493 125.077 15.4944 124.751 15.4653H124.636C124.463 15.4622 124.29 15.4937 124.129 15.5577C123.967 15.6218 123.82 15.7172 123.695 15.8385C123.571 15.9597 123.472 16.1045 123.403 16.2643C123.335 16.4241 123.299 16.5959 123.298 16.7696L123.332 16.7925Z" fill="black"/>
<defs>
<filter id="filter0_d_1_1315" x="0" y="0" width="151" height="59.8543" filterUnits="userSpaceOnUse" color-interpolation-filters="sRGB">
<feFlood flood-opacity="0" result="BackgroundImageFix"/>
<feColorMatrix in="SourceAlpha" type="matrix" values="0 0 0 0 0 0 0 0 0 0 0 0 0 0 0 0 0 0 127 0" result="hardAlpha"/>
<feOffset dy="4"/>
<feGaussianBlur stdDeviation="4"/>
<feComposite in2="hardAlpha" operator="out"/>
<feColorMatrix type="matrix" values="0 0 0 0 0.575167 0 0 0 0 0.575167 0 0 0 0 0.575167 0 0 0 0.15 0"/>
<feBlend mode="normal" in2="BackgroundImageFix" result="effect1_dropShadow_1_1315"/>
<feBlend mode="normal" in="SourceGraphic" in2="effect1_dropShadow_1_1315" result="shape"/>
</filter>
</defs>
</svg>
