<svg width="24" height="24" viewBox="0 0 24 24" fill="none" xmlns="http://www.w3.org/2000/svg">
<path fill-rule="evenodd" clip-rule="evenodd" d="M18.5741 7.95355V7.45355L18.0741 7.45355L14.2588 7.45355C13.9827 7.45355 13.7588 7.67741 13.7588 7.95355C13.7588 8.2297 13.9827 8.45355 14.2588 8.45355L17.5741 8.45355V8.90738L17.5741 11.7689C17.5741 12.045 17.798 12.2689 18.0741 12.2689C18.3503 12.2689 18.5741 12.045 18.5741 11.7689V8.90738V8.43046V7.95355ZM5.54031 15.7282C5.36457 15.9412 5.39479 16.2563 5.6078 16.4321C5.82081 16.6078 6.13595 16.5776 6.31168 16.3646L9.48257 12.5211L12.095 14.8301C12.1966 14.9199 12.3303 14.9645 12.4654 14.9539C12.6006 14.9433 12.7256 14.8782 12.8118 14.7736L16.3119 10.5311C16.4877 10.3181 16.4574 10.003 16.2444 9.82722C16.0314 9.65149 15.7163 9.68171 15.5406 9.89472L12.3697 13.7382L9.75721 11.4292C9.65564 11.3394 9.52197 11.2948 9.38683 11.3054C9.25169 11.316 9.12666 11.3811 9.0404 11.4857L5.54031 15.7282Z" fill="#0E4C9A"/>
</svg>
