<svg width="79" height="75" viewBox="0 0 79 75" fill="none" xmlns="http://www.w3.org/2000/svg">
<g clip-path="url(#clip0_853_3347)">
<path d="M44.063 17.8739H54.4828L59.7984 4.29711C59.9129 4.00445 59.8644 3.69704 59.6653 3.45368C59.5007 3.25223 59.2721 3.14355 59.023 3.14355C58.9725 3.14355 58.9213 3.14782 58.8693 3.15714C57.6549 3.36945 56.5868 3.70985 55.4542 4.07082C53.6328 4.65148 51.7489 5.25232 49.2727 5.25232C46.7965 5.25232 44.9126 4.65187 43.0896 4.07043C41.9587 3.70985 40.8902 3.36945 39.6758 3.15714C39.6261 3.1486 39.5764 3.14433 39.5275 3.14433C39.2779 3.14433 39.0431 3.25456 38.8805 3.45407C38.6814 3.69743 38.6329 4.00484 38.7474 4.2975L44.063 17.8747V17.8739Z" fill="#43BB9A"/>
<path d="M73.9382 56.6885C75.3711 55.828 75.8974 53.9886 75.1363 52.5012C74.7346 51.7156 74.0477 51.1454 73.202 50.8955C72.9043 50.8074 72.5981 50.7623 72.2918 50.7623C71.7399 50.7623 71.1911 50.9102 70.7052 51.1893L56.7521 59.2118C55.0385 60.1977 53.0878 60.7185 51.1112 60.7185H38.8191C38.4803 60.7185 38.2044 60.4426 38.2044 60.1037C38.2044 59.7649 38.4803 59.4893 38.8191 59.4893H51.1112C52.5057 59.4893 53.8625 59.206 55.1437 58.6474C55.3013 58.5787 55.4631 58.503 55.625 58.4223C55.7507 58.359 55.8749 58.2938 55.9937 58.2282L56.3046 58.0567V57.046C56.3046 56.4812 56.2001 55.9301 55.9929 55.4041C55.9618 55.3269 55.932 55.2574 55.9025 55.1926C55.3548 53.9956 54.3151 53.1059 53.0506 52.7523C52.6609 52.6433 52.2561 52.5878 51.847 52.5878H45.1637C44.3781 52.5878 43.5875 52.5365 42.8132 52.4356C41.1863 52.2241 39.5884 51.7882 38.0646 51.14L36.0635 50.2884C35.8039 50.1774 35.533 50.0699 35.2578 49.969C34.4284 49.6647 33.5675 49.4237 32.6993 49.2529C31.9813 49.112 31.2462 49.0177 30.5154 48.9722C30.1641 48.9497 29.804 48.9385 29.445 48.9385H20.679C19.6633 48.9385 18.6433 49.1733 17.7301 49.6177L14.5708 51.1551L21.4967 65.4306H26.2209C27.5579 65.4306 28.8651 65.6832 30.1071 66.1808L42.4791 71.1448C43.6221 71.6036 44.8314 71.8361 46.0742 71.8361C46.9824 71.8361 47.8813 71.7091 48.746 71.4592C49.5579 71.2247 50.3353 70.8847 51.0557 70.4488L73.9386 56.6873L73.9382 56.6885Z" fill="#0E4C9A"/>
<path d="M21.6815 68.6294L11.8925 48.4523C11.7159 48.0883 11.4081 47.815 11.0254 47.6823C10.8624 47.6256 10.6943 47.5977 10.5271 47.5977C10.3012 47.5977 10.0769 47.6489 9.86766 47.7502L1.22742 51.9429C0.863366 52.1191 0.589744 52.4273 0.457008 52.81C0.324273 53.1927 0.348724 53.6037 0.525317 53.9678L10.3144 74.1445C10.4906 74.5086 10.7988 74.7822 11.1814 74.915C11.3444 74.9716 11.5121 74.9996 11.6798 74.9996C11.9057 74.9996 12.13 74.9484 12.3396 74.8474L20.9802 70.6544C21.3439 70.4778 21.6171 70.17 21.7498 69.7873C21.8826 69.4046 21.8585 68.9931 21.6819 68.6294H21.6815ZM7.86692 57.2565C6.29466 57.2565 5.01582 55.9776 5.01582 54.4052C5.01582 52.8329 6.29466 51.554 7.86692 51.554C9.43918 51.554 10.718 52.8329 10.718 54.4052C10.718 55.9776 9.43918 57.2565 7.86692 57.2565Z" fill="#0E4C9A"/>
<path d="M31.0112 47.1364V47.7687L31.543 47.8308C31.8597 47.8677 32.1756 47.9127 32.4826 47.9651C33.2875 48.1013 34.0905 48.295 34.8703 48.5407C35.4346 48.7181 35.9977 48.9257 36.5442 49.1586L38.5461 50.0102C39.8642 50.5707 41.2439 50.9619 42.6466 51.1723C43.4736 51.2965 44.3205 51.3594 45.1639 51.3594H51.8473C52.1636 51.3594 52.4807 51.3854 52.7892 51.4366C53.5922 51.5705 54.3428 51.8698 55.0193 52.3258C56.2233 53.1367 57.0647 54.3582 57.3888 55.7655C57.4369 55.9728 57.4734 56.1847 57.4971 56.3963L57.5995 57.3076L67.0672 51.8643L67.1235 51.6027C67.1953 51.2701 67.2582 50.9251 67.3102 50.5773C67.4596 49.5805 67.5353 48.4918 67.5353 47.341C67.5353 42.4131 66.1893 36.5344 63.8424 31.2114C61.4353 25.7526 58.2531 21.5013 54.8827 19.2408L54.7306 19.1387H43.8156L43.6634 19.2408C40.3175 21.485 37.1524 25.6979 34.7515 31.1031C32.4112 36.3717 31.0481 42.2156 31.0112 47.1364ZM48.4 37.5206L48.3973 37.5198L48.3946 37.5187C46.4361 36.7917 45.1829 36.0864 44.3314 35.2314C43.3312 34.2272 42.8453 32.9666 42.8453 31.3771C42.8453 29.7877 43.3541 28.4863 44.3162 27.4744C45.0211 26.7334 45.9475 26.1989 47.0319 25.9012V23.8949H51.7359V25.9762C52.1356 26.098 52.5102 26.2517 52.8564 26.4357C53.4793 26.7668 54.0149 27.1984 54.4488 27.7181C55.2499 28.6784 55.695 29.9433 55.7366 31.3756L55.7727 32.6137H50.7275L50.6243 31.5242C50.5762 31.0177 50.457 30.6486 50.2703 30.4262C50.195 30.3365 49.9657 30.0637 49.1731 30.0606H49.1603C48.4051 30.0606 48.0682 30.3711 48.0682 31.0674C48.0682 31.5238 48.1633 31.6438 48.3197 31.7874C48.7551 32.1868 49.7724 32.5827 50.5005 32.8462C52.4729 33.5538 53.81 34.3421 54.7081 35.3276C55.6644 36.3772 56.1293 37.6635 56.1293 39.2595C56.1293 40.0862 56.0082 40.852 55.7692 41.5367C55.5227 42.2431 55.1497 42.8684 54.6607 43.3947C53.9198 44.1928 52.939 44.7493 51.7359 45.0564V47.5133H47.0319V45.0688C46.6092 44.9613 46.211 44.8215 45.84 44.6508C45.1522 44.334 44.5526 43.9082 44.0574 43.385C43.5645 42.8641 43.1744 42.2458 42.8985 41.5476C42.6326 40.8753 42.4711 40.1231 42.4184 39.3123L42.3349 38.0306H47.4153L47.5438 39.0891C47.6948 40.3346 48.2688 40.8901 49.4041 40.8901C49.9777 40.8901 50.3973 40.781 50.6165 40.5745C50.7997 40.4022 50.8925 40.0967 50.8925 39.6663C50.8925 38.9226 50.8925 38.4312 48.4 37.5191V37.5206Z" fill="#43BB9A"/>
<path d="M78.1479 50.0127C77.5948 48.9309 76.6482 48.1453 75.4834 47.8011C75.0759 47.6803 74.6544 47.6186 74.2325 47.6186C73.4703 47.6186 72.7142 47.8216 72.0463 48.2059L70.3851 49.1607C70.4045 49.0454 70.4236 48.9298 70.441 48.8137C70.599 47.7584 70.6793 46.6095 70.6793 45.3992C70.6793 40.3103 69.2961 34.2546 66.8843 28.7845L66.8541 28.7154C65.6264 25.9429 64.2048 23.4701 62.6282 21.364C61.0304 19.2293 59.3242 17.5405 57.556 16.3423L62.8599 2.79539C63.1336 2.09673 63.0133 1.33249 62.5378 0.75144C62.1474 0.274027 61.5737 0 60.9644 0C60.8449 0 60.7238 0.0104798 60.6042 0.0314394C59.3087 0.257725 58.2022 0.610545 57.0304 0.984324C55.2168 1.56265 53.5036 2.10877 51.2141 2.10877C48.9246 2.10877 47.2111 1.56227 45.3967 0.983936C44.2257 0.610545 43.1196 0.258113 41.8244 0.0314394C41.7065 0.0108679 41.5873 0.00038814 41.4689 0.00038814C40.8557 0.00038814 40.2801 0.274415 39.8901 0.752216C39.4154 1.33249 39.2951 2.09635 39.5683 2.795L44.8727 16.3423C43.1172 17.5319 41.422 19.2067 39.8326 21.3225C38.2514 23.4274 36.8251 25.9006 35.5936 28.6735C33.1888 34.0877 31.7877 40.1062 31.7497 45.1862V45.19V45.1939V45.799C31.6282 45.7967 31.5071 45.7951 31.386 45.7951H22.6201C21.4227 45.7951 20.2211 46.0719 19.1449 46.5959L15.9856 48.1333L15.9635 48.1442L14.9167 45.9865C14.6 45.3336 14.0477 44.8426 13.3615 44.6047C13.0724 44.5046 12.7724 44.4537 12.4689 44.4537C12.0563 44.4537 11.6581 44.5457 11.2843 44.727L2.6441 48.9197C1.99129 49.236 1.49993 49.7887 1.26202 50.4757C1.02449 51.162 1.06796 51.8994 1.38466 52.5527L11.1737 72.7294C11.4897 73.3822 12.0423 73.8732 12.7293 74.1115C13.0181 74.2117 13.3181 74.2625 13.6216 74.2625C14.0334 74.2625 14.4316 74.1709 14.8053 73.9901L23.4471 69.7966C24.1003 69.4795 24.5905 68.9272 24.8284 68.2409C25.0664 67.5547 25.0229 66.8168 24.7062 66.164L23.9932 64.6945H28.1624C29.3449 64.6945 30.5019 64.9181 31.6007 65.3586L43.9723 70.3225C45.2581 70.8387 46.6185 71.1003 48.0157 71.1003C49.0368 71.1003 50.0482 70.9575 51.022 70.6761C51.9341 70.413 52.8077 70.0306 53.6185 69.5404L76.5007 55.7793C78.4735 54.5947 79.1981 52.0613 78.1498 50.0127H78.1479ZM40.688 2.35679C40.5735 2.06413 40.6221 1.75672 40.8212 1.51336C40.9838 1.31386 41.2186 1.20362 41.4681 1.20362C41.517 1.20362 41.5667 1.20789 41.6164 1.21643C42.8312 1.42875 43.8993 1.76914 45.0303 2.12973C46.8533 2.71077 48.7368 3.31161 51.2134 3.31161C53.6899 3.31161 55.5735 2.71116 57.3949 2.13012C58.5274 1.76914 59.5955 1.42875 60.8099 1.21643C60.8615 1.20751 60.9132 1.20285 60.9636 1.20285C61.2128 1.20285 61.441 1.31153 61.6059 1.51297C61.805 1.75634 61.8536 2.06374 61.7391 2.3564L56.4234 15.9332H46.0037L40.688 2.35679ZM32.9521 45.1955C32.989 40.275 34.352 34.4312 36.6924 29.1622C39.0933 23.7565 42.2584 19.5436 45.6043 17.2998L45.7564 17.1977H56.6714L56.8236 17.2998C60.194 19.5603 63.3761 23.8113 65.7832 29.2705C68.1302 34.5934 69.4762 40.4722 69.4762 45.4C69.4762 46.5509 69.4005 47.6396 69.2511 48.6363C69.1991 48.9841 69.1362 49.3292 69.0644 49.6618L69.0081 49.9234L59.5404 55.3667L59.4379 54.4553C59.4142 54.2438 59.3778 54.0319 59.3296 53.8246C59.0056 52.4168 58.1641 51.1957 56.9602 50.3849C56.2833 49.9288 55.5331 49.6296 54.7301 49.4957C54.4215 49.4444 54.1044 49.4184 53.7881 49.4184H47.1048C46.261 49.4184 45.4141 49.3556 44.5874 49.2314C43.1848 49.021 41.8054 48.6301 40.487 48.0693L38.4851 47.2177C37.9386 46.9848 37.3755 46.7771 36.8111 46.5998C36.0318 46.3545 35.2284 46.1608 34.4234 46.0241C34.1164 45.9717 33.8005 45.9267 33.4838 45.8899L32.9517 45.8277V45.1955H32.9521ZM23.6909 67.8466C23.5581 68.2293 23.2849 68.5371 22.9212 68.7137L14.2806 72.9068C14.0714 73.0081 13.8467 73.0589 13.6208 73.0589C13.4535 73.0589 13.2855 73.031 13.1225 72.9743C12.7394 72.8416 12.4316 72.5679 12.2554 72.2038L2.46557 52.0275C2.28897 51.6634 2.26491 51.2524 2.39726 50.8697C2.52999 50.4866 2.80362 50.1788 3.16767 50.0026L11.8079 45.8099C12.0167 45.7086 12.2414 45.6574 12.4673 45.6574C12.6346 45.6574 12.8027 45.6853 12.9657 45.742C13.3483 45.8747 13.6561 46.1483 13.8327 46.512L23.6218 66.6891C23.7984 67.0528 23.8224 67.4639 23.6897 67.847L23.6909 67.8466ZM75.8793 54.748L52.9964 68.5095C52.276 68.9454 51.4982 69.2854 50.6867 69.5198C49.822 69.7698 48.9227 69.8967 48.0149 69.8967C46.7721 69.8967 45.5628 69.6642 44.4198 69.2055L32.0478 64.2415C30.8062 63.7435 29.4986 63.4912 28.1616 63.4912H23.4374L16.5115 49.2158L19.6708 47.6784C20.584 47.234 21.604 46.9988 22.6197 46.9988H31.3857C31.7443 46.9988 32.1045 47.0104 32.4561 47.0325C33.1869 47.0779 33.922 47.1723 34.64 47.3132C35.5086 47.4839 36.3691 47.725 37.1985 48.0293C37.4737 48.1306 37.7446 48.2377 38.0042 48.3487L40.0053 49.2003C41.5291 49.8485 43.127 50.2844 44.7539 50.4959C45.5282 50.5968 46.3192 50.6481 47.1044 50.6481H53.7877C54.1968 50.6481 54.602 50.7036 54.9913 50.8126C56.2558 51.1662 57.2955 52.0559 57.8432 53.2529C57.873 53.3177 57.9025 53.3872 57.9336 53.4644C58.1408 53.99 58.2452 54.5411 58.2452 55.1062V56.117L57.9344 56.2885C57.8156 56.3541 57.6914 56.4193 57.5657 56.4826C57.4038 56.5633 57.242 56.6394 57.0844 56.7077C55.8032 57.2662 54.4464 57.5496 53.0519 57.5496H40.7598C40.421 57.5496 40.1451 57.8252 40.1451 58.164C40.1451 58.5029 40.421 58.7788 40.7598 58.7788H53.0519C55.0285 58.7788 56.9788 58.2579 58.6927 57.2721L72.6459 49.2496C73.1318 48.9701 73.6802 48.8226 74.2325 48.8226C74.5388 48.8226 74.845 48.8673 75.1427 48.9558C75.988 49.2053 76.6753 49.7759 77.077 50.5615C77.8381 52.0489 77.3118 53.8883 75.8789 54.7488L75.8793 54.748Z" fill="#2B2C2C"/>
<path d="M51.3445 38.9502C50.2089 38.9502 49.6353 38.3948 49.4843 37.1492L49.3558 36.0908H44.2754L44.3588 37.3724C44.4116 38.1832 44.5735 38.9354 44.8389 39.6077C45.1149 40.306 45.5049 40.9239 45.9979 41.4452C46.4931 41.9684 47.0927 42.3942 47.7805 42.7109C48.1515 42.8817 48.5501 43.0214 48.9724 43.1289V45.5734H53.6763V43.1165C54.8795 42.8095 55.8603 42.2529 56.6012 41.4549C57.0902 40.9282 57.4632 40.3029 57.7096 39.5968C57.9487 38.9122 58.0698 38.146 58.0698 37.3196C58.0698 35.7236 57.6049 34.4373 56.6485 33.3878C55.7504 32.4023 54.4134 31.6136 52.441 30.9064C51.7129 30.6428 50.6956 30.2469 50.2601 29.8475C50.1037 29.7039 50.0086 29.584 50.0086 29.1275C50.0086 28.4312 50.3455 28.1207 51.1008 28.1207H51.1136C51.9065 28.1238 52.1355 28.3967 52.2108 28.4863C52.3975 28.7087 52.5166 29.0782 52.5648 29.5844L52.668 30.6739H57.7131L57.677 29.4357C57.6355 28.0031 57.19 26.7385 56.3893 25.7783C55.9557 25.2585 55.4198 24.8269 54.7968 24.4958C54.4506 24.3119 54.0761 24.1582 53.6763 24.0363V21.9551H48.9724V23.9614C47.8876 24.2591 46.9615 24.7935 46.2567 25.5345C45.2942 26.5464 44.7858 27.896 44.7858 29.4373C44.7858 30.9786 45.2721 32.287 46.2719 33.2915C47.1234 34.1466 48.3766 34.8518 50.335 35.5788L50.3378 35.58L50.3405 35.5807C52.833 36.4925 52.833 36.9839 52.833 37.7279C52.833 38.1584 52.7402 38.4639 52.557 38.6362C52.3377 38.8427 51.9182 38.9517 51.3445 38.9517V38.9502ZM50.7538 34.4497C47.4288 33.2158 45.9889 31.999 45.9889 29.4365C45.9889 26.874 47.6326 25.2667 50.1759 24.9465V23.1575H52.4736V24.9907C55.183 25.4266 56.4095 27.2152 56.475 29.4699H53.7629C53.6402 28.1774 53.0856 26.9244 51.1202 26.9167C51.114 26.9167 51.1074 26.9167 51.1012 26.9167C49.6364 26.9167 48.8059 27.8067 48.8059 29.1267C48.8059 30.4468 49.4401 31.0997 52.0342 32.0378C55.5245 33.2896 56.867 34.7851 56.867 37.3188C56.867 40.1169 55.2727 41.765 52.474 42.1201V44.3698H50.1763V42.1302C47.3411 41.7867 45.7401 40.0533 45.5601 37.2944H48.2901C48.5218 39.2037 49.6512 40.1538 51.3449 40.1538C53.1869 40.1538 54.0369 39.2506 54.0369 37.7268C54.0369 36.2029 53.355 35.401 50.7546 34.4497H50.7538Z" fill="#2B2C2C"/>
<path d="M9.80716 49.6133C8.2349 49.6133 6.95605 50.8922 6.95605 52.4646C6.95605 54.0369 8.2349 55.3158 9.80716 55.3158C11.3794 55.3158 12.6583 54.0369 12.6583 52.4646C12.6583 50.8922 11.3794 49.6133 9.80716 49.6133ZM9.80716 54.1126C8.89702 54.1126 8.15921 53.3747 8.15921 52.4646C8.15921 51.5544 8.89702 50.8165 9.80716 50.8165C10.7173 50.8165 11.4551 51.5544 11.4551 52.4646C11.4551 53.3747 10.7173 54.1126 9.80716 54.1126Z" fill="#2B2C2C"/>
</g>
<defs>
<clipPath id="clip0_853_3347">
<rect width="78.2547" height="75" fill="white" transform="translate(0.372559)"/>
</clipPath>
</defs>
</svg>
