<svg width="89" height="76" viewBox="0 0 89 76" fill="none" xmlns="http://www.w3.org/2000/svg">
<g clip-path="url(#clip0_853_3401)">
<path d="M41.0404 4.54142L39.5376 4.30273L40.3884 5.57263C41.6338 7.4319 42.7945 9.43919 43.8386 11.5389L44.3009 12.4688L44.9472 11.6581C45.5057 10.9575 46.0872 10.3019 46.6752 9.70988C47.3247 9.05605 48.0474 8.41377 48.8236 7.80127L49.7264 7.08876L48.662 6.65806C46.2165 5.66819 43.6519 4.95613 41.04 4.54142H41.0404Z" fill="#43BB9A"/>
<path d="M33.0665 4.42239C29.6763 8.98502 27.0088 14.2397 25.1382 20.0411L24.8569 20.9136H40.4284L40.5582 20.4167C40.8417 19.333 41.2042 18.2636 41.635 17.2378C42.0801 16.1785 42.6063 15.1438 43.1988 14.1619L43.3829 13.857L43.2333 13.5339C41.7158 10.258 39.9031 7.19286 37.8457 4.42284L37.6598 4.17259L37.3499 4.15615C36.6444 4.11881 36.0254 4.10059 35.4572 4.10059C34.889 4.10059 34.2669 4.11881 33.5619 4.15615L33.2524 4.17259L33.0665 4.42239Z" fill="#43BB9A"/>
<path d="M48.6266 44.9652L48.3591 44.7429C47.7785 44.2607 47.2116 43.742 46.6752 43.2019C45.9331 42.4547 45.2249 41.6369 44.5711 40.7719L44.3724 40.5088H22.084L22.0981 41.1893C22.208 46.5231 22.9524 51.768 24.3109 56.7782L24.4442 57.2694H46.4655L46.5984 56.7782C47.6002 53.081 48.2726 49.2233 48.5979 45.3128L48.6266 44.9652Z" fill="#43BB9A"/>
<path d="M4.37168 56.924L4.5602 57.2694H22.9807L22.7648 56.4347C21.4906 51.5084 20.7922 46.3702 20.6893 41.1622L20.6765 40.5088H0L0.0269312 41.2017C0.135097 43.982 0.568645 46.7458 1.31565 49.4162C2.04324 52.0191 3.07148 54.5451 4.37168 56.924Z" fill="#43BB9A"/>
<path d="M20.6893 38.4383C20.7922 33.2302 21.4902 28.092 22.7648 23.1658L22.9807 22.3311H4.5602L4.37168 22.6764C3.07192 25.0553 2.04368 27.5813 1.3161 30.1842C0.569086 32.8551 0.135539 35.6189 0.0269312 38.3987L0 39.0917H20.6765L20.6893 38.4383Z" fill="#43BB9A"/>
<path d="M41.6347 35.6739C40.4078 32.7537 39.7858 29.6525 39.7858 26.4553C39.7858 25.3339 39.8652 24.2018 40.022 23.0906L40.1292 22.3301H24.4443L24.3109 22.8212C22.9525 27.8315 22.2081 33.0764 22.0986 38.4102L22.0845 39.0907H43.3831L42.825 38.0959C42.3689 37.2834 41.9685 36.4682 41.6347 35.6735V35.6739Z" fill="#43BB9A"/>
<path d="M5.37451 20.9131H23.3893L23.5336 20.4433C25.2025 15.005 27.5548 10.0024 30.5251 5.57529L31.379 4.30273L29.8726 4.54364C25.0038 5.32238 20.4277 7.09098 16.2715 9.801C14.264 11.11 12.3779 12.6315 10.6654 14.3236C8.95724 16.0113 7.41245 17.8786 6.0734 19.873L5.37495 20.9131H5.37451Z" fill="#43BB9A"/>
<path d="M29.8722 75.056L31.3785 75.2969L30.5247 74.0243C27.5543 69.5973 25.2025 64.5951 23.5332 59.1563L23.3888 58.6865H5.37451L6.07296 59.7266C7.41201 61.721 8.9568 63.5883 10.6649 65.276C12.3771 66.9681 14.2636 68.4896 16.271 69.7986C20.4273 72.5086 25.0038 74.2777 29.8722 75.056Z" fill="#43BB9A"/>
<path d="M37.8474 75.1773C41.2377 70.6147 43.9052 65.36 45.7758 59.559L46.057 58.6865H24.8564L25.1377 59.559C27.0083 65.36 29.6758 70.6147 33.066 75.1773L33.2519 75.4271L33.5614 75.4436C34.2669 75.4809 34.8868 75.4991 35.4567 75.4991C36.0267 75.4991 36.6466 75.4809 37.3521 75.4436L37.6616 75.4271L37.8474 75.1773Z" fill="#43BB9A"/>
<path d="M54.6762 69.8569C58.7742 67.2104 62.2236 63.8008 64.9286 59.7235L65.6164 58.6865H47.524L47.3796 59.1563C45.7103 64.5959 43.3576 69.599 40.3864 74.027L39.5352 75.2956L41.0376 75.0586C45.939 74.2861 50.5275 72.5358 54.6758 69.8564L54.6762 69.8569Z" fill="#43BB9A"/>
<path d="M63.3092 50.138C60.1339 50.138 57.0532 49.5117 54.1526 48.2765C53.0307 47.7987 51.9222 47.2168 50.8568 46.547L49.961 45.9834L49.8476 47.0408C49.5036 50.246 48.9323 53.4067 48.15 56.4346L47.9346 57.2693H66.4151L66.6032 56.9204C67.7166 54.8531 68.6323 52.6582 69.3245 50.3971L69.6623 49.2948L68.5449 49.5508C66.8425 49.9406 65.0809 50.1384 63.3092 50.1384V50.138Z" fill="#43BB9A"/>
<path d="M63.3092 4.19141C51.1147 4.19141 41.1938 14.1794 41.1938 26.4565C41.1938 38.7336 51.1147 48.7216 63.3092 48.7216C75.5037 48.7216 85.4245 38.7336 85.4245 26.4565C85.4245 14.1794 75.5037 4.19141 63.3092 4.19141ZM71.7038 37.9562C70.8711 38.7185 69.8544 39.3296 68.6822 39.7719C67.8804 40.0746 67.0041 40.2986 66.0646 40.4422V42.7504C66.0646 43.5113 65.4518 44.1283 64.6959 44.1283H62.2474C61.4916 44.1283 60.8788 43.5113 60.8788 42.7504V40.4315C60.0068 40.2879 59.183 40.0675 58.4188 39.7732C57.2943 39.3399 56.2934 38.7447 55.4431 38.0042C53.7566 36.5347 52.6842 34.5034 52.3416 32.1308C52.2846 31.7347 52.4012 31.3334 52.6608 31.0311C52.9208 30.7284 53.2983 30.5546 53.6956 30.5546H57.4872C58.1185 30.5546 58.6682 30.9898 58.817 31.6076C59.1225 32.874 59.8134 33.7798 60.8783 34.3154V28.2562C58.2638 27.4935 56.4426 26.5654 55.1941 25.3675C54.4453 24.6492 53.8873 23.8096 53.5349 22.8713C53.2047 21.9921 53.0444 21.0213 53.0444 19.9026C53.0444 17.7059 53.912 15.6746 55.4877 14.183C56.8598 12.8837 58.7057 12.0361 60.8788 11.6974V10.1622C60.8788 9.4012 61.4916 8.78426 62.2474 8.78426H64.6959C65.4518 8.78426 66.0646 9.4012 66.0646 10.1622V11.7881C67.0169 11.9668 67.8981 12.2383 68.6945 12.5993C69.7462 13.0758 70.6618 13.7114 71.415 14.4879C72.0927 15.1866 72.6358 15.9951 73.0291 16.8908C73.3757 17.6793 73.5991 18.5167 73.6931 19.379C73.7355 19.7683 73.6115 20.1573 73.3519 20.4493C73.0923 20.7409 72.7214 20.9076 72.3325 20.9076H68.5899C67.9612 20.9076 67.4138 20.4764 67.2619 19.8626C67.0491 19.0021 66.6694 18.3887 66.0641 17.97V22.9384C68.9113 23.7531 70.9572 24.8586 72.298 26.3036C73.6397 27.7491 74.2918 29.5421 74.2918 31.7854C74.2918 34.2727 73.3969 36.4067 71.7038 37.9566V37.9562Z" fill="#0E4C9A"/>
<path d="M67.1589 30.6442C66.9161 30.3699 66.5501 30.1072 66.064 29.8574V34.5258C66.4353 34.3867 66.7425 34.2089 66.977 33.9956C67.4255 33.5875 67.6441 33.0133 67.6441 32.2399C67.6441 31.4665 67.5037 31.0331 67.1589 30.6442Z" fill="#0E4C9A"/>
<path d="M60.8776 21.4024V17.5576C60.5342 17.6936 60.256 17.8705 60.0525 18.0857C59.724 18.4333 59.5571 18.9111 59.5571 19.5067C59.5571 20.1023 59.5571 20.7406 60.8772 21.4024H60.8776Z" fill="#0E4C9A"/>
<path d="M88.9998 24.2332C88.9998 11.1965 78.4653 0.59023 65.5162 0.59023C60.9657 0.59023 56.7137 1.90012 53.112 4.16433C52.961 3.90741 52.7288 3.70251 52.4449 3.58783L51.3805 3.15713C48.8392 2.12859 46.1748 1.38852 43.4614 0.957819L41.9585 0.719131C41.887 0.708019 41.8159 0.70224 41.7448 0.70224C41.4252 0.70224 41.1179 0.815139 40.8742 1.01738C40.6332 0.753356 40.2981 0.592897 39.9387 0.573784L39.6288 0.557338C38.899 0.518668 38.2566 0.5 37.6641 0.5C37.0716 0.5 36.4262 0.518668 35.6968 0.557783L35.3873 0.574229C35.0293 0.593342 34.6951 0.752911 34.454 1.0156C34.2112 0.815139 33.9048 0.703129 33.5865 0.703129C33.5154 0.703129 33.4434 0.708907 33.3715 0.72002L31.8651 0.96093C26.8064 1.76989 22.0524 3.60739 17.7346 6.42275C15.6499 7.78198 13.6918 9.36168 11.9139 11.1183C10.1409 12.8704 8.53695 14.8088 7.14668 16.8792L6.44824 17.9193C6.26281 18.1954 6.18731 18.5243 6.22263 18.8443C5.9489 18.9639 5.71668 19.1719 5.56789 19.4439L5.37938 19.7893C4.02929 22.2602 2.96131 24.8839 2.20547 27.5877C1.42977 30.3622 0.979443 33.2336 0.866862 36.1214L0.83993 36.8143C0.829335 37.0846 0.898208 37.3491 1.03419 37.5771C0.898208 37.8051 0.829335 38.0696 0.83993 38.3398L0.866862 39.0328C0.979443 41.9206 1.42977 44.7919 2.20547 47.5669C2.96131 50.2707 4.02929 52.8949 5.37938 55.3658L5.56789 55.7111C5.71668 55.9832 5.9489 56.1912 6.22263 56.3107C6.18687 56.6312 6.26281 56.9597 6.44824 57.2357L7.14668 58.2758C8.53695 60.3462 10.1409 62.2846 11.9139 64.0368C13.6918 65.7934 15.6503 67.3735 17.7346 68.7323C22.0524 71.5477 26.8064 73.3852 31.8651 74.1941L33.3715 74.435C33.4434 74.4466 33.5154 74.4519 33.5865 74.4519C33.9048 74.4519 34.2112 74.3399 34.454 74.1394C34.6946 74.4017 35.0288 74.5617 35.3869 74.5808L35.6964 74.5973C36.4262 74.6359 37.0699 74.655 37.6637 74.655C38.2575 74.655 38.9016 74.6364 39.631 74.5973L39.9409 74.5808C40.2994 74.5617 40.6336 74.4017 40.8742 74.139C41.117 74.3395 41.4234 74.4515 41.7417 74.4515C41.8119 74.4515 41.883 74.4461 41.9537 74.435L43.4561 74.1981C48.5465 73.3958 53.3124 71.5774 57.6219 68.7945C61.8792 66.0449 65.4628 62.5029 68.2734 58.2669L68.9617 57.2299C69.1453 56.953 69.2195 56.6237 69.182 56.3036C69.4508 56.1818 69.6791 55.9743 69.8248 55.704L70.0128 55.3551C71.1691 53.2078 72.1201 50.9289 72.8389 48.5812L73.1766 47.4788C73.2667 47.1842 73.2552 46.8735 73.1519 46.5934C82.3637 43.3958 88.9993 34.5804 88.9993 24.2341L88.9998 24.2332ZM43.2477 2.31883C45.8596 2.73353 48.4238 3.4456 50.8696 4.43546L51.9341 4.86617L51.0312 5.57867C50.2551 6.19117 49.5324 6.83301 48.8829 7.48729C48.2949 8.07934 47.7134 8.73496 47.1549 9.43546L46.5086 10.2462L46.0463 9.31634C45.0022 7.2166 43.8415 5.20886 42.596 3.35003L41.7453 2.08014L43.2481 2.31883H43.2477ZM35.2734 2.19971L35.4593 1.94991L35.7688 1.93346C36.4738 1.89612 37.0937 1.8779 37.6641 1.8779C38.2345 1.8779 38.8517 1.89612 39.5568 1.93346L39.8667 1.94991L40.0526 2.20015C42.11 4.97018 43.9227 8.03578 45.4401 11.3112L45.5898 11.6343L45.4057 11.9392C44.8128 12.9211 44.287 13.9559 43.8419 15.0151C43.411 16.0409 43.0486 17.1104 42.7651 18.194L42.6353 18.691H27.0638L27.3451 17.8184C29.2157 12.017 31.8832 6.76234 35.2734 2.19971ZM24.2912 36.8686L24.3054 36.1881C24.4153 30.8543 25.1597 25.6093 26.5177 20.5991L26.651 20.108H42.336L42.2287 20.8685C42.072 21.9797 41.9925 23.1118 41.9925 24.2332C41.9925 27.43 42.6146 30.5316 43.8415 33.4518C44.1753 34.2466 44.5757 35.0617 45.0318 35.8743L45.5898 36.869H24.2912V36.8686ZM46.5801 38.286L46.7788 38.5492C47.4326 39.4141 48.1403 40.232 48.8829 40.9792C49.4193 41.5192 49.9858 42.0379 50.5668 42.5202L50.8343 42.7424L50.8056 43.09C50.4807 47.0006 49.8079 50.8583 48.8061 54.5555L48.6732 55.0466H26.6519L26.5186 54.5555C25.1601 49.5453 24.4157 44.3003 24.3058 38.9665L24.2917 38.286H46.5805H46.5801ZM8.28044 17.6504C9.61949 15.656 11.1643 13.7887 12.8724 12.101C14.5845 10.4089 16.471 8.88741 18.4785 7.57841C22.6347 4.86839 27.2113 3.09934 32.0796 2.32105L33.586 2.08014L32.7322 3.3527C29.7622 7.77976 27.41 12.782 25.7407 18.2207L25.5963 18.6905H7.58199L8.28044 17.6504ZM2.23417 36.1756C2.34234 33.3954 2.77588 30.632 3.52289 27.9611C4.25048 25.3582 5.27872 22.8322 6.57848 20.4533L6.76699 20.108H25.1875L24.9716 20.9427C23.6974 25.8685 22.999 31.0072 22.8961 36.2152L22.8833 36.8686H2.20724L2.23417 36.1756ZM6.76744 55.0466L6.57892 54.7013C5.27916 52.3224 4.25092 49.7964 3.52289 47.1935C2.77633 44.5226 2.34278 41.7592 2.23417 38.979L2.20724 38.286H22.8838L22.8966 38.9394C22.9994 44.1474 23.6979 49.2861 24.972 54.2119L25.1879 55.0466H6.76744ZM32.0796 72.8331C27.2108 72.0548 22.6347 70.2858 18.4785 67.5757C16.471 66.2667 14.585 64.7453 12.8724 63.0531C11.1643 61.3654 9.61905 59.4981 8.28044 57.5037L7.58199 56.4636H25.5967L25.7411 56.9335C27.41 62.3717 29.7622 67.374 32.7326 71.8015L33.5865 73.074L32.0801 72.8331H32.0796ZM40.0544 72.9545L39.8685 73.2042L39.559 73.2207C38.8535 73.258 38.2336 73.2763 37.6637 73.2763C37.0937 73.2763 36.4738 73.258 35.7683 73.2207L35.4588 73.2042L35.273 72.9545C31.8827 68.3918 29.2152 63.1371 27.3446 57.3362L27.0634 56.4636H48.2639L47.9827 57.3362C46.1121 63.1371 43.4446 68.3923 40.0544 72.9545ZM67.1356 57.5006C64.4306 61.5779 60.9808 64.9875 56.8832 67.634C52.735 70.3133 48.1465 72.0633 43.245 72.8362L41.7426 73.0731L42.5938 71.8046C45.5651 67.3766 47.9178 62.3735 49.5871 56.9339L49.7315 56.4641H67.8239L67.1361 57.5011L67.1356 57.5006ZM71.5312 48.174C70.8384 50.4351 69.9228 52.63 68.8098 54.6973L68.6217 55.0462H50.1412L50.3566 54.2114C51.139 51.1836 51.7103 48.0229 52.0542 44.8177L52.1676 43.7603L53.0634 44.3239C54.1288 44.9937 55.2374 45.576 56.3592 46.0534C59.2594 47.2886 62.3401 47.9149 65.5158 47.9149C67.2875 47.9149 69.0491 47.7171 70.7515 47.3273L71.8689 47.0713L71.5312 48.1736V48.174ZM65.5158 46.4979C53.3213 46.4979 43.4004 36.5099 43.4004 24.2328C43.4004 11.9557 53.3217 1.96813 65.5162 1.96813C77.7107 1.96813 87.6316 11.9561 87.6316 24.2332C87.6316 36.5103 77.7107 46.4983 65.5162 46.4983L65.5158 46.4979Z" fill="#2B2C2C"/>
<path d="M68.2711 20.7147V15.7463C68.8763 16.165 69.256 16.7783 69.4688 17.6389C69.6207 18.2527 70.1686 18.6838 70.7968 18.6838H74.5394C74.9283 18.6838 75.2992 18.5172 75.5588 18.2256C75.8184 17.934 75.9425 17.5446 75.9001 17.1553C75.806 16.293 75.5826 15.456 75.2361 14.667C74.8427 13.7714 74.2997 12.9629 73.622 12.2642C72.8688 11.4872 71.9536 10.8516 70.9015 10.3756C70.1046 10.0146 69.2238 9.74305 68.2715 9.56437V7.93845C68.2715 7.17749 67.6587 6.56055 66.9029 6.56055H64.4543C63.6985 6.56055 63.0857 7.17749 63.0857 7.93845V9.47369C60.9127 9.81239 59.0668 10.6605 57.6946 11.9592C56.1189 13.4509 55.2514 15.4822 55.2514 17.6789C55.2514 18.7976 55.4121 19.7684 55.7419 20.6476C56.0942 21.5854 56.6527 22.4255 57.401 23.1438C58.6496 24.3417 60.4712 25.2698 63.0853 26.0325V32.0917C62.0204 31.5561 61.329 30.6502 61.0239 29.3839C60.8751 28.7661 60.3255 28.3309 59.6941 28.3309H55.9026C55.5052 28.3309 55.1273 28.5047 54.8677 28.8074C54.6077 29.1101 54.4911 29.5115 54.5485 29.9071C54.8911 32.2802 55.9635 34.311 57.65 35.7805C58.5003 36.521 59.5012 37.1166 60.6257 37.5495C61.3899 37.8438 62.2138 38.0642 63.0857 38.2078V40.5267C63.0857 41.2876 63.6985 41.9046 64.4543 41.9046H66.9029C67.6587 41.9046 68.2715 41.2876 68.2715 40.5267V38.2185C69.211 38.0749 70.0874 37.8509 70.8891 37.5482C72.0613 37.1055 73.078 36.4948 73.9107 35.7325C75.6038 34.1826 76.4987 32.0486 76.4987 29.5613C76.4987 27.3179 75.8467 25.5249 74.505 24.0794C73.1641 22.6349 71.1187 21.529 68.2711 20.7142V20.7147ZM66.9024 36.9864V40.5271H64.4539V36.9864C59.5087 36.6032 56.4933 33.8021 55.9026 29.7088H59.6941C60.2822 32.1468 62.0164 33.5576 64.4543 33.9372V24.9786C58.6098 23.4807 56.62 21.3556 56.62 17.6789C56.62 14.0021 59.3745 11.0241 64.4543 10.7107V7.93845H66.9029V10.76C72.32 11.2992 74.2462 14.6173 74.5398 17.3059H70.7973C70.396 15.6827 69.3823 14.2341 66.9029 13.7807V21.7757C73.5394 23.4065 75.1301 26.2005 75.1301 29.5608C75.1301 33.7825 72.1655 36.6028 66.9029 36.9859L66.9024 36.9864Z" fill="#2B2C2C"/>
<path d="M66.9023 25.6221V33.9961C69.6767 33.7339 71.2197 32.3844 71.2197 30.018C71.2197 28.0796 70.4387 26.7208 66.9023 25.6221ZM69.184 31.7733C68.9496 31.9862 68.6423 32.1644 68.271 32.3036V27.6351C68.7571 27.8849 69.1231 28.1481 69.3659 28.4219C69.7107 28.8108 69.8511 29.2731 69.8511 30.0176C69.8511 30.7621 69.633 31.3652 69.184 31.7733Z" fill="#2B2C2C"/>
<path d="M60.396 17.2839C60.396 19.128 61.3161 20.2295 64.4533 21.1602V13.6582C61.3704 13.8796 60.396 15.5748 60.396 17.2843V17.2839ZM62.26 15.8628C62.4635 15.6477 62.7412 15.4704 63.0851 15.3348V19.1796C61.7651 18.5177 61.7651 17.8932 61.7651 17.2839C61.7651 16.6745 61.9315 16.2104 62.2604 15.8628H62.26Z" fill="#2B2C2C"/>
</g>
<defs>
<clipPath id="clip0_853_3401">
<rect width="89" height="75" fill="white" transform="translate(0 0.5)"/>
</clipPath>
</defs>
</svg>
