<svg width="75" height="76" viewBox="0 0 75 76" fill="none" xmlns="http://www.w3.org/2000/svg">
<g clip-path="url(#clip0_853_3383)">
<path d="M63.3926 71.1612H71.215V20.7529H63.3926V71.1612Z" fill="#0E4C9A"/>
<path d="M14.6826 16.4145V15.1535H15.9399H47.7948L46.271 3.9541L0.5 10.2187L8.42782 68.4799L8.46594 68.7618L14.6826 67.91V16.4145Z" fill="#0E4C9A"/>
<path d="M55.8216 68.8069C55.3255 69.2572 54.7253 69.616 54.0374 69.8731C53.7255 69.9898 53.395 70.0854 53.0478 70.1598V72.2616H49.1628V70.1383C48.1046 69.8881 47.1852 69.4232 46.4637 68.7675C45.4972 67.8893 44.9107 66.7072 44.7667 65.3482L44.6195 63.9542H49.1628V63.4917C47.8751 63.0126 46.9556 62.4651 46.3059 61.7959C45.466 60.9312 45.0575 59.8475 45.0575 58.4832C45.0575 57.749 45.2007 57.0559 45.4826 56.423C45.7547 55.8124 46.1502 55.2706 46.658 54.8126C47.3405 54.1968 48.1927 53.7583 49.1628 53.5183V51.8981H53.0478V53.5492C53.4497 53.6517 53.8277 53.7867 54.1782 53.9527C54.8019 54.2484 55.3442 54.6442 55.7887 55.1299C56.7224 56.1484 57.018 57.3045 57.102 58.0948L57.2496 59.4888H53.0478V59.6865C54.4146 60.1681 55.4338 60.7807 56.1481 61.5462C56.5934 62.0237 56.9264 62.57 57.1373 63.1692C57.3299 63.7163 57.4236 64.3 57.4236 64.9541C57.4236 66.5225 56.8696 67.8547 55.8216 68.8069ZM39.0376 57.4135H22.3533V55.7697H39.0376V57.4135ZM39.0376 68.0483H22.3533V66.4046H39.0376V68.0483ZM55.7218 25.5089H48.6923V23.8652H55.7218V25.5089ZM32.0852 36.1438V34.5H56.1663V36.1438H32.0852ZM22.3533 45.1349H55.7218V46.7786H22.3533V45.1349ZM29.3057 34.5V36.1438H22.3533V34.5H29.3057ZM22.3533 25.5089V23.8652H45.8468V25.5089H22.3533ZM62.1352 16.4141H15.9399V75.4998H62.1352V16.4141Z" fill="#43BB9A"/>
<path d="M73.2425 69.1272H65.4201V18.719H73.2425V69.1272ZM64.1629 73.4662H17.9676V14.3804H64.1629V73.4662ZM16.7103 13.1195V65.876L10.4936 66.7277L10.4551 66.4458L2.52769 8.18459L48.2987 1.92001L49.8225 13.1195H16.7103ZM73.2425 17.4584H65.4201V13.1195H51.0915L49.5446 1.74958L49.3747 0.5L48.1288 0.670434L2.35775 6.93501L1.11182 7.10544L1.28175 8.35502L9.20957 66.6163L9.2481 66.8982L9.41804 68.1481L10.664 67.9773L16.7103 67.1487V74.7271H65.4201V70.3882H74.4998V17.458H73.2425V17.4584Z" fill="#2B2C2C"/>
<path d="M47.8748 21.8311H24.3813V23.4748H47.8748V21.8311Z" fill="#2B2C2C"/>
<path d="M57.7497 21.8311H50.7202V23.4748H57.7497V21.8311Z" fill="#2B2C2C"/>
<path d="M31.3338 32.4668H24.3813V34.1105H31.3338V32.4668Z" fill="#2B2C2C"/>
<path d="M34.1128 34.1105H58.1939V32.4668H34.1128V34.1105Z" fill="#2B2C2C"/>
<path d="M57.7498 43.1016H24.3813V44.7453H57.7498V43.1016Z" fill="#2B2C2C"/>
<path d="M41.0656 53.7363H24.3813V55.3801H41.0656V53.7363Z" fill="#2B2C2C"/>
<path d="M41.0656 64.3711H24.3813V66.0148H41.0656V64.3711Z" fill="#2B2C2C"/>
<path d="M55.5199 56.1939C55.3353 55.465 54.9383 54.6877 53.8185 54.4277V58.5776C57.1556 59.5176 58.1942 60.9795 58.1942 62.9202C58.1942 65.4177 56.4831 66.8328 53.8185 67.0342V68.9667H52.448V67.0301C49.7992 66.8031 48.2645 65.257 48.0451 63.1813H50.4599C50.6943 64.2767 51.4438 64.9296 52.448 65.1399V60.554C49.3527 59.5904 48.3428 58.4279 48.3428 56.4494C48.3428 54.1646 50.1314 52.7446 52.448 52.5542V51.1252H53.8185V52.5725C56.7516 52.8686 57.7258 54.7405 57.8795 56.1939H55.5199ZM56.2061 51.9188C55.8557 51.7529 55.4777 51.6178 55.0758 51.5153V49.8643H51.1907V51.4844C50.2206 51.7244 49.3685 52.1629 48.6859 52.7787C48.1781 53.2367 47.7827 53.7785 47.5105 54.3891C47.2287 55.022 47.0855 55.7152 47.0855 56.4494C47.0855 57.8137 47.4939 58.8973 48.3339 59.7621C48.9836 60.4312 49.903 60.9787 51.1907 61.4579V61.9203H46.6475L46.7947 63.3143C46.9387 64.6733 47.5251 65.8554 48.4916 66.7336C49.2131 67.3893 50.1326 67.8542 51.1907 68.1044V70.2277H55.0758V68.1259C55.4229 68.0515 55.7535 67.9559 56.0654 67.8392C56.7532 67.5821 57.3535 67.2233 57.8495 66.773C58.8975 65.8208 59.4515 64.4887 59.4515 62.9202C59.4515 62.2661 59.3578 61.6824 59.1652 61.1353C58.9543 60.5361 58.6213 59.9898 58.176 59.5123C57.4618 58.7468 56.4426 58.1342 55.0758 57.6526V57.4549H59.2775L59.1299 56.0609C59.046 55.2706 58.7503 54.1145 57.8167 53.096C57.3721 52.6103 56.8299 52.2145 56.2061 51.9188Z" fill="#2B2C2C"/>
<path d="M53.8184 65.1799C55.145 65.0196 55.744 64.3115 55.744 63.1986C55.744 62.1918 55.3129 61.5442 53.8184 60.9854V65.1799Z" fill="#2B2C2C"/>
<path d="M50.7202 56.1624C50.7202 57.0646 51.0917 57.6398 52.448 58.1543V54.3682C51.1809 54.5276 50.7202 55.3001 50.7202 56.1624Z" fill="#2B2C2C"/>
</g>
<defs>
<clipPath id="clip0_853_3383">
<rect width="74" height="75" fill="white" transform="translate(0.5 0.5)"/>
</clipPath>
</defs>
</svg>
