<svg width="95" height="76" viewBox="0 0 95 76" fill="none" xmlns="http://www.w3.org/2000/svg">
<path d="M14.1967 64.5117H0.0571289V76.0001H14.1967V64.5117Z" fill="#43BB9A"/>
<path d="M14.1967 57.4414H0.0571289V60.0926H14.1967V57.4414Z" fill="#43BB9A"/>
<path d="M14.1967 49.4883H0.0571289V52.1394H14.1967V49.4883Z" fill="#43BB9A"/>
<path d="M38.057 57.4414H23.9175V60.0926H38.057V57.4414Z" fill="#43BB9A"/>
<path d="M38.057 49.4883H23.9175V52.1394H38.057V49.4883Z" fill="#43BB9A"/>
<path d="M38.057 41.5352H23.9175V45.07H38.057V41.5352Z" fill="#43BB9A"/>
<path d="M61.0341 57.4414H46.8945V60.0926H61.0341V57.4414Z" fill="#43BB9A"/>
<path d="M61.0341 49.4883H46.8945V52.1394H61.0341V49.4883Z" fill="#43BB9A"/>
<path d="M61.0341 41.5352H46.8945V45.07H61.0341V41.5352Z" fill="#43BB9A"/>
<path d="M61.0341 33.5811H46.8945V37.1159H61.0341V33.5811Z" fill="#43BB9A"/>
<path d="M84.0107 57.4414H70.7549V60.0926H84.0107V57.4414Z" fill="#43BB9A"/>
<path d="M84.0107 49.4883H70.7549V52.1394H84.0107V49.4883Z" fill="#43BB9A"/>
<path d="M84.0107 41.5352H70.7549V45.07H84.0107V41.5352Z" fill="#43BB9A"/>
<path d="M84.0107 33.5811H70.7549V37.1159H84.0107V33.5811Z" fill="#43BB9A"/>
<path d="M84.0107 25.6279H70.7549V29.1628H84.0107V25.6279Z" fill="#43BB9A"/>
<path d="M38.057 64.5117H23.9175V76.0001H38.057V64.5117Z" fill="#43BB9A"/>
<path d="M61.0341 64.5117H46.8945V76.0001H61.0341V64.5117Z" fill="#43BB9A"/>
<path d="M84.0107 64.5117H70.7549V76.0001H84.0107V64.5117Z" fill="#43BB9A"/>
<path d="M70.5532 10.0539L73.3875 13.893L60.2472 22.5903H36.7872L13.3273 38.1185H0.0571289V41.5353H14.4363L37.8962 26.0076H61.3562L75.4461 16.681L78.421 20.7099L89.3129 5.30273L70.5532 10.0539Z" fill="#0E4C9A"/>
<path d="M2.94831 61.0898H1.50537V75.4164H18.1201V61.0898H2.94831ZM16.6772 73.9734H2.94831V62.5328H16.6772V73.9734Z" fill="#2B2C2C"/>
<path d="M2.94831 53.1904H1.50537V59.6124H18.1201V53.1904H2.94831ZM16.6772 58.1695H2.94831V54.6334H16.6772V58.1695Z" fill="#2B2C2C"/>
<path d="M2.94831 45.291H1.50537V51.713H18.1201V45.291H2.94831ZM16.6772 50.2701H2.94831V46.734H16.6772V50.2701Z" fill="#2B2C2C"/>
<path d="M26.2457 53.1904H24.8027V59.6124H41.4175V53.1904H26.2457ZM39.9745 58.1695H26.2457V54.6334H39.9745V58.1695Z" fill="#2B2C2C"/>
<path d="M26.2457 45.291H24.8027V51.713H41.4175V45.291H26.2457ZM39.9745 50.2701H26.2457V46.734H39.9745V50.2701Z" fill="#2B2C2C"/>
<path d="M26.2457 37.3916H24.8027V43.8136H41.4175V37.3916H26.2457ZM39.9745 42.3707H26.2457V38.8345H39.9745V42.3707Z" fill="#2B2C2C"/>
<path d="M49.543 53.1904H48.1001V59.6124H64.7148V53.1904H49.543ZM63.2719 58.1695H49.543V54.6334H63.2719V58.1695Z" fill="#2B2C2C"/>
<path d="M49.543 45.291H48.1001V51.713H64.7148V45.291H49.543ZM63.2719 50.2701H49.543V46.734H63.2719V50.2701Z" fill="#2B2C2C"/>
<path d="M49.543 37.3916H48.1001V43.8136H64.7148V37.3916H49.543ZM63.2719 42.3707H49.543V38.8345H63.2719V42.3707Z" fill="#2B2C2C"/>
<path d="M49.543 29.4922H48.1001V35.9142H64.7148V29.4922H49.543ZM63.2719 34.4713H49.543V30.9351H63.2719V34.4713Z" fill="#2B2C2C"/>
<path d="M72.8404 53.1904H71.3975V59.6124H88.0122V53.1904H72.8404ZM86.5692 58.1695H72.8404V54.6334H86.5692V58.1695Z" fill="#2B2C2C"/>
<path d="M72.8404 45.291H71.3975V51.713H88.0122V45.291H72.8404ZM86.5692 50.2701H72.8404V46.734H86.5692V50.2701Z" fill="#2B2C2C"/>
<path d="M72.8404 37.3916H71.3975V43.8136H88.0122V37.3916H72.8404ZM86.5692 42.3707H72.8404V38.8345H86.5692V42.3707Z" fill="#2B2C2C"/>
<path d="M72.8404 29.4922H71.3975V35.9142H88.0122V29.4922H72.8404ZM86.5692 34.4713H72.8404V30.9351H86.5692V34.4713Z" fill="#2B2C2C"/>
<path d="M72.8404 21.5928H71.3975V28.0148H88.0122V21.5928H72.8404ZM86.5692 26.5718H72.8404V23.0357H86.5692V26.5718Z" fill="#2B2C2C"/>
<path d="M26.2457 61.0898H24.8027V75.4164H41.4175V61.0898H26.2457ZM39.9745 73.9734H26.2457V62.5328H39.9745V73.9734Z" fill="#2B2C2C"/>
<path d="M49.543 61.0898H48.1001V75.4164H64.7148V61.0898H49.543ZM63.2719 73.9734H49.543V62.5328H63.2719V73.9734Z" fill="#2B2C2C"/>
<path d="M72.8404 61.0898H71.3975V75.4164H88.0122V61.0898H72.8404ZM86.5692 73.9734H72.8404V62.5328H86.5692V73.9734Z" fill="#2B2C2C"/>
<path d="M91.2174 0.983059L72.5873 5.90022L70.5751 6.43131L71.7783 8.12932L73.7486 10.91L62.2717 18.8266H38.9743L38.6042 19.0817L15.6769 34.8972H1.50537V41.3192H17.677L18.047 41.0641L40.9744 25.2486H64.2717L64.6418 24.9935L77.4616 16.1507L79.592 19.1576L80.7952 20.8556L81.9636 19.1333L92.7805 3.18796L94.943 0L91.2179 0.983059H91.2174ZM80.7687 18.3234L77.8149 14.1538L63.8221 23.8057H40.5247L17.2273 39.8763H2.94831V36.3401H16.1265L39.4239 20.2695H62.7213L75.7706 11.2679L72.9559 7.29475L91.5861 2.37759L80.7692 18.323L80.7687 18.3234Z" fill="#2B2C2C"/>
</svg>
