<svg width="71" height="75" viewBox="0 0 71 75" fill="none" xmlns="http://www.w3.org/2000/svg">
<g clip-path="url(#clip0_853_3359)">
<path d="M10.6615 48.3242H7.9082V56.7464H10.6615V48.3242Z" fill="#0E4C9A"/>
<path d="M2.75326 43.3672H0V56.7456H2.75326V43.3672Z" fill="#0E4C9A"/>
<path d="M14.8784 71.8005C14.8784 73.2889 16.0863 74.4998 17.5709 74.4998H50.4281C51.9127 74.4998 53.1206 73.2889 53.1206 71.8005V64.6494H14.8784V71.8005ZM30.2283 67.0389H37.7711C39.1635 67.0389 40.2965 68.1744 40.2965 69.5707C40.2965 70.967 39.1638 72.1025 37.7711 72.1025H30.2283C28.8359 72.1025 27.7029 70.967 27.7029 69.5707C27.7029 68.1744 28.8359 67.0389 30.2283 67.0389Z" fill="#43BB9A"/>
<path d="M50.4281 3.50879H17.5709C16.0863 3.50879 14.8784 4.71971 14.8784 6.20809V11.5933H53.1206V6.20809C53.1206 4.71971 51.9127 3.50879 50.4281 3.50879ZM34.8229 10.0875H33.1757C31.7833 10.0875 30.6503 8.95197 30.6503 7.5557C30.6503 6.15943 31.7833 5.02392 33.1757 5.02392H34.8229C36.2153 5.02392 37.3483 6.15943 37.3483 7.5557C37.3483 8.95197 36.2153 10.0875 34.8229 10.0875Z" fill="#43BB9A"/>
<path d="M14.8784 63.4118H53.1206V12.8301H14.8784V63.4118ZM43.3365 56.7455V45.6058H48.3869V57.897H43.3365V56.7455ZM35.4284 56.7455V43.7274H40.4788V57.897H35.4284V56.7455ZM27.5202 56.7455V50.1876H32.5706V57.897H27.5202V56.7455ZM19.612 56.7455V37.1754H24.6625V57.897H19.612V56.7455Z" fill="#43BB9A"/>
<path d="M60.0907 42.6348H57.3374V56.7464H60.0907V42.6348Z" fill="#0E4C9A"/>
<path d="M67.9989 38.3271H65.2456V56.7457H67.9989V38.3271Z" fill="#0E4C9A"/>
<path d="M9.76088 45.3154H8.6123V56.0406H13.6627V45.3154H9.76088ZM12.5141 54.8891H9.76088V46.4669H12.5141V54.8891Z" fill="#2B2C2C"/>
<path d="M1.85268 40.3584H0.704102V56.0398H5.75452V40.3584H1.85268ZM4.60594 54.8883H1.85268V41.5099H4.60594V54.8883Z" fill="#2B2C2C"/>
<path d="M52.2807 0.5H19.4236C17.3058 0.5 15.5825 2.2276 15.5825 4.35079V10.8875V61.6409V69.9435C15.5825 72.0667 17.3058 73.7943 19.4236 73.7943H52.2807C54.3986 73.7943 56.1218 72.0667 56.1218 69.9435V61.6409V10.8875V4.35079C56.1218 2.2276 54.3989 0.5 52.2807 0.5ZM54.9732 69.9435C54.9732 71.4319 53.7654 72.6428 52.2807 72.6428H19.4236C17.939 72.6428 16.7311 71.4319 16.7311 69.9435V62.7924H54.9732V69.9435ZM16.7311 61.5551V10.9733H54.9732V61.5551H16.7311ZM54.9732 9.73602H16.7311V4.35079C16.7311 2.8624 17.939 1.65149 19.4236 1.65149H52.2807C53.7654 1.65149 54.9732 2.8624 54.9732 4.35079V9.73602Z" fill="#2B2C2C"/>
<path d="M22.6129 35.3184H21.4644V56.0399H26.5148V35.3184H22.6129ZM25.3662 54.8884H22.6129V36.4698H25.3662V54.8884Z" fill="#2B2C2C"/>
<path d="M30.5211 48.3311H29.3726V56.0404H34.423V48.3311H30.5211ZM33.2744 54.8889H30.5211V49.4825H33.2744V54.8889Z" fill="#2B2C2C"/>
<path d="M32.0806 70.2452H39.6234C41.0158 70.2452 42.1488 69.1097 42.1488 67.7134C42.1488 66.3172 41.0161 65.1816 39.6234 65.1816H32.0806C30.6882 65.1816 29.5552 66.3172 29.5552 67.7134C29.5552 69.1097 30.6882 70.2452 32.0806 70.2452ZM32.0806 66.3335H39.6234C40.3837 66.3335 41.0002 66.9516 41.0002 67.7138C41.0002 68.476 40.3837 69.0941 39.6234 69.0941H32.0806C31.3203 69.0941 30.7038 68.476 30.7038 67.7138C30.7038 66.9516 31.3203 66.3335 32.0806 66.3335Z" fill="#2B2C2C"/>
<path d="M36.6756 3.16699H35.0283C33.6359 3.16699 32.5029 4.30251 32.5029 5.69877C32.5029 7.09504 33.6359 8.23055 35.0283 8.23055H36.6756C38.068 8.23055 39.201 7.09504 39.201 5.69877C39.201 4.30251 38.068 3.16699 36.6756 3.16699ZM36.6756 7.0787H35.0283C34.268 7.0787 33.6515 6.46061 33.6515 5.6984C33.6515 4.93619 34.2677 4.31811 35.0283 4.31811H36.6756C37.4359 4.31811 38.0524 4.93619 38.0524 5.6984C38.0524 6.46061 37.4359 7.0787 36.6756 7.0787Z" fill="#2B2C2C"/>
<path d="M38.4298 41.8711H37.2812V56.0407H42.3317V41.8711H38.4298ZM41.1831 54.8892H38.4298V43.0226H41.1831V54.8892Z" fill="#2B2C2C"/>
<path d="M46.338 43.749H45.1895V56.0402H50.2399V43.749H46.338ZM49.0913 54.8887H46.338V44.9005H49.0913V54.8887Z" fill="#2B2C2C"/>
<path d="M59.1901 39.626H58.0415V56.0406H63.0919V39.626H59.1901ZM61.9433 54.8891H59.1901V40.7775H61.9433V54.8891Z" fill="#2B2C2C"/>
<path d="M69.8515 35.3184H65.9497V56.0399H71.0001V35.3184H69.8515ZM69.8515 54.8884H67.0983V36.4698H69.8515V54.8884Z" fill="#2B2C2C"/>
</g>
<defs>
<clipPath id="clip0_853_3359">
<rect width="71" height="74" fill="white" transform="translate(0 0.5)"/>
</clipPath>
</defs>
</svg>
