<svg width="71" height="75" viewBox="0 0 71 75" fill="none" xmlns="http://www.w3.org/2000/svg">
<g clip-path="url(#clip0_853_3325)">
<path d="M13.4483 30.8893L13.4421 4.4175C13.4421 3.74784 12.8957 3.20277 12.2261 3.20277L1.21406 3.15332C0.890154 3.15449 0.585761 3.28102 0.357076 3.50956C0.12644 3.73888 0 4.04412 0 4.36844L0.00624395 30.8407C0.00624395 31.1654 0.133074 31.4702 0.36332 31.6995C0.593176 31.9289 0.899129 32.055 1.22342 32.055H1.22381L12.2311 32.1044H12.2346C12.9039 32.1021 13.4483 31.557 13.4483 30.8893Z" fill="#43BB9A"/>
<path d="M15.1347 28.1543C16.906 28.1543 20.5787 28.1543 23.808 28.1543C25.2191 28.1543 26.5448 28.1543 27.5914 28.1543C28.7692 28.1543 29.9368 28.3307 31.0619 28.6788L41.5096 31.9111L41.611 31.4302C41.6661 31.169 41.7308 30.9023 41.8038 30.6368L41.8963 30.2988L41.59 30.1279C40.7771 29.6743 39.9388 28.919 38.9519 27.751C38.8898 27.6778 38.8216 27.5746 38.7177 27.4185C38.2537 26.72 37.0206 24.864 35.3483 24.4911C33.3788 24.0515 32.2572 23.6964 31.8884 23.58L31.8642 23.5722C31.8365 23.5637 31.8158 23.557 31.8014 23.5528L31.7901 23.5493C30.5389 23.1747 29.1036 21.9467 27.5239 19.9C26.2525 18.2531 25.1742 16.4333 24.6372 15.3751C24.4831 15.071 24.6052 14.6988 24.91 14.5447C24.9982 14.5003 25.0934 14.4777 25.189 14.4777C25.2538 14.4777 25.319 14.4878 25.3826 14.5088C25.5399 14.5602 25.6675 14.6696 25.7424 14.8168C27.1001 17.4908 30.0726 21.7388 32.1409 22.3637L32.1456 22.3649C32.1749 22.3735 32.2096 22.3844 32.2634 22.4015C32.6194 22.514 33.7031 22.8566 35.6196 23.2845C37.7784 23.7665 39.2114 25.9234 39.7507 26.7356C39.8143 26.8314 39.8616 26.9022 39.8889 26.9396L39.9096 26.9661C41.1455 28.4261 42.1137 29.1717 43.0487 29.3827C43.2559 29.4294 43.4674 29.4536 43.6938 29.4536C44.3662 29.4536 45.1666 29.239 46.3541 28.7613C46.3861 28.7485 46.4197 28.738 46.4532 28.7309C46.7998 28.6554 47.0612 28.4354 47.1888 28.1115C47.3336 27.744 47.2759 27.3297 47.0281 26.9715L36.8442 12.4652C36.6483 12.1861 36.7166 11.8002 36.996 11.6048C37.1037 11.5292 37.2278 11.493 37.3503 11.493C37.5458 11.493 37.7382 11.5849 37.8584 11.7562L46.2437 23.6999L46.6167 23.4072C48.3775 22.0238 50.4716 21.0793 52.6718 20.6759L53.3298 20.5553L48.1785 12.554L48.1758 12.5497C47.4288 11.4191 46.5609 10.4087 45.5962 9.54674C43.8834 8.01664 42.2218 7.27262 40.5144 7.27262L14.6816 7.26172L14.6867 28.1536H15.1355L15.1347 28.1543Z" fill="#43BB9A"/>
<path d="M55.1953 21.684C53.7564 21.684 52.343 21.9242 50.9943 22.3976C49.6495 22.8699 48.4015 23.5625 47.2857 24.4568L46.9579 24.7193L48.0463 26.2696C48.5256 26.9599 48.6356 27.818 48.341 28.5651C48.0729 29.2453 47.5105 29.7394 46.7987 29.92L46.7702 29.9274L46.7429 29.9383C45.4239 30.4643 44.5087 30.689 43.6838 30.689C43.6053 30.689 43.5242 30.6866 43.443 30.682L43.0793 30.6617L42.9848 31.0125C42.6972 32.0793 42.5513 33.1846 42.5513 34.2977C42.5513 41.2532 48.2231 46.9123 55.1953 46.9123C62.1674 46.9123 67.8389 41.2536 67.8389 34.2977C67.8389 27.3418 62.167 21.6836 55.1953 21.6836V21.684ZM60.0468 41.3233C59.5418 41.787 58.928 42.1561 58.2228 42.4205C57.8743 42.5513 57.502 42.6564 57.1098 42.7358V44.9605H53.3389V42.7211C52.2173 42.4715 51.2432 41.9848 50.4819 41.2879C49.4934 40.3827 48.8916 39.1613 48.7414 37.7562L48.5989 36.4216H53.1102L53.3104 37.3828C53.319 37.4237 53.3283 37.4634 53.3385 37.5028V35.5199C52.0093 35.0429 51.0594 34.4975 50.3863 33.8313C49.4922 32.946 49.0579 31.8286 49.0579 30.4149C49.0579 29.6779 49.2011 28.9802 49.4832 28.3417C49.7576 27.7214 50.1568 27.1701 50.6696 26.7037C51.3915 26.0469 52.3004 25.5875 53.3385 25.3488V23.6361H57.1094V25.3874C57.5532 25.4948 57.9688 25.64 58.352 25.8222C58.9893 26.1248 59.5426 26.5301 59.9957 27.0265C60.7305 27.8312 61.2 28.8914 61.3183 30.0115L61.4587 31.3446H57.1094V32.0053C58.5635 32.5107 59.6367 33.15 60.3758 33.9473C61.2367 34.8767 61.655 36.0112 61.655 37.4159C61.655 39.0068 61.0989 40.3582 60.0468 41.3237V41.3233Z" fill="#0E4C9A"/>
<path d="M39.719 49.9056C41.1384 46.8481 41.2793 43.4223 40.1155 40.2594C39.2067 37.7886 37.5774 35.6975 35.4029 34.2114C33.2769 32.7584 30.7976 31.9902 28.2333 31.9902C26.7519 31.9902 25.2908 32.2503 23.8898 32.7631C17.345 35.1591 13.9741 42.421 16.3756 48.9505C17.539 52.1135 19.8676 54.6357 22.9322 56.0513C24.6235 56.8327 26.4272 57.2259 28.2376 57.2259H28.2384C29.7073 57.2259 31.1808 56.967 32.6013 56.4472C35.7717 55.2866 38.2997 52.9634 39.7187 49.906L39.719 49.9056ZM30.2891 52.5469C29.5285 52.9977 28.6731 53.2262 27.7467 53.2262C27.0469 53.2262 26.3191 53.095 25.5734 52.835L25.0528 53.7098L24.435 54.7474L23.395 54.1311L22.2329 53.4427L21.1928 52.8264L21.8106 51.7888L22.339 50.9007C21.5023 50.1147 20.9138 49.2001 20.6161 48.2131C20.2293 46.9314 20.337 45.5746 20.9271 44.2902L21.4879 43.07L22.6446 43.7552L24.5205 44.8668L25.3665 45.3683L25.0469 46.2968C25.0333 46.3361 25.0212 46.3755 25.0099 46.4144L26.0249 44.7095C25.1262 43.6221 24.5884 42.6694 24.3507 41.7536C24.0354 40.537 24.2337 39.3549 24.9572 38.1394C25.4372 37.3327 26.0756 36.7067 26.8549 36.278C27.5995 35.8684 28.4323 35.6609 29.3303 35.6609C29.9508 35.6609 30.5939 35.7652 31.2292 35.9661L31.4891 35.5297L32.1069 34.4921L33.1469 35.1084L34.3091 35.7968L35.3491 36.4131L34.7313 37.4507L34.4527 37.9187C34.7793 38.2372 35.0618 38.5735 35.2983 38.9255C35.6917 39.5103 35.9598 40.1402 36.0952 40.7982C36.3149 41.8646 36.1764 43.0151 35.7046 44.0387L35.143 45.2565L33.9879 44.5721L32.1432 43.4792L31.4037 43.0412L31.0653 43.6092C32.0569 44.7842 32.6528 45.881 32.8796 46.9431C33.1442 48.1808 32.9233 49.3695 32.2045 50.5772C31.6948 51.4337 31.0501 52.0968 30.2887 52.548L30.2891 52.5469Z" fill="#0E4C9A"/>
<path d="M63.2747 66.9479C63.8909 65.3629 64.177 63.7031 64.1251 62.015C64.0751 60.3848 63.7134 58.7979 63.0503 57.2982C62.3873 55.7984 61.4566 54.4618 60.2843 53.3257C59.0698 52.1488 57.6485 51.2405 56.0599 50.6257C54.5953 50.0588 53.0612 49.7715 51.501 49.7715C48.978 49.7715 46.532 50.5163 44.4278 51.9257C42.274 53.3682 40.6388 55.4079 39.6991 57.8238C37.1777 64.3082 40.4141 71.6304 46.914 74.1463C48.3786 74.7132 49.9123 75.0005 51.4729 75.0005H51.4741C53.9966 75.0005 56.4419 74.2557 58.5461 72.8463C60.6999 71.4038 62.335 69.3641 63.2747 66.9483V66.9479ZM59.1221 67.3898C58.6261 68.1007 58.0404 68.6649 57.3726 69.0729C56.5722 69.5627 55.6477 69.8212 54.6991 69.8212C54.2202 69.8212 53.7426 69.7573 53.2782 69.6316L51.9814 69.28L52.4672 68.0302L53.243 66.0345L53.5541 65.2344L52.9371 64.9957C52.2709 65.7775 51.6173 66.3732 50.9527 66.8046C50.0754 67.3742 49.1544 67.6631 48.2163 67.6631C47.5735 67.6631 46.9257 67.5334 46.2362 67.2664C44.7493 66.6909 43.6878 65.6849 43.1661 64.3568C42.9155 63.7195 42.7926 63.0152 42.8008 62.2634C42.8047 61.8919 42.841 61.5077 42.9085 61.114L41.9575 60.7461L40.8297 60.3097L41.2671 59.1845L41.7561 57.9273L42.1936 56.8021L43.3214 57.2386L44.2865 57.612C45.4416 55.8891 47.1283 54.922 49.0413 54.922C49.5525 54.922 50.0735 54.9925 50.589 55.1315L51.8877 55.4819L51.4011 56.7332L50.612 58.7625L50.2561 59.6778L49.2852 59.5166C49.2442 59.5096 49.2036 59.5041 49.163 59.4995L51.0151 60.2162C51.6352 59.5022 52.2093 58.9715 52.7876 58.5748C53.6477 57.9849 54.5145 57.698 55.4378 57.698C56.0474 57.698 56.6679 57.8234 57.3348 58.0815C58.0236 58.3482 58.6238 58.7336 59.1182 59.2273C59.5986 59.707 59.9693 60.2774 60.2199 60.9229C60.5723 61.832 60.673 62.8435 60.5208 63.8951L60.9934 64.0781L62.1212 64.5145L61.6837 65.6397L61.1951 66.8969L60.7576 68.0221L59.6298 67.5856L59.1213 67.389L59.1221 67.3898Z" fill="#0E4C9A"/>
<path d="M16.6091 27.4148H17.086H17.1364C18.926 27.4148 22.56 27.4148 25.7593 27.4148C27.1704 27.4148 28.4965 27.4148 29.5431 27.4148C30.5991 27.4148 31.6461 27.5729 32.6549 27.8851L43.1026 31.1174L43.3415 31.1914C43.3091 31.5764 43.2931 31.9634 43.2931 32.3512C43.2931 39.9725 49.5078 46.1727 57.1468 46.1727C64.7859 46.1727 71.0002 39.9725 71.0002 32.3512C71.0002 24.7299 64.7855 18.5301 57.1468 18.5301C56.9884 18.5301 56.8307 18.5336 56.6731 18.5387L56.2988 17.9574L51.1476 9.95613L51.1464 9.95419L51.1452 9.95224L51.1425 9.94796L51.1398 9.94368L51.137 9.93939C50.3331 8.72194 49.3969 7.63257 48.3546 6.70127C47.3957 5.84473 46.4619 5.21907 45.4995 4.78807C44.5075 4.34423 43.487 4.11919 42.4654 4.11919L16.633 4.10829H16.6033L16.6029 2.46996C16.6029 1.1357 15.5157 0.0502245 14.1799 0.0486672L3.1706 0H3.16591H3.16084C2.51537 0.00233602 1.90854 0.254237 1.45234 0.709762C0.993799 1.16723 0.741699 1.77538 0.741699 2.42246L0.747943 28.8943C0.747943 29.5414 1.00082 30.1495 1.45936 30.6066C1.91712 31.0633 2.52552 31.3148 3.17216 31.3156L14.1771 31.365H14.1799H14.1826H14.1904C15.5246 31.3603 16.6099 30.2737 16.6095 28.9426V27.4148H16.6091ZM57.1465 19.7371C64.1182 19.7371 69.7901 25.3957 69.7901 32.3512C69.7901 39.3067 64.1182 44.9657 57.1465 44.9657C50.1747 44.9657 44.5024 39.3071 44.5024 32.3512C44.5024 31.2381 44.6484 30.1328 44.936 29.066L45.0305 28.7152L45.3942 28.7354C45.4753 28.7401 45.5565 28.7424 45.6349 28.7424C46.4599 28.7424 47.3751 28.5178 48.6941 27.9918L48.7214 27.9809L48.7499 27.9735C49.4617 27.7928 50.0237 27.2988 50.2922 26.6186C50.5868 25.8715 50.4767 25.0134 49.9975 24.3231L48.9091 22.7727L49.2369 22.5103C50.353 21.616 51.6007 20.9234 52.9454 20.4511C54.2941 19.9777 55.7076 19.7375 57.1465 19.7375V19.7371ZM42.465 5.32691C44.1723 5.32691 45.8344 6.07094 47.5468 7.60103C48.5115 8.46303 49.3794 9.47336 50.1263 10.604L50.129 10.6083L55.2803 18.6095L54.6223 18.7302C52.4221 19.1336 50.3284 20.0781 48.5673 21.4614L48.1942 21.7542L39.8089 9.81052C39.6888 9.63921 39.4964 9.54733 39.3008 9.54733C39.1783 9.54733 39.0542 9.58354 38.9465 9.65907C38.6667 9.85452 38.5988 10.2404 38.7947 10.5195L48.9786 25.0258C49.2264 25.384 49.2841 25.7983 49.1394 26.1658C49.0118 26.4897 48.7503 26.7097 48.4037 26.7852C48.3698 26.7926 48.3366 26.8028 48.3046 26.8156C47.1171 27.2933 46.3167 27.5079 45.6443 27.5079C45.418 27.5079 45.2061 27.4837 44.9992 27.437C44.0638 27.226 43.0956 26.4804 41.8601 25.0204L41.8394 24.9939C41.8125 24.9565 41.7653 24.8857 41.7013 24.7899C41.1619 23.9777 39.7289 21.8208 37.5701 21.3388C35.6536 20.9109 34.5699 20.5683 34.214 20.4558C34.1601 20.4387 34.1254 20.4278 34.0961 20.4192L34.0914 20.418C32.0231 19.7931 29.0506 15.5451 27.6929 12.8711C27.6184 12.7239 27.4904 12.6145 27.3331 12.5631C27.2699 12.5425 27.2047 12.532 27.1396 12.532C27.0436 12.532 26.9484 12.5546 26.8605 12.599C26.5562 12.7527 26.4336 13.1253 26.5878 13.4294C27.1247 14.4872 28.203 16.307 29.4744 17.9543C31.0541 20.001 32.4895 21.229 33.7406 21.6036L33.7519 21.6071C33.7664 21.6113 33.787 21.618 33.8148 21.6265L33.8389 21.6343C34.2077 21.7511 35.3293 22.1058 37.2989 22.5454C38.9711 22.9187 40.2039 24.7743 40.6683 25.4728C40.7721 25.6289 40.8404 25.7321 40.9024 25.8053C41.8894 26.9733 42.7276 27.7286 43.5405 28.1822L43.8468 28.3531L43.7543 28.691C43.6818 28.9566 43.617 29.2233 43.5616 29.4845L43.4601 29.9654L33.0124 26.7331C31.8873 26.385 30.7197 26.2086 29.5419 26.2086C28.4953 26.2086 27.1692 26.2086 25.7585 26.2086C22.5292 26.2086 18.8566 26.2086 17.0852 26.2086H16.6365L16.6314 5.31679L42.4642 5.32769L42.465 5.32691ZM14.1861 30.1585H14.1826L3.17528 30.109H3.17489C2.85059 30.109 2.54503 29.9829 2.31479 29.7536C2.08454 29.5242 1.9581 29.219 1.95771 28.8947L1.95147 2.42285C1.95147 2.09814 2.07791 1.79329 2.30776 1.56358C2.53684 1.33504 2.84084 1.2085 3.16474 1.20734L14.1767 1.25678C14.8464 1.25678 15.3927 1.80146 15.3927 2.47151L15.399 28.9433C15.399 29.6111 14.8546 30.1561 14.1853 30.1585H14.1861Z" fill="#2B2C2C"/>
<path d="M42.768 48.4659C44.3231 45.1161 44.4773 41.3625 43.2028 37.8966C42.2068 35.1891 40.4211 32.8971 38.0382 31.2685C35.7096 29.6769 32.9943 28.8359 30.1849 28.8359C28.5611 28.8359 26.9595 29.1209 25.425 29.6827C18.2539 32.308 14.5606 40.2645 17.192 47.419C18.4669 50.8849 21.018 53.648 24.3757 55.1991C26.2231 56.0526 28.179 56.4855 30.1896 56.4855C31.8165 56.4855 33.4247 56.1986 34.9697 55.6329C38.4437 54.3609 41.2133 51.8158 42.768 48.4659ZM34.5529 54.4999C33.1328 55.0197 31.6592 55.2786 30.19 55.2786H30.1892C28.3792 55.2786 26.5755 54.8857 24.8838 54.1039C21.8192 52.6879 19.4906 50.1662 18.3272 47.0032C15.9256 40.4736 19.2962 33.2117 25.8414 30.8157C27.242 30.303 28.7035 30.0429 30.1849 30.0429C32.7488 30.0429 35.228 30.811 37.3545 32.2641C39.529 33.7502 41.1582 35.8417 42.0671 38.312C43.2305 41.475 43.0896 44.9008 41.6706 47.9582C40.2513 51.0157 37.7237 53.3385 34.5533 54.4995L34.5529 54.4999Z" fill="#2B2C2C"/>
<path d="M66.1091 54.8641C65.3832 53.2215 64.3635 51.7576 63.0788 50.5129C61.7473 49.2226 60.1898 48.2267 58.4489 47.5532C56.8442 46.9322 55.163 46.6172 53.4526 46.6172C50.6885 46.6172 48.0094 47.4328 45.705 48.9762C43.3444 50.5573 41.5524 52.7921 40.5229 55.44C37.76 62.545 41.3061 70.5677 48.4278 73.3242C50.0325 73.9452 51.7132 74.2601 53.4241 74.2601C56.189 74.2601 58.8677 73.4445 61.1717 71.9011C63.5323 70.32 65.3243 68.0849 66.3538 65.4374C67.0289 63.7009 67.3427 61.8819 67.2857 60.031C67.2306 58.2451 66.8349 56.5067 66.1087 54.8641H66.1091ZM65.2263 65.0009C64.287 67.4171 62.6519 69.4565 60.4977 70.899C58.3935 72.308 55.9482 73.0532 53.4257 73.0532H53.4245C51.8639 73.0532 50.3298 72.7655 48.8656 72.199C42.3661 69.6831 39.1293 62.3612 41.6507 55.8764C42.5901 53.4606 44.2252 51.4208 46.3794 49.9783C48.4836 48.5689 50.9296 47.8241 53.4526 47.8241C55.0128 47.8241 56.5469 48.1115 58.0114 48.6783C59.6001 49.2931 61.0214 50.2018 62.2359 51.3784C63.4086 52.5145 64.3389 53.8511 65.0019 55.3508C65.665 56.8505 66.0263 58.4375 66.0767 60.0676C66.1286 61.7562 65.8425 63.4155 65.2263 65.0005V65.0009Z" fill="#2B2C2C"/>
<path d="M51.4356 26.3944C51.153 27.0329 51.0102 27.7306 51.0102 28.4676C51.0102 29.8809 51.4449 30.9987 52.3386 31.8841C53.0114 32.5506 53.9616 33.0957 55.2908 33.5726V35.5555C55.2807 35.5166 55.2709 35.4765 55.2627 35.4356L55.0625 34.4743H50.5513L50.6937 35.809C50.8436 37.2141 51.4453 38.4354 52.4342 39.3406C53.1956 40.0379 54.1696 40.5242 55.2912 40.7738V43.0133H59.0622V40.7886C59.4544 40.7092 59.8267 40.604 60.1752 40.4732C60.8803 40.2089 61.4942 39.8398 61.9992 39.3761C63.0513 38.4105 63.6074 37.0591 63.6074 35.4683C63.6074 34.0636 63.189 32.929 62.3281 31.9997C61.5894 31.2019 60.5158 30.563 59.0618 30.0577V29.397H63.4111L63.2706 28.0639C63.1524 26.9438 62.6829 25.8836 61.948 25.0788C61.495 24.5824 60.942 24.1775 60.3043 23.8746C59.9211 23.6928 59.5055 23.5476 59.0618 23.4397V21.6885H55.2908V23.4012C54.2528 23.6398 53.3439 24.0993 52.6219 24.7561C52.1091 25.2225 51.7099 25.7734 51.4356 26.394V26.3944ZM56.5002 24.4376V22.8958H57.8516V24.4586C60.9221 24.7623 61.9133 26.7327 62.0671 28.1904H59.9215C59.6866 27.2934 59.1792 26.4232 57.8516 26.1631V30.9426C61.3576 31.9386 62.3972 33.4422 62.3972 35.4687C62.3972 38.0371 60.6653 39.5295 57.8516 39.737V41.8067H56.5002V39.7366C53.7412 39.5166 52.131 37.8818 51.8961 35.6813H54.0779C54.3558 37.0151 55.2967 37.7942 56.5002 38.0064V32.7001C53.3821 31.754 52.2196 30.5957 52.2196 28.4672C52.2196 26.139 54.0381 24.621 56.5002 24.4372V24.4376Z" fill="#2B2C2C"/>
<path d="M60.1634 35.7068C60.1634 34.5404 59.6576 33.7567 57.8516 33.1123V38.0328C59.3848 37.8692 60.1634 37.0925 60.1634 35.7068Z" fill="#2B2C2C"/>
<path d="M56.5 30.5404V26.1074C54.9554 26.2628 54.3911 27.1847 54.3911 28.2153C54.3911 29.2459 54.8664 29.9619 56.5 30.5404Z" fill="#2B2C2C"/>
<path d="M37.2502 36.9773C37.0137 36.6258 36.7308 36.289 36.4045 35.9705L36.6832 35.5025L37.3009 34.4649L36.2609 33.8486L35.0988 33.1603L34.0588 32.5439L33.441 33.5815L33.1811 34.018C32.5454 33.8171 31.9026 33.7127 31.2821 33.7127C30.3842 33.7127 29.5514 33.9203 28.8068 34.3298C28.0279 34.7585 27.389 35.3849 26.909 36.1913C26.1855 37.4064 25.9873 38.5888 26.3026 39.8055C26.5399 40.7212 27.0776 41.6739 27.9768 42.7613L26.9617 44.4662C26.973 44.4273 26.9851 44.3884 26.9988 44.3487L27.3184 43.4201L26.4724 42.9186L24.5964 41.8071L23.4397 41.1218L22.879 42.342C22.2889 43.6264 22.1812 44.9833 22.5679 46.265C22.8657 47.2523 23.4542 48.1665 24.2909 48.9526L23.7625 49.8406L23.1447 50.8782L24.1847 51.4946L25.3469 52.1829L26.3869 52.7992L27.0046 51.7616L27.5252 50.8868C28.271 51.1469 28.9988 51.2781 29.6985 51.2781C30.6246 51.2781 31.48 51.0495 32.241 50.5987C33.0024 50.1474 33.647 49.484 34.1567 48.6279C34.8755 47.4201 35.0964 46.2315 34.8318 44.9938C34.6047 43.9317 34.0088 42.8353 33.0176 41.6599L33.3559 41.0918L34.0954 41.5298L35.9401 42.6227L37.0953 43.3072L37.6568 42.0893C38.1286 41.0662 38.2672 39.9153 38.0475 38.8489C37.9117 38.1913 37.6436 37.5613 37.2506 36.9762L37.2502 36.9773ZM36.5575 41.5859L34.7128 40.493C34.97 39.6022 34.979 38.5954 33.9706 37.6957L31.5245 41.8051C34.0291 44.4472 34.1536 46.27 33.1167 48.0123C32.2917 49.398 31.098 50.0719 29.6985 50.0719C28.8677 50.0719 27.9647 49.834 27.0238 49.3668L25.9646 51.1465L24.8025 50.4581L25.862 48.6781C23.6021 47.0834 23.0546 44.8575 23.9787 42.8458L25.8546 43.9574C25.4109 45.2461 25.821 46.3946 26.7475 47.1908L29.4632 42.6286C27.2665 40.2267 26.8599 38.6386 27.949 36.8084C28.7057 35.5368 29.9256 34.9201 31.2818 34.9205C32.0607 34.9205 32.8853 35.1241 33.6919 35.5239L34.481 34.1982L35.6432 34.8866L34.8432 36.2302C37.3279 38.0554 37.1714 40.2548 36.5579 41.5859H36.5575Z" fill="#2B2C2C"/>
<path d="M27.8955 47.9024C28.3872 48.1271 28.8376 48.2396 29.2458 48.2396C30.0017 48.2396 30.6132 47.8537 31.0737 47.0801C31.6708 46.0772 31.6372 45.1459 30.4138 43.6719L27.8955 47.9024Z" fill="#2B2C2C"/>
<path d="M29.9447 37.6979C29.3952 38.6215 29.4596 39.4418 30.5679 40.7714L32.8368 36.9598C32.3931 36.7538 31.9943 36.6631 31.6392 36.6631C30.8684 36.6631 30.3057 37.0914 29.9447 37.6979Z" fill="#2B2C2C"/>
<path d="M62.4733 61.9496C62.6255 60.898 62.5248 59.8861 62.1724 58.9774C61.9219 58.3319 61.5516 57.7611 61.0708 57.2819C60.5763 56.7882 59.9761 56.4027 59.2873 56.136C58.6204 55.8779 57.9999 55.7525 57.3903 55.7525C56.467 55.7525 55.6003 56.0395 54.7402 56.6293C54.1618 57.0261 53.5874 57.5567 52.9677 58.2708L51.1156 57.554C51.1558 57.5587 51.1967 57.5641 51.2377 57.5711L52.2086 57.7323L52.5645 56.817L53.3536 54.7878L53.8403 53.5364L52.5415 53.186C52.0256 53.047 51.505 52.9766 50.9938 52.9766C49.0812 52.9766 47.3942 53.9437 46.239 55.6665L45.274 55.2931L44.1461 54.8567L43.7087 55.9819L43.2197 57.239L42.7822 58.3642L43.91 58.8007L44.8611 59.1686C44.7932 59.5622 44.7573 59.9465 44.7534 60.3179C44.7456 61.0697 44.8685 61.774 45.1186 62.4114C45.6404 63.7394 46.7019 64.7455 48.1887 65.3209C48.8783 65.5876 49.5257 65.7176 50.1688 65.7176C51.1074 65.7176 52.028 65.4287 52.9052 64.8591C53.5694 64.4278 54.2235 63.8321 54.8896 63.0503L55.5066 63.2889L55.1956 64.089L54.4198 66.0848L53.9339 67.3345L55.2307 67.6861C55.6947 67.8119 56.1728 67.8757 56.6516 67.8757C57.6003 67.8757 58.5248 67.6168 59.3252 67.1274C59.9925 66.719 60.5783 66.1549 61.0747 65.4443L61.5832 65.6409L62.711 66.0774L63.1484 64.9522L63.637 63.695L64.0745 62.5698L62.9467 62.1334L62.4741 61.9504L62.4733 61.9496ZM62.0195 64.515L60.5592 63.9496C59.491 66.0532 57.9507 66.668 56.6508 66.668C56.2539 66.668 55.8789 66.6104 55.5472 66.5208L56.323 64.5251C56.4748 64.5426 56.6282 64.5527 56.7823 64.5527C57.566 64.5527 58.3617 64.2864 58.9658 63.3329L54.4994 61.6043C52.9033 63.7102 51.5273 64.5103 50.1684 64.5103C49.6556 64.5103 49.1448 64.3962 48.6262 64.1953C46.2258 63.2664 45.4578 61.1157 46.2816 58.4234L44.3475 57.6747L44.8361 56.4175L46.7706 57.1662C47.7415 55.1604 49.3021 54.1827 50.993 54.1827C51.3985 54.1827 51.8114 54.2388 52.225 54.3505L51.436 56.3798C51.2451 56.3482 51.0605 56.3326 50.8814 56.3326C49.7954 56.3326 48.9314 56.8968 48.387 57.7919L53.3454 59.7109C54.8385 57.8129 56.0506 56.9587 57.39 56.9587C57.8555 56.9587 58.3363 57.0619 58.8495 57.2604C61.0255 58.1026 61.7857 60.3428 61.0673 62.6995L62.508 63.257L62.0195 64.5142V64.515Z" fill="#2B2C2C"/>
<path d="M58.2997 59.3715C58.0062 59.2578 57.7299 59.1943 57.4579 59.1943C56.7996 59.1943 56.1647 59.565 55.3643 60.492L59.5067 62.0953C59.9204 60.6026 59.2628 59.7441 58.2997 59.3715Z" fill="#2B2C2C"/>
<path d="M49.211 62.0307C49.5368 62.1569 49.8467 62.2285 50.155 62.2285C50.8781 62.2285 51.5915 61.8333 52.4715 60.8187L47.8736 59.0391C47.4716 60.524 47.9161 61.5293 49.211 62.0303V62.0307Z" fill="#2B2C2C"/>
</g>
<defs>
<clipPath id="clip0_853_3325">
<rect width="71" height="75" fill="white"/>
</clipPath>
</defs>
</svg>
