<svg width="28" height="21" viewBox="0 0 28 21" fill="none" xmlns="http://www.w3.org/2000/svg">
<path d="M9.7801 5.27862C9.7801 7.76459 11.7954 9.77988 14.2814 9.77988C16.7673 9.77988 18.7826 7.76459 18.7826 5.27862C18.7826 2.79264 16.7673 0.777362 14.2814 0.777362" stroke="#0E4C9A" stroke-width="1.5" stroke-linecap="round"/>
<path d="M6.4041 16.4585C6.4041 15.4903 7.01273 14.6267 7.9245 14.3011V14.3011C12.0352 12.8329 16.5274 12.8329 20.6381 14.3011V14.3011C21.5499 14.6267 22.1585 15.4903 22.1585 16.4585V18.0805C22.1585 19.342 21.0412 20.311 19.7924 20.1326L18.239 19.9107C15.6138 19.5357 12.9487 19.5357 10.3236 19.9107L8.77022 20.1326C7.5214 20.311 6.4041 19.342 6.4041 18.0805V16.4585Z" stroke="#0E4C9A" stroke-width="1.5"/>
<path d="M21.0333 9.90469C22.9865 9.90469 24.57 8.32125 24.57 6.36799C24.57 4.41472 22.9865 2.83129 21.0333 2.83129" stroke="#0E4C9A" stroke-width="1.5" stroke-linecap="round"/>
<path d="M24.9069 17.9734L25.2534 18.0229C26.2927 18.1714 27.2226 17.3649 27.2226 16.315V15.1518C27.2226 14.3911 26.7444 13.7126 26.028 13.4567C25.3134 13.2015 24.5842 13.0027 23.8467 12.8604" stroke="#0E4C9A" stroke-width="1.5" stroke-linecap="round"/>
<path d="M6.9667 9.90469C5.01343 9.90469 3.43 8.32125 3.43 6.36799C3.43 4.41472 5.01343 2.83129 6.9667 2.83129" stroke="#0E4C9A" stroke-width="1.5" stroke-linecap="round"/>
<path d="M3.09313 17.9734L2.7466 18.0229C1.70725 18.1714 0.77736 17.3649 0.77736 16.315V15.1518C0.77736 14.3911 1.25557 13.7126 1.97196 13.4567C2.68657 13.2015 3.41585 13.0027 4.1533 12.8604" stroke="#0E4C9A" stroke-width="1.5" stroke-linecap="round"/>
</svg>
